<svg width="1022" height="254" viewBox="0 0 1022 254" fill="none" xmlns="http://www.w3.org/2000/svg">
<path d="M16.4984 94H0.41531L37.728 7.15145H50.2085L87.6499 94H71.5668L64.3616 76.8876H23.7036L16.4984 94ZM58.443 62.8632L44.0326 28.8957L29.6222 62.8632H58.443ZM142.752 94H127.441V7.15145H142.752V43.0488H187.399V7.15145H202.71V94H187.399V57.2019H142.752V94ZM231.149 98.6319L233.465 92.7134L211.077 36.101H225.488L240.284 75.215L255.467 36.101H269.748L242.857 103.264C240.198 110.04 236.767 115.015 232.564 118.189C228.361 121.363 223.086 122.95 216.739 122.95H214.809V109.697H216.739C223.343 109.697 228.147 106.009 231.149 98.6319ZM276.392 94V0.71822H290.287V40.7329C295.262 36.5298 301.095 34.4283 307.786 34.4283C315.849 34.4283 322.539 37.3876 327.857 43.3062C333.261 49.139 335.963 56.3871 335.963 65.0505C335.963 73.7997 333.261 81.0907 327.857 86.9235C322.539 92.7562 315.849 95.6726 307.786 95.6726C301.095 95.6726 295.262 93.5711 290.287 89.3681V94H276.392ZM305.984 48.3241C301.696 48.3241 298.05 49.9538 295.048 53.2133C292.046 56.4728 290.545 60.4186 290.545 65.0505C290.545 69.7682 292.046 73.7568 295.048 77.0163C297.964 80.19 301.61 81.7769 305.984 81.7769C310.445 81.7769 314.133 80.19 317.05 77.0163C320.052 73.7568 321.553 69.7682 321.553 65.0505C321.553 60.4186 320.052 56.4728 317.05 53.2133C314.047 49.9538 310.359 48.3241 305.984 48.3241ZM359.379 36.101V43.1775C363.668 37.3447 369.458 34.4283 376.749 34.4283C377.693 34.4283 378.293 34.4712 378.55 34.557V49.8681C376.577 49.0961 374.647 48.7101 372.76 48.7101C368.986 48.7101 365.813 49.9967 363.239 52.57C360.666 55.1433 359.379 58.317 359.379 62.0912V94H345.484V36.101H359.379ZM399.823 94H385.927V36.101H399.823V94ZM384.126 17.7019C384.126 15.1286 384.941 13.0271 386.571 11.3974C388.286 9.68185 390.388 8.82408 392.875 8.82408C395.363 8.82408 397.464 9.68185 399.18 11.3974C400.895 13.0271 401.753 15.1286 401.753 17.7019C401.753 20.1895 400.895 22.291 399.18 24.0065C397.464 25.6362 395.363 26.4511 392.875 26.4511C390.388 26.4511 388.286 25.6362 386.571 24.0065C384.941 22.291 384.126 20.1895 384.126 17.7019ZM409.357 65.0505C409.357 56.3871 412.059 49.139 417.463 43.3062C422.867 37.3876 429.601 34.4283 437.664 34.4283C444.354 34.4283 450.187 36.5298 455.162 40.7329V0.71822H468.929V94H455.162V89.3681C450.187 93.5711 444.354 95.6726 437.664 95.6726C429.601 95.6726 422.867 92.7562 417.463 86.9235C412.059 81.0907 409.357 73.7997 409.357 65.0505ZM454.905 65.0505C454.905 60.4186 453.404 56.4728 450.401 53.2133C447.399 49.9538 443.711 48.3241 439.336 48.3241C434.962 48.3241 431.273 49.9538 428.271 53.2133C425.269 56.4728 423.768 60.4186 423.768 65.0505C423.768 69.7682 425.269 73.7568 428.271 77.0163C431.187 80.19 434.876 81.7769 439.336 81.7769C443.797 81.7769 447.485 80.19 450.401 77.0163C453.404 73.7568 454.905 69.7682 454.905 65.0505ZM523.745 82.8062C515.168 74.2286 510.879 63.5065 510.879 50.6401C510.879 37.7736 515.253 27.0087 524.003 18.3453C532.666 9.76763 543.602 5.47881 556.812 5.47881C565.818 5.47881 573.924 7.62322 581.13 11.912C588.421 16.2009 593.91 22.0336 597.599 29.4104L582.674 34.943C580.1 30.3111 576.541 26.7085 571.994 24.1352C567.448 21.5619 562.387 20.2752 556.812 20.2752C548.406 20.2752 541.286 23.1916 535.454 29.0244C529.707 34.7714 526.833 41.9338 526.833 50.5114C526.833 59.2606 529.578 66.5087 535.068 72.2557C540.557 78.0027 547.377 80.8762 555.525 80.8762C561.873 80.8762 567.663 78.9891 572.895 75.215C577.956 71.5266 581.344 66.6373 583.06 60.5472H553.981V46.5228H600.429C600.601 48.753 600.687 50.1683 600.687 50.7687C600.515 63.6352 596.183 74.3143 587.691 82.8062C579.2 91.3838 568.606 95.6726 555.911 95.6726C543.045 95.6726 532.323 91.3838 523.745 82.8062ZM625.303 36.101V43.1775C629.592 37.3447 635.381 34.4283 642.672 34.4283C643.616 34.4283 644.216 34.4712 644.474 34.557V49.8681C642.501 49.0961 640.571 48.7101 638.684 48.7101C634.91 48.7101 631.736 49.9967 629.163 52.57C626.589 55.1433 625.303 58.317 625.303 62.0912V94H611.407V36.101H625.303ZM678.655 34.4283C687.404 34.4283 694.695 37.3447 700.528 43.1775C706.361 49.0103 709.277 56.3013 709.277 65.0505C709.277 73.7997 706.361 81.0907 700.528 86.9235C694.695 92.7562 687.404 95.6726 678.655 95.6726C669.82 95.6726 662.486 92.7562 656.654 86.9235C650.821 81.0907 647.904 73.7997 647.904 65.0505C647.904 56.3013 650.821 49.0103 656.654 43.1775C662.486 37.3447 669.82 34.4283 678.655 34.4283ZM678.655 81.7769C683.201 81.7769 687.018 80.19 690.106 77.0163C693.194 73.7568 694.738 69.7682 694.738 65.0505C694.738 60.3328 693.194 56.3871 690.106 53.2133C687.018 49.9538 683.201 48.3241 678.655 48.3241C674.109 48.3241 670.206 49.9538 666.947 53.2133C663.859 56.3871 662.315 60.3328 662.315 65.0505C662.315 69.7682 663.859 73.7568 666.947 77.0163C670.121 80.19 674.023 81.7769 678.655 81.7769ZM742.419 94H729.938L711.024 36.101H725.049L736.114 72.513L747.051 36.101H759.66L770.725 72.513L781.661 36.101H795.686L776.901 94H764.292L753.484 59.1319L742.419 94ZM797.459 48.1954V36.101H805.693V24.7785H819.589V36.101H834.514V48.1954H819.589V73.671C819.589 75.7296 820.275 77.4452 821.648 78.8176C823.02 80.1042 824.693 80.7476 826.666 80.7476H834.514V94H825.508C820.018 94 815.3 92.2416 811.355 88.7248C807.58 85.2079 805.693 80.8762 805.693 75.7296V48.1954H797.459ZM843.169 94V0.71822H857.065V43.1775C861.439 37.3447 867.401 34.4283 874.949 34.4283C881.64 34.4283 887.215 36.5727 891.675 40.8616C896.136 45.0646 898.366 50.4685 898.366 57.0733V94H884.47V60.9332C884.47 57.1591 883.184 54.0282 880.61 51.5407C878.037 48.9674 874.778 47.6808 870.832 47.6808C866.886 47.6808 863.584 48.9674 860.925 51.5407C858.351 54.0282 857.065 57.1591 857.065 60.9332V94H843.169ZM6.84854 136.151H70.4088V150.305H22.1596V172.049H63.7183V186.202H22.1596V208.847H71.0521V223H6.84854V136.151ZM80.9271 223V165.101H94.8229V172.178C99.1117 166.345 104.902 163.428 112.193 163.428C118.797 163.428 124.244 165.573 128.533 169.862C132.908 174.065 135.095 179.426 135.095 185.945V223H121.199V189.933C121.199 186.159 119.955 183.028 117.468 180.541C114.98 177.967 111.85 176.681 108.075 176.681C104.387 176.681 101.256 177.967 98.6828 180.541C96.1095 183.114 94.8229 186.245 94.8229 189.933V223H80.9271ZM144.565 194.05C144.565 185.387 147.267 178.139 152.671 172.306C158.075 166.388 164.808 163.428 172.871 163.428C179.562 163.428 185.394 165.53 190.369 169.733V165.101H204.136V223H190.369V218.368C185.394 222.571 179.562 224.673 172.871 224.673C164.808 224.673 158.075 221.756 152.671 215.923C147.267 210.091 144.565 202.8 144.565 194.05ZM190.112 194.05C190.112 189.419 188.611 185.473 185.609 182.213C182.607 178.954 178.918 177.324 174.544 177.324C170.169 177.324 166.481 178.954 163.478 182.213C160.476 185.473 158.975 189.419 158.975 194.05C158.975 198.768 160.476 202.757 163.478 206.016C166.395 209.19 170.083 210.777 174.544 210.777C179.004 210.777 182.692 209.19 185.609 206.016C188.611 202.757 190.112 198.768 190.112 194.05ZM215.97 223V129.718H229.865V169.733C234.84 165.53 240.673 163.428 247.364 163.428C255.427 163.428 262.117 166.388 267.435 172.306C272.839 178.139 275.541 185.387 275.541 194.05C275.541 202.8 272.839 210.091 267.435 215.923C262.117 221.756 255.427 224.673 247.364 224.673C240.673 224.673 234.84 222.571 229.865 218.368V223H215.97ZM245.562 177.324C241.274 177.324 237.628 178.954 234.626 182.213C231.624 185.473 230.123 189.419 230.123 194.05C230.123 198.768 231.624 202.757 234.626 206.016C237.542 209.19 241.188 210.777 245.562 210.777C250.023 210.777 253.711 209.19 256.628 206.016C259.63 202.757 261.131 198.768 261.131 194.05C261.131 189.419 259.63 185.473 256.628 182.213C253.625 178.954 249.937 177.324 245.562 177.324ZM298.957 223H285.061V129.718H298.957V223ZM324.575 223H310.679V165.101H324.575V223ZM308.877 146.702C308.877 144.129 309.692 142.027 311.322 140.397C313.038 138.682 315.139 137.824 317.627 137.824C320.114 137.824 322.216 138.682 323.931 140.397C325.647 142.027 326.505 144.129 326.505 146.702C326.505 149.189 325.647 151.291 323.931 153.006C322.216 154.636 320.114 155.451 317.627 155.451C315.139 155.451 313.038 154.636 311.322 153.006C309.692 151.291 308.877 149.189 308.877 146.702ZM336.296 223V165.101H350.192V172.178C354.481 166.345 360.271 163.428 367.562 163.428C374.166 163.428 379.613 165.573 383.902 169.862C388.277 174.065 390.464 179.426 390.464 185.945V223H376.568V189.933C376.568 186.159 375.324 183.028 372.837 180.541C370.349 177.967 367.218 176.681 363.444 176.681C359.756 176.681 356.625 177.967 354.052 180.541C351.478 183.114 350.192 186.245 350.192 189.933V223H336.296ZM399.934 194.05C399.934 185.387 402.636 178.139 408.04 172.306C413.444 166.388 420.177 163.428 428.24 163.428C434.93 163.428 440.763 165.53 445.738 169.733V165.101H459.505V224.673C459.505 232.821 456.718 239.684 451.142 245.259C445.567 250.834 438.662 253.622 430.427 253.622C424.08 253.622 418.204 251.95 412.8 248.604C407.396 245.173 403.751 240.927 401.864 235.866L415.888 232.007C416.832 234.237 418.633 236.081 421.292 237.539C423.951 239.083 426.825 239.855 429.913 239.855C434.459 239.855 438.19 238.397 441.106 235.48C444.194 232.65 445.738 229.09 445.738 224.801V218.368C440.763 222.571 434.93 224.673 428.24 224.673C420.177 224.673 413.444 221.756 408.04 215.923C402.636 210.091 399.934 202.8 399.934 194.05ZM445.481 194.05C445.481 189.419 443.98 185.473 440.978 182.213C437.976 178.954 434.287 177.324 429.913 177.324C425.538 177.324 421.85 178.954 418.847 182.213C415.845 185.473 414.344 189.419 414.344 194.05C414.344 198.768 415.845 202.757 418.847 206.016C421.764 209.19 425.452 210.777 429.913 210.777C434.373 210.777 438.061 209.19 440.978 206.016C443.98 202.757 445.481 198.768 445.481 194.05ZM514.322 211.806C505.744 203.229 501.455 192.507 501.455 179.64C501.455 166.774 505.744 156.052 514.322 147.474C522.985 138.811 533.793 134.479 546.745 134.479C555.494 134.479 563.428 136.666 570.548 141.041C577.753 145.33 583.2 151.119 586.888 158.41L572.092 163.943C569.519 159.311 566.002 155.708 561.541 153.135C557.081 150.562 552.149 149.275 546.745 149.275C538.339 149.275 531.348 152.192 525.773 158.024C520.197 163.857 517.409 171.02 517.409 179.511C517.409 188.175 520.197 195.423 525.773 201.256C531.262 207.003 538.253 209.876 546.745 209.876C552.149 209.876 557.081 208.59 561.541 206.016C566.002 203.443 569.519 199.84 572.092 195.208L586.888 200.741C583.2 208.032 577.753 213.865 570.548 218.239C563.428 222.528 555.494 224.673 546.745 224.673C533.707 224.673 522.899 220.384 514.322 211.806ZM624.39 163.428C633.139 163.428 640.43 166.345 646.263 172.178C652.096 178.01 655.012 185.301 655.012 194.05C655.012 202.8 652.096 210.091 646.263 215.923C640.43 221.756 633.139 224.673 624.39 224.673C615.555 224.673 608.221 221.756 602.388 215.923C596.556 210.091 593.639 202.8 593.639 194.05C593.639 185.301 596.556 178.01 602.388 172.178C608.221 166.345 615.555 163.428 624.39 163.428ZM624.39 210.777C628.936 210.777 632.753 209.19 635.841 206.016C638.929 202.757 640.473 198.768 640.473 194.05C640.473 189.333 638.929 185.387 635.841 182.213C632.753 178.954 628.936 177.324 624.39 177.324C619.844 177.324 615.941 178.954 612.682 182.213C609.594 185.387 608.05 189.333 608.05 194.05C608.05 198.768 609.594 202.757 612.682 206.016C615.855 209.19 619.758 210.777 624.39 210.777ZM678.437 223H664.541V165.101H678.437V171.277C682.297 166.045 687.744 163.428 694.778 163.428C702.669 163.428 708.759 166.602 713.048 172.949C717.079 166.602 723.212 163.428 731.447 163.428C738.052 163.428 743.541 165.487 747.916 169.604C752.291 173.721 754.478 178.825 754.478 184.915V223H740.711V188.904C740.711 185.387 739.553 182.471 737.237 180.155C734.921 177.839 732.047 176.681 728.616 176.681C725.185 176.681 722.312 177.882 719.996 180.283C717.68 182.599 716.522 185.473 716.522 188.904V223H702.626V188.904C702.626 185.387 701.468 182.471 699.152 180.155C696.836 177.839 693.963 176.681 690.532 176.681C687.101 176.681 684.227 177.882 681.911 180.283C679.595 182.599 678.437 185.473 678.437 188.904V223ZM780.072 251.95H766.176V165.101H780.072V169.733C785.047 165.53 790.88 163.428 797.57 163.428C805.633 163.428 812.324 166.345 817.642 172.178C823.046 177.925 825.748 185.216 825.748 194.05C825.748 202.714 823.046 210.005 817.642 215.923C812.324 221.756 805.633 224.673 797.57 224.673C790.88 224.673 785.047 222.571 780.072 218.368V251.95ZM795.769 177.324C791.48 177.324 787.835 178.954 784.833 182.213C781.83 185.473 780.329 189.419 780.329 194.05C780.329 198.768 781.83 202.757 784.833 206.016C787.749 209.19 791.395 210.777 795.769 210.777C800.229 210.777 803.918 209.19 806.834 206.016C809.836 202.757 811.338 198.768 811.338 194.05C811.338 189.419 809.836 185.473 806.834 182.213C803.832 178.954 800.144 177.324 795.769 177.324ZM833.081 194.05C833.081 185.387 835.783 178.139 841.187 172.306C846.591 166.388 853.324 163.428 861.387 163.428C868.078 163.428 873.91 165.53 878.885 169.733V165.101H892.652V223H878.885V218.368C873.91 222.571 868.078 224.673 861.387 224.673C853.324 224.673 846.591 221.756 841.187 215.923C835.783 210.091 833.081 202.8 833.081 194.05ZM878.628 194.05C878.628 189.419 877.127 185.473 874.125 182.213C871.123 178.954 867.434 177.324 863.06 177.324C858.685 177.324 854.997 178.954 851.995 182.213C848.992 185.473 847.491 189.419 847.491 194.05C847.491 198.768 848.992 202.757 851.995 206.016C854.911 209.19 858.599 210.777 863.06 210.777C867.52 210.777 871.208 209.19 874.125 206.016C877.127 202.757 878.628 198.768 878.628 194.05ZM904.486 223V165.101H918.381V172.178C922.67 166.345 928.46 163.428 935.751 163.428C942.356 163.428 947.803 165.573 952.092 169.862C956.466 174.065 958.653 179.426 958.653 185.945V223H944.758V189.933C944.758 186.159 943.514 183.028 941.026 180.541C938.539 177.967 935.408 176.681 931.634 176.681C927.945 176.681 924.815 177.967 922.241 180.541C919.668 183.114 918.381 186.245 918.381 189.933V223H904.486ZM982.851 227.632L985.167 221.713L962.78 165.101H977.19L991.987 204.215L1007.17 165.101H1021.45L994.56 232.264C991.901 239.04 988.47 244.015 984.267 247.189C980.064 250.363 974.788 251.95 968.441 251.95H966.511V238.697H968.441C975.046 238.697 979.849 235.009 982.851 227.632Z" fill="#1E1E1E"/>
</svg>
