<svg width="478" height="84" viewBox="0 0 478 84" fill="none" xmlns="http://www.w3.org/2000/svg">
<path d="M16.176 35H11.52L0.528 2.6H6.384L13.776 25.832L20.976 2.6H25.632L32.88 25.88L40.272 2.6H46.128L35.136 35H30.48L23.328 12.488L16.176 35ZM48.7046 35V0.199999H53.8886V16.04C55.5206 13.864 57.7446 12.776 60.5606 12.776C63.0566 12.776 65.1366 13.576 66.8006 15.176C68.4646 16.744 69.2966 18.76 69.2966 21.224V35H64.1126V22.664C64.1126 21.256 63.6326 20.088 62.6726 19.16C61.7126 18.2 60.4966 17.72 59.0246 17.72C57.5526 17.72 56.3206 18.2 55.3286 19.16C54.3686 20.088 53.8886 21.256 53.8886 22.664V35H48.7046ZM72.8674 24.2C72.8674 20.968 73.8754 18.264 75.8914 16.088C77.9074 13.88 80.4194 12.776 83.4274 12.776C85.9234 12.776 88.0994 13.56 89.9554 15.128V13.4H95.0914V35H89.9554V33.272C88.0994 34.84 85.9234 35.624 83.4274 35.624C80.4194 35.624 77.9074 34.536 75.8914 32.36C73.8754 30.184 72.8674 27.464 72.8674 24.2ZM89.8594 24.2C89.8594 22.472 89.2994 21 88.1794 19.784C87.0594 18.568 85.6834 17.96 84.0514 17.96C82.4194 17.96 81.0434 18.568 79.9234 19.784C78.8034 21 78.2434 22.472 78.2434 24.2C78.2434 25.96 78.8034 27.448 79.9234 28.664C81.0114 29.848 82.3874 30.44 84.0514 30.44C85.7154 30.44 87.0914 29.848 88.1794 28.664C89.2994 27.448 89.8594 25.96 89.8594 24.2ZM97.6819 17.912V13.4H100.754V9.176H105.938V13.4H111.506V17.912H105.938V27.416C105.938 28.184 106.194 28.824 106.706 29.336C107.218 29.816 107.842 30.056 108.578 30.056H111.506V35H108.146C106.098 35 104.338 34.344 102.866 33.032C101.458 31.72 100.754 30.104 100.754 28.184V17.912H97.6819ZM136.241 35H131.585L124.529 13.4H129.761L133.889 26.984L137.969 13.4H142.673L146.801 26.984L150.881 13.4H156.113L149.105 35H144.401L140.369 21.992L136.241 35ZM179.263 26.12H162.127C162.511 27.528 163.279 28.68 164.431 29.576C165.583 30.44 166.927 30.872 168.463 30.872C170.543 30.872 172.223 30.104 173.503 28.568L178.543 30.056C177.551 31.784 176.159 33.144 174.367 34.136C172.607 35.128 170.639 35.624 168.463 35.624C165.167 35.624 162.383 34.536 160.111 32.36C157.871 30.216 156.751 27.496 156.751 24.2C156.751 20.968 157.839 18.264 160.015 16.088C162.159 13.88 164.863 12.776 168.127 12.776C171.327 12.776 173.999 13.88 176.143 16.088C178.319 18.264 179.407 20.968 179.407 24.2C179.407 24.872 179.359 25.512 179.263 26.12ZM162.175 22.088H174.079C173.663 20.744 172.911 19.656 171.823 18.824C170.735 17.96 169.471 17.528 168.031 17.528C166.655 17.528 165.423 17.96 164.335 18.824C163.279 19.656 162.559 20.744 162.175 22.088ZM200.93 7.784V13.4H206.114V17.912H200.93V35H195.794V17.912H192.482V13.4H195.794V7.064C195.794 5.112 196.498 3.48 197.906 2.168C199.314 0.855999 201.074 0.199999 203.186 0.199999H206.114V5.192H203.618C202.85 5.192 202.21 5.448 201.698 5.96C201.186 6.44 200.93 7.048 200.93 7.784ZM208.644 27.224V13.4H213.828V25.736C213.828 27.144 214.292 28.328 215.22 29.288C216.18 30.216 217.348 30.68 218.724 30.68C220.132 30.68 221.3 30.216 222.228 29.288C223.188 28.328 223.668 27.144 223.668 25.736V13.4H228.852V35H223.668V32.36C222.068 34.536 219.908 35.624 217.188 35.624C214.788 35.624 212.756 34.824 211.092 33.224C209.46 31.592 208.644 29.592 208.644 27.224ZM233.201 35V13.4H238.385V16.04C239.985 13.864 242.145 12.776 244.865 12.776C247.329 12.776 249.361 13.576 250.961 15.176C252.593 16.744 253.409 18.744 253.409 21.176V35H248.225V22.664C248.225 21.256 247.761 20.088 246.833 19.16C245.905 18.2 244.737 17.72 243.329 17.72C241.953 17.72 240.785 18.2 239.825 19.16C238.865 20.12 238.385 21.288 238.385 22.664V35H233.201ZM256.942 24.2C256.942 20.968 257.95 18.264 259.966 16.088C261.982 13.88 264.494 12.776 267.502 12.776C269.998 12.776 272.174 13.56 274.03 15.128V0.199999H279.166V35H274.03V33.272C272.174 34.84 269.998 35.624 267.502 35.624C264.494 35.624 261.982 34.536 259.966 32.36C257.95 30.184 256.942 27.464 256.942 24.2ZM273.934 24.2C273.934 22.472 273.374 21 272.254 19.784C271.134 18.568 269.758 17.96 268.126 17.96C266.494 17.96 265.118 18.568 263.998 19.784C262.878 21 262.318 22.472 262.318 24.2C262.318 25.96 262.878 27.448 263.998 28.664C265.086 29.848 266.462 30.44 268.126 30.44C269.79 30.44 271.166 29.848 272.254 28.664C273.374 27.448 273.934 25.96 273.934 24.2ZM282.717 24.2C282.717 20.968 283.725 18.264 285.741 16.088C287.757 13.88 290.269 12.776 293.277 12.776C295.773 12.776 297.949 13.56 299.805 15.128V13.4H304.941V35H299.805V33.272C297.949 34.84 295.773 35.624 293.277 35.624C290.269 35.624 287.757 34.536 285.741 32.36C283.725 30.184 282.717 27.464 282.717 24.2ZM299.709 24.2C299.709 22.472 299.149 21 298.029 19.784C296.909 18.568 295.533 17.96 293.901 17.96C292.269 17.96 290.893 18.568 289.773 19.784C288.653 21 288.093 22.472 288.093 24.2C288.093 25.96 288.653 27.448 289.773 28.664C290.861 29.848 292.237 30.44 293.901 30.44C295.565 30.44 296.941 29.848 298.029 28.664C299.149 27.448 299.709 25.96 299.709 24.2ZM314.54 35H309.356V13.4H314.54V15.704C315.98 13.752 318.012 12.776 320.636 12.776C323.58 12.776 325.852 13.96 327.452 16.328C328.956 13.96 331.244 12.776 334.316 12.776C336.78 12.776 338.828 13.544 340.46 15.08C342.092 16.616 342.908 18.52 342.908 20.792V35H337.772V22.28C337.772 20.968 337.34 19.88 336.476 19.016C335.612 18.152 334.54 17.72 333.26 17.72C331.98 17.72 330.908 18.168 330.044 19.064C329.18 19.928 328.748 21 328.748 22.28V35H323.564V22.28C323.564 20.968 323.132 19.88 322.268 19.016C321.404 18.152 320.332 17.72 319.052 17.72C317.772 17.72 316.7 18.168 315.836 19.064C314.972 19.928 314.54 21 314.54 22.28V35ZM368.968 26.12H351.832C352.216 27.528 352.984 28.68 354.136 29.576C355.288 30.44 356.632 30.872 358.168 30.872C360.248 30.872 361.928 30.104 363.208 28.568L368.248 30.056C367.256 31.784 365.864 33.144 364.072 34.136C362.312 35.128 360.344 35.624 358.168 35.624C354.872 35.624 352.088 34.536 349.816 32.36C347.576 30.216 346.456 27.496 346.456 24.2C346.456 20.968 347.544 18.264 349.72 16.088C351.864 13.88 354.568 12.776 357.832 12.776C361.032 12.776 363.704 13.88 365.848 16.088C368.024 18.264 369.112 20.968 369.112 24.2C369.112 24.872 369.064 25.512 368.968 26.12ZM351.88 22.088H363.784C363.368 20.744 362.616 19.656 361.528 18.824C360.44 17.96 359.176 17.528 357.736 17.528C356.36 17.528 355.128 17.96 354.04 18.824C352.984 19.656 352.264 20.744 351.88 22.088ZM372.345 35V13.4H377.529V16.04C379.129 13.864 381.289 12.776 384.009 12.776C386.473 12.776 388.505 13.576 390.105 15.176C391.737 16.744 392.553 18.744 392.553 21.176V35H387.369V22.664C387.369 21.256 386.905 20.088 385.977 19.16C385.049 18.2 383.881 17.72 382.473 17.72C381.097 17.72 379.929 18.2 378.969 19.16C378.009 20.12 377.529 21.288 377.529 22.664V35H372.345ZM395.078 17.912V13.4H398.15V9.176H403.334V13.4H408.902V17.912H403.334V27.416C403.334 28.184 403.59 28.824 404.102 29.336C404.614 29.816 405.238 30.056 405.974 30.056H408.902V35H405.542C403.494 35 401.734 34.344 400.262 33.032C398.854 31.72 398.15 30.104 398.15 28.184V17.912H395.078ZM411.314 24.2C411.314 20.968 412.322 18.264 414.338 16.088C416.354 13.88 418.866 12.776 421.874 12.776C424.37 12.776 426.546 13.56 428.402 15.128V13.4H433.538V35H428.402V33.272C426.546 34.84 424.37 35.624 421.874 35.624C418.866 35.624 416.354 34.536 414.338 32.36C412.322 30.184 411.314 27.464 411.314 24.2ZM428.306 24.2C428.306 22.472 427.746 21 426.626 19.784C425.506 18.568 424.13 17.96 422.498 17.96C420.866 17.96 419.49 18.568 418.37 19.784C417.25 21 416.69 22.472 416.69 24.2C416.69 25.96 417.25 27.448 418.37 28.664C419.458 29.848 420.834 30.44 422.498 30.44C424.162 30.44 425.538 29.848 426.626 28.664C427.746 27.448 428.306 25.96 428.306 24.2ZM443.137 35H437.953V0.199999H443.137V35ZM452.694 35H447.51V0.199999H452.694V35ZM462.683 36.728L463.547 34.52L455.195 13.4H460.571L466.091 27.992L471.755 13.4H477.083L467.051 38.456C466.059 40.984 464.779 42.84 463.211 44.024C461.643 45.208 459.675 45.8 457.307 45.8H456.587V40.856H457.307C459.771 40.856 461.563 39.48 462.683 36.728ZM1.488 72.2C1.488 68.968 2.496 66.264 4.512 64.088C6.528 61.88 9.04 60.776 12.048 60.776C14.544 60.776 16.72 61.56 18.576 63.128V48.2H23.712V83H18.576V81.272C16.72 82.84 14.544 83.624 12.048 83.624C9.04 83.624 6.528 82.536 4.512 80.36C2.496 78.184 1.488 75.464 1.488 72.2ZM18.48 72.2C18.48 70.472 17.92 69 16.8 67.784C15.68 66.568 14.304 65.96 12.672 65.96C11.04 65.96 9.664 66.568 8.544 67.784C7.424 69 6.864 70.472 6.864 72.2C6.864 73.96 7.424 75.448 8.544 76.664C9.632 77.848 11.008 78.44 12.672 78.44C14.336 78.44 15.712 77.848 16.8 76.664C17.92 75.448 18.48 73.96 18.48 72.2ZM38.7356 60.776C41.9996 60.776 44.7196 61.864 46.8956 64.04C49.0716 66.216 50.1596 68.936 50.1596 72.2C50.1596 75.464 49.0716 78.184 46.8956 80.36C44.7196 82.536 41.9996 83.624 38.7356 83.624C35.4396 83.624 32.7036 82.536 30.5276 80.36C28.3516 78.184 27.2636 75.464 27.2636 72.2C27.2636 68.936 28.3516 66.216 30.5276 64.04C32.7036 61.864 35.4396 60.776 38.7356 60.776ZM38.7356 78.44C40.4316 78.44 41.8556 77.848 43.0076 76.664C44.1596 75.448 44.7356 73.96 44.7356 72.2C44.7356 70.44 44.1596 68.968 43.0076 67.784C41.8556 66.568 40.4316 65.96 38.7356 65.96C37.0396 65.96 35.5836 66.568 34.3676 67.784C33.2156 68.968 32.6396 70.44 32.6396 72.2C32.6396 73.96 33.2156 75.448 34.3676 76.664C35.5516 77.848 37.0076 78.44 38.7356 78.44ZM52.968 82.712C52.36 82.072 52.056 81.288 52.056 80.36C52.056 79.432 52.36 78.664 52.968 78.056C53.576 77.416 54.344 77.096 55.272 77.096C56.2 77.096 56.968 77.416 57.576 78.056C58.216 78.664 58.536 79.432 58.536 80.36C58.536 81.288 58.216 82.072 57.576 82.712C56.968 83.32 56.2 83.624 55.272 83.624C54.344 83.624 53.576 83.32 52.968 82.712ZM62.2905 82.712C61.6825 82.072 61.3785 81.288 61.3785 80.36C61.3785 79.432 61.6825 78.664 62.2905 78.056C62.8985 77.416 63.6665 77.096 64.5945 77.096C65.5225 77.096 66.2905 77.416 66.8985 78.056C67.5385 78.664 67.8585 79.432 67.8585 80.36C67.8585 81.288 67.5385 82.072 66.8985 82.712C66.2905 83.32 65.5225 83.624 64.5945 83.624C63.6665 83.624 62.8985 83.32 62.2905 82.712ZM71.613 82.712C71.005 82.072 70.701 81.288 70.701 80.36C70.701 79.432 71.005 78.664 71.613 78.056C72.221 77.416 72.989 77.096 73.917 77.096C74.845 77.096 75.613 77.416 76.221 78.056C76.861 78.664 77.181 79.432 77.181 80.36C77.181 81.288 76.861 82.072 76.221 82.712C75.613 83.32 74.845 83.624 73.917 83.624C72.989 83.624 72.221 83.32 71.613 82.712Z" fill="#1E1E1E"/>
</svg>
