<svg width="444" height="94" viewBox="0 0 444 94" fill="none" xmlns="http://www.w3.org/2000/svg">
<path d="M8.64 35H2.928V2.6H8.64V35ZM20.4593 7.784V13.4H25.6432V17.912H20.4593V35H15.3233V17.912H12.0113V13.4H15.3233V7.064C15.3233 5.112 16.0273 3.48 17.4353 2.168C18.8433 0.855999 20.6033 0.199999 22.7153 0.199999H25.6432V5.192H23.1473C22.3793 5.192 21.7393 5.448 21.2273 5.96C20.7153 6.44 20.4593 7.048 20.4593 7.784ZM45.9356 36.728L46.7996 34.52L38.4476 13.4H43.8236L49.3436 27.992L55.0076 13.4H60.3356L50.3036 38.456C49.3116 40.984 48.0316 42.84 46.4636 44.024C44.8956 45.208 42.9276 45.8 40.5596 45.8H39.8396V40.856H40.5596C43.0236 40.856 44.8156 39.48 45.9356 36.728ZM72.6788 12.776C75.9428 12.776 78.6628 13.864 80.8388 16.04C83.0148 18.216 84.1028 20.936 84.1028 24.2C84.1028 27.464 83.0148 30.184 80.8388 32.36C78.6628 34.536 75.9428 35.624 72.6788 35.624C69.3828 35.624 66.6468 34.536 64.4708 32.36C62.2948 30.184 61.2068 27.464 61.2068 24.2C61.2068 20.936 62.2948 18.216 64.4708 16.04C66.6468 13.864 69.3828 12.776 72.6788 12.776ZM72.6788 30.44C74.3748 30.44 75.7988 29.848 76.9508 28.664C78.1028 27.448 78.6788 25.96 78.6788 24.2C78.6788 22.44 78.1028 20.968 76.9508 19.784C75.7988 18.568 74.3748 17.96 72.6788 17.96C70.9828 17.96 69.5268 18.568 68.3108 19.784C67.1588 20.968 66.5828 22.44 66.5828 24.2C66.5828 25.96 67.1588 27.448 68.3108 28.664C69.4948 29.848 70.9508 30.44 72.6788 30.44ZM87.8978 27.224V13.4H93.0818V25.736C93.0818 27.144 93.5458 28.328 94.4738 29.288C95.4338 30.216 96.6018 30.68 97.9778 30.68C99.3858 30.68 100.554 30.216 101.482 29.288C102.442 28.328 102.922 27.144 102.922 25.736V13.4H108.106V35H102.922V32.36C101.322 34.536 99.1618 35.624 96.4418 35.624C94.0418 35.624 92.0098 34.824 90.3458 33.224C88.7138 31.592 87.8978 29.592 87.8978 27.224ZM123.785 24.2C123.785 20.968 124.793 18.264 126.809 16.088C128.825 13.88 131.337 12.776 134.345 12.776C136.841 12.776 139.017 13.56 140.873 15.128V13.4H146.009V35H140.873V33.272C139.017 34.84 136.841 35.624 134.345 35.624C131.337 35.624 128.825 34.536 126.809 32.36C124.793 30.184 123.785 27.464 123.785 24.2ZM140.777 24.2C140.777 22.472 140.217 21 139.097 19.784C137.977 18.568 136.601 17.96 134.969 17.96C133.337 17.96 131.961 18.568 130.841 19.784C129.721 21 129.161 22.472 129.161 24.2C129.161 25.96 129.721 27.448 130.841 28.664C131.929 29.848 133.305 30.44 134.969 30.44C136.633 30.44 138.009 29.848 139.097 28.664C140.217 27.448 140.777 25.96 140.777 24.2ZM155.847 13.4V16.04C157.447 13.864 159.607 12.776 162.327 12.776C162.679 12.776 162.903 12.792 162.999 12.824V18.536C162.263 18.248 161.543 18.104 160.839 18.104C159.431 18.104 158.247 18.584 157.287 19.544C156.327 20.504 155.847 21.688 155.847 23.096V35H150.663V13.4H155.847ZM187.031 26.12H169.895C170.279 27.528 171.047 28.68 172.199 29.576C173.351 30.44 174.695 30.872 176.231 30.872C178.311 30.872 179.991 30.104 181.271 28.568L186.311 30.056C185.319 31.784 183.927 33.144 182.135 34.136C180.375 35.128 178.407 35.624 176.231 35.624C172.935 35.624 170.151 34.536 167.879 32.36C165.639 30.216 164.519 27.496 164.519 24.2C164.519 20.968 165.607 18.264 167.783 16.088C169.927 13.88 172.631 12.776 175.895 12.776C179.095 12.776 181.767 13.88 183.911 16.088C186.087 18.264 187.175 20.968 187.175 24.2C187.175 24.872 187.127 25.512 187.031 26.12ZM169.943 22.088H181.847C181.431 20.744 180.679 19.656 179.591 18.824C178.503 17.96 177.239 17.528 175.799 17.528C174.423 17.528 173.191 17.96 172.103 18.824C171.047 19.656 170.327 20.744 169.943 22.088ZM207.738 13.4V16.04C209.338 13.864 211.498 12.776 214.218 12.776C214.57 12.776 214.794 12.792 214.89 12.824V18.536C214.154 18.248 213.434 18.104 212.73 18.104C211.322 18.104 210.138 18.584 209.178 19.544C208.218 20.504 207.738 21.688 207.738 23.096V35H202.554V13.4H207.738ZM238.922 26.12H221.786C222.17 27.528 222.938 28.68 224.09 29.576C225.242 30.44 226.586 30.872 228.122 30.872C230.202 30.872 231.882 30.104 233.162 28.568L238.202 30.056C237.21 31.784 235.818 33.144 234.026 34.136C232.266 35.128 230.298 35.624 228.122 35.624C224.826 35.624 222.042 34.536 219.77 32.36C217.53 30.216 216.41 27.496 216.41 24.2C216.41 20.968 217.498 18.264 219.674 16.088C221.818 13.88 224.522 12.776 227.786 12.776C230.986 12.776 233.658 13.88 235.802 16.088C237.978 18.264 239.066 20.968 239.066 24.2C239.066 24.872 239.018 25.512 238.922 26.12ZM221.834 22.088H233.738C233.322 20.744 232.57 19.656 231.482 18.824C230.394 17.96 229.13 17.528 227.69 17.528C226.314 17.528 225.082 17.96 223.994 18.824C222.938 19.656 222.218 20.744 221.834 22.088ZM241.722 24.2C241.722 20.968 242.73 18.264 244.746 16.088C246.762 13.88 249.274 12.776 252.282 12.776C254.778 12.776 256.954 13.56 258.81 15.128V13.4H263.946V35H258.81V33.272C256.954 34.84 254.778 35.624 252.282 35.624C249.274 35.624 246.762 34.536 244.746 32.36C242.73 30.184 241.722 27.464 241.722 24.2ZM258.714 24.2C258.714 22.472 258.154 21 257.034 19.784C255.914 18.568 254.538 17.96 252.906 17.96C251.274 17.96 249.898 18.568 248.778 19.784C247.658 21 247.098 22.472 247.098 24.2C247.098 25.96 247.658 27.448 248.778 28.664C249.866 29.848 251.242 30.44 252.906 30.44C254.57 30.44 255.946 29.848 257.034 28.664C258.154 27.448 258.714 25.96 258.714 24.2ZM267.785 24.2C267.785 20.968 268.793 18.264 270.809 16.088C272.825 13.88 275.337 12.776 278.345 12.776C280.841 12.776 283.017 13.56 284.873 15.128V0.199999H290.009V35H284.873V33.272C283.017 34.84 280.841 35.624 278.345 35.624C275.337 35.624 272.825 34.536 270.809 32.36C268.793 30.184 267.785 27.464 267.785 24.2ZM284.777 24.2C284.777 22.472 284.217 21 283.097 19.784C281.977 18.568 280.601 17.96 278.969 17.96C277.337 17.96 275.961 18.568 274.841 19.784C273.721 21 273.161 22.472 273.161 24.2C273.161 25.96 273.721 27.448 274.841 28.664C275.929 29.848 277.305 30.44 278.969 30.44C280.633 30.44 282.009 29.848 283.097 28.664C284.217 27.448 284.777 25.96 284.777 24.2ZM299.801 35H294.617V13.4H299.801V35ZM293.945 6.536C293.945 5.576 294.249 4.792 294.857 4.184C295.497 3.544 296.281 3.224 297.209 3.224C298.137 3.224 298.921 3.544 299.561 4.184C300.201 4.792 300.521 5.576 300.521 6.536C300.521 7.464 300.201 8.248 299.561 8.888C298.921 9.496 298.137 9.8 297.209 9.8C296.281 9.8 295.497 9.496 294.857 8.888C294.249 8.248 293.945 7.464 293.945 6.536ZM304.413 35V13.4H309.597V16.04C311.197 13.864 313.357 12.776 316.077 12.776C318.541 12.776 320.573 13.576 322.173 15.176C323.805 16.744 324.621 18.744 324.621 21.176V35H319.437V22.664C319.437 21.256 318.973 20.088 318.045 19.16C317.117 18.2 315.949 17.72 314.541 17.72C313.165 17.72 311.997 18.2 311.037 19.16C310.077 20.12 309.597 21.288 309.597 22.664V35H304.413ZM328.394 24.2C328.394 20.968 329.402 18.264 331.418 16.088C333.434 13.88 335.946 12.776 338.954 12.776C341.45 12.776 343.626 13.56 345.482 15.128V13.4H350.618V35.624C350.618 38.664 349.578 41.224 347.498 43.304C345.418 45.384 342.842 46.424 339.77 46.424C337.402 46.424 335.21 45.8 333.194 44.552C331.178 43.272 329.818 41.688 329.114 39.8L334.346 38.36C334.698 39.192 335.37 39.88 336.362 40.424C337.354 41 338.426 41.288 339.578 41.288C341.274 41.288 342.666 40.744 343.754 39.656C344.906 38.6 345.482 37.272 345.482 35.672V33.272C343.626 34.84 341.45 35.624 338.954 35.624C335.946 35.624 333.434 34.536 331.418 32.36C329.402 30.184 328.394 27.464 328.394 24.2ZM345.386 24.2C345.386 22.472 344.826 21 343.706 19.784C342.586 18.568 341.21 17.96 339.578 17.96C337.946 17.96 336.57 18.568 335.45 19.784C334.33 21 333.77 22.472 333.77 24.2C333.77 25.96 334.33 27.448 335.45 28.664C336.538 29.848 337.914 30.44 339.578 30.44C341.242 30.44 342.618 29.848 343.706 28.664C344.826 27.448 345.386 25.96 345.386 24.2ZM365.308 17.912V13.4H368.38V9.176H373.564V13.4H379.132V17.912H373.564V27.416C373.564 28.184 373.82 28.824 374.332 29.336C374.844 29.816 375.468 30.056 376.204 30.056H379.132V35H375.772C373.724 35 371.964 34.344 370.492 33.032C369.084 31.72 368.38 30.104 368.38 28.184V17.912H365.308ZM382.601 35V0.199999H387.785V16.04C389.417 13.864 391.641 12.776 394.457 12.776C396.953 12.776 399.033 13.576 400.697 15.176C402.361 16.744 403.193 18.76 403.193 21.224V35H398.009V22.664C398.009 21.256 397.529 20.088 396.569 19.16C395.609 18.2 394.393 17.72 392.921 17.72C391.449 17.72 390.217 18.2 389.225 19.16C388.265 20.088 387.785 21.256 387.785 22.664V35H382.601ZM413.004 35H407.82V13.4H413.004V35ZM407.148 6.536C407.148 5.576 407.452 4.792 408.06 4.184C408.7 3.544 409.484 3.224 410.412 3.224C411.34 3.224 412.124 3.544 412.764 4.184C413.404 4.792 413.724 5.576 413.724 6.536C413.724 7.464 413.404 8.248 412.764 8.888C412.124 9.496 411.34 9.8 410.412 9.8C409.484 9.8 408.7 9.496 408.06 8.888C407.452 8.248 407.148 7.464 407.148 6.536ZM433.649 18.584L428.801 19.4C428.417 17.96 427.153 17.24 425.009 17.24C424.113 17.24 423.377 17.416 422.801 17.768C422.257 18.088 421.985 18.536 421.985 19.112C421.985 19.88 422.625 20.472 423.905 20.888L428.321 22.376C430.305 23.08 431.745 23.944 432.641 24.968C433.537 25.992 433.985 27.288 433.985 28.856C433.985 31 433.201 32.664 431.633 33.848C430.065 35.032 428.001 35.624 425.441 35.624C422.881 35.624 420.817 35.064 419.249 33.944C417.681 32.824 416.752 31.272 416.465 29.288L421.312 28.568C421.761 30.264 423.185 31.112 425.585 31.112C426.609 31.112 427.441 30.936 428.081 30.584C428.721 30.2 429.041 29.688 429.041 29.048C429.041 28.184 428.241 27.48 426.641 26.936L422.225 25.544C420.401 24.936 419.073 24.168 418.241 23.24C417.441 22.28 417.041 21.032 417.041 19.496C417.041 17.32 417.793 15.656 419.297 14.504C420.801 13.352 422.833 12.776 425.393 12.776C427.697 12.776 429.585 13.304 431.057 14.36C432.529 15.384 433.393 16.792 433.649 18.584ZM443.586 33.656C443.586 36.536 441.954 39.048 438.69 41.192L437.058 39.464C438.626 37.768 439.41 36.472 439.41 35.576C438.674 35.448 438.05 35.08 437.538 34.472C437.026 33.832 436.77 33.096 436.77 32.264C436.77 31.4 437.074 30.664 437.682 30.056C438.322 29.448 439.09 29.144 439.986 29.144C441.042 29.144 441.906 29.576 442.578 30.44C443.25 31.272 443.586 32.344 443.586 33.656ZM7.92 84.728L8.784 82.52L0.432 61.4H5.808L11.328 75.992L16.992 61.4H22.32L12.288 86.456C11.296 88.984 10.016 90.84 8.448 92.024C6.88 93.208 4.912 93.8 2.544 93.8H1.824V88.856H2.544C5.008 88.856 6.8 87.48 7.92 84.728ZM34.6631 60.776C37.9271 60.776 40.6471 61.864 42.8231 64.04C44.9991 66.216 46.0871 68.936 46.0871 72.2C46.0871 75.464 44.9991 78.184 42.8231 80.36C40.6471 82.536 37.9271 83.624 34.6631 83.624C31.3671 83.624 28.6311 82.536 26.4551 80.36C24.2791 78.184 23.1911 75.464 23.1911 72.2C23.1911 68.936 24.2791 66.216 26.4551 64.04C28.6311 61.864 31.3671 60.776 34.6631 60.776ZM34.6631 78.44C36.3591 78.44 37.7831 77.848 38.9351 76.664C40.0871 75.448 40.6631 73.96 40.6631 72.2C40.6631 70.44 40.0871 68.968 38.9351 67.784C37.7831 66.568 36.3591 65.96 34.6631 65.96C32.9671 65.96 31.5111 66.568 30.2951 67.784C29.1431 68.968 28.5671 70.44 28.5671 72.2C28.5671 73.96 29.1431 75.448 30.2951 76.664C31.4791 77.848 32.9351 78.44 34.6631 78.44ZM49.8821 75.224V61.4H55.0661V73.736C55.0661 75.144 55.5301 76.328 56.4581 77.288C57.4181 78.216 58.5861 78.68 59.9621 78.68C61.3701 78.68 62.5381 78.216 63.4661 77.288C64.4261 76.328 64.9061 75.144 64.9061 73.736V61.4H70.0901V83H64.9061V80.36C63.3061 82.536 61.1461 83.624 58.4261 83.624C56.0261 83.624 53.9941 82.824 52.3301 81.224C50.6981 79.592 49.8821 77.592 49.8821 75.224ZM91.7693 83H86.5853V61.4H91.7693V63.704C93.2093 61.752 95.2413 60.776 97.8653 60.776C100.809 60.776 103.081 61.96 104.681 64.328C106.185 61.96 108.473 60.776 111.545 60.776C114.009 60.776 116.057 61.544 117.689 63.08C119.321 64.616 120.137 66.52 120.137 68.792V83H115.001V70.28C115.001 68.968 114.569 67.88 113.705 67.016C112.841 66.152 111.769 65.72 110.489 65.72C109.209 65.72 108.137 66.168 107.273 67.064C106.409 67.928 105.977 69 105.977 70.28V83H100.793V70.28C100.793 68.968 100.361 67.88 99.4973 67.016C98.6333 66.152 97.5613 65.72 96.2812 65.72C95.0013 65.72 93.9293 66.168 93.0653 67.064C92.2013 67.928 91.7693 69 91.7693 70.28V83ZM124.32 75.224V61.4H129.504V73.736C129.504 75.144 129.968 76.328 130.896 77.288C131.856 78.216 133.024 78.68 134.4 78.68C135.808 78.68 136.976 78.216 137.904 77.288C138.864 76.328 139.344 75.144 139.344 73.736V61.4H144.528V83H139.344V80.36C137.744 82.536 135.584 83.624 132.864 83.624C130.464 83.624 128.432 82.824 126.768 81.224C125.136 79.592 124.32 77.592 124.32 75.224ZM165.149 66.584L160.301 67.4C159.917 65.96 158.653 65.24 156.509 65.24C155.613 65.24 154.877 65.416 154.301 65.768C153.757 66.088 153.485 66.536 153.485 67.112C153.485 67.88 154.125 68.472 155.405 68.888L159.821 70.376C161.805 71.08 163.245 71.944 164.141 72.968C165.037 73.992 165.485 75.288 165.485 76.856C165.485 79 164.701 80.664 163.133 81.848C161.565 83.032 159.501 83.624 156.941 83.624C154.381 83.624 152.317 83.064 150.749 81.944C149.181 80.824 148.252 79.272 147.965 77.288L152.812 76.568C153.261 78.264 154.685 79.112 157.085 79.112C158.109 79.112 158.941 78.936 159.581 78.584C160.221 78.2 160.541 77.688 160.541 77.048C160.541 76.184 159.741 75.48 158.141 74.936L153.725 73.544C151.901 72.936 150.573 72.168 149.741 71.24C148.941 70.28 148.541 69.032 148.541 67.496C148.541 65.32 149.293 63.656 150.797 62.504C152.301 61.352 154.333 60.776 156.893 60.776C159.197 60.776 161.085 61.304 162.557 62.36C164.029 63.384 164.893 64.792 165.149 66.584ZM167.214 65.912V61.4H170.286V57.176H175.47V61.4H181.038V65.912H175.47V75.416C175.47 76.184 175.726 76.824 176.238 77.336C176.75 77.816 177.374 78.056 178.11 78.056H181.038V83H177.678C175.63 83 173.87 82.344 172.398 81.032C170.99 79.72 170.286 78.104 170.286 76.184V65.912H167.214ZM196.413 83V48.2H201.597V63.128C203.453 61.56 205.629 60.776 208.125 60.776C211.133 60.776 213.629 61.88 215.613 64.088C217.629 66.264 218.637 68.968 218.637 72.2C218.637 75.464 217.629 78.184 215.613 80.36C213.629 82.536 211.133 83.624 208.125 83.624C205.629 83.624 203.453 82.84 201.597 81.272V83H196.413ZM207.453 65.96C205.853 65.96 204.493 66.568 203.373 67.784C202.253 69 201.693 70.472 201.693 72.2C201.693 73.96 202.253 75.448 203.373 76.664C204.461 77.848 205.821 78.44 207.453 78.44C209.117 78.44 210.493 77.848 211.581 76.664C212.701 75.448 213.261 73.96 213.261 72.2C213.261 70.472 212.701 69 211.581 67.784C210.461 66.568 209.085 65.96 207.453 65.96ZM244.125 74.12H226.989C227.373 75.528 228.141 76.68 229.293 77.576C230.445 78.44 231.789 78.872 233.325 78.872C235.405 78.872 237.085 78.104 238.365 76.568L243.405 78.056C242.413 79.784 241.021 81.144 239.229 82.136C237.469 83.128 235.501 83.624 233.325 83.624C230.029 83.624 227.245 82.536 224.973 80.36C222.733 78.216 221.613 75.496 221.613 72.2C221.613 68.968 222.701 66.264 224.877 64.088C227.021 61.88 229.725 60.776 232.989 60.776C236.189 60.776 238.861 61.88 241.005 64.088C243.181 66.264 244.269 68.968 244.269 72.2C244.269 72.872 244.221 73.512 244.125 74.12ZM227.037 70.088H238.941C238.525 68.744 237.773 67.656 236.685 66.824C235.597 65.96 234.333 65.528 232.893 65.528C231.517 65.528 230.285 65.96 229.197 66.824C228.141 67.656 227.421 68.744 227.037 70.088Z" fill="#F5F5F5"/>
</svg>
