<svg width="449" height="318" viewBox="0 0 449 318" fill="none" xmlns="http://www.w3.org/2000/svg">
<g clip-path="url(#clip0_1093_235)">
<path d="M356.493 242.305C346.719 242.305 337.239 240.067 328.318 235.653C319.72 231.399 312.006 225.317 305.385 217.573C291.813 201.7 284.34 180.609 284.34 158.188C284.34 135.768 291.813 114.679 305.385 98.8033C312.006 91.0593 319.722 84.9753 328.318 80.7238C337.239 76.3099 346.719 74.0715 356.493 74.0715C366.267 74.0715 375.748 76.3099 384.669 80.7238C393.266 84.9773 400.98 91.0593 407.601 98.8033C421.173 114.677 428.646 135.768 428.646 158.188C428.646 180.609 421.173 201.698 407.601 217.573C400.98 225.317 393.264 231.401 384.669 235.653C375.748 240.067 366.267 242.305 356.493 242.305ZM356.493 77.3185C318.503 77.3185 287.596 113.597 287.596 158.188C287.596 202.779 318.503 239.058 356.493 239.058C394.483 239.058 425.39 202.779 425.39 158.188C425.39 113.597 394.483 77.3185 356.493 77.3185Z" fill="#F5F5F5"/>
<path d="M412.058 201.117C402.142 201.117 392.832 196.618 385.849 188.448C378.929 180.353 375.116 169.605 375.116 158.186C375.116 146.767 378.929 136.02 385.849 127.925C392.832 119.754 402.142 115.255 412.058 115.255C421.974 115.255 431.284 119.754 438.268 127.925C445.188 136.02 449 146.767 449 158.186C449 169.605 445.188 180.353 438.268 188.448C431.284 196.618 421.974 201.117 412.058 201.117ZM412.058 118.504C393.484 118.504 378.373 136.306 378.373 158.186C378.373 180.067 393.484 197.868 412.058 197.868C430.633 197.868 445.743 180.067 445.743 158.186C445.743 136.306 430.633 118.504 412.058 118.504Z" fill="#F5F5F5"/>
<path d="M291.565 268.484C278.85 268.484 266.52 265.572 254.912 259.831C243.722 254.295 233.677 246.376 225.058 236.292C216.452 226.229 209.699 214.513 204.983 201.472C200.106 187.985 197.633 173.662 197.633 158.899C197.633 144.135 200.106 129.812 204.983 116.325C209.699 103.284 216.452 91.5686 225.058 81.505C233.677 71.4212 243.722 63.5026 254.912 57.9665C266.518 52.2255 278.85 49.3134 291.565 49.3134C304.28 49.3134 316.61 52.2255 328.218 57.9665C339.408 63.5026 349.453 71.4212 358.072 81.505C366.678 91.5686 373.431 103.284 378.147 116.325C383.024 129.812 385.497 144.135 385.497 158.899C385.497 173.662 383.024 187.985 378.147 201.472C373.431 214.513 366.678 226.229 358.072 236.292C349.453 246.376 339.408 254.295 328.218 259.831C316.612 265.572 304.28 268.484 291.565 268.484ZM291.565 52.5603C241.567 52.5603 200.89 100.264 200.89 158.899C200.89 217.533 241.567 265.237 291.565 265.237C341.564 265.237 382.24 217.533 382.24 158.899C382.24 100.264 341.564 52.5603 291.565 52.5603Z" fill="#F5F5F5"/>
<path d="M214.934 286.342C200.118 286.342 185.747 282.955 172.222 276.278C159.177 269.837 147.468 260.624 137.417 248.892C127.383 237.179 119.506 223.544 114.006 208.364C108.318 192.663 105.432 175.986 105.432 158.799C105.432 141.612 108.316 124.935 114.006 109.234C119.506 94.0545 127.383 80.4193 137.417 68.7058C147.468 56.9741 159.177 47.7588 172.222 41.3197C185.747 34.6411 200.118 31.2561 214.934 31.2561C229.749 31.2561 244.121 34.6431 257.646 41.3197C270.69 47.7588 282.4 56.9741 292.45 68.7058C302.485 80.4193 310.362 94.0545 315.861 109.234C321.55 124.935 324.436 141.612 324.436 158.799C324.436 175.986 321.552 192.663 315.861 208.364C310.362 223.544 302.485 237.179 292.45 248.892C282.4 260.624 270.69 269.839 257.646 276.278C244.121 282.957 229.749 286.342 214.934 286.342ZM214.934 34.499C156.35 34.499 108.688 90.2596 108.688 158.797C108.688 227.334 156.35 283.095 214.934 283.095C273.517 283.095 321.179 227.334 321.179 158.797C321.179 90.2596 273.517 34.499 214.934 34.499Z" fill="#F5F5F5"/>
<path d="M127.922 318C110.605 318 93.8097 313.775 78.001 305.444C62.7643 297.414 49.0847 285.924 37.3468 271.296C25.6292 256.695 16.4314 239.699 10.0099 220.778C3.36852 201.209 0 180.424 0 159C0 137.576 3.36852 116.791 10.0099 97.2224C16.4314 78.3027 25.6292 61.3048 37.3468 46.7036C49.0847 32.076 62.7643 20.5858 78.001 12.5556C93.8097 4.22512 110.605 0 127.922 0C145.239 0 162.035 4.22512 177.844 12.5556C193.08 20.5858 206.76 32.076 218.498 46.7036C230.215 61.3048 239.413 78.3007 245.835 97.2224C252.478 116.793 255.845 137.578 255.845 159C255.845 180.422 252.476 201.209 245.835 220.778C239.413 239.697 230.215 256.695 218.498 271.296C206.76 285.924 193.08 297.414 177.844 305.444C162.037 313.775 145.241 318 127.922 318ZM127.922 3.24697C59.1821 3.24697 3.25657 73.1177 3.25657 159C3.25657 244.882 59.1821 314.753 127.922 314.753C196.662 314.753 252.588 244.882 252.588 159C252.588 73.1177 196.662 3.24697 127.922 3.24697Z" fill="#0A66C2"/>
<path d="M127.922 308.665C111.44 308.665 95.4543 304.645 80.4109 296.716C65.9111 289.074 52.8949 278.139 41.7229 264.22C30.5732 250.327 21.8232 234.155 15.713 216.153C9.39323 197.533 6.18958 177.757 6.18958 157.377C6.18958 136.996 9.39323 117.22 15.713 98.6003C21.8232 80.5979 30.5752 64.426 41.7229 50.533C52.8929 36.6136 65.909 25.6795 80.4109 18.0369C95.4543 10.1082 111.44 6.08807 127.922 6.08807C144.405 6.08807 160.39 10.1082 175.434 18.0369C189.934 25.6795 202.95 36.6136 214.122 50.533C225.271 64.426 234.021 80.5979 240.132 98.6003C246.451 117.22 249.655 136.996 249.655 157.377C249.655 177.757 246.451 197.533 240.132 216.153C234.021 234.155 225.269 250.327 214.122 264.22C202.952 278.139 189.936 289.074 175.434 296.716C160.39 304.645 144.405 308.665 127.922 308.665ZM127.922 9.33504C62.5934 9.33504 9.44411 75.7457 9.44411 157.377C9.44411 239.007 62.5934 305.418 127.922 305.418C193.251 305.418 246.398 239.007 246.398 157.377C246.398 75.7457 193.251 9.33504 127.922 9.33504Z" fill="#0A66C2"/>
</g>
<defs>
<clipPath id="clip0_1093_235">
<rect width="449" height="318" fill="white"/>
</clipPath>
</defs>
</svg>
