<svg width="312" height="173" viewBox="0 0 312 173" fill="none" xmlns="http://www.w3.org/2000/svg">
<path d="M8.704 44H0.704L19.264 0.799999H25.472L44.096 44H36.096L32.512 35.488H12.288L8.704 44ZM29.568 28.512L22.4 11.616L15.232 28.512H29.568ZM56.997 44H50.789L41.381 15.2H48.357L53.861 33.312L59.301 15.2H65.573L71.077 33.312L76.517 15.2H83.493L74.149 44H67.877L62.501 26.656L56.997 44ZM114.36 32.16H91.512C92.024 34.0373 93.048 35.5733 94.584 36.768C96.12 37.92 97.912 38.496 99.96 38.496C102.733 38.496 104.973 37.472 106.68 35.424L113.4 37.408C112.077 39.712 110.221 41.5253 107.832 42.848C105.485 44.1707 102.861 44.832 99.96 44.832C95.5653 44.832 91.8533 43.3813 88.824 40.48C85.8373 37.6213 84.344 33.9947 84.344 29.6C84.344 25.2907 85.7947 21.6853 88.696 18.784C91.5547 15.84 95.16 14.368 99.512 14.368C103.779 14.368 107.341 15.84 110.2 18.784C113.101 21.6853 114.552 25.2907 114.552 29.6C114.552 30.496 114.488 31.3493 114.36 32.16ZM91.576 26.784H107.448C106.893 24.992 105.891 23.5413 104.44 22.432C102.989 21.28 101.304 20.704 99.384 20.704C97.5493 20.704 95.9067 21.28 94.456 22.432C93.048 23.5413 92.088 24.992 91.576 26.784ZM119.566 32.736V26.464H136.654V32.736H119.566ZM3.072 108V79.2H9.984V82.72C12.1173 79.8187 14.9973 78.368 18.624 78.368C21.9093 78.368 24.6187 79.4347 26.752 81.568C28.928 83.6587 30.016 86.3253 30.016 89.568V108H23.104V91.552C23.104 89.6747 22.4853 88.1173 21.248 86.88C20.0107 85.6 18.4533 84.96 16.576 84.96C14.7413 84.96 13.184 85.6 11.904 86.88C10.624 88.16 9.984 89.7173 9.984 91.552V108H3.072ZM33.3825 85.216V79.2H37.4785V73.568H44.3905V79.2H51.8145V85.216H44.3905V97.888C44.3905 98.912 44.7318 99.7653 45.4145 100.448C46.0972 101.088 46.9292 101.408 47.9105 101.408H51.8145V108H47.3345C44.6038 108 42.2572 107.125 40.2945 105.376C38.4172 103.627 37.4785 101.472 37.4785 98.912V85.216H33.3825ZM63.0315 79.2V82.72C65.1648 79.8187 68.0448 78.368 71.6715 78.368C72.1408 78.368 72.4395 78.3893 72.5675 78.432V86.048C71.5862 85.664 70.6262 85.472 69.6875 85.472C67.8102 85.472 66.2315 86.112 64.9515 87.392C63.6715 88.672 63.0315 90.2507 63.0315 92.128V108H56.1195V79.2H63.0315ZM104.29 96.16H81.442C81.954 98.0373 82.978 99.5733 84.514 100.768C86.05 101.92 87.842 102.496 89.89 102.496C92.6633 102.496 94.9033 101.472 96.61 99.424L103.33 101.408C102.007 103.712 100.151 105.525 97.762 106.848C95.4153 108.171 92.7913 108.832 89.89 108.832C85.4953 108.832 81.7833 107.381 78.754 104.48C75.7673 101.621 74.274 97.9947 74.274 93.6C74.274 89.2907 75.7247 85.6853 78.626 82.784C81.4847 79.84 85.09 78.368 89.442 78.368C93.7087 78.368 97.2713 79.84 100.13 82.784C103.031 85.6853 104.482 89.2907 104.482 93.6C104.482 94.496 104.418 95.3493 104.29 96.16ZM81.506 90.784H97.378C96.8233 88.992 95.8207 87.5413 94.37 86.432C92.9193 85.28 91.234 84.704 89.314 84.704C87.4793 84.704 85.8367 85.28 84.386 86.432C82.978 87.5413 82.018 88.992 81.506 90.784ZM115.704 122.4H108.792V79.2H115.704V81.504C118.179 79.4133 121.08 78.368 124.408 78.368C128.419 78.368 131.747 79.8187 134.392 82.72C137.08 85.5787 138.424 89.2053 138.424 93.6C138.424 97.9093 137.08 101.536 134.392 104.48C131.747 107.381 128.419 108.832 124.408 108.832C121.08 108.832 118.179 107.787 115.704 105.696V122.4ZM123.512 85.28C121.379 85.28 119.565 86.0907 118.072 87.712C116.579 89.3333 115.832 91.296 115.832 93.6C115.832 95.9467 116.579 97.9307 118.072 99.552C119.523 101.131 121.336 101.92 123.512 101.92C125.731 101.92 127.565 101.131 129.016 99.552C130.509 97.9307 131.256 95.9467 131.256 93.6C131.256 91.296 130.509 89.3333 129.016 87.712C127.523 86.0907 125.688 85.28 123.512 85.28ZM150.071 79.2V82.72C152.205 79.8187 155.085 78.368 158.711 78.368C159.181 78.368 159.479 78.3893 159.607 78.432V86.048C158.626 85.664 157.666 85.472 156.727 85.472C154.85 85.472 153.271 86.112 151.991 87.392C150.711 88.672 150.071 90.2507 150.071 92.128V108H143.159V79.2H150.071ZM191.33 96.16H168.482C168.994 98.0373 170.018 99.5733 171.554 100.768C173.09 101.92 174.882 102.496 176.93 102.496C179.703 102.496 181.943 101.472 183.65 99.424L190.37 101.408C189.047 103.712 187.191 105.525 184.802 106.848C182.455 108.171 179.831 108.832 176.93 108.832C172.535 108.832 168.823 107.381 165.794 104.48C162.807 101.621 161.314 97.9947 161.314 93.6C161.314 89.2907 162.765 85.6853 165.666 82.784C168.525 79.84 172.13 78.368 176.482 78.368C180.749 78.368 184.311 79.84 187.17 82.784C190.071 85.6853 191.522 89.2907 191.522 93.6C191.522 94.496 191.458 95.3493 191.33 96.16ZM168.546 90.784H184.418C183.863 88.992 182.861 87.5413 181.41 86.432C179.959 85.28 178.274 84.704 176.354 84.704C174.519 84.704 172.877 85.28 171.426 86.432C170.018 87.5413 169.058 88.992 168.546 90.784ZM195.832 108V79.2H202.744V82.72C204.877 79.8187 207.757 78.368 211.384 78.368C214.669 78.368 217.379 79.4347 219.512 81.568C221.688 83.6587 222.776 86.3253 222.776 89.568V108H215.864V91.552C215.864 89.6747 215.245 88.1173 214.008 86.88C212.771 85.6 211.213 84.96 209.336 84.96C207.501 84.96 205.944 85.6 204.664 86.88C203.384 88.16 202.744 89.7173 202.744 91.552V108H195.832ZM257.503 96.16H234.655C235.167 98.0373 236.191 99.5733 237.727 100.768C239.263 101.92 241.055 102.496 243.103 102.496C245.876 102.496 248.116 101.472 249.823 99.424L256.543 101.408C255.22 103.712 253.364 105.525 250.975 106.848C248.628 108.171 246.004 108.832 243.103 108.832C238.708 108.832 234.996 107.381 231.967 104.48C228.98 101.621 227.487 97.9947 227.487 93.6C227.487 89.2907 228.937 85.6853 231.839 82.784C234.697 79.84 238.303 78.368 242.655 78.368C246.921 78.368 250.484 79.84 253.343 82.784C256.244 85.6853 257.695 89.2907 257.695 93.6C257.695 94.496 257.631 95.3493 257.503 96.16ZM234.719 90.784H250.591C250.036 88.992 249.033 87.5413 247.583 86.432C246.132 85.28 244.447 84.704 242.527 84.704C240.692 84.704 239.049 85.28 237.599 86.432C236.191 87.5413 235.231 88.992 234.719 90.784ZM262.004 97.632V79.2H268.916V95.648C268.916 97.5253 269.535 99.104 270.772 100.384C272.052 101.621 273.61 102.24 275.444 102.24C277.322 102.24 278.879 101.621 280.116 100.384C281.396 99.104 282.036 97.5253 282.036 95.648V79.2H288.948V108H282.036V104.48C279.903 107.381 277.023 108.832 273.396 108.832C270.196 108.832 267.487 107.765 265.268 105.632C263.092 103.456 262.004 100.789 262.004 97.632ZM301.659 79.2V82.72C303.792 79.8187 306.672 78.368 310.299 78.368C310.768 78.368 311.067 78.3893 311.195 78.432V86.048C310.214 85.664 309.254 85.472 308.315 85.472C306.438 85.472 304.859 86.112 303.579 87.392C302.299 88.672 301.659 90.2507 301.659 92.128V108H294.747V79.2H301.659ZM11.52 172H3.904V128.8H11.52V172ZM18.127 172V143.2H25.039V146.72C27.1723 143.819 30.0523 142.368 33.679 142.368C36.9643 142.368 39.6737 143.435 41.807 145.568C43.983 147.659 45.071 150.325 45.071 153.568V172H38.159V155.552C38.159 153.675 37.5403 152.117 36.303 150.88C35.0657 149.6 33.5083 148.96 31.631 148.96C29.7963 148.96 28.239 149.6 26.959 150.88C25.679 152.16 25.039 153.717 25.039 155.552V172H18.127ZM51.5735 160.736V154.464H68.6615V160.736H51.5735ZM83.6225 172H76.0065V128.8H83.6225V146.656H105.831V128.8H113.447V172H105.831V153.696H83.6225V172ZM134.313 142.368C138.665 142.368 142.291 143.819 145.193 146.72C148.094 149.621 149.545 153.248 149.545 157.6C149.545 161.952 148.094 165.579 145.193 168.48C142.291 171.381 138.665 172.832 134.313 172.832C129.918 172.832 126.27 171.381 123.369 168.48C120.467 165.579 119.017 161.952 119.017 157.6C119.017 153.248 120.467 149.621 123.369 146.72C126.27 143.819 129.918 142.368 134.313 142.368ZM134.313 165.92C136.574 165.92 138.473 165.131 140.009 163.552C141.545 161.931 142.313 159.947 142.313 157.6C142.313 155.253 141.545 153.291 140.009 151.712C138.473 150.091 136.574 149.28 134.313 149.28C132.051 149.28 130.11 150.091 128.489 151.712C126.953 153.291 126.185 155.253 126.185 157.6C126.185 159.947 126.953 161.931 128.489 163.552C130.067 165.131 132.009 165.92 134.313 165.92ZM154.284 161.632V143.2H161.196V159.648C161.196 161.525 161.815 163.104 163.052 164.384C164.332 165.621 165.89 166.24 167.724 166.24C169.602 166.24 171.159 165.621 172.396 164.384C173.676 163.104 174.316 161.525 174.316 159.648V143.2H181.228V172H174.316V168.48C172.183 171.381 169.303 172.832 165.676 172.832C162.476 172.832 159.767 171.765 157.548 169.632C155.372 167.456 154.284 164.789 154.284 161.632ZM208.403 150.112L201.939 151.2C201.427 149.28 199.742 148.32 196.883 148.32C195.688 148.32 194.707 148.555 193.939 149.024C193.214 149.451 192.851 150.048 192.851 150.816C192.851 151.84 193.704 152.629 195.411 153.184L201.299 155.168C203.944 156.107 205.864 157.259 207.059 158.624C208.254 159.989 208.851 161.717 208.851 163.808C208.851 166.667 207.806 168.885 205.715 170.464C203.624 172.043 200.872 172.832 197.459 172.832C194.046 172.832 191.294 172.085 189.203 170.592C187.112 169.099 185.875 167.029 185.491 164.384L191.955 163.424C192.552 165.685 194.451 166.816 197.651 166.816C199.016 166.816 200.126 166.581 200.979 166.112C201.832 165.6 202.259 164.917 202.259 164.064C202.259 162.912 201.192 161.973 199.059 161.248L193.171 159.392C190.739 158.581 188.968 157.557 187.859 156.32C186.792 155.04 186.259 153.376 186.259 151.328C186.259 148.427 187.262 146.208 189.267 144.672C191.272 143.136 193.982 142.368 197.395 142.368C200.467 142.368 202.984 143.072 204.947 144.48C206.91 145.845 208.062 147.723 208.403 150.112ZM242.197 160.16H219.349C219.861 162.037 220.885 163.573 222.421 164.768C223.957 165.92 225.749 166.496 227.797 166.496C230.571 166.496 232.811 165.472 234.517 163.424L241.237 165.408C239.915 167.712 238.059 169.525 235.669 170.848C233.323 172.171 230.699 172.832 227.797 172.832C223.403 172.832 219.691 171.381 216.661 168.48C213.675 165.621 212.181 161.995 212.181 157.6C212.181 153.291 213.632 149.685 216.533 146.784C219.392 143.84 222.997 142.368 227.349 142.368C231.616 142.368 235.179 143.84 238.037 146.784C240.939 149.685 242.389 153.291 242.389 157.6C242.389 158.496 242.325 159.349 242.197 160.16ZM219.413 154.784H235.285C234.731 152.992 233.728 151.541 232.277 150.432C230.827 149.28 229.141 148.704 227.221 148.704C225.387 148.704 223.744 149.28 222.293 150.432C220.885 151.541 219.925 152.992 219.413 154.784Z" fill="#1E1E1E"/>
</svg>
