<svg width="147" height="29" viewBox="0 0 147 29" fill="none" xmlns="http://www.w3.org/2000/svg">
<path d="M146.687 8.52374L139.385 18.7397H147V21.9361H134.779V19.6798L142.111 9.46386H135.092V6.26746H146.687V8.52374Z" fill="#1E1E1E"/>
<path d="M126.074 17.6429L130.085 6.26746H133.689L127.672 22.4375C126.168 26.4904 123.619 28.4125 120.026 28.2036V25.0385C121.071 25.1012 121.917 24.8818 122.564 24.3804C123.212 23.879 123.755 23.0747 124.194 21.9674L124.351 21.6541L117.707 6.26746H121.405L126.074 17.6429Z" fill="#1E1E1E"/>
<path d="M110.326 5.85999C112.144 5.85999 113.596 6.44495 114.682 7.61487C115.79 8.76391 116.343 10.3308 116.343 12.3155V21.936H112.959V12.6602C112.959 11.4902 112.645 10.5919 112.019 9.96517C111.392 9.33842 110.535 9.02505 109.449 9.02505C108.216 9.02505 107.245 9.41154 106.535 10.1845C105.824 10.9366 105.469 12.0543 105.469 13.5376V21.936H102.085V6.26737H105.469V8.27296C106.514 6.66431 108.133 5.85999 110.326 5.85999Z" fill="#1E1E1E"/>
<path d="M94.912 8.49232V6.26737H98.2964V21.936H94.912V19.6797C93.6376 21.4555 91.8096 22.3434 89.428 22.3434C87.2762 22.3434 85.4377 21.5495 83.9126 19.9618C82.3875 18.374 81.625 16.4206 81.625 14.1017C81.625 11.7827 82.3875 9.82937 83.9126 8.24162C85.4377 6.65386 87.2762 5.85999 89.428 5.85999C91.8096 5.85999 93.6376 6.73743 94.912 8.49232ZM86.4196 17.7055C87.3597 18.6456 88.5401 19.1157 89.9607 19.1157C91.3813 19.1157 92.5617 18.6456 93.5018 17.7055C94.4419 16.7445 94.912 15.5432 94.912 14.1017C94.912 12.6602 94.4419 11.4694 93.5018 10.5292C92.5617 9.56823 91.3813 9.08772 89.9607 9.08772C88.5401 9.08772 87.3597 9.56823 86.4196 10.5292C85.4795 11.4694 85.0094 12.6602 85.0094 14.1017C85.0094 15.5223 85.4795 16.7236 86.4196 17.7055Z" fill="#1E1E1E"/>
<path d="M75.3927 8.58633V6.26737H78.7144V21.2153C78.7144 23.5969 77.931 25.4249 76.3641 26.6993C74.8181 27.9737 72.917 28.6108 70.6607 28.6108C67.0465 28.6108 64.5708 27.3469 63.2338 24.819L66.1482 23.1268C66.9629 24.7355 68.488 25.5398 70.7234 25.5398C72.1858 25.5398 73.3244 25.1533 74.1392 24.3803C74.9748 23.6282 75.3927 22.5732 75.3927 21.2153V19.3037C74.1183 21.1212 72.3007 22.03 69.94 22.03C67.7464 22.03 65.8766 21.2466 64.3306 19.6797C62.8055 18.092 62.043 16.1804 62.043 13.945C62.043 11.6887 62.8055 9.78759 64.3306 8.24162C65.8557 6.65386 67.7255 5.85999 69.94 5.85999C72.3007 5.85999 74.1183 6.76877 75.3927 8.58633ZM66.8376 17.4548C67.7986 18.3949 68.9894 18.865 70.41 18.865C71.8306 18.865 73.011 18.3949 73.9511 17.4548C74.9121 16.5147 75.3927 15.3447 75.3927 13.945C75.3927 12.5453 74.9121 11.3753 73.9511 10.4352C73.011 9.49511 71.8306 9.02505 70.41 9.02505C68.9894 9.02505 67.7986 9.49511 66.8376 10.4352C65.8975 11.3753 65.4274 12.5453 65.4274 13.945C65.4274 15.3447 65.8975 16.5147 66.8376 17.4548Z" fill="#1E1E1E"/>
<path d="M60.0656 15.5432H47.5934C47.8441 16.7131 48.4081 17.6219 49.2856 18.2695C50.1839 18.9172 51.2912 19.241 52.6073 19.241C54.3831 19.241 55.7306 18.5934 56.6498 17.2981L59.4388 18.9276C57.9138 21.2048 55.6261 22.3434 52.576 22.3434C50.0481 22.3434 47.9903 21.5704 46.4025 20.0244C44.8357 18.4576 44.0522 16.4833 44.0522 14.1017C44.0522 11.7827 44.8252 9.82937 46.3712 8.24162C47.8963 6.65386 49.881 5.85999 52.3253 5.85999C54.6025 5.85999 56.4827 6.66431 57.966 8.27296C59.4493 9.8816 60.1909 11.835 60.1909 14.133C60.1909 14.5509 60.1492 15.0209 60.0656 15.5432ZM47.562 12.7855H56.7752C56.5454 11.5529 56.0231 10.6024 55.2083 9.93383C54.4144 9.2653 53.443 8.93104 52.2939 8.93104C51.0405 8.93104 49.9959 9.27575 49.1602 9.96517C48.3246 10.6546 47.7918 11.5947 47.562 12.7855Z" fill="#1E1E1E"/>
<path d="M36.5625 17.0788L39.6335 6.26746H43.206L38.286 21.9361H34.9643L31.7052 11.3754L28.4148 21.9361H25.093L20.1731 6.26746H23.7455L26.7853 17.0788L30.0757 6.26746H33.3034L36.5625 17.0788Z" fill="#1E1E1E"/>
<path d="M20.2125 21.9361H16.3267L14.7912 17.5175H5.45269L3.91716 21.9361H0L7.95967 0H12.2842L20.2125 21.9361ZM10.1219 4.23053L6.6435 14.1331H13.6004L10.1219 4.23053Z" fill="#1E1E1E"/>
</svg>
