<svg width="830" height="124" viewBox="0 0 830 124" fill="none" xmlns="http://www.w3.org/2000/svg">
<path d="M44.84 93H0.808001V6.6H42.28C49.7893 6.6 56.0613 8.86133 61.096 13.384C66.1307 17.9067 68.648 23.4107 68.648 29.896C68.648 37.1493 65.704 43.0373 59.816 47.56C63.7413 49.7787 66.8133 52.7227 69.032 56.392C71.2507 60.0613 72.36 64.072 72.36 68.424C72.36 75.336 69.7147 81.1813 64.424 85.96C59.2187 90.6533 52.6907 93 44.84 93ZM44.84 55.496H16.04V78.92H44.84C48.0827 78.92 50.8133 77.8107 53.032 75.592C55.336 73.288 56.488 70.472 56.488 67.144C56.488 63.9013 55.336 61.1707 53.032 58.952C50.8133 56.648 48.0827 55.496 44.84 55.496ZM42.28 20.68H16.04V41.544H42.28C45.2667 41.544 47.7413 40.5627 49.704 38.6C51.752 36.6373 52.776 34.1627 52.776 31.176C52.776 28.1893 51.752 25.7147 49.704 23.752C47.7413 21.704 45.2667 20.68 42.28 20.68ZM81.754 72.264V35.4H95.578V68.296C95.578 72.0507 96.8153 75.208 99.29 77.768C101.85 80.2427 104.965 81.48 108.634 81.48C112.389 81.48 115.503 80.2427 117.978 77.768C120.538 75.208 121.818 72.0507 121.818 68.296V35.4H135.642V93H121.818V85.96C117.551 91.7627 111.791 94.664 104.538 94.664C98.138 94.664 92.7193 92.5307 88.282 88.264C83.93 83.912 81.754 78.5787 81.754 72.264ZM189.991 49.224L177.063 51.4C176.039 47.56 172.668 45.64 166.951 45.64C164.562 45.64 162.599 46.1093 161.063 47.048C159.612 47.9013 158.887 49.096 158.887 50.632C158.887 52.68 160.594 54.2587 164.007 55.368L175.783 59.336C181.074 61.2133 184.914 63.5173 187.303 66.248C189.692 68.9787 190.887 72.4347 190.887 76.616C190.887 82.3333 188.796 86.7707 184.615 89.928C180.434 93.0853 174.93 94.664 168.103 94.664C161.276 94.664 155.772 93.1707 151.591 90.184C147.41 87.1973 144.935 83.0587 144.167 77.768L157.095 75.848C158.29 80.3707 162.087 82.632 168.487 82.632C171.218 82.632 173.436 82.1627 175.143 81.224C176.85 80.2 177.703 78.8347 177.703 77.128C177.703 74.824 175.57 72.9467 171.303 71.496L159.527 67.784C154.663 66.1627 151.122 64.1147 148.903 61.64C146.77 59.08 145.703 55.752 145.703 51.656C145.703 45.8533 147.708 41.416 151.719 38.344C155.73 35.272 161.148 33.736 167.975 33.736C174.119 33.736 179.154 35.144 183.079 37.96C187.004 40.6907 189.308 44.4453 189.991 49.224ZM213.548 93H199.724V35.4H213.548V93ZM197.932 17.096C197.932 14.536 198.743 12.4453 200.364 10.824C202.071 9.11733 204.161 8.26399 206.636 8.26399C209.111 8.26399 211.201 9.11733 212.908 10.824C214.615 12.4453 215.468 14.536 215.468 17.096C215.468 19.5707 214.615 21.6613 212.908 23.368C211.201 24.9893 209.111 25.8 206.636 25.8C204.161 25.8 202.071 24.9893 200.364 23.368C198.743 21.6613 197.932 19.5707 197.932 17.096ZM225.209 93V35.4H239.033V42.44C243.3 36.6373 249.06 33.736 256.313 33.736C262.884 33.736 268.302 35.8693 272.569 40.136C276.921 44.3173 279.097 49.6507 279.097 56.136V93H265.273V60.104C265.273 56.3493 264.036 53.2347 261.561 50.76C259.086 48.2 255.972 46.92 252.217 46.92C248.548 46.92 245.433 48.2 242.873 50.76C240.313 53.32 239.033 56.4347 239.033 60.104V93H225.209ZM348.55 69.32H302.854C303.878 73.0747 305.926 76.1467 308.998 78.536C312.07 80.84 315.654 81.992 319.75 81.992C325.297 81.992 329.777 79.944 333.19 75.848L346.63 79.816C343.985 84.424 340.273 88.0507 335.494 90.696C330.801 93.3413 325.553 94.664 319.75 94.664C310.961 94.664 303.537 91.7627 297.478 85.96C291.505 80.2427 288.518 72.9893 288.518 64.2C288.518 55.5813 291.419 48.3707 297.222 42.568C302.939 36.68 310.15 33.736 318.854 33.736C327.387 33.736 334.513 36.68 340.23 42.568C346.033 48.3707 348.934 55.5813 348.934 64.2C348.934 65.992 348.806 67.6987 348.55 69.32ZM302.982 58.568H334.726C333.617 54.984 331.611 52.0827 328.71 49.864C325.809 47.56 322.438 46.408 318.598 46.408C314.929 46.408 311.643 47.56 308.742 49.864C305.926 52.0827 304.006 54.984 302.982 58.568ZM400.306 49.224L387.378 51.4C386.354 47.56 382.983 45.64 377.266 45.64C374.877 45.64 372.914 46.1093 371.378 47.048C369.927 47.9013 369.202 49.096 369.202 50.632C369.202 52.68 370.909 54.2587 374.322 55.368L386.098 59.336C391.389 61.2133 395.229 63.5173 397.618 66.248C400.007 68.9787 401.202 72.4347 401.202 76.616C401.202 82.3333 399.111 86.7707 394.93 89.928C390.749 93.0853 385.245 94.664 378.418 94.664C371.591 94.664 366.087 93.1707 361.906 90.184C357.725 87.1973 355.25 83.0587 354.482 77.768L367.41 75.848C368.605 80.3707 372.402 82.632 378.802 82.632C381.533 82.632 383.751 82.1627 385.458 81.224C387.165 80.2 388.018 78.8347 388.018 77.128C388.018 74.824 385.885 72.9467 381.618 71.496L369.842 67.784C364.978 66.1627 361.437 64.1147 359.218 61.64C357.085 59.08 356.018 55.752 356.018 51.656C356.018 45.8533 358.023 41.416 362.034 38.344C366.045 35.272 371.463 33.736 378.29 33.736C384.434 33.736 389.469 35.144 393.394 37.96C397.319 40.6907 399.623 44.4453 400.306 49.224ZM452.791 49.224L439.863 51.4C438.839 47.56 435.468 45.64 429.751 45.64C427.362 45.64 425.399 46.1093 423.863 47.048C422.412 47.9013 421.687 49.096 421.687 50.632C421.687 52.68 423.394 54.2587 426.807 55.368L438.583 59.336C443.874 61.2133 447.714 63.5173 450.103 66.248C452.492 68.9787 453.687 72.4347 453.687 76.616C453.687 82.3333 451.596 86.7707 447.415 89.928C443.234 93.0853 437.73 94.664 430.903 94.664C424.076 94.664 418.572 93.1707 414.391 90.184C410.21 87.1973 407.735 83.0587 406.967 77.768L419.895 75.848C421.09 80.3707 424.887 82.632 431.287 82.632C434.018 82.632 436.236 82.1627 437.943 81.224C439.65 80.2 440.503 78.8347 440.503 77.128C440.503 74.824 438.37 72.9467 434.103 71.496L422.327 67.784C417.463 66.1627 413.922 64.1147 411.703 61.64C409.57 59.08 408.503 55.752 408.503 51.656C408.503 45.8533 410.508 41.416 414.519 38.344C418.53 35.272 423.948 33.736 430.775 33.736C436.919 33.736 441.954 35.144 445.879 37.96C449.804 40.6907 452.108 44.4453 452.791 49.224ZM491.458 64.2C491.458 55.5813 494.146 48.3707 499.522 42.568C504.898 36.68 511.597 33.736 519.618 33.736C526.274 33.736 532.077 35.8267 537.026 40.008V0.199997H550.722V93H537.026V88.392C532.077 92.5733 526.274 94.664 519.618 94.664C511.597 94.664 504.898 91.7627 499.522 85.96C494.146 80.1573 491.458 72.904 491.458 64.2ZM536.77 64.2C536.77 59.592 535.277 55.6667 532.29 52.424C529.303 49.1813 525.634 47.56 521.282 47.56C516.93 47.56 513.261 49.1813 510.274 52.424C507.287 55.6667 505.794 59.592 505.794 64.2C505.794 68.8933 507.287 72.8613 510.274 76.104C513.175 79.2613 516.845 80.84 521.282 80.84C525.719 80.84 529.389 79.2613 532.29 76.104C535.277 72.8613 536.77 68.8933 536.77 64.2ZM620.225 69.32H574.529C575.553 73.0747 577.601 76.1467 580.673 78.536C583.745 80.84 587.329 81.992 591.425 81.992C596.972 81.992 601.452 79.944 604.865 75.848L618.305 79.816C615.66 84.424 611.948 88.0507 607.169 90.696C602.476 93.3413 597.228 94.664 591.425 94.664C582.636 94.664 575.212 91.7627 569.153 85.96C563.18 80.2427 560.193 72.9893 560.193 64.2C560.193 55.5813 563.094 48.3707 568.897 42.568C574.614 36.68 581.825 33.736 590.529 33.736C599.062 33.736 606.188 36.68 611.905 42.568C617.708 48.3707 620.609 55.5813 620.609 64.2C620.609 65.992 620.481 67.6987 620.225 69.32ZM574.657 58.568H606.401C605.292 54.984 603.286 52.0827 600.385 49.864C597.484 47.56 594.113 46.408 590.273 46.408C586.604 46.408 583.318 47.56 580.417 49.864C577.601 52.0827 575.681 54.984 574.657 58.568ZM671.981 49.224L659.053 51.4C658.029 47.56 654.658 45.64 648.941 45.64C646.552 45.64 644.589 46.1093 643.053 47.048C641.602 47.9013 640.877 49.096 640.877 50.632C640.877 52.68 642.584 54.2587 645.997 55.368L657.773 59.336C663.064 61.2133 666.904 63.5173 669.293 66.248C671.682 68.9787 672.877 72.4347 672.877 76.616C672.877 82.3333 670.786 86.7707 666.605 89.928C662.424 93.0853 656.92 94.664 650.093 94.664C643.266 94.664 637.762 93.1707 633.581 90.184C629.4 87.1973 626.925 83.0587 626.157 77.768L639.085 75.848C640.28 80.3707 644.077 82.632 650.477 82.632C653.208 82.632 655.426 82.1627 657.133 81.224C658.84 80.2 659.693 78.8347 659.693 77.128C659.693 74.824 657.56 72.9467 653.293 71.496L641.517 67.784C636.653 66.1627 633.112 64.1147 630.893 61.64C628.76 59.08 627.693 55.752 627.693 51.656C627.693 45.8533 629.698 41.416 633.709 38.344C637.72 35.272 643.138 33.736 649.965 33.736C656.109 33.736 661.144 35.144 665.069 37.96C668.994 40.6907 671.298 44.4453 671.981 49.224ZM695.538 93H681.714V35.4H695.538V93ZM679.922 17.096C679.922 14.536 680.733 12.4453 682.354 10.824C684.061 9.11733 686.151 8.26399 688.626 8.26399C691.101 8.26399 693.191 9.11733 694.898 10.824C696.605 12.4453 697.458 14.536 697.458 17.096C697.458 19.5707 696.605 21.6613 694.898 23.368C693.191 24.9893 691.101 25.8 688.626 25.8C686.151 25.8 684.061 24.9893 682.354 23.368C680.733 21.6613 679.922 19.5707 679.922 17.096ZM705.023 64.2C705.023 55.5813 707.711 48.3707 713.087 42.568C718.463 36.68 725.162 33.736 733.183 33.736C739.839 33.736 745.642 35.8267 750.591 40.008V35.4H764.287V94.664C764.287 102.771 761.514 109.597 755.967 115.144C750.42 120.691 743.551 123.464 735.359 123.464C729.044 123.464 723.199 121.8 717.823 118.472C712.447 115.059 708.82 110.835 706.943 105.8L720.895 101.96C721.834 104.179 723.626 106.013 726.271 107.464C728.916 109 731.775 109.768 734.847 109.768C739.37 109.768 743.082 108.317 745.983 105.416C749.055 102.6 750.591 99.0587 750.591 94.792V88.392C745.642 92.5733 739.839 94.664 733.183 94.664C725.162 94.664 718.463 91.7627 713.087 85.96C707.711 80.1573 705.023 72.904 705.023 64.2ZM750.335 64.2C750.335 59.592 748.842 55.6667 745.855 52.424C742.868 49.1813 739.199 47.56 734.847 47.56C730.495 47.56 726.826 49.1813 723.839 52.424C720.852 55.6667 719.359 59.592 719.359 64.2C719.359 68.8933 720.852 72.8613 723.839 76.104C726.74 79.2613 730.41 80.84 734.847 80.84C739.284 80.84 742.954 79.2613 745.855 76.104C748.842 72.8613 750.335 68.8933 750.335 64.2ZM775.934 93V35.4H789.758V42.44C794.025 36.6373 799.785 33.736 807.038 33.736C813.609 33.736 819.027 35.8693 823.294 40.136C827.646 44.3173 829.822 49.6507 829.822 56.136V93H815.998V60.104C815.998 56.3493 814.761 53.2347 812.286 50.76C809.811 48.2 806.697 46.92 802.942 46.92C799.273 46.92 796.158 48.2 793.598 50.76C791.038 53.32 789.758 56.4347 789.758 60.104V93H775.934Z" fill="white"/>
</svg>
