<svg width="888" height="84" viewBox="0 0 888 84" fill="none" xmlns="http://www.w3.org/2000/svg">
<path d="M2.884 21H0.504L8.82 2.1H10.612L18.928 21H16.576L14.672 16.66H4.788L2.884 21ZM13.748 14.56L9.744 5.348L5.712 14.56H13.748ZM23.1094 13.888V21H21.0654V8.4H23.1094V10.528C24.0614 8.92267 25.5454 8.12 27.5614 8.12H27.9254V10.416C27.6081 10.3227 27.3001 10.276 27.0014 10.276C25.9001 10.276 24.9761 10.6213 24.2294 11.312C23.4827 12.0027 23.1094 12.8613 23.1094 13.888ZM41.8847 15.4H31.0767C31.2074 16.52 31.7021 17.4627 32.5607 18.228C33.4194 18.9747 34.4554 19.348 35.6687 19.348C37.2741 19.348 38.5154 18.7413 39.3927 17.528L41.3807 18.172C40.8021 19.1427 40.0087 19.908 39.0007 20.468C37.9927 21.0093 36.8821 21.28 35.6687 21.28C33.7274 21.28 32.1221 20.6547 30.8527 19.404C29.5834 18.1347 28.9487 16.5667 28.9487 14.7C28.9487 12.8333 29.5741 11.2747 30.8247 10.024C32.0941 8.75467 33.6434 8.12 35.4727 8.12C37.3021 8.12 38.8327 8.75467 40.0647 10.024C41.3154 11.2747 41.9407 12.8333 41.9407 14.7C41.9407 14.98 41.9221 15.2133 41.8847 15.4ZM31.1047 13.748H39.8127C39.6074 12.6653 39.0941 11.7787 38.2727 11.088C37.4701 10.3973 36.5181 10.052 35.4167 10.052C34.3527 10.052 33.4194 10.3973 32.6167 11.088C31.8141 11.7787 31.3101 12.6653 31.1047 13.748ZM54.3952 22.988L55.3472 20.664L50.3352 8.4H52.4632L56.3832 18.172L60.4432 8.4H62.5712L56.1592 23.688C55.6366 24.9387 54.9926 25.8533 54.2272 26.432C53.4806 27.0107 52.5379 27.3 51.3992 27.3H50.9232V25.312H51.3992C52.7432 25.312 53.7419 24.5373 54.3952 22.988ZM69.972 21.28C68.0867 21.28 66.5187 20.6547 65.268 19.404C64.0173 18.1533 63.392 16.5853 63.392 14.7C63.392 12.8147 64.0173 11.2467 65.268 9.996C66.5187 8.74533 68.0867 8.12 69.972 8.12C71.8387 8.12 73.3973 8.74533 74.648 9.996C75.9173 11.2653 76.552 12.8333 76.552 14.7C76.552 16.5667 75.9173 18.1347 74.648 19.404C73.3973 20.6547 71.8387 21.28 69.972 21.28ZM69.972 10.192C68.7027 10.192 67.648 10.6213 66.808 11.48C65.968 12.3387 65.548 13.412 65.548 14.7C65.548 15.988 65.968 17.0613 66.808 17.92C67.648 18.7787 68.7027 19.208 69.972 19.208C71.2413 19.208 72.296 18.7787 73.136 17.92C73.976 17.0613 74.396 15.988 74.396 14.7C74.396 13.412 73.976 12.3387 73.136 11.48C72.296 10.6213 71.2413 10.192 69.972 10.192ZM79.2078 16.268V8.4H81.2798V15.708C81.2798 16.7347 81.6158 17.5933 82.2878 18.284C82.9785 18.956 83.8372 19.292 84.8638 19.292C85.9838 19.292 86.8985 18.9467 87.6078 18.256C88.3545 17.5653 88.7278 16.7067 88.7278 15.68V8.4H90.7998V21H88.7278V18.928C87.7758 20.496 86.2918 21.28 84.2758 21.28C82.8198 21.28 81.6065 20.804 80.6358 19.852C79.6838 18.9 79.2078 17.7053 79.2078 16.268ZM106.977 8.12C108.825 8.12 110.346 8.792 111.541 10.136V8.4H113.613V21H111.541V19.264C110.346 20.608 108.825 21.28 106.977 21.28C105.204 21.28 103.72 20.6547 102.525 19.404C101.349 18.1533 100.761 16.5853 100.761 14.7C100.761 12.852 101.349 11.2933 102.525 10.024C103.738 8.75467 105.222 8.12 106.977 8.12ZM110.253 11.48C109.45 10.6213 108.433 10.192 107.201 10.192C105.969 10.192 104.952 10.6213 104.149 11.48C103.328 12.3573 102.917 13.4307 102.917 14.7C102.917 15.9693 103.328 17.0427 104.149 17.92C104.952 18.7787 105.969 19.208 107.201 19.208C108.433 19.208 109.45 18.7787 110.253 17.92C111.074 17.0427 111.485 15.9693 111.485 14.7C111.485 13.4307 111.074 12.3573 110.253 11.48ZM116.961 21V8.4H119.005V10.5C119.92 8.91333 121.404 8.12 123.457 8.12C124.932 8.12 126.145 8.596 127.097 9.548C128.068 10.5 128.553 11.6947 128.553 13.132V21H126.481V13.692C126.481 12.6653 126.136 11.816 125.445 11.144C124.773 10.4533 123.924 10.108 122.897 10.108C121.796 10.108 120.872 10.4533 120.125 11.144C119.378 11.8347 119.005 12.6933 119.005 13.72V21H116.961ZM141.202 21H139.13V8.4H141.202V21ZM138.738 4.284C138.701 3.70533 138.925 3.304 139.41 3.08C139.914 2.83733 140.409 2.83733 140.894 3.08C141.398 3.304 141.622 3.70533 141.566 4.284C141.566 4.69467 141.436 5.04 141.174 5.32C140.913 5.58133 140.577 5.712 140.166 5.712C139.756 5.712 139.41 5.58133 139.13 5.32C138.869 5.05867 138.738 4.71333 138.738 4.284ZM144.568 21V8.4H146.612V10.5C147.527 8.91333 149.011 8.12 151.064 8.12C152.539 8.12 153.752 8.596 154.704 9.548C155.675 10.5 156.16 11.6947 156.16 13.132V21H154.088V13.692C154.088 12.6653 153.743 11.816 153.052 11.144C152.38 10.4533 151.531 10.108 150.504 10.108C149.403 10.108 148.479 10.4533 147.732 11.144C146.986 11.8347 146.612 12.6933 146.612 13.72V21H144.568ZM163.143 21L157.739 8.4H159.867L164.095 18.368L168.323 8.4H170.451L165.047 21H163.143ZM184.224 15.4H173.416C173.547 16.52 174.042 17.4627 174.9 18.228C175.759 18.9747 176.795 19.348 178.008 19.348C179.614 19.348 180.855 18.7413 181.732 17.528L183.72 18.172C183.142 19.1427 182.348 19.908 181.34 20.468C180.332 21.0093 179.222 21.28 178.008 21.28C176.067 21.28 174.462 20.6547 173.192 19.404C171.923 18.1347 171.288 16.5667 171.288 14.7C171.288 12.8333 171.914 11.2747 173.164 10.024C174.434 8.75467 175.983 8.12 177.812 8.12C179.642 8.12 181.172 8.75467 182.404 10.024C183.655 11.2747 184.28 12.8333 184.28 14.7C184.28 14.98 184.262 15.2133 184.224 15.4ZM173.444 13.748H182.152C181.947 12.6653 181.434 11.7787 180.612 11.088C179.81 10.3973 178.858 10.052 177.756 10.052C176.692 10.052 175.759 10.3973 174.956 11.088C174.154 11.7787 173.65 12.6653 173.444 13.748ZM186.832 21V8.4H188.876V10.5C189.791 8.91333 191.275 8.12 193.328 8.12C194.803 8.12 196.016 8.596 196.968 9.548C197.939 10.5 198.424 11.6947 198.424 13.132V21H196.352V13.692C196.352 12.6653 196.007 11.816 195.316 11.144C194.644 10.4533 193.795 10.108 192.768 10.108C191.667 10.108 190.743 10.4533 189.996 11.144C189.249 11.8347 188.876 12.6933 188.876 13.72V21H186.832ZM200.386 10.22V8.4H202.43V5.796H204.474V8.4H208.058V10.22H204.474V17.024C204.474 17.6027 204.642 18.0787 204.978 18.452C205.333 18.8253 205.772 19.012 206.294 19.012H208.058V21H206.154C205.09 21 204.204 20.6453 203.494 19.936C202.785 19.1893 202.43 18.3027 202.43 17.276V10.22H200.386ZM216.386 21.28C214.5 21.28 212.932 20.6547 211.682 19.404C210.431 18.1533 209.806 16.5853 209.806 14.7C209.806 12.8147 210.431 11.2467 211.682 9.996C212.932 8.74533 214.5 8.12 216.386 8.12C218.252 8.12 219.811 8.74533 221.062 9.996C222.331 11.2653 222.966 12.8333 222.966 14.7C222.966 16.5667 222.331 18.1347 221.062 19.404C219.811 20.6547 218.252 21.28 216.386 21.28ZM216.386 10.192C215.116 10.192 214.062 10.6213 213.222 11.48C212.382 12.3387 211.962 13.412 211.962 14.7C211.962 15.988 212.382 17.0613 213.222 17.92C214.062 18.7787 215.116 19.208 216.386 19.208C217.655 19.208 218.71 18.7787 219.55 17.92C220.39 17.0613 220.81 15.988 220.81 14.7C220.81 13.412 220.39 12.3387 219.55 11.48C218.71 10.6213 217.655 10.192 216.386 10.192ZM227.722 13.888V21H225.678V8.4H227.722V10.528C228.674 8.92267 230.158 8.12 232.174 8.12H232.538V10.416C232.22 10.3227 231.912 10.276 231.614 10.276C230.512 10.276 229.588 10.6213 228.842 11.312C228.095 12.0027 227.722 12.8613 227.722 13.888ZM246.617 21H244.825L240.541 8.4H242.613L245.693 17.836L248.745 8.4H250.565L253.589 17.808L256.697 8.4H258.769L254.485 21H252.665L249.641 11.816L246.617 21ZM262.794 21H260.722V8.4H262.794V21ZM260.33 4.284C260.293 3.70533 260.517 3.304 261.002 3.08C261.506 2.83733 262.001 2.83733 262.486 3.08C262.99 3.304 263.214 3.70533 263.158 4.284C263.158 4.69467 263.028 5.04 262.766 5.32C262.505 5.58133 262.169 5.712 261.758 5.712C261.348 5.712 261.002 5.58133 260.722 5.32C260.461 5.05867 260.33 4.71333 260.33 4.284ZM264.789 10.22V8.4H266.833V5.796H268.877V8.4H272.461V10.22H268.877V17.024C268.877 17.6027 269.045 18.0787 269.381 18.452C269.735 18.8253 270.174 19.012 270.697 19.012H272.461V21H270.557C269.493 21 268.606 20.6453 267.897 19.936C267.187 19.1893 266.833 18.3027 266.833 17.276V10.22H264.789ZM274.989 21V0.699999H277.033V10.5C278.004 8.91333 279.507 8.12 281.541 8.12C283.016 8.12 284.229 8.60533 285.181 9.576C286.152 10.528 286.637 11.7227 286.637 13.16V21H284.565V13.692C284.565 12.6653 284.22 11.816 283.529 11.144C282.839 10.4533 281.98 10.108 280.953 10.108C279.833 10.108 278.9 10.4533 278.153 11.144C277.407 11.8347 277.033 12.6933 277.033 13.72V21H274.989ZM302.757 8.12C304.605 8.12 306.127 8.792 307.321 10.136V8.4H309.393V21H307.321V19.264C306.127 20.608 304.605 21.28 302.757 21.28C300.984 21.28 299.5 20.6547 298.305 19.404C297.129 18.1533 296.541 16.5853 296.541 14.7C296.541 12.852 297.129 11.2933 298.305 10.024C299.519 8.75467 301.003 8.12 302.757 8.12ZM306.033 11.48C305.231 10.6213 304.213 10.192 302.981 10.192C301.749 10.192 300.732 10.6213 299.929 11.48C299.108 12.3573 298.697 13.4307 298.697 14.7C298.697 15.9693 299.108 17.0427 299.929 17.92C300.732 18.7787 301.749 19.208 302.981 19.208C304.213 19.208 305.231 18.7787 306.033 17.92C306.855 17.0427 307.265 15.9693 307.265 14.7C307.265 13.4307 306.855 12.3573 306.033 11.48ZM325.528 21.28C323.755 21.28 322.271 20.6547 321.076 19.404C319.9 18.1533 319.312 16.5853 319.312 14.7C319.312 12.852 319.9 11.2933 321.076 10.024C322.289 8.75467 323.773 8.12 325.528 8.12C327.376 8.12 328.897 8.792 330.092 10.136V8.4H332.136V21.224C332.136 23.0533 331.52 24.5653 330.288 25.76C329.075 26.9733 327.553 27.58 325.724 27.58C324.455 27.58 323.279 27.272 322.196 26.656C321.132 26.04 320.357 25.2373 319.872 24.248L321.944 23.604C322.261 24.1827 322.756 24.6493 323.428 25.004C324.119 25.3587 324.856 25.536 325.64 25.536C326.891 25.536 327.955 25.1253 328.832 24.304C329.709 23.4827 330.129 22.456 330.092 21.224V19.264C328.897 20.608 327.376 21.28 325.528 21.28ZM328.804 11.48C328.001 10.6213 326.984 10.192 325.752 10.192C324.52 10.192 323.503 10.6213 322.7 11.48C321.879 12.3573 321.468 13.4307 321.468 14.7C321.468 15.9693 321.879 17.0427 322.7 17.92C323.503 18.7787 324.52 19.208 325.752 19.208C326.984 19.208 328.001 18.7787 328.804 17.92C329.625 17.0427 330.036 15.9693 330.036 14.7C330.036 13.4307 329.625 12.3573 328.804 11.48ZM337.556 13.888V21H335.512V8.4H337.556V10.528C338.508 8.92267 339.992 8.12 342.008 8.12H342.372V10.416C342.055 10.3227 341.747 10.276 341.448 10.276C340.347 10.276 339.423 10.6213 338.676 11.312C337.929 12.0027 337.556 12.8613 337.556 13.888ZM349.975 21.28C348.09 21.28 346.522 20.6547 345.271 19.404C344.021 18.1533 343.395 16.5853 343.395 14.7C343.395 12.8147 344.021 11.2467 345.271 9.996C346.522 8.74533 348.09 8.12 349.975 8.12C351.842 8.12 353.401 8.74533 354.651 9.996C355.921 11.2653 356.555 12.8333 356.555 14.7C356.555 16.5667 355.921 18.1347 354.651 19.404C353.401 20.6547 351.842 21.28 349.975 21.28ZM349.975 10.192C348.706 10.192 347.651 10.6213 346.811 11.48C345.971 12.3387 345.551 13.412 345.551 14.7C345.551 15.988 345.971 17.0613 346.811 17.92C347.651 18.7787 348.706 19.208 349.975 19.208C351.245 19.208 352.299 18.7787 353.139 17.92C353.979 17.0613 354.399 15.988 354.399 14.7C354.399 13.412 353.979 12.3387 353.139 11.48C352.299 10.6213 351.245 10.192 349.975 10.192ZM359.211 16.268V8.4H361.283V15.708C361.283 16.7347 361.619 17.5933 362.291 18.284C362.982 18.956 363.84 19.292 364.867 19.292C365.987 19.292 366.902 18.9467 367.611 18.256C368.358 17.5653 368.731 16.7067 368.731 15.68V8.4H370.803V21H368.731V18.928C367.779 20.496 366.295 21.28 364.279 21.28C362.823 21.28 361.61 20.804 360.639 19.852C359.687 18.9 359.211 17.7053 359.211 16.268ZM374.194 21V8.4H376.238V10.5C377.152 8.91333 378.636 8.12 380.69 8.12C382.164 8.12 383.378 8.596 384.33 9.548C385.3 10.5 385.786 11.6947 385.786 13.132V21H383.714V13.692C383.714 12.6653 383.368 11.816 382.678 11.144C382.006 10.4533 381.156 10.108 380.13 10.108C379.028 10.108 378.104 10.4533 377.358 11.144C376.611 11.8347 376.238 12.6933 376.238 13.72V21H374.194ZM394.664 8.12C396.512 8.12 398.033 8.792 399.228 10.136V0.699999H401.272V21H399.228V19.264C398.033 20.608 396.512 21.28 394.664 21.28C392.891 21.28 391.407 20.6547 390.212 19.404C389.036 18.1533 388.448 16.5853 388.448 14.7C388.448 12.852 389.036 11.2933 390.212 10.024C391.425 8.75467 392.909 8.12 394.664 8.12ZM397.94 11.48C397.137 10.6213 396.12 10.192 394.888 10.192C393.656 10.192 392.639 10.6213 391.836 11.48C391.015 12.3573 390.604 13.4307 390.604 14.7C390.604 15.9693 391.015 17.0427 391.836 17.92C392.639 18.7787 393.656 19.208 394.888 19.208C396.12 19.208 397.137 18.7787 397.94 17.92C398.761 17.0427 399.172 15.9693 399.172 14.7C399.172 13.4307 398.761 12.3573 397.94 11.48ZM404.76 15.652V13.748H411.844V15.652H404.76ZM415.336 21V0.699999H417.38V10.136C418.575 8.792 420.096 8.12 421.944 8.12C423.717 8.12 425.192 8.75467 426.368 10.024C427.563 11.2747 428.16 12.8333 428.16 14.7C428.16 16.5853 427.563 18.1533 426.368 19.404C425.192 20.6547 423.717 21.28 421.944 21.28C420.096 21.28 418.575 20.608 417.38 19.264V21H415.336ZM424.772 11.48C423.969 10.6213 422.952 10.192 421.72 10.192C420.488 10.192 419.471 10.6213 418.668 11.48C417.847 12.3573 417.436 13.4307 417.436 14.7C417.436 15.9693 417.847 17.0427 418.668 17.92C419.471 18.7787 420.488 19.208 421.72 19.208C422.952 19.208 423.969 18.7787 424.772 17.92C425.612 17.0613 426.032 15.988 426.032 14.7C426.032 13.412 425.612 12.3387 424.772 11.48ZM432.908 13.888V21H430.864V8.4H432.908V10.528C433.86 8.92267 435.344 8.12 437.36 8.12H437.724V10.416C437.407 10.3227 437.099 10.276 436.8 10.276C435.699 10.276 434.775 10.6213 434.028 11.312C433.281 12.0027 432.908 12.8613 432.908 13.888ZM451.683 15.4H440.875C441.006 16.52 441.501 17.4627 442.359 18.228C443.218 18.9747 444.254 19.348 445.467 19.348C447.073 19.348 448.314 18.7413 449.191 17.528L451.179 18.172C450.601 19.1427 449.807 19.908 448.799 20.468C447.791 21.0093 446.681 21.28 445.467 21.28C443.526 21.28 441.921 20.6547 440.651 19.404C439.382 18.1347 438.747 16.5667 438.747 14.7C438.747 12.8333 439.373 11.2747 440.623 10.024C441.893 8.75467 443.442 8.12 445.271 8.12C447.101 8.12 448.631 8.75467 449.863 10.024C451.114 11.2747 451.739 12.8333 451.739 14.7C451.739 14.98 451.721 15.2133 451.683 15.4ZM440.903 13.748H449.611C449.406 12.6653 448.893 11.7787 448.071 11.088C447.269 10.3973 446.317 10.052 445.215 10.052C444.151 10.052 443.218 10.3973 442.415 11.088C441.613 11.7787 441.109 12.6653 440.903 13.748ZM459.835 8.12C461.683 8.12 463.204 8.792 464.399 10.136V8.4H466.471V21H464.399V19.264C463.204 20.608 461.683 21.28 459.835 21.28C458.062 21.28 456.578 20.6547 455.383 19.404C454.207 18.1533 453.619 16.5853 453.619 14.7C453.619 12.852 454.207 11.2933 455.383 10.024C456.596 8.75467 458.08 8.12 459.835 8.12ZM463.111 11.48C462.308 10.6213 461.291 10.192 460.059 10.192C458.827 10.192 457.81 10.6213 457.007 11.48C456.186 12.3573 455.775 13.4307 455.775 14.7C455.775 15.9693 456.186 17.0427 457.007 17.92C457.81 18.7787 458.827 19.208 460.059 19.208C461.291 19.208 462.308 18.7787 463.111 17.92C463.932 17.0427 464.343 15.9693 464.343 14.7C464.343 13.4307 463.932 12.3573 463.111 11.48ZM469.819 21V0.699999H471.863V21H469.819ZM480.235 21H477.659L472.003 14.476L477.155 8.4H479.703L474.551 14.476L480.235 21ZM484.356 21H482.284V8.4H484.356V21ZM481.892 4.284C481.855 3.70533 482.079 3.304 482.564 3.08C483.068 2.83733 483.563 2.83733 484.048 3.08C484.552 3.304 484.776 3.70533 484.72 4.284C484.72 4.69467 484.59 5.04 484.328 5.32C484.067 5.58133 483.731 5.712 483.32 5.712C482.91 5.712 482.564 5.58133 482.284 5.32C482.023 5.05867 481.892 4.71333 481.892 4.284ZM487.723 21V8.4H489.767V10.5C490.681 8.91333 492.165 8.12 494.219 8.12C495.693 8.12 496.907 8.596 497.859 9.548C498.829 10.5 499.315 11.6947 499.315 13.132V21H497.243V13.692C497.243 12.6653 496.897 11.816 496.207 11.144C495.535 10.4533 494.685 10.108 493.659 10.108C492.557 10.108 491.633 10.4533 490.887 11.144C490.14 11.8347 489.767 12.6933 489.767 13.72V21H487.723ZM508.193 21.28C506.42 21.28 504.936 20.6547 503.741 19.404C502.565 18.1533 501.977 16.5853 501.977 14.7C501.977 12.852 502.565 11.2933 503.741 10.024C504.954 8.75467 506.438 8.12 508.193 8.12C510.041 8.12 511.562 8.792 512.757 10.136V8.4H514.801V21.224C514.801 23.0533 514.185 24.5653 512.953 25.76C511.74 26.9733 510.218 27.58 508.389 27.58C507.12 27.58 505.944 27.272 504.861 26.656C503.797 26.04 503.022 25.2373 502.537 24.248L504.609 23.604C504.926 24.1827 505.421 24.6493 506.093 25.004C506.784 25.3587 507.521 25.536 508.305 25.536C509.556 25.536 510.62 25.1253 511.497 24.304C512.374 23.4827 512.794 22.456 512.757 21.224V19.264C511.562 20.608 510.041 21.28 508.193 21.28ZM511.469 11.48C510.666 10.6213 509.649 10.192 508.417 10.192C507.185 10.192 506.168 10.6213 505.365 11.48C504.544 12.3573 504.133 13.4307 504.133 14.7C504.133 15.9693 504.544 17.0427 505.365 17.92C506.168 18.7787 507.185 19.208 508.417 19.208C509.649 19.208 510.666 18.7787 511.469 17.92C512.29 17.0427 512.701 15.9693 512.701 14.7C512.701 13.4307 512.29 12.3573 511.469 11.48ZM527.464 27.3H525.42V8.4H527.464V10.136C528.658 8.792 530.18 8.12 532.028 8.12C533.801 8.12 535.276 8.75467 536.452 10.024C537.646 11.2747 538.244 12.8333 538.244 14.7C538.244 16.5853 537.646 18.1533 536.452 19.404C535.276 20.6547 533.801 21.28 532.028 21.28C530.18 21.28 528.658 20.608 527.464 19.264V27.3ZM534.856 11.48C534.053 10.6213 533.036 10.192 531.804 10.192C530.572 10.192 529.554 10.6213 528.752 11.48C527.93 12.3573 527.52 13.4307 527.52 14.7C527.52 15.9693 527.93 17.0427 528.752 17.92C529.554 18.7787 530.572 19.208 531.804 19.208C533.036 19.208 534.053 18.7787 534.856 17.92C535.696 17.0613 536.116 15.988 536.116 14.7C536.116 13.412 535.696 12.3387 534.856 11.48ZM542.992 13.888V21H540.948V8.4H542.992V10.528C543.944 8.92267 545.428 8.12 547.444 8.12H547.808V10.416C547.49 10.3227 547.182 10.276 546.884 10.276C545.782 10.276 544.858 10.6213 544.112 11.312C543.365 12.0027 542.992 12.8613 542.992 13.888ZM555.411 21.28C553.526 21.28 551.958 20.6547 550.707 19.404C549.456 18.1533 548.831 16.5853 548.831 14.7C548.831 12.8147 549.456 11.2467 550.707 9.996C551.958 8.74533 553.526 8.12 555.411 8.12C557.278 8.12 558.836 8.74533 560.087 9.996C561.356 11.2653 561.991 12.8333 561.991 14.7C561.991 16.5667 561.356 18.1347 560.087 19.404C558.836 20.6547 557.278 21.28 555.411 21.28ZM555.411 10.192C554.142 10.192 553.087 10.6213 552.247 11.48C551.407 12.3387 550.987 13.412 550.987 14.7C550.987 15.988 551.407 17.0613 552.247 17.92C553.087 18.7787 554.142 19.208 555.411 19.208C556.68 19.208 557.735 18.7787 558.575 17.92C559.415 17.0613 559.835 15.988 559.835 14.7C559.835 13.412 559.415 12.3387 558.575 11.48C557.735 10.6213 556.68 10.192 555.411 10.192ZM563.222 10.22V8.4H565.266V5.796H567.31V8.4H570.894V10.22H567.31V17.024C567.31 17.6027 567.478 18.0787 567.814 18.452C568.168 18.8253 568.607 19.012 569.13 19.012H570.894V21H568.99C567.926 21 567.039 20.6453 566.33 19.936C565.62 19.1893 565.266 18.3027 565.266 17.276V10.22H563.222ZM579.221 21.28C577.336 21.28 575.768 20.6547 574.517 19.404C573.266 18.1533 572.641 16.5853 572.641 14.7C572.641 12.8147 573.266 11.2467 574.517 9.996C575.768 8.74533 577.336 8.12 579.221 8.12C581.088 8.12 582.646 8.74533 583.897 9.996C585.166 11.2653 585.801 12.8333 585.801 14.7C585.801 16.5667 585.166 18.1347 583.897 19.404C582.646 20.6547 581.088 21.28 579.221 21.28ZM579.221 10.192C577.952 10.192 576.897 10.6213 576.057 11.48C575.217 12.3387 574.797 13.412 574.797 14.7C574.797 15.988 575.217 17.0613 576.057 17.92C576.897 18.7787 577.952 19.208 579.221 19.208C580.49 19.208 581.545 18.7787 582.385 17.92C583.225 17.0613 583.645 15.988 583.645 14.7C583.645 13.412 583.225 12.3387 582.385 11.48C581.545 10.6213 580.49 10.192 579.221 10.192ZM587.031 10.22V8.4H589.075V5.796H591.119V8.4H594.703V10.22H591.119V17.024C591.119 17.6027 591.287 18.0787 591.623 18.452C591.978 18.8253 592.417 19.012 592.939 19.012H594.703V21H592.799C591.735 21 590.849 20.6453 590.139 19.936C589.43 19.1893 589.075 18.3027 589.075 17.276V10.22H587.031ZM599.892 22.988L600.844 20.664L595.832 8.4H597.96L601.88 18.172L605.94 8.4H608.068L601.656 23.688C601.133 24.9387 600.489 25.8533 599.724 26.432C598.977 27.0107 598.035 27.3 596.896 27.3H596.42V25.312H596.896C598.24 25.312 599.239 24.5373 599.892 22.988ZM612.097 27.3H610.053V8.4H612.097V10.136C613.292 8.792 614.813 8.12 616.661 8.12C618.434 8.12 619.909 8.75467 621.085 10.024C622.28 11.2747 622.877 12.8333 622.877 14.7C622.877 16.5853 622.28 18.1533 621.085 19.404C619.909 20.6547 618.434 21.28 616.661 21.28C614.813 21.28 613.292 20.608 612.097 19.264V27.3ZM619.489 11.48C618.686 10.6213 617.669 10.192 616.437 10.192C615.205 10.192 614.188 10.6213 613.385 11.48C612.564 12.3573 612.153 13.4307 612.153 14.7C612.153 15.9693 612.564 17.0427 613.385 17.92C614.188 18.7787 615.205 19.208 616.437 19.208C617.669 19.208 618.686 18.7787 619.489 17.92C620.329 17.0613 620.749 15.988 620.749 14.7C620.749 13.412 620.329 12.3387 619.489 11.48ZM637.845 15.4H627.037C627.168 16.52 627.662 17.4627 628.521 18.228C629.38 18.9747 630.416 19.348 631.629 19.348C633.234 19.348 634.476 18.7413 635.353 17.528L637.341 18.172C636.762 19.1427 635.969 19.908 634.961 20.468C633.953 21.0093 632.842 21.28 631.629 21.28C629.688 21.28 628.082 20.6547 626.813 19.404C625.544 18.1347 624.909 16.5667 624.909 14.7C624.909 12.8333 625.534 11.2747 626.785 10.024C628.054 8.75467 629.604 8.12 631.433 8.12C633.262 8.12 634.793 8.75467 636.025 10.024C637.276 11.2747 637.901 12.8333 637.901 14.7C637.901 14.98 637.882 15.2133 637.845 15.4ZM627.065 13.748H635.773C635.568 12.6653 635.054 11.7787 634.233 11.088C633.43 10.3973 632.478 10.052 631.377 10.052C630.313 10.052 629.38 10.3973 628.577 11.088C627.774 11.7787 627.27 12.6653 627.065 13.748ZM649.768 21H647.696V8.4H649.768V21ZM647.304 4.284C647.266 3.70533 647.49 3.304 647.976 3.08C648.48 2.83733 648.974 2.83733 649.46 3.08C649.964 3.304 650.188 3.70533 650.132 4.284C650.132 4.69467 650.001 5.04 649.74 5.32C649.478 5.58133 649.142 5.712 648.732 5.712C648.321 5.712 647.976 5.58133 647.696 5.32C647.434 5.05867 647.304 4.71333 647.304 4.284ZM653.134 21V8.4H655.178V10.5C656.092 8.91333 657.576 8.12 659.63 8.12C661.104 8.12 662.318 8.596 663.27 9.548C664.24 10.5 664.726 11.6947 664.726 13.132V21H662.654V13.692C662.654 12.6653 662.308 11.816 661.618 11.144C660.946 10.4533 660.096 10.108 659.07 10.108C657.968 10.108 657.044 10.4533 656.298 11.144C655.551 11.8347 655.178 12.6933 655.178 13.72V21H653.134ZM675.303 21V0.699999H677.347V10.5C678.318 8.91333 679.82 8.12 681.855 8.12C683.33 8.12 684.543 8.60533 685.495 9.576C686.466 10.528 686.951 11.7227 686.951 13.16V21H684.879V13.692C684.879 12.6653 684.534 11.816 683.843 11.144C683.152 10.4533 682.294 10.108 681.267 10.108C680.147 10.108 679.214 10.4533 678.467 11.144C677.72 11.8347 677.347 12.6933 677.347 13.72V21H675.303ZM695.828 8.12C697.676 8.12 699.197 8.792 700.392 10.136V8.4H702.464V21H700.392V19.264C699.197 20.608 697.676 21.28 695.828 21.28C694.055 21.28 692.571 20.6547 691.376 19.404C690.2 18.1533 689.612 16.5853 689.612 14.7C689.612 12.852 690.2 11.2933 691.376 10.024C692.589 8.75467 694.073 8.12 695.828 8.12ZM699.104 11.48C698.301 10.6213 697.284 10.192 696.052 10.192C694.82 10.192 693.803 10.6213 693 11.48C692.179 12.3573 691.768 13.4307 691.768 14.7C691.768 15.9693 692.179 17.0427 693 17.92C693.803 18.7787 694.82 19.208 696.052 19.208C697.284 19.208 698.301 18.7787 699.104 17.92C699.925 17.0427 700.336 15.9693 700.336 14.7C700.336 13.4307 699.925 12.3573 699.104 11.48ZM705.812 21V8.4H707.856V10.5C708.771 8.91333 710.255 8.12 712.308 8.12C713.783 8.12 714.996 8.596 715.948 9.548C716.919 10.5 717.404 11.6947 717.404 13.132V21H715.332V13.692C715.332 12.6653 714.987 11.816 714.296 11.144C713.624 10.4533 712.775 10.108 711.748 10.108C710.647 10.108 709.723 10.4533 708.976 11.144C708.229 11.8347 707.856 12.6933 707.856 13.72V21H705.812ZM726.282 8.12C728.13 8.12 729.652 8.792 730.846 10.136V0.699999H732.89V21H730.846V19.264C729.652 20.608 728.13 21.28 726.282 21.28C724.509 21.28 723.025 20.6547 721.83 19.404C720.654 18.1533 720.066 16.5853 720.066 14.7C720.066 12.852 720.654 11.2933 721.83 10.024C723.044 8.75467 724.528 8.12 726.282 8.12ZM729.558 11.48C728.756 10.6213 727.738 10.192 726.506 10.192C725.274 10.192 724.257 10.6213 723.454 11.48C722.633 12.3573 722.222 13.4307 722.222 14.7C722.222 15.9693 722.633 17.0427 723.454 17.92C724.257 18.7787 725.274 19.208 726.506 19.208C727.738 19.208 728.756 18.7787 729.558 17.92C730.38 17.0427 730.79 15.9693 730.79 14.7C730.79 13.4307 730.38 12.3573 729.558 11.48ZM745.786 7.308C745.786 6.356 745.366 5.55333 744.526 4.9C743.705 4.228 742.697 3.892 741.502 3.892C740.476 3.892 739.58 4.15333 738.814 4.676C738.049 5.18 737.536 5.852 737.274 6.692L735.09 6.048C735.501 4.77867 736.285 3.76133 737.442 2.996C738.6 2.212 739.944 1.82 741.474 1.82C743.285 1.82 744.825 2.352 746.094 3.416C747.345 4.44267 747.97 5.74933 747.97 7.336C747.97 8.10133 747.802 8.82933 747.466 9.52C747.13 10.192 746.701 10.752 746.178 11.2C745.674 11.648 745.198 12.012 744.75 12.292C744.302 12.572 743.873 12.7867 743.462 12.936L742.958 13.132L742.846 15.316H740.886L740.662 11.984C741.241 11.7973 741.829 11.5547 742.426 11.256C743.08 10.9013 743.602 10.584 743.994 10.304C744.48 9.93067 744.9 9.47333 745.254 8.932C745.609 8.39067 745.786 7.84933 745.786 7.308ZM740.382 19.768C740.382 19.3573 740.522 19.012 740.802 18.732C741.082 18.4333 741.437 18.284 741.866 18.284C742.296 18.284 742.65 18.424 742.93 18.704C743.229 18.984 743.378 19.3387 743.378 19.768C743.378 20.1973 743.229 20.5613 742.93 20.86C742.65 21.14 742.296 21.28 741.866 21.28C741.437 21.28 741.082 21.14 740.802 20.86C740.522 20.5613 740.382 20.1973 740.382 19.768ZM9.632 77H2.184V58.1H9.632C12.4133 58.1 14.7187 59.0053 16.548 60.816C18.4147 62.6267 19.348 64.876 19.348 67.564C19.348 70.2333 18.4147 72.4733 16.548 74.284C14.7187 76.0947 12.4133 77 9.632 77ZM9.632 60.2H4.452V74.9H9.632C11.704 74.9 13.4587 74.2 14.896 72.8C16.3147 71.3813 17.024 69.636 17.024 67.564C17.024 65.828 16.5013 64.2973 15.456 62.972C14.4107 61.6467 13.0667 60.788 11.424 60.396L10.416 60.228C10.304 60.2093 10.0427 60.2 9.632 60.2ZM28.1765 77.28C26.2912 77.28 24.7232 76.6547 23.4725 75.404C22.2219 74.1533 21.5965 72.5853 21.5965 70.7C21.5965 68.8147 22.2219 67.2467 23.4725 65.996C24.7232 64.7453 26.2912 64.12 28.1765 64.12C30.0432 64.12 31.6019 64.7453 32.8525 65.996C34.1219 67.2653 34.7565 68.8333 34.7565 70.7C34.7565 72.5667 34.1219 74.1347 32.8525 75.404C31.6019 76.6547 30.0432 77.28 28.1765 77.28ZM28.1765 66.192C26.9072 66.192 25.8525 66.6213 25.0125 67.48C24.1725 68.3387 23.7525 69.412 23.7525 70.7C23.7525 71.988 24.1725 73.0613 25.0125 73.92C25.8525 74.7787 26.9072 75.208 28.1765 75.208C29.4459 75.208 30.5005 74.7787 31.3405 73.92C32.1805 73.0613 32.6005 71.988 32.6005 70.7C32.6005 69.412 32.1805 68.3387 31.3405 67.48C30.5005 66.6213 29.4459 66.192 28.1765 66.192ZM47.3712 78.988L48.3232 76.664L43.3112 64.4H45.4392L49.3592 74.172L53.4192 64.4H55.5472L49.1352 79.688C48.6125 80.9387 47.9685 81.8533 47.2032 82.432C46.4565 83.0107 45.5139 83.3 44.3752 83.3H43.8992V81.312H44.3752C45.7192 81.312 46.7179 80.5373 47.3712 78.988ZM62.9479 77.28C61.0626 77.28 59.4946 76.6547 58.2439 75.404C56.9933 74.1533 56.3679 72.5853 56.3679 70.7C56.3679 68.8147 56.9933 67.2467 58.2439 65.996C59.4946 64.7453 61.0626 64.12 62.9479 64.12C64.8146 64.12 66.3733 64.7453 67.6239 65.996C68.8933 67.2653 69.5279 68.8333 69.5279 70.7C69.5279 72.5667 68.8933 74.1347 67.6239 75.404C66.3733 76.6547 64.8146 77.28 62.9479 77.28ZM62.9479 66.192C61.6786 66.192 60.6239 66.6213 59.7839 67.48C58.9439 68.3387 58.5239 69.412 58.5239 70.7C58.5239 71.988 58.9439 73.0613 59.7839 73.92C60.6239 74.7787 61.6786 75.208 62.9479 75.208C64.2173 75.208 65.2719 74.7787 66.1119 73.92C66.9519 73.0613 67.3719 71.988 67.3719 70.7C67.3719 69.412 66.9519 68.3387 66.1119 67.48C65.2719 66.6213 64.2173 66.192 62.9479 66.192ZM72.1838 72.268V64.4H74.2558V71.708C74.2558 72.7347 74.5918 73.5933 75.2638 74.284C75.9545 74.956 76.8131 75.292 77.8398 75.292C78.9598 75.292 79.8745 74.9467 80.5838 74.256C81.3305 73.5653 81.7038 72.7067 81.7038 71.68V64.4H83.7758V77H81.7038V74.928C80.7518 76.496 79.2678 77.28 77.2518 77.28C75.7958 77.28 74.5825 76.804 73.6118 75.852C72.6598 74.9 72.1838 73.7053 72.1838 72.268ZM94.409 77V56.7H96.453V66.136C97.6477 64.792 99.169 64.12 101.017 64.12C102.79 64.12 104.265 64.7547 105.441 66.024C106.636 67.2747 107.233 68.8333 107.233 70.7C107.233 72.5853 106.636 74.1533 105.441 75.404C104.265 76.6547 102.79 77.28 101.017 77.28C99.169 77.28 97.6477 76.608 96.453 75.264V77H94.409ZM103.845 67.48C103.042 66.6213 102.025 66.192 100.793 66.192C99.561 66.192 98.5437 66.6213 97.741 67.48C96.9197 68.3573 96.509 69.4307 96.509 70.7C96.509 71.9693 96.9197 73.0427 97.741 73.92C98.5437 74.7787 99.561 75.208 100.793 75.208C102.025 75.208 103.042 74.7787 103.845 73.92C104.685 73.0613 105.105 71.988 105.105 70.7C105.105 69.412 104.685 68.3387 103.845 67.48ZM122.201 71.4H111.393C111.524 72.52 112.018 73.4627 112.877 74.228C113.736 74.9747 114.772 75.348 115.985 75.348C117.59 75.348 118.832 74.7413 119.709 73.528L121.697 74.172C121.118 75.1427 120.325 75.908 119.317 76.468C118.309 77.0093 117.198 77.28 115.985 77.28C114.044 77.28 112.438 76.6547 111.169 75.404C109.9 74.1347 109.265 72.5667 109.265 70.7C109.265 68.8333 109.89 67.2747 111.141 66.024C112.41 64.7547 113.96 64.12 115.789 64.12C117.618 64.12 119.149 64.7547 120.381 66.024C121.632 67.2747 122.257 68.8333 122.257 70.7C122.257 70.98 122.238 71.2133 122.201 71.4ZM111.421 69.748H120.129C119.924 68.6653 119.41 67.7787 118.589 67.088C117.786 66.3973 116.834 66.052 115.733 66.052C114.669 66.052 113.736 66.3973 112.933 67.088C112.13 67.7787 111.626 68.6653 111.421 69.748ZM126.853 77H124.809V56.7H126.853V77ZM132.319 77H130.247V64.4H132.319V77ZM129.855 60.284C129.817 59.7053 130.041 59.304 130.527 59.08C131.031 58.8373 131.525 58.8373 132.011 59.08C132.515 59.304 132.739 59.7053 132.683 60.284C132.683 60.6947 132.552 61.04 132.291 61.32C132.029 61.5813 131.693 61.712 131.283 61.712C130.872 61.712 130.527 61.5813 130.247 61.32C129.985 61.0587 129.855 60.7133 129.855 60.284ZM147.949 71.4H137.141C137.272 72.52 137.766 73.4627 138.625 74.228C139.484 74.9747 140.52 75.348 141.733 75.348C143.338 75.348 144.58 74.7413 145.457 73.528L147.445 74.172C146.866 75.1427 146.073 75.908 145.065 76.468C144.057 77.0093 142.946 77.28 141.733 77.28C139.792 77.28 138.186 76.6547 136.917 75.404C135.648 74.1347 135.013 72.5667 135.013 70.7C135.013 68.8333 135.638 67.2747 136.889 66.024C138.158 64.7547 139.708 64.12 141.537 64.12C143.366 64.12 144.897 64.7547 146.129 66.024C147.38 67.2747 148.005 68.8333 148.005 70.7C148.005 70.98 147.986 71.2133 147.949 71.4ZM137.169 69.748H145.877C145.672 68.6653 145.158 67.7787 144.337 67.088C143.534 66.3973 142.582 66.052 141.481 66.052C140.417 66.052 139.484 66.3973 138.681 67.088C137.878 67.7787 137.374 68.6653 137.169 69.748ZM154.068 77L148.664 64.4H150.792L155.02 74.368L159.248 64.4H161.376L155.972 77H154.068ZM175.149 71.4H164.341C164.472 72.52 164.967 73.4627 165.825 74.228C166.684 74.9747 167.72 75.348 168.933 75.348C170.539 75.348 171.78 74.7413 172.657 73.528L174.645 74.172C174.067 75.1427 173.273 75.908 172.265 76.468C171.257 77.0093 170.147 77.28 168.933 77.28C166.992 77.28 165.387 76.6547 164.117 75.404C162.848 74.1347 162.213 72.5667 162.213 70.7C162.213 68.8333 162.839 67.2747 164.089 66.024C165.359 64.7547 166.908 64.12 168.737 64.12C170.567 64.12 172.097 64.7547 173.329 66.024C174.58 67.2747 175.205 68.8333 175.205 70.7C175.205 70.98 175.187 71.2133 175.149 71.4ZM164.369 69.748H173.077C172.872 68.6653 172.359 67.7787 171.537 67.088C170.735 66.3973 169.783 66.052 168.681 66.052C167.617 66.052 166.684 66.3973 165.881 67.088C165.079 67.7787 164.575 68.6653 164.369 69.748ZM187.66 78.988L188.612 76.664L183.6 64.4H185.728L189.648 74.172L193.708 64.4H195.836L189.424 79.688C188.901 80.9387 188.257 81.8533 187.492 82.432C186.745 83.0107 185.803 83.3 184.664 83.3H184.188V81.312H184.664C186.008 81.312 187.007 80.5373 187.66 78.988ZM203.237 77.28C201.351 77.28 199.783 76.6547 198.533 75.404C197.282 74.1533 196.657 72.5853 196.657 70.7C196.657 68.8147 197.282 67.2467 198.533 65.996C199.783 64.7453 201.351 64.12 203.237 64.12C205.103 64.12 206.662 64.7453 207.913 65.996C209.182 67.2653 209.817 68.8333 209.817 70.7C209.817 72.5667 209.182 74.1347 207.913 75.404C206.662 76.6547 205.103 77.28 203.237 77.28ZM203.237 66.192C201.967 66.192 200.913 66.6213 200.073 67.48C199.233 68.3387 198.813 69.412 198.813 70.7C198.813 71.988 199.233 73.0613 200.073 73.92C200.913 74.7787 201.967 75.208 203.237 75.208C204.506 75.208 205.561 74.7787 206.401 73.92C207.241 73.0613 207.661 71.988 207.661 70.7C207.661 69.412 207.241 68.3387 206.401 67.48C205.561 66.6213 204.506 66.192 203.237 66.192ZM212.473 72.268V64.4H214.545V71.708C214.545 72.7347 214.881 73.5933 215.553 74.284C216.243 74.956 217.102 75.292 218.129 75.292C219.249 75.292 220.163 74.9467 220.873 74.256C221.619 73.5653 221.993 72.7067 221.993 71.68V64.4H224.065V77H221.993V74.928C221.041 76.496 219.557 77.28 217.541 77.28C216.085 77.28 214.871 76.804 213.901 75.852C212.949 74.9 212.473 73.7053 212.473 72.268ZM229.499 69.888V77H227.455V64.4H229.499V66.528C230.451 64.9227 231.935 64.12 233.951 64.12H234.315V66.416C233.998 66.3227 233.69 66.276 233.391 66.276C232.29 66.276 231.366 66.6213 230.619 67.312C229.872 68.0027 229.499 68.8613 229.499 69.888ZM255.618 67.928L253.546 68.572C253.191 67.844 252.669 67.2653 251.978 66.836C251.287 66.4067 250.503 66.192 249.626 66.192C248.357 66.192 247.302 66.6213 246.462 67.48C245.622 68.3387 245.202 69.412 245.202 70.7C245.202 71.988 245.622 73.0613 246.462 73.92C247.302 74.7787 248.357 75.208 249.626 75.208C250.503 75.208 251.287 74.9933 251.978 74.564C252.669 74.1347 253.191 73.556 253.546 72.828L255.618 73.472C255.114 74.648 254.321 75.5813 253.238 76.272C252.174 76.944 250.97 77.28 249.626 77.28C247.741 77.28 246.173 76.6547 244.922 75.404C243.671 74.1533 243.046 72.5853 243.046 70.7C243.046 68.8147 243.671 67.2467 244.922 65.996C246.173 64.7453 247.741 64.12 249.626 64.12C250.97 64.12 252.174 64.4653 253.238 65.156C254.321 65.828 255.114 66.752 255.618 67.928ZM260.141 69.888V77H258.097V64.4H260.141V66.528C261.093 64.9227 262.577 64.12 264.593 64.12H264.957V66.416C264.64 66.3227 264.332 66.276 264.033 66.276C262.932 66.276 262.008 66.6213 261.261 67.312C260.515 68.0027 260.141 68.8613 260.141 69.888ZM278.917 71.4H268.109C268.239 72.52 268.734 73.4627 269.593 74.228C270.451 74.9747 271.487 75.348 272.701 75.348C274.306 75.348 275.547 74.7413 276.425 73.528L278.413 74.172C277.834 75.1427 277.041 75.908 276.033 76.468C275.025 77.0093 273.914 77.28 272.701 77.28C270.759 77.28 269.154 76.6547 267.885 75.404C266.615 74.1347 265.981 72.5667 265.981 70.7C265.981 68.8333 266.606 67.2747 267.857 66.024C269.126 64.7547 270.675 64.12 272.505 64.12C274.334 64.12 275.865 64.7547 277.097 66.024C278.347 67.2747 278.973 68.8333 278.973 70.7C278.973 70.98 278.954 71.2133 278.917 71.4ZM268.137 69.748H276.845C276.639 68.6653 276.126 67.7787 275.305 67.088C274.502 66.3973 273.55 66.052 272.449 66.052C271.385 66.052 270.451 66.3973 269.649 67.088C268.846 67.7787 268.342 68.6653 268.137 69.748ZM287.068 64.12C288.916 64.12 290.438 64.792 291.632 66.136V64.4H293.704V77H291.632V75.264C290.438 76.608 288.916 77.28 287.068 77.28C285.295 77.28 283.811 76.6547 282.616 75.404C281.44 74.1533 280.852 72.5853 280.852 70.7C280.852 68.852 281.44 67.2933 282.616 66.024C283.83 64.7547 285.314 64.12 287.068 64.12ZM290.344 67.48C289.542 66.6213 288.524 66.192 287.292 66.192C286.06 66.192 285.043 66.6213 284.24 67.48C283.419 68.3573 283.008 69.4307 283.008 70.7C283.008 71.9693 283.419 73.0427 284.24 73.92C285.043 74.7787 286.06 75.208 287.292 75.208C288.524 75.208 289.542 74.7787 290.344 73.92C291.166 73.0427 291.576 71.9693 291.576 70.7C291.576 69.4307 291.166 68.3573 290.344 67.48ZM295.68 66.22V64.4H297.724V61.796H299.768V64.4H303.352V66.22H299.768V73.024C299.768 73.6027 299.936 74.0787 300.272 74.452C300.627 74.8253 301.066 75.012 301.588 75.012H303.352V77H301.448C300.384 77 299.498 76.6453 298.788 75.936C298.079 75.1893 297.724 74.3027 297.724 73.276V66.22H295.68ZM307.953 77H305.881V64.4H307.953V77ZM305.489 60.284C305.452 59.7053 305.676 59.304 306.161 59.08C306.665 58.8373 307.16 58.8373 307.645 59.08C308.149 59.304 308.373 59.7053 308.317 60.284C308.317 60.6947 308.187 61.04 307.925 61.32C307.664 61.5813 307.328 61.712 306.917 61.712C306.507 61.712 306.161 61.5813 305.881 61.32C305.62 61.0587 305.489 60.7133 305.489 60.284ZM317.227 77.28C315.342 77.28 313.774 76.6547 312.523 75.404C311.273 74.1533 310.647 72.5853 310.647 70.7C310.647 68.8147 311.273 67.2467 312.523 65.996C313.774 64.7453 315.342 64.12 317.227 64.12C319.094 64.12 320.653 64.7453 321.903 65.996C323.173 67.2653 323.807 68.8333 323.807 70.7C323.807 72.5667 323.173 74.1347 321.903 75.404C320.653 76.6547 319.094 77.28 317.227 77.28ZM317.227 66.192C315.958 66.192 314.903 66.6213 314.063 67.48C313.223 68.3387 312.803 69.412 312.803 70.7C312.803 71.988 313.223 73.0613 314.063 73.92C314.903 74.7787 315.958 75.208 317.227 75.208C318.497 75.208 319.551 74.7787 320.391 73.92C321.231 73.0613 321.651 71.988 321.651 70.7C321.651 69.412 321.231 68.3387 320.391 67.48C319.551 66.6213 318.497 66.192 317.227 66.192ZM326.519 77V64.4H328.563V66.5C329.478 64.9133 330.962 64.12 333.015 64.12C334.49 64.12 335.703 64.596 336.655 65.548C337.626 66.5 338.111 67.6947 338.111 69.132V77H336.039V69.692C336.039 68.6653 335.694 67.816 335.003 67.144C334.331 66.4533 333.482 66.108 332.455 66.108C331.354 66.108 330.43 66.4533 329.683 67.144C328.936 67.8347 328.563 68.6933 328.563 69.72V77H326.519ZM348.688 77V56.7H350.732V66.5C351.703 64.9133 353.206 64.12 355.24 64.12C356.715 64.12 357.928 64.6053 358.88 65.576C359.851 66.528 360.336 67.7227 360.336 69.16V77H358.264V69.692C358.264 68.6653 357.919 67.816 357.228 67.144C356.538 66.4533 355.679 66.108 354.652 66.108C353.532 66.108 352.599 66.4533 351.852 67.144C351.106 67.8347 350.732 68.6933 350.732 69.72V77H348.688ZM369.577 77.28C367.692 77.28 366.124 76.6547 364.873 75.404C363.623 74.1533 362.997 72.5853 362.997 70.7C362.997 68.8147 363.623 67.2467 364.873 65.996C366.124 64.7453 367.692 64.12 369.577 64.12C371.444 64.12 373.003 64.7453 374.253 65.996C375.523 67.2653 376.157 68.8333 376.157 70.7C376.157 72.5667 375.523 74.1347 374.253 75.404C373.003 76.6547 371.444 77.28 369.577 77.28ZM369.577 66.192C368.308 66.192 367.253 66.6213 366.413 67.48C365.573 68.3387 365.153 69.412 365.153 70.7C365.153 71.988 365.573 73.0613 366.413 73.92C367.253 74.7787 368.308 75.208 369.577 75.208C370.847 75.208 371.901 74.7787 372.741 73.92C373.581 73.0613 374.001 71.988 374.001 70.7C374.001 69.412 373.581 68.3387 372.741 67.48C371.901 66.6213 370.847 66.192 369.577 66.192ZM380.913 77H378.869V56.7H380.913V77ZM389.851 64.12C391.699 64.12 393.221 64.792 394.415 66.136V56.7H396.459V77H394.415V75.264C393.221 76.608 391.699 77.28 389.851 77.28C388.078 77.28 386.594 76.6547 385.399 75.404C384.223 74.1533 383.635 72.5853 383.635 70.7C383.635 68.852 384.223 67.2933 385.399 66.024C386.613 64.7547 388.097 64.12 389.851 64.12ZM393.127 67.48C392.325 66.6213 391.307 66.192 390.075 66.192C388.843 66.192 387.826 66.6213 387.023 67.48C386.202 68.3573 385.791 69.4307 385.791 70.7C385.791 71.9693 386.202 73.0427 387.023 73.92C387.826 74.7787 388.843 75.208 390.075 75.208C391.307 75.208 392.325 74.7787 393.127 73.92C393.949 73.0427 394.359 71.9693 394.359 70.7C394.359 69.4307 393.949 68.3573 393.127 67.48ZM408.403 67.144L406.471 67.508C406.341 67.0413 406.033 66.668 405.547 66.388C405.081 66.0893 404.493 65.94 403.783 65.94C403.093 65.94 402.514 66.0893 402.047 66.388C401.599 66.6867 401.375 67.0787 401.375 67.564C401.375 68.2547 401.823 68.7493 402.719 69.048L405.771 70.14C407.694 70.8307 408.655 71.9787 408.655 73.584C408.655 74.7413 408.217 75.6467 407.339 76.3C406.462 76.9533 405.323 77.28 403.923 77.28C402.579 77.28 401.469 76.9813 400.591 76.384C399.714 75.768 399.191 74.956 399.023 73.948L400.983 73.64C401.095 74.1813 401.422 74.62 401.963 74.956C402.505 75.292 403.167 75.46 403.951 75.46C404.735 75.46 405.379 75.292 405.883 74.956C406.406 74.62 406.667 74.1813 406.667 73.64C406.667 72.912 406.117 72.352 405.015 71.96L402.047 70.924C400.274 70.2707 399.387 69.2067 399.387 67.732C399.387 66.5933 399.798 65.7067 400.619 65.072C401.459 64.4373 402.561 64.12 403.923 64.12C405.137 64.12 406.145 64.4 406.947 64.96C407.75 65.5013 408.235 66.2293 408.403 67.144ZM417.215 66.22V64.4H419.259V61.796H421.303V64.4H424.887V66.22H421.303V73.024C421.303 73.6027 421.471 74.0787 421.807 74.452C422.161 74.8253 422.6 75.012 423.123 75.012H424.887V77H422.983C421.919 77 421.032 76.6453 420.323 75.936C419.613 75.1893 419.259 74.3027 419.259 73.276V66.22H417.215ZM427.415 77V56.7H429.459V66.5C430.43 64.9133 431.933 64.12 433.967 64.12C435.442 64.12 436.655 64.6053 437.607 65.576C438.578 66.528 439.063 67.7227 439.063 69.16V77H436.991V69.692C436.991 68.6653 436.646 67.816 435.955 67.144C435.265 66.4533 434.406 66.108 433.379 66.108C432.259 66.108 431.326 66.4533 430.579 67.144C429.833 67.8347 429.459 68.6933 429.459 69.72V77H427.415ZM454.661 71.4H443.853C443.983 72.52 444.478 73.4627 445.337 74.228C446.195 74.9747 447.231 75.348 448.445 75.348C450.05 75.348 451.291 74.7413 452.169 73.528L454.157 74.172C453.578 75.1427 452.785 75.908 451.777 76.468C450.769 77.0093 449.658 77.28 448.445 77.28C446.503 77.28 444.898 76.6547 443.629 75.404C442.359 74.1347 441.725 72.5667 441.725 70.7C441.725 68.8333 442.35 67.2747 443.601 66.024C444.87 64.7547 446.419 64.12 448.249 64.12C450.078 64.12 451.609 64.7547 452.841 66.024C454.091 67.2747 454.717 68.8333 454.717 70.7C454.717 70.98 454.698 71.2133 454.661 71.4ZM443.881 69.748H452.589C452.383 68.6653 451.87 67.7787 451.049 67.088C450.246 66.3973 449.294 66.052 448.193 66.052C447.129 66.052 446.195 66.3973 445.393 67.088C444.59 67.7787 444.086 68.6653 443.881 69.748ZM464.511 77V56.7H466.555V77H464.511ZM474.927 77H472.351L466.695 70.476L471.847 64.4H474.395L469.243 70.476L474.927 77ZM488.584 71.4H477.776C477.907 72.52 478.402 73.4627 479.26 74.228C480.119 74.9747 481.155 75.348 482.368 75.348C483.974 75.348 485.215 74.7413 486.092 73.528L488.08 74.172C487.502 75.1427 486.708 75.908 485.7 76.468C484.692 77.0093 483.582 77.28 482.368 77.28C480.427 77.28 478.822 76.6547 477.552 75.404C476.283 74.1347 475.648 72.5667 475.648 70.7C475.648 68.8333 476.274 67.2747 477.524 66.024C478.794 64.7547 480.343 64.12 482.172 64.12C484.002 64.12 485.532 64.7547 486.764 66.024C488.015 67.2747 488.64 68.8333 488.64 70.7C488.64 70.98 488.622 71.2133 488.584 71.4ZM477.804 69.748H486.512C486.307 68.6653 485.794 67.7787 484.972 67.088C484.17 66.3973 483.218 66.052 482.116 66.052C481.052 66.052 480.119 66.3973 479.316 67.088C478.514 67.7787 478.01 68.6653 477.804 69.748ZM493.36 78.988L494.312 76.664L489.3 64.4H491.428L495.348 74.172L499.408 64.4H501.536L495.124 79.688C494.601 80.9387 493.957 81.8533 493.192 82.432C492.445 83.0107 491.502 83.3 490.364 83.3H489.888V81.312H490.364C491.708 81.312 492.706 80.5373 493.36 78.988ZM509.392 66.22V64.4H511.436V61.796H513.48V64.4H517.064V66.22H513.48V73.024C513.48 73.6027 513.648 74.0787 513.984 74.452C514.338 74.8253 514.777 75.012 515.3 75.012H517.064V77H515.16C514.096 77 513.209 76.6453 512.5 75.936C511.79 75.1893 511.436 74.3027 511.436 73.276V66.22H509.392ZM525.391 77.28C523.506 77.28 521.938 76.6547 520.687 75.404C519.436 74.1533 518.811 72.5853 518.811 70.7C518.811 68.8147 519.436 67.2467 520.687 65.996C521.938 64.7453 523.506 64.12 525.391 64.12C527.258 64.12 528.816 64.7453 530.067 65.996C531.336 67.2653 531.971 68.8333 531.971 70.7C531.971 72.5667 531.336 74.1347 530.067 75.404C528.816 76.6547 527.258 77.28 525.391 77.28ZM525.391 66.192C524.122 66.192 523.067 66.6213 522.227 67.48C521.387 68.3387 520.967 69.412 520.967 70.7C520.967 71.988 521.387 73.0613 522.227 73.92C523.067 74.7787 524.122 75.208 525.391 75.208C526.66 75.208 527.715 74.7787 528.555 73.92C529.395 73.0613 529.815 71.988 529.815 70.7C529.815 69.412 529.395 68.3387 528.555 67.48C527.715 66.6213 526.66 66.192 525.391 66.192ZM550.494 67.144L548.562 67.508C548.431 67.0413 548.123 66.668 547.638 66.388C547.171 66.0893 546.583 65.94 545.874 65.94C545.183 65.94 544.604 66.0893 544.138 66.388C543.69 66.6867 543.466 67.0787 543.466 67.564C543.466 68.2547 543.914 68.7493 544.81 69.048L547.862 70.14C549.784 70.8307 550.746 71.9787 550.746 73.584C550.746 74.7413 550.307 75.6467 549.43 76.3C548.552 76.9533 547.414 77.28 546.014 77.28C544.67 77.28 543.559 76.9813 542.682 76.384C541.804 75.768 541.282 74.956 541.114 73.948L543.074 73.64C543.186 74.1813 543.512 74.62 544.054 74.956C544.595 75.292 545.258 75.46 546.042 75.46C546.826 75.46 547.47 75.292 547.974 74.956C548.496 74.62 548.758 74.1813 548.758 73.64C548.758 72.912 548.207 72.352 547.106 71.96L544.138 70.924C542.364 70.2707 541.478 69.2067 541.478 67.732C541.478 66.5933 541.888 65.7067 542.71 65.072C543.55 64.4373 544.651 64.12 546.014 64.12C547.227 64.12 548.235 64.4 549.038 64.96C549.84 65.5013 550.326 66.2293 550.494 67.144ZM559.342 77.28C557.457 77.28 555.889 76.6547 554.638 75.404C553.387 74.1533 552.762 72.5853 552.762 70.7C552.762 68.8147 553.387 67.2467 554.638 65.996C555.889 64.7453 557.457 64.12 559.342 64.12C561.209 64.12 562.767 64.7453 564.018 65.996C565.287 67.2653 565.922 68.8333 565.922 70.7C565.922 72.5667 565.287 74.1347 564.018 75.404C562.767 76.6547 561.209 77.28 559.342 77.28ZM559.342 66.192C558.073 66.192 557.018 66.6213 556.178 67.48C555.338 68.3387 554.918 69.412 554.918 70.7C554.918 71.988 555.338 73.0613 556.178 73.92C557.018 74.7787 558.073 75.208 559.342 75.208C560.611 75.208 561.666 74.7787 562.506 73.92C563.346 73.0613 563.766 71.988 563.766 70.7C563.766 69.412 563.346 68.3387 562.506 67.48C561.666 66.6213 560.611 66.192 559.342 66.192ZM570.678 77H568.634V56.7H570.678V77ZM578.076 77L572.672 64.4H574.8L579.028 74.368L583.256 64.4H585.384L579.98 77H578.076ZM589.457 77H587.385V64.4H589.457V77ZM586.993 60.284C586.956 59.7053 587.18 59.304 587.665 59.08C588.169 58.8373 588.664 58.8373 589.149 59.08C589.653 59.304 589.877 59.7053 589.821 60.284C589.821 60.6947 589.69 61.04 589.429 61.32C589.168 61.5813 588.832 61.712 588.421 61.712C588.01 61.712 587.665 61.5813 587.385 61.32C587.124 61.0587 586.993 60.7133 586.993 60.284ZM592.823 77V64.4H594.867V66.5C595.782 64.9133 597.266 64.12 599.319 64.12C600.794 64.12 602.007 64.596 602.959 65.548C603.93 66.5 604.415 67.6947 604.415 69.132V77H602.343V69.692C602.343 68.6653 601.998 67.816 601.307 67.144C600.635 66.4533 599.786 66.108 598.759 66.108C597.658 66.108 596.734 66.4533 595.987 67.144C595.241 67.8347 594.867 68.6933 594.867 69.72V77H592.823ZM613.294 77.28C611.52 77.28 610.036 76.6547 608.842 75.404C607.666 74.1533 607.078 72.5853 607.078 70.7C607.078 68.852 607.666 67.2933 608.842 66.024C610.055 64.7547 611.539 64.12 613.294 64.12C615.142 64.12 616.663 64.792 617.858 66.136V64.4H619.902V77.224C619.902 79.0533 619.286 80.5653 618.054 81.76C616.84 82.9733 615.319 83.58 613.49 83.58C612.22 83.58 611.044 83.272 609.962 82.656C608.898 82.04 608.123 81.2373 607.638 80.248L609.71 79.604C610.027 80.1827 610.522 80.6493 611.194 81.004C611.884 81.3587 612.622 81.536 613.406 81.536C614.656 81.536 615.72 81.1253 616.598 80.304C617.475 79.4827 617.895 78.456 617.858 77.224V75.264C616.663 76.608 615.142 77.28 613.294 77.28ZM616.57 67.48C615.767 66.6213 614.75 66.192 613.518 66.192C612.286 66.192 611.268 66.6213 610.466 67.48C609.644 68.3573 609.234 69.4307 609.234 70.7C609.234 71.9693 609.644 73.0427 610.466 73.92C611.268 74.7787 612.286 75.208 613.518 75.208C614.75 75.208 615.767 74.7787 616.57 73.92C617.391 73.0427 617.802 71.9693 617.802 70.7C617.802 69.4307 617.391 68.3573 616.57 67.48ZM636.064 64.12C637.912 64.12 639.434 64.792 640.628 66.136V64.4H642.7V77H640.628V75.264C639.434 76.608 637.912 77.28 636.064 77.28C634.291 77.28 632.807 76.6547 631.612 75.404C630.436 74.1533 629.848 72.5853 629.848 70.7C629.848 68.852 630.436 67.2933 631.612 66.024C632.826 64.7547 634.31 64.12 636.064 64.12ZM639.34 67.48C638.538 66.6213 637.52 66.192 636.288 66.192C635.056 66.192 634.039 66.6213 633.236 67.48C632.415 68.3573 632.004 69.4307 632.004 70.7C632.004 71.9693 632.415 73.0427 633.236 73.92C634.039 74.7787 635.056 75.208 636.288 75.208C637.52 75.208 638.538 74.7787 639.34 73.92C640.162 73.0427 640.572 71.9693 640.572 70.7C640.572 69.4307 640.162 68.3573 639.34 67.48ZM655.335 69.888V77H653.291V64.4H655.335V66.528C656.287 64.9227 657.771 64.12 659.787 64.12H660.151V66.416C659.834 66.3227 659.526 66.276 659.227 66.276C658.126 66.276 657.202 66.6213 656.455 67.312C655.708 68.0027 655.335 68.8613 655.335 69.888ZM674.111 71.4H663.303C663.433 72.52 663.928 73.4627 664.787 74.228C665.645 74.9747 666.681 75.348 667.895 75.348C669.5 75.348 670.741 74.7413 671.619 73.528L673.607 74.172C673.028 75.1427 672.235 75.908 671.227 76.468C670.219 77.0093 669.108 77.28 667.895 77.28C665.953 77.28 664.348 76.6547 663.079 75.404C661.809 74.1347 661.175 72.5667 661.175 70.7C661.175 68.8333 661.8 67.2747 663.051 66.024C664.32 64.7547 665.869 64.12 667.699 64.12C669.528 64.12 671.059 64.7547 672.291 66.024C673.541 67.2747 674.167 68.8333 674.167 70.7C674.167 70.98 674.148 71.2133 674.111 71.4ZM663.331 69.748H672.039C671.833 68.6653 671.32 67.7787 670.499 67.088C669.696 66.3973 668.744 66.052 667.643 66.052C666.579 66.052 665.645 66.3973 664.843 67.088C664.04 67.7787 663.536 68.6653 663.331 69.748ZM682.262 64.12C684.11 64.12 685.632 64.792 686.826 66.136V64.4H688.898V77H686.826V75.264C685.632 76.608 684.11 77.28 682.262 77.28C680.489 77.28 679.005 76.6547 677.81 75.404C676.634 74.1533 676.046 72.5853 676.046 70.7C676.046 68.852 676.634 67.2933 677.81 66.024C679.024 64.7547 680.508 64.12 682.262 64.12ZM685.538 67.48C684.736 66.6213 683.718 66.192 682.486 66.192C681.254 66.192 680.237 66.6213 679.434 67.48C678.613 68.3573 678.202 69.4307 678.202 70.7C678.202 71.9693 678.613 73.0427 679.434 73.92C680.237 74.7787 681.254 75.208 682.486 75.208C683.718 75.208 684.736 74.7787 685.538 73.92C686.36 73.0427 686.77 71.9693 686.77 70.7C686.77 69.4307 686.36 68.3573 685.538 67.48ZM694.29 77H692.246V56.7H694.29V77ZM697.796 71.652V69.748H704.88V71.652H697.796ZM713.048 77H711.256L706.972 64.4H709.044L712.124 73.836L715.176 64.4H716.996L720.02 73.808L723.128 64.4H725.2L720.916 77H719.096L716.072 67.816L713.048 77ZM732.57 77.28C730.685 77.28 729.117 76.6547 727.866 75.404C726.615 74.1533 725.99 72.5853 725.99 70.7C725.99 68.8147 726.615 67.2467 727.866 65.996C729.117 64.7453 730.685 64.12 732.57 64.12C734.437 64.12 735.995 64.7453 737.246 65.996C738.515 67.2653 739.15 68.8333 739.15 70.7C739.15 72.5667 738.515 74.1347 737.246 75.404C735.995 76.6547 734.437 77.28 732.57 77.28ZM732.57 66.192C731.301 66.192 730.246 66.6213 729.406 67.48C728.566 68.3387 728.146 69.412 728.146 70.7C728.146 71.988 728.566 73.0613 729.406 73.92C730.246 74.7787 731.301 75.208 732.57 75.208C733.839 75.208 734.894 74.7787 735.734 73.92C736.574 73.0613 736.994 71.988 736.994 70.7C736.994 69.412 736.574 68.3387 735.734 67.48C734.894 66.6213 733.839 66.192 732.57 66.192ZM743.906 69.888V77H741.862V64.4H743.906V66.528C744.858 64.9227 746.342 64.12 748.358 64.12H748.722V66.416C748.405 66.3227 748.097 66.276 747.798 66.276C746.697 66.276 745.773 66.6213 745.026 67.312C744.279 68.0027 743.906 68.8613 743.906 69.888ZM752.926 77H750.882V56.7H752.926V77ZM761.864 64.12C763.712 64.12 765.234 64.792 766.428 66.136V56.7H768.472V77H766.428V75.264C765.234 76.608 763.712 77.28 761.864 77.28C760.091 77.28 758.607 76.6547 757.412 75.404C756.236 74.1533 755.648 72.5853 755.648 70.7C755.648 68.852 756.236 67.2933 757.412 66.024C758.626 64.7547 760.11 64.12 761.864 64.12ZM765.14 67.48C764.338 66.6213 763.32 66.192 762.088 66.192C760.856 66.192 759.839 66.6213 759.036 67.48C758.215 68.3573 757.804 69.4307 757.804 70.7C757.804 71.9693 758.215 73.0427 759.036 73.92C759.839 74.7787 760.856 75.208 762.088 75.208C763.32 75.208 764.338 74.7787 765.14 73.92C765.962 73.0427 766.372 71.9693 766.372 70.7C766.372 69.4307 765.962 68.3573 765.14 67.48ZM781.135 83.3H779.091V64.4H781.135V66.136C782.33 64.792 783.851 64.12 785.699 64.12C787.472 64.12 788.947 64.7547 790.123 66.024C791.318 67.2747 791.915 68.8333 791.915 70.7C791.915 72.5853 791.318 74.1533 790.123 75.404C788.947 76.6547 787.472 77.28 785.699 77.28C783.851 77.28 782.33 76.608 781.135 75.264V83.3ZM788.527 67.48C787.724 66.6213 786.707 66.192 785.475 66.192C784.243 66.192 783.226 66.6213 782.423 67.48C781.602 68.3573 781.191 69.4307 781.191 70.7C781.191 71.9693 781.602 73.0427 782.423 73.92C783.226 74.7787 784.243 75.208 785.475 75.208C786.707 75.208 787.724 74.7787 788.527 73.92C789.367 73.0613 789.787 71.988 789.787 70.7C789.787 69.412 789.367 68.3387 788.527 67.48ZM796.663 69.888V77H794.619V64.4H796.663V66.528C797.615 64.9227 799.099 64.12 801.115 64.12H801.479V66.416C801.162 66.3227 800.854 66.276 800.555 66.276C799.454 66.276 798.53 66.6213 797.783 67.312C797.036 68.0027 796.663 68.8613 796.663 69.888ZM809.082 77.28C807.197 77.28 805.629 76.6547 804.378 75.404C803.128 74.1533 802.502 72.5853 802.502 70.7C802.502 68.8147 803.128 67.2467 804.378 65.996C805.629 64.7453 807.197 64.12 809.082 64.12C810.949 64.12 812.508 64.7453 813.758 65.996C815.028 67.2653 815.662 68.8333 815.662 70.7C815.662 72.5667 815.028 74.1347 813.758 75.404C812.508 76.6547 810.949 77.28 809.082 77.28ZM809.082 66.192C807.813 66.192 806.758 66.6213 805.918 67.48C805.078 68.3387 804.658 69.412 804.658 70.7C804.658 71.988 805.078 73.0613 805.918 73.92C806.758 74.7787 807.813 75.208 809.082 75.208C810.352 75.208 811.406 74.7787 812.246 73.92C813.086 73.0613 813.506 71.988 813.506 70.7C813.506 69.412 813.086 68.3387 812.246 67.48C811.406 66.6213 810.352 66.192 809.082 66.192ZM818.374 77V56.7H820.418V66.136C821.613 64.792 823.134 64.12 824.982 64.12C826.756 64.12 828.23 64.7547 829.406 66.024C830.601 67.2747 831.198 68.8333 831.198 70.7C831.198 72.5853 830.601 74.1533 829.406 75.404C828.23 76.6547 826.756 77.28 824.982 77.28C823.134 77.28 821.613 76.608 820.418 75.264V77H818.374ZM827.81 67.48C827.008 66.6213 825.99 66.192 824.758 66.192C823.526 66.192 822.509 66.6213 821.706 67.48C820.885 68.3573 820.474 69.4307 820.474 70.7C820.474 71.9693 820.885 73.0427 821.706 73.92C822.509 74.7787 823.526 75.208 824.758 75.208C825.99 75.208 827.008 74.7787 827.81 73.92C828.65 73.0613 829.07 71.988 829.07 70.7C829.07 69.412 828.65 68.3387 827.81 67.48ZM835.946 77H833.902V56.7H835.946V77ZM851.604 71.4H840.796C840.927 72.52 841.422 73.4627 842.28 74.228C843.139 74.9747 844.175 75.348 845.388 75.348C846.994 75.348 848.235 74.7413 849.112 73.528L851.1 74.172C850.522 75.1427 849.728 75.908 848.72 76.468C847.712 77.0093 846.602 77.28 845.388 77.28C843.447 77.28 841.842 76.6547 840.572 75.404C839.303 74.1347 838.668 72.5667 838.668 70.7C838.668 68.8333 839.294 67.2747 840.544 66.024C841.814 64.7547 843.363 64.12 845.192 64.12C847.022 64.12 848.552 64.7547 849.784 66.024C851.035 67.2747 851.66 68.8333 851.66 70.7C851.66 70.98 851.642 71.2133 851.604 71.4ZM840.824 69.748H849.532C849.327 68.6653 848.814 67.7787 847.992 67.088C847.19 66.3973 846.238 66.052 845.136 66.052C844.072 66.052 843.139 66.3973 842.336 67.088C841.534 67.7787 841.03 68.6653 840.824 69.748ZM856.256 77H854.212V64.4H856.256V66.248C857.171 64.8293 858.552 64.12 860.4 64.12C861.296 64.12 862.117 64.344 862.864 64.792C863.629 65.2213 864.208 65.8093 864.6 66.556C864.824 66.164 865.057 65.8373 865.3 65.576C865.617 65.2027 866.121 64.8667 866.812 64.568C867.521 64.2693 868.268 64.12 869.052 64.12C870.489 64.12 871.665 64.568 872.58 65.464C873.513 66.36 873.98 67.48 873.98 68.824V77H871.936V69.356C871.936 68.4413 871.628 67.676 871.012 67.06C870.396 66.4253 869.621 66.108 868.688 66.108C867.68 66.108 866.831 66.4253 866.14 67.06C865.468 67.7133 865.132 68.4973 865.132 69.412V77H863.06V69.356C863.06 68.4227 862.752 67.648 862.136 67.032C861.52 66.416 860.745 66.108 859.812 66.108C858.804 66.108 857.955 66.4253 857.264 67.06C856.592 67.7133 856.256 68.4973 856.256 69.412V77ZM884.92 63.308C884.92 62.356 884.5 61.5533 883.66 60.9C882.839 60.228 881.831 59.892 880.636 59.892C879.609 59.892 878.713 60.1533 877.948 60.676C877.183 61.18 876.669 61.852 876.408 62.692L874.224 62.048C874.635 60.7787 875.419 59.7613 876.576 58.996C877.733 58.212 879.077 57.82 880.608 57.82C882.419 57.82 883.959 58.352 885.228 59.416C886.479 60.4427 887.104 61.7493 887.104 63.336C887.104 64.1013 886.936 64.8293 886.6 65.52C886.264 66.192 885.835 66.752 885.312 67.2C884.808 67.648 884.332 68.012 883.884 68.292C883.436 68.572 883.007 68.7867 882.596 68.936L882.092 69.132L881.98 71.316H880.02L879.796 67.984C880.375 67.7973 880.963 67.5547 881.56 67.256C882.213 66.9013 882.736 66.584 883.128 66.304C883.613 65.9307 884.033 65.4733 884.388 64.932C884.743 64.3907 884.92 63.8493 884.92 63.308ZM879.516 75.768C879.516 75.3573 879.656 75.012 879.936 74.732C880.216 74.4333 880.571 74.284 881 74.284C881.429 74.284 881.784 74.424 882.064 74.704C882.363 74.984 882.512 75.3387 882.512 75.768C882.512 76.1973 882.363 76.5613 882.064 76.86C881.784 77.14 881.429 77.28 881 77.28C880.571 77.28 880.216 77.14 879.936 76.86C879.656 76.5613 879.516 76.1973 879.516 75.768Z" fill="white"/>
</svg>
