<svg width="790" height="668" viewBox="0 0 790 668" fill="none" xmlns="http://www.w3.org/2000/svg">
<circle opacity="0.5" cx="384" cy="337" r="315" stroke="#0A66C2" stroke-width="2"/>
<path d="M289.431 308.27H280.74V304.958H301.683V308.27H292.992V329H289.431V308.27ZM304.379 329V303.177H307.585V315.287C308.796 313.459 310.577 312.544 312.928 312.544C314.78 312.544 316.335 313.15 317.594 314.361C318.828 315.525 319.446 317.032 319.446 318.884V329H316.204V319.775C316.204 318.588 315.801 317.602 314.993 316.819C314.21 316.035 313.213 315.643 312.002 315.643C310.743 315.643 309.686 316.047 308.832 316.854C308 317.638 307.585 318.623 307.585 319.811V329H304.379ZM339.078 322.161H325.828C326.089 323.396 326.694 324.417 327.644 325.224C328.618 326.008 329.769 326.4 331.099 326.4C332.88 326.4 334.293 325.735 335.338 324.405L338.472 325.367C337.76 326.602 336.739 327.587 335.409 328.323C334.103 329.059 332.666 329.427 331.099 329.427C328.677 329.427 326.635 328.62 324.973 327.005C323.334 325.391 322.515 323.384 322.515 320.986C322.515 318.564 323.311 316.557 324.902 314.967C326.516 313.352 328.499 312.544 330.85 312.544C333.177 312.544 335.148 313.352 336.762 314.967C338.353 316.557 339.149 318.564 339.149 320.986C339.149 321.437 339.125 321.829 339.078 322.161ZM325.863 319.597H335.836C335.551 318.386 334.946 317.412 334.02 316.676C333.094 315.94 332.013 315.572 330.779 315.572C329.591 315.572 328.535 315.952 327.609 316.712C326.706 317.448 326.125 318.41 325.863 319.597ZM363.55 329H351.405V304.958H362.874C364.892 304.958 366.566 305.563 367.896 306.774C369.249 307.985 369.926 309.505 369.926 311.333C369.926 313.376 369.071 315.038 367.361 316.32C368.501 316.89 369.392 317.697 370.033 318.742C370.698 319.787 371.03 320.938 371.03 322.197C371.03 324.12 370.318 325.747 368.893 327.077C367.468 328.359 365.687 329 363.55 329ZM363.55 318.208H354.966V325.688H363.55C364.643 325.688 365.545 325.331 366.257 324.619C366.993 323.907 367.361 323.016 367.361 321.948C367.361 320.879 366.993 319.989 366.257 319.276C365.545 318.564 364.643 318.208 363.55 318.208ZM362.874 308.27H354.966V314.895H362.874C363.847 314.895 364.654 314.587 365.296 313.969C365.937 313.328 366.257 312.533 366.257 311.583C366.257 310.633 365.937 309.849 365.296 309.232C364.654 308.591 363.847 308.27 362.874 308.27ZM374.102 323.087V312.972H377.343V322.197C377.343 323.384 377.735 324.37 378.519 325.153C379.302 325.937 380.276 326.329 381.439 326.329C382.674 326.329 383.695 325.925 384.503 325.118C385.334 324.287 385.749 323.301 385.749 322.161V312.972H388.955V329H385.749V326.685C384.538 328.513 382.793 329.427 380.513 329.427C378.661 329.427 377.13 328.822 375.919 327.611C374.708 326.4 374.102 324.892 374.102 323.087ZM404.139 316.641L401.148 317.175C400.744 315.988 399.699 315.394 398.013 315.394C397.23 315.394 396.588 315.56 396.09 315.893C395.591 316.201 395.342 316.605 395.342 317.104C395.342 317.768 395.864 318.303 396.909 318.706L400.506 319.953C403.118 320.879 404.424 322.411 404.424 324.548C404.424 326.091 403.855 327.29 402.715 328.145C401.575 329 400.091 329.427 398.263 329.427C396.458 329.427 394.986 329.024 393.846 328.216C392.706 327.409 392.029 326.317 391.816 324.94L394.879 324.477C394.998 325.118 395.366 325.628 395.983 326.008C396.624 326.388 397.408 326.578 398.334 326.578C399.212 326.578 399.937 326.4 400.506 326.044C401.076 325.688 401.361 325.224 401.361 324.655C401.361 323.871 400.708 323.254 399.402 322.802L395.84 321.627C393.442 320.796 392.243 319.371 392.243 317.353C392.243 315.809 392.789 314.622 393.881 313.791C394.974 312.96 396.434 312.544 398.263 312.544C399.901 312.544 401.243 312.913 402.287 313.649C403.332 314.385 403.95 315.382 404.139 316.641ZM410.588 329H407.382V312.972H410.588V329ZM408.985 305.706C409.579 305.706 410.077 305.908 410.481 306.311C410.885 306.715 411.086 307.214 411.086 307.807C411.086 308.757 410.647 309.41 409.769 309.766C408.89 310.122 408.118 309.98 407.453 309.339C406.812 308.674 406.67 307.902 407.026 307.024C407.382 306.145 408.035 305.706 408.985 305.706ZM414.404 329V312.972H417.61V315.287C418.821 313.459 420.566 312.544 422.846 312.544C424.698 312.544 426.229 313.15 427.44 314.361C428.651 315.525 429.257 317.02 429.257 318.849V329H426.016V319.775C426.016 318.588 425.624 317.602 424.84 316.819C424.057 316.035 423.083 315.643 421.92 315.643C420.709 315.643 419.687 316.047 418.856 316.854C418.025 317.638 417.61 318.623 417.61 319.811V329H414.404ZM448.894 322.161H435.644C435.905 323.396 436.511 324.417 437.46 325.224C438.434 326.008 439.586 326.4 440.915 326.4C442.696 326.4 444.109 325.735 445.154 324.405L448.288 325.367C447.576 326.602 446.555 327.587 445.225 328.323C443.919 329.059 442.483 329.427 440.915 329.427C438.493 329.427 436.451 328.62 434.789 327.005C433.151 325.391 432.331 323.384 432.331 320.986C432.331 318.564 433.127 316.557 434.718 314.967C436.333 313.352 438.315 312.544 440.666 312.544C442.993 312.544 444.964 313.352 446.579 314.967C448.17 316.557 448.965 318.564 448.965 320.986C448.965 321.437 448.941 321.829 448.894 322.161ZM435.68 319.597H445.653C445.368 318.386 444.762 317.412 443.836 316.676C442.91 315.94 441.83 315.572 440.595 315.572C439.408 315.572 438.351 315.952 437.425 316.712C436.522 317.448 435.941 318.41 435.68 319.597ZM463.185 316.641L460.193 317.175C459.789 315.988 458.744 315.394 457.058 315.394C456.275 315.394 455.634 315.56 455.135 315.893C454.636 316.201 454.387 316.605 454.387 317.104C454.387 317.768 454.909 318.303 455.954 318.706L459.552 319.953C462.164 320.879 463.47 322.411 463.47 324.548C463.47 326.091 462.9 327.29 461.76 328.145C460.62 329 459.136 329.427 457.308 329.427C455.503 329.427 454.031 329.024 452.891 328.216C451.751 327.409 451.075 326.317 450.861 324.94L453.924 324.477C454.043 325.118 454.411 325.628 455.028 326.008C455.669 326.388 456.453 326.578 457.379 326.578C458.258 326.578 458.982 326.4 459.552 326.044C460.122 325.688 460.406 325.224 460.406 324.655C460.406 323.871 459.753 323.254 458.447 322.802L454.886 321.627C452.487 320.796 451.288 319.371 451.288 317.353C451.288 315.809 451.834 314.622 452.927 313.791C454.019 312.96 455.479 312.544 457.308 312.544C458.946 312.544 460.288 312.913 461.333 313.649C462.377 314.385 462.995 315.382 463.185 316.641ZM477.789 316.641L474.798 317.175C474.394 315.988 473.349 315.394 471.663 315.394C470.88 315.394 470.238 315.56 469.74 315.893C469.241 316.201 468.992 316.605 468.992 317.104C468.992 317.768 469.514 318.303 470.559 318.706L474.156 319.953C476.768 320.879 478.074 322.411 478.074 324.548C478.074 326.091 477.504 327.29 476.365 328.145C475.225 329 473.741 329.427 471.912 329.427C470.108 329.427 468.636 329.024 467.496 328.216C466.356 327.409 465.679 326.317 465.466 324.94L468.529 324.477C468.647 325.118 469.016 325.628 469.633 326.008C470.274 326.388 471.058 326.578 471.984 326.578C472.862 326.578 473.587 326.4 474.156 326.044C474.726 325.688 475.011 325.224 475.011 324.655C475.011 323.871 474.358 323.254 473.052 322.802L469.49 321.627C467.092 320.796 465.893 319.371 465.893 317.353C465.893 315.809 466.439 314.622 467.531 313.791C468.624 312.96 470.084 312.544 471.912 312.544C473.551 312.544 474.892 312.913 475.937 313.649C476.982 314.385 477.599 315.382 477.789 316.641ZM278.081 364H268.5V339.958H278.081C281.596 339.958 284.552 341.121 286.95 343.448C289.349 345.775 290.548 348.625 290.548 351.997C290.548 355.369 289.349 358.218 286.95 360.545C284.576 362.848 281.619 364 278.081 364ZM278.081 343.27H272.062V360.688H278.081C280.575 360.688 282.652 359.856 284.315 358.194C286 356.508 286.843 354.443 286.843 351.997C286.843 349.527 286 347.45 284.315 345.764C282.652 344.101 280.575 343.27 278.081 343.27ZM309.657 357.161H296.407C296.669 358.396 297.274 359.417 298.224 360.224C299.197 361.008 300.349 361.4 301.679 361.4C303.46 361.4 304.873 360.735 305.917 359.405L309.052 360.367C308.339 361.602 307.318 362.587 305.989 363.323C304.683 364.059 303.246 364.427 301.679 364.427C299.257 364.427 297.215 363.62 295.553 362.005C293.914 360.391 293.095 358.384 293.095 355.986C293.095 353.564 293.89 351.557 295.481 349.967C297.096 348.352 299.079 347.544 301.43 347.544C303.757 347.544 305.727 348.352 307.342 349.967C308.933 351.557 309.729 353.564 309.729 355.986C309.729 356.437 309.705 356.829 309.657 357.161ZM296.443 354.597H306.416C306.131 353.386 305.526 352.412 304.6 351.676C303.673 350.94 302.593 350.572 301.358 350.572C300.171 350.572 299.114 350.952 298.188 351.712C297.286 352.448 296.704 353.41 296.443 354.597ZM323.948 351.641L320.956 352.175C320.553 350.988 319.508 350.394 317.822 350.394C317.038 350.394 316.397 350.56 315.899 350.893C315.4 351.201 315.151 351.605 315.151 352.104C315.151 352.768 315.673 353.303 316.718 353.706L320.315 354.953C322.927 355.879 324.233 357.411 324.233 359.548C324.233 361.091 323.663 362.29 322.523 363.145C321.384 364 319.9 364.427 318.071 364.427C316.267 364.427 314.794 364.024 313.655 363.216C312.515 362.409 311.838 361.317 311.624 359.94L314.688 359.477C314.806 360.118 315.174 360.628 315.792 361.008C316.433 361.388 317.216 361.578 318.142 361.578C319.021 361.578 319.745 361.4 320.315 361.044C320.885 360.688 321.17 360.224 321.17 359.655C321.17 358.871 320.517 358.254 319.211 357.802L315.649 356.627C313.251 355.796 312.052 354.371 312.052 352.353C312.052 350.809 312.598 349.622 313.69 348.791C314.782 347.96 316.243 347.544 318.071 347.544C319.71 347.544 321.051 347.913 322.096 348.649C323.141 349.385 323.758 350.382 323.948 351.641ZM330.396 364H327.191V347.972H330.396V364ZM328.794 340.706C329.387 340.706 329.886 340.908 330.29 341.311C330.693 341.715 330.895 342.214 330.895 342.807C330.895 343.757 330.456 344.41 329.577 344.766C328.699 345.122 327.927 344.98 327.262 344.339C326.621 343.674 326.478 342.902 326.835 342.024C327.191 341.145 327.844 340.706 328.794 340.706ZM341.372 364.427C339.164 364.427 337.288 363.62 335.744 362.005C334.248 360.414 333.5 358.408 333.5 355.986C333.5 353.588 334.248 351.581 335.744 349.967C337.288 348.352 339.164 347.544 341.372 347.544C343.438 347.544 345.207 348.245 346.679 349.646V347.972H349.885V364.392C349.885 366.695 349.101 368.607 347.534 370.126C345.991 371.67 344.067 372.441 341.764 372.441C340.078 372.441 338.523 372.014 337.098 371.159C335.673 370.304 334.676 369.2 334.106 367.847L337.347 366.885C337.68 367.574 338.25 368.132 339.057 368.559C339.864 369.01 340.731 369.236 341.657 369.236C343.058 369.236 344.245 368.773 345.219 367.847C346.192 366.921 346.679 365.769 346.679 364.392V362.326C345.207 363.727 343.438 364.427 341.372 364.427ZM341.728 350.786C340.327 350.786 339.152 351.284 338.202 352.282C337.276 353.279 336.813 354.514 336.813 355.986C336.813 357.458 337.276 358.693 338.202 359.69C339.152 360.688 340.327 361.186 341.728 361.186C343.105 361.186 344.257 360.688 345.183 359.69C346.133 358.717 346.608 357.482 346.608 355.986C346.608 354.49 346.133 353.255 345.183 352.282C344.257 351.284 343.105 350.786 341.728 350.786ZM353.687 364V347.972H356.893V350.287C358.104 348.459 359.849 347.544 362.129 347.544C363.981 347.544 365.512 348.15 366.723 349.361C367.934 350.525 368.54 352.02 368.54 353.849V364H365.299V354.775C365.299 353.588 364.907 352.602 364.123 351.819C363.34 351.035 362.366 350.643 361.203 350.643C359.992 350.643 358.971 351.047 358.14 351.854C357.308 352.638 356.893 353.623 356.893 354.811V364H353.687ZM397.326 339.958V355.309C397.326 357.921 396.423 360.094 394.619 361.827C392.862 363.561 390.641 364.427 387.958 364.427C386.272 364.427 384.741 364.071 383.363 363.359C381.986 362.623 380.87 361.602 380.015 360.296L382.972 358.372C383.47 359.227 384.159 359.904 385.038 360.403C385.94 360.901 386.925 361.151 387.994 361.151C389.727 361.103 391.128 360.545 392.197 359.477C393.337 358.36 393.906 356.971 393.906 355.309V339.958H397.326ZM403.002 362.005C401.411 360.414 400.615 358.408 400.615 355.986C400.615 353.564 401.411 351.557 403.002 349.967C404.616 348.352 406.623 347.544 409.021 347.544C411.42 347.544 413.426 348.352 415.041 349.967C416.655 351.581 417.463 353.588 417.463 355.986C417.463 358.384 416.655 360.391 415.041 362.005C413.426 363.62 411.42 364.427 409.021 364.427C406.623 364.427 404.616 363.62 403.002 362.005ZM405.388 352.282C404.438 353.255 403.963 354.49 403.963 355.986C403.963 357.482 404.438 358.717 405.388 359.69C406.338 360.688 407.549 361.186 409.021 361.186C410.446 361.186 411.645 360.688 412.619 359.69C413.592 358.669 414.079 357.434 414.079 355.986C414.079 354.537 413.592 353.303 412.619 352.282C411.645 351.284 410.446 350.786 409.021 350.786C407.549 350.786 406.338 351.284 405.388 352.282ZM420.488 358.087V347.972H423.73V357.197C423.73 358.384 424.121 359.37 424.905 360.153C425.689 360.937 426.662 361.329 427.826 361.329C429.06 361.329 430.081 360.925 430.889 360.118C431.72 359.287 432.135 358.301 432.135 357.161V347.972H435.341V364H432.135V361.685C430.924 363.513 429.179 364.427 426.9 364.427C425.047 364.427 423.516 363.822 422.305 362.611C421.094 361.4 420.488 359.892 420.488 358.087ZM442.369 347.972V350.287C443.58 348.459 445.325 347.544 447.605 347.544C447.866 347.544 448.032 347.556 448.104 347.58V351.178C447.747 351.011 447.273 350.928 446.679 350.928C445.444 350.928 444.411 351.32 443.58 352.104C442.773 352.887 442.369 353.873 442.369 355.06V364H439.164V347.972H442.369ZM450.499 364V347.972H453.704V350.287C454.915 348.459 456.661 347.544 458.94 347.544C460.792 347.544 462.324 348.15 463.535 349.361C464.746 350.525 465.351 352.02 465.351 353.849V364H462.11V354.775C462.11 353.588 461.718 352.602 460.935 351.819C460.151 351.035 459.178 350.643 458.014 350.643C456.803 350.643 455.782 351.047 454.951 351.854C454.12 352.638 453.704 353.623 453.704 354.811V364H450.499ZM484.988 357.161H471.738C472 358.396 472.605 359.417 473.555 360.224C474.528 361.008 475.68 361.4 477.01 361.4C478.791 361.4 480.204 360.735 481.248 359.405L484.383 360.367C483.67 361.602 482.649 362.587 481.32 363.323C480.014 364.059 478.577 364.427 477.01 364.427C474.588 364.427 472.546 363.62 470.884 362.005C469.245 360.391 468.426 358.384 468.426 355.986C468.426 353.564 469.221 351.557 470.812 349.967C472.427 348.352 474.41 347.544 476.761 347.544C479.088 347.544 481.058 348.352 482.673 349.967C484.264 351.557 485.06 353.564 485.06 355.986C485.06 356.437 485.036 356.829 484.988 357.161ZM471.774 354.597H481.747C481.462 353.386 480.857 352.412 479.931 351.676C479.004 350.94 477.924 350.572 476.689 350.572C475.502 350.572 474.445 350.952 473.519 351.712C472.617 352.448 472.035 353.41 471.774 354.597ZM490.996 365.888L491.922 363.573L485.653 347.972H489.001L493.561 359.583L498.227 347.972H501.575L493.774 366.992C493.062 368.725 492.171 369.996 491.103 370.803C490.034 371.61 488.705 372.014 487.114 372.014H486.544V368.915H487.114C488.895 368.915 490.189 367.906 490.996 365.888Z" fill="#1E1E1E"/>
<rect x="317" width="134" height="40" rx="20" fill="#D9D9D9"/>
<path d="M362.45 15.334L360.326 15.964C360.218 15.592 359.966 15.286 359.57 15.046C359.174 14.794 358.718 14.668 358.202 14.668C357.638 14.668 357.158 14.806 356.762 15.082C356.378 15.346 356.186 15.682 356.186 16.09C356.126 16.486 356.414 16.852 357.05 17.188C357.194 17.26 357.41 17.35 357.698 17.458C358.082 17.59 358.634 17.752 359.354 17.944C360.11 18.16 360.722 18.388 361.19 18.628C362.246 19.168 362.816 20.104 362.9 21.436C362.9 22.588 362.48 23.512 361.64 24.208C360.812 24.892 359.738 25.234 358.418 25.234C357.218 25.234 356.198 24.958 355.358 24.406C354.518 23.854 353.972 23.152 353.72 22.3L355.844 21.67C355.94 22.102 356.222 22.462 356.69 22.75C357.17 23.038 357.746 23.182 358.418 23.182C359.078 23.182 359.63 23.038 360.074 22.75C360.53 22.45 360.758 22.072 360.758 21.616C360.758 21.16 360.512 20.794 360.02 20.518C359.672 20.326 359.222 20.152 358.67 19.996C357.23 19.588 356.234 19.234 355.682 18.934C354.59 18.31 354.044 17.41 354.044 16.234C354.044 15.154 354.428 14.284 355.196 13.624C355.976 12.952 356.966 12.616 358.166 12.616C359.246 12.616 360.17 12.874 360.938 13.39C361.718 13.906 362.222 14.554 362.45 15.334ZM372.207 19.33L370.245 19.924C370.077 19.528 369.807 19.21 369.435 18.97C369.075 18.73 368.661 18.61 368.193 18.61C367.569 18.61 367.029 18.838 366.573 19.294C366.141 19.738 365.925 20.29 365.925 20.95C365.925 21.61 366.141 22.168 366.573 22.624C367.017 23.068 367.557 23.29 368.193 23.29C368.661 23.29 369.075 23.17 369.435 22.93C369.807 22.69 370.077 22.372 370.245 21.976L372.207 22.552C371.883 23.38 371.361 24.034 370.641 24.514C369.933 24.994 369.117 25.234 368.193 25.234C366.969 25.234 365.949 24.826 365.133 24.01C364.317 23.194 363.909 22.174 363.909 20.95C363.909 19.726 364.317 18.706 365.133 17.89C365.949 17.074 366.969 16.666 368.193 16.666C369.105 16.666 369.921 16.906 370.641 17.386C371.361 17.866 371.883 18.514 372.207 19.33ZM377.35 16.666C378.574 16.666 379.594 17.074 380.41 17.89C381.226 18.706 381.634 19.726 381.634 20.95C381.634 22.174 381.226 23.194 380.41 24.01C379.594 24.826 378.574 25.234 377.35 25.234C376.114 25.234 375.088 24.826 374.272 24.01C373.456 23.194 373.048 22.174 373.048 20.95C373.048 19.726 373.456 18.706 374.272 17.89C375.088 17.074 376.114 16.666 377.35 16.666ZM377.35 23.29C377.986 23.29 378.52 23.068 378.952 22.624C379.384 22.168 379.6 21.61 379.6 20.95C379.6 20.29 379.384 19.738 378.952 19.294C378.52 18.838 377.986 18.61 377.35 18.61C376.714 18.61 376.168 18.838 375.712 19.294C375.28 19.738 375.064 20.29 375.064 20.95C375.064 21.61 375.28 22.168 375.712 22.624C376.156 23.068 376.702 23.29 377.35 23.29ZM384.911 29.05H382.967V16.9H384.911V17.548C385.607 16.96 386.423 16.666 387.359 16.666C388.487 16.666 389.423 17.074 390.167 17.89C390.923 18.694 391.301 19.714 391.301 20.95C391.301 22.162 390.923 23.182 390.167 24.01C389.423 24.826 388.487 25.234 387.359 25.234C386.423 25.234 385.607 24.94 384.911 24.352V29.05ZM387.107 18.61C386.507 18.61 385.997 18.838 385.577 19.294C385.157 19.75 384.947 20.302 384.947 20.95C384.947 21.61 385.157 22.168 385.577 22.624C385.985 23.068 386.495 23.29 387.107 23.29C387.731 23.29 388.247 23.068 388.655 22.624C389.075 22.168 389.285 21.61 389.285 20.95C389.285 20.302 389.075 19.75 388.655 19.294C388.235 18.838 387.719 18.61 387.107 18.61ZM394.577 25H392.633V16.9H394.577V25ZM392.381 14.326C392.381 13.966 392.495 13.672 392.723 13.444C392.963 13.204 393.257 13.084 393.605 13.084C393.953 13.084 394.247 13.204 394.487 13.444C394.727 13.672 394.847 13.966 394.847 14.326C394.847 14.674 394.727 14.968 394.487 15.208C394.247 15.436 393.953 15.55 393.605 15.55C393.257 15.55 392.963 15.436 392.723 15.208C392.495 14.968 392.381 14.674 392.381 14.326ZM396.217 25V16.9H398.161V17.89C398.761 17.074 399.571 16.666 400.591 16.666C401.515 16.666 402.277 16.966 402.877 17.566C403.489 18.154 403.795 18.904 403.795 19.816V25H401.851V20.374C401.851 19.846 401.677 19.408 401.329 19.06C400.981 18.7 400.543 18.52 400.015 18.52C399.499 18.52 399.061 18.7 398.701 19.06C398.341 19.42 398.161 19.858 398.161 20.374V25H396.217ZM405.12 20.95C405.12 19.738 405.498 18.724 406.254 17.908C407.01 17.08 407.952 16.666 409.08 16.666C410.016 16.666 410.832 16.96 411.528 17.548V16.9H413.454V25.234C413.454 26.374 413.064 27.334 412.284 28.114C411.504 28.894 410.538 29.284 409.386 29.284C408.498 29.284 407.676 29.05 406.92 28.582C406.164 28.102 405.654 27.508 405.39 26.8L407.352 26.26C407.484 26.572 407.736 26.83 408.108 27.034C408.48 27.25 408.882 27.358 409.314 27.358C409.95 27.358 410.472 27.154 410.88 26.746C411.312 26.35 411.528 25.852 411.528 25.252V24.352C410.832 24.94 410.016 25.234 409.08 25.234C407.952 25.234 407.01 24.826 406.254 24.01C405.498 23.194 405.12 22.174 405.12 20.95ZM411.492 20.95C411.492 20.302 411.282 19.75 410.862 19.294C410.442 18.838 409.926 18.61 409.314 18.61C408.702 18.61 408.186 18.838 407.766 19.294C407.346 19.75 407.136 20.302 407.136 20.95C407.136 21.61 407.346 22.168 407.766 22.624C408.174 23.068 408.69 23.29 409.314 23.29C409.938 23.29 410.454 23.068 410.862 22.624C411.282 22.168 411.492 21.61 411.492 20.95Z" fill="#1E1E1E"/>
<rect x="566" y="204" width="224" height="40" rx="20" fill="#D9D9D9"/>
<path d="M605.24 224.626V229H603.098V216.85H608.498C609.686 216.85 610.67 217.222 611.45 217.966C612.242 218.698 612.638 219.622 612.638 220.738C612.638 221.854 612.242 222.778 611.45 223.51C610.67 224.254 609.686 224.626 608.498 224.626H605.24ZM608.498 218.83H605.24V222.646H608.498C609.05 222.646 609.506 222.466 609.866 222.106C610.226 221.746 610.406 221.29 610.406 220.738C610.406 220.198 610.226 219.748 609.866 219.388C609.506 219.016 609.05 218.83 608.498 218.83ZM615.898 220.9V221.89C616.498 221.074 617.308 220.666 618.328 220.666C618.46 220.666 618.544 220.672 618.58 220.684V222.826C618.304 222.718 618.034 222.664 617.77 222.664C617.242 222.664 616.798 222.844 616.438 223.204C616.078 223.564 615.898 224.008 615.898 224.536V229H613.954V220.9H615.898ZM623.362 220.666C624.586 220.666 625.606 221.074 626.422 221.89C627.238 222.706 627.646 223.726 627.646 224.95C627.646 226.174 627.238 227.194 626.422 228.01C625.606 228.826 624.586 229.234 623.362 229.234C622.126 229.234 621.1 228.826 620.284 228.01C619.468 227.194 619.06 226.174 619.06 224.95C619.06 223.726 619.468 222.706 620.284 221.89C621.1 221.074 622.126 220.666 623.362 220.666ZM623.362 227.29C623.998 227.29 624.532 227.068 624.964 226.624C625.396 226.168 625.612 225.61 625.612 224.95C625.612 224.29 625.396 223.738 624.964 223.294C624.532 222.838 623.998 222.61 623.362 222.61C622.726 222.61 622.18 222.838 621.724 223.294C621.292 223.738 621.076 224.29 621.076 224.95C621.076 225.61 621.292 226.168 621.724 226.624C622.168 227.068 622.714 227.29 623.362 227.29ZM628.979 229V215.95H630.923V221.548C631.619 220.96 632.435 220.666 633.371 220.666C634.499 220.666 635.435 221.08 636.179 221.908C636.935 222.724 637.313 223.738 637.313 224.95C637.313 226.174 636.935 227.194 636.179 228.01C635.435 228.826 634.499 229.234 633.371 229.234C632.435 229.234 631.619 228.94 630.923 228.352V229H628.979ZM633.119 222.61C632.519 222.61 632.009 222.838 631.589 223.294C631.169 223.75 630.959 224.302 630.959 224.95C630.959 225.61 631.169 226.168 631.589 226.624C631.997 227.068 632.507 227.29 633.119 227.29C633.743 227.29 634.259 227.068 634.667 226.624C635.087 226.168 635.297 225.61 635.297 224.95C635.297 224.302 635.087 223.75 634.667 223.294C634.247 222.838 633.731 222.61 633.119 222.61ZM640.589 229H638.645V215.95H640.589V229ZM650.364 225.67H643.938C644.082 226.198 644.37 226.63 644.802 226.966C645.234 227.29 645.738 227.452 646.314 227.452C647.094 227.452 647.724 227.164 648.204 226.588L650.094 227.146C649.722 227.794 649.2 228.304 648.528 228.676C647.868 229.048 647.13 229.234 646.314 229.234C645.078 229.234 644.034 228.826 643.182 228.01C642.342 227.206 641.922 226.186 641.922 224.95C641.922 223.738 642.33 222.724 643.146 221.908C643.95 221.08 644.964 220.666 646.188 220.666C647.388 220.666 648.39 221.08 649.194 221.908C650.01 222.724 650.418 223.738 650.418 224.95C650.418 225.202 650.4 225.442 650.364 225.67ZM643.956 224.158H648.42C648.264 223.654 647.982 223.246 647.574 222.934C647.166 222.61 646.692 222.448 646.152 222.448C645.636 222.448 645.174 222.61 644.766 222.934C644.37 223.246 644.1 223.654 643.956 224.158ZM653.575 229H651.631V220.9H653.575V221.764C654.115 221.032 654.877 220.666 655.861 220.666C656.965 220.666 657.817 221.11 658.417 221.998C658.981 221.11 659.839 220.666 660.991 220.666C661.915 220.666 662.683 220.954 663.295 221.53C663.907 222.106 664.213 222.82 664.213 223.672V229H662.287V224.23C662.287 223.738 662.125 223.33 661.801 223.006C661.477 222.682 661.075 222.52 660.595 222.52C660.115 222.52 659.713 222.688 659.389 223.024C659.065 223.348 658.903 223.75 658.903 224.23V229H656.959V224.23C656.959 223.738 656.797 223.33 656.473 223.006C656.149 222.682 655.747 222.52 655.267 222.52C654.787 222.52 654.385 222.688 654.061 223.024C653.737 223.348 653.575 223.75 653.575 224.23V229ZM678.36 225.67H671.934C672.078 226.198 672.366 226.63 672.798 226.966C673.23 227.29 673.734 227.452 674.31 227.452C675.09 227.452 675.72 227.164 676.2 226.588L678.09 227.146C677.718 227.794 677.196 228.304 676.524 228.676C675.864 229.048 675.126 229.234 674.31 229.234C673.074 229.234 672.03 228.826 671.178 228.01C670.338 227.206 669.918 226.186 669.918 224.95C669.918 223.738 670.326 222.724 671.142 221.908C671.946 221.08 672.96 220.666 674.184 220.666C675.384 220.666 676.386 221.08 677.19 221.908C678.006 222.724 678.414 223.738 678.414 224.95C678.414 225.202 678.396 225.442 678.36 225.67ZM671.952 224.158H676.416C676.26 223.654 675.978 223.246 675.57 222.934C675.162 222.61 674.688 222.448 674.148 222.448C673.632 222.448 673.17 222.61 672.762 222.934C672.366 223.246 672.096 223.654 671.952 224.158ZM684.727 229L682.819 226.39L680.911 229H678.625L681.685 224.842L678.805 220.9H681.073L682.819 223.294L684.583 220.9H686.851L683.971 224.842L687.013 229H684.727ZM689.9 233.05H687.956V220.9H689.9V221.548C690.596 220.96 691.412 220.666 692.348 220.666C693.476 220.666 694.412 221.074 695.156 221.89C695.912 222.694 696.29 223.714 696.29 224.95C696.29 226.162 695.912 227.182 695.156 228.01C694.412 228.826 693.476 229.234 692.348 229.234C691.412 229.234 690.596 228.94 689.9 228.352V233.05ZM692.096 222.61C691.496 222.61 690.986 222.838 690.566 223.294C690.146 223.75 689.936 224.302 689.936 224.95C689.936 225.61 690.146 226.168 690.566 226.624C690.974 227.068 691.484 227.29 692.096 227.29C692.72 227.29 693.236 227.068 693.644 226.624C694.064 226.168 694.274 225.61 694.274 224.95C694.274 224.302 694.064 223.75 693.644 223.294C693.224 222.838 692.708 222.61 692.096 222.61ZM699.566 229H697.622V215.95H699.566V229ZM705.202 220.666C706.426 220.666 707.446 221.074 708.262 221.89C709.078 222.706 709.486 223.726 709.486 224.95C709.486 226.174 709.078 227.194 708.262 228.01C707.446 228.826 706.426 229.234 705.202 229.234C703.966 229.234 702.94 228.826 702.124 228.01C701.308 227.194 700.9 226.174 700.9 224.95C700.9 223.726 701.308 222.706 702.124 221.89C702.94 221.074 703.966 220.666 705.202 220.666ZM705.202 227.29C705.838 227.29 706.372 227.068 706.804 226.624C707.236 226.168 707.452 225.61 707.452 224.95C707.452 224.29 707.236 223.738 706.804 223.294C706.372 222.838 705.838 222.61 705.202 222.61C704.566 222.61 704.02 222.838 703.564 223.294C703.132 223.738 702.916 224.29 702.916 224.95C702.916 225.61 703.132 226.168 703.564 226.624C704.008 227.068 704.554 227.29 705.202 227.29ZM712.763 220.9V221.89C713.363 221.074 714.173 220.666 715.193 220.666C715.325 220.666 715.409 220.672 715.445 220.684V222.826C715.169 222.718 714.899 222.664 714.635 222.664C714.107 222.664 713.663 222.844 713.303 223.204C712.943 223.564 712.763 224.008 712.763 224.536V229H710.819V220.9H712.763ZM715.925 224.95C715.925 223.738 716.303 222.724 717.059 221.908C717.815 221.08 718.757 220.666 719.885 220.666C720.821 220.666 721.637 220.96 722.333 221.548V220.9H724.259V229H722.333V228.352C721.637 228.94 720.821 229.234 719.885 229.234C718.757 229.234 717.815 228.826 717.059 228.01C716.303 227.194 715.925 226.174 715.925 224.95ZM722.297 224.95C722.297 224.302 722.087 223.75 721.667 223.294C721.247 222.838 720.731 222.61 720.119 222.61C719.507 222.61 718.991 222.838 718.571 223.294C718.151 223.75 717.941 224.302 717.941 224.95C717.941 225.61 718.151 226.168 718.571 226.624C718.979 227.068 719.495 227.29 720.119 227.29C720.743 227.29 721.259 227.068 721.667 226.624C722.087 226.168 722.297 225.61 722.297 224.95ZM725.23 222.592V220.9H726.382V219.316H728.326V220.9H730.414V222.592H728.326V226.156C728.326 226.444 728.422 226.684 728.614 226.876C728.806 227.056 729.04 227.146 729.316 227.146H730.414V229H729.154C728.386 229 727.726 228.754 727.174 228.262C726.646 227.77 726.382 227.164 726.382 226.444V222.592H725.23ZM733.569 229H731.625V220.9H733.569V229ZM731.373 218.326C731.373 217.966 731.487 217.672 731.715 217.444C731.955 217.204 732.249 217.084 732.597 217.084C732.945 217.084 733.239 217.204 733.479 217.444C733.719 217.672 733.839 217.966 733.839 218.326C733.839 218.674 733.719 218.968 733.479 219.208C733.239 219.436 732.945 219.55 732.597 219.55C732.249 219.55 731.955 219.436 731.715 219.208C731.487 218.968 731.373 218.674 731.373 218.326ZM739.205 220.666C740.429 220.666 741.449 221.074 742.265 221.89C743.081 222.706 743.489 223.726 743.489 224.95C743.489 226.174 743.081 227.194 742.265 228.01C741.449 228.826 740.429 229.234 739.205 229.234C737.969 229.234 736.943 228.826 736.127 228.01C735.311 227.194 734.903 226.174 734.903 224.95C734.903 223.726 735.311 222.706 736.127 221.89C736.943 221.074 737.969 220.666 739.205 220.666ZM739.205 227.29C739.841 227.29 740.375 227.068 740.807 226.624C741.239 226.168 741.455 225.61 741.455 224.95C741.455 224.29 741.239 223.738 740.807 223.294C740.375 222.838 739.841 222.61 739.205 222.61C738.569 222.61 738.023 222.838 737.567 223.294C737.135 223.738 736.919 224.29 736.919 224.95C736.919 225.61 737.135 226.168 737.567 226.624C738.011 227.068 738.557 227.29 739.205 227.29ZM744.822 229V220.9H746.766V221.89C747.366 221.074 748.176 220.666 749.196 220.666C750.12 220.666 750.882 220.966 751.482 221.566C752.094 222.154 752.4 222.904 752.4 223.816V229H750.456V224.374C750.456 223.846 750.282 223.408 749.934 223.06C749.586 222.7 749.148 222.52 748.62 222.52C748.104 222.52 747.666 222.7 747.306 223.06C746.946 223.42 746.766 223.858 746.766 224.374V229H744.822Z" fill="#1E1E1E"/>
<rect x="518" y="499" width="236" height="40" rx="20" fill="#D9D9D9"/>
<path d="M563.45 514.334L561.326 514.964C561.218 514.592 560.966 514.286 560.57 514.046C560.174 513.794 559.718 513.668 559.202 513.668C558.638 513.668 558.158 513.806 557.762 514.082C557.378 514.346 557.186 514.682 557.186 515.09C557.126 515.486 557.414 515.852 558.05 516.188C558.194 516.26 558.41 516.35 558.698 516.458C559.082 516.59 559.634 516.752 560.354 516.944C561.11 517.16 561.722 517.388 562.19 517.628C563.246 518.168 563.816 519.104 563.9 520.436C563.9 521.588 563.48 522.512 562.64 523.208C561.812 523.892 560.738 524.234 559.418 524.234C558.218 524.234 557.198 523.958 556.358 523.406C555.518 522.854 554.972 522.152 554.72 521.3L556.844 520.67C556.94 521.102 557.222 521.462 557.69 521.75C558.17 522.038 558.746 522.182 559.418 522.182C560.078 522.182 560.63 522.038 561.074 521.75C561.53 521.45 561.758 521.072 561.758 520.616C561.758 520.16 561.512 519.794 561.02 519.518C560.672 519.326 560.222 519.152 559.67 518.996C558.23 518.588 557.234 518.234 556.682 517.934C555.59 517.31 555.044 516.41 555.044 515.234C555.044 514.154 555.428 513.284 556.196 512.624C556.976 511.952 557.966 511.616 559.166 511.616C560.246 511.616 561.17 511.874 561.938 512.39C562.718 512.906 563.222 513.554 563.45 514.334ZM569.211 515.666C570.435 515.666 571.455 516.074 572.271 516.89C573.087 517.706 573.495 518.726 573.495 519.95C573.495 521.174 573.087 522.194 572.271 523.01C571.455 523.826 570.435 524.234 569.211 524.234C567.975 524.234 566.949 523.826 566.133 523.01C565.317 522.194 564.909 521.174 564.909 519.95C564.909 518.726 565.317 517.706 566.133 516.89C566.949 516.074 567.975 515.666 569.211 515.666ZM569.211 522.29C569.847 522.29 570.381 522.068 570.813 521.624C571.245 521.168 571.461 520.61 571.461 519.95C571.461 519.29 571.245 518.738 570.813 518.294C570.381 517.838 569.847 517.61 569.211 517.61C568.575 517.61 568.029 517.838 567.573 518.294C567.141 518.738 566.925 519.29 566.925 519.95C566.925 520.61 567.141 521.168 567.573 521.624C568.017 522.068 568.563 522.29 569.211 522.29ZM576.773 524H574.829V510.95H576.773V524ZM578.412 521.084V515.9H580.356V520.526C580.356 521.054 580.53 521.498 580.878 521.858C581.238 522.206 581.676 522.38 582.192 522.38C582.72 522.38 583.158 522.206 583.506 521.858C583.866 521.498 584.046 521.054 584.046 520.526V515.9H585.99V524H584.046V523.01C583.446 523.826 582.636 524.234 581.616 524.234C580.716 524.234 579.954 523.934 579.33 523.334C578.718 522.722 578.412 521.972 578.412 521.084ZM586.937 517.592V515.9H588.089V514.316H590.033V515.9H592.121V517.592H590.033V521.156C590.033 521.444 590.129 521.684 590.321 521.876C590.513 522.056 590.747 522.146 591.023 522.146H592.121V524H590.861C590.093 524 589.433 523.754 588.881 523.262C588.353 522.77 588.089 522.164 588.089 521.444V517.592H586.937ZM595.276 524H593.332V515.9H595.276V524ZM593.08 513.326C593.08 512.966 593.194 512.672 593.422 512.444C593.662 512.204 593.956 512.084 594.304 512.084C594.652 512.084 594.946 512.204 595.186 512.444C595.426 512.672 595.546 512.966 595.546 513.326C595.546 513.674 595.426 513.968 595.186 514.208C594.946 514.436 594.652 514.55 594.304 514.55C593.956 514.55 593.662 514.436 593.422 514.208C593.194 513.968 593.08 513.674 593.08 513.326ZM600.912 515.666C602.136 515.666 603.156 516.074 603.972 516.89C604.788 517.706 605.196 518.726 605.196 519.95C605.196 521.174 604.788 522.194 603.972 523.01C603.156 523.826 602.136 524.234 600.912 524.234C599.676 524.234 598.65 523.826 597.834 523.01C597.018 522.194 596.61 521.174 596.61 519.95C596.61 518.726 597.018 517.706 597.834 516.89C598.65 516.074 599.676 515.666 600.912 515.666ZM600.912 522.29C601.548 522.29 602.082 522.068 602.514 521.624C602.946 521.168 603.162 520.61 603.162 519.95C603.162 519.29 602.946 518.738 602.514 518.294C602.082 517.838 601.548 517.61 600.912 517.61C600.276 517.61 599.73 517.838 599.274 518.294C598.842 518.738 598.626 519.29 598.626 519.95C598.626 520.61 598.842 521.168 599.274 521.624C599.718 522.068 600.264 522.29 600.912 522.29ZM606.529 524V515.9H608.473V516.89C609.073 516.074 609.883 515.666 610.903 515.666C611.827 515.666 612.589 515.966 613.189 516.566C613.801 517.154 614.107 517.904 614.107 518.816V524H612.163V519.374C612.163 518.846 611.989 518.408 611.641 518.06C611.293 517.7 610.855 517.52 610.327 517.52C609.811 517.52 609.373 517.7 609.013 518.06C608.653 518.42 608.473 518.858 608.473 519.374V524H606.529ZM619.807 519.95C619.807 518.738 620.185 517.724 620.941 516.908C621.697 516.08 622.639 515.666 623.767 515.666C624.703 515.666 625.519 515.96 626.215 516.548V510.95H628.141V524H626.215V523.352C625.519 523.94 624.703 524.234 623.767 524.234C622.639 524.234 621.697 523.826 620.941 523.01C620.185 522.194 619.807 521.174 619.807 519.95ZM626.179 519.95C626.179 519.302 625.969 518.75 625.549 518.294C625.129 517.838 624.613 517.61 624.001 517.61C623.389 517.61 622.873 517.838 622.453 518.294C622.033 518.75 621.823 519.302 621.823 519.95C621.823 520.61 622.033 521.168 622.453 521.624C622.861 522.068 623.377 522.29 624.001 522.29C624.625 522.29 625.141 522.068 625.549 521.624C625.969 521.168 626.179 520.61 626.179 519.95ZM637.914 520.67H631.488C631.632 521.198 631.92 521.63 632.352 521.966C632.784 522.29 633.288 522.452 633.864 522.452C634.644 522.452 635.274 522.164 635.754 521.588L637.644 522.146C637.272 522.794 636.75 523.304 636.078 523.676C635.418 524.048 634.68 524.234 633.864 524.234C632.628 524.234 631.584 523.826 630.732 523.01C629.892 522.206 629.472 521.186 629.472 519.95C629.472 518.738 629.88 517.724 630.696 516.908C631.5 516.08 632.514 515.666 633.738 515.666C634.938 515.666 635.94 516.08 636.744 516.908C637.56 517.724 637.968 518.738 637.968 519.95C637.968 520.202 637.95 520.442 637.914 520.67ZM631.506 519.158H635.97C635.814 518.654 635.532 518.246 635.124 517.934C634.716 517.61 634.242 517.448 633.702 517.448C633.186 517.448 632.724 517.61 632.316 517.934C631.92 518.246 631.65 518.654 631.506 519.158ZM641.44 524L638.092 515.9H640.108L642.358 521.534L644.608 515.9H646.606L643.276 524H641.44ZM655.313 520.67H648.887C649.031 521.198 649.319 521.63 649.751 521.966C650.183 522.29 650.687 522.452 651.263 522.452C652.043 522.452 652.673 522.164 653.153 521.588L655.043 522.146C654.671 522.794 654.149 523.304 653.477 523.676C652.817 524.048 652.079 524.234 651.263 524.234C650.027 524.234 648.983 523.826 648.131 523.01C647.291 522.206 646.871 521.186 646.871 519.95C646.871 518.738 647.279 517.724 648.095 516.908C648.899 516.08 649.913 515.666 651.137 515.666C652.337 515.666 653.339 516.08 654.143 516.908C654.959 517.724 655.367 518.738 655.367 519.95C655.367 520.202 655.349 520.442 655.313 520.67ZM648.905 519.158H653.369C653.213 518.654 652.931 518.246 652.523 517.934C652.115 517.61 651.641 517.448 651.101 517.448C650.585 517.448 650.123 517.61 649.715 517.934C649.319 518.246 649.049 518.654 648.905 519.158ZM658.523 524H656.579V510.95H658.523V524ZM664.159 515.666C665.383 515.666 666.403 516.074 667.219 516.89C668.035 517.706 668.443 518.726 668.443 519.95C668.443 521.174 668.035 522.194 667.219 523.01C666.403 523.826 665.383 524.234 664.159 524.234C662.923 524.234 661.897 523.826 661.081 523.01C660.265 522.194 659.857 521.174 659.857 519.95C659.857 518.726 660.265 517.706 661.081 516.89C661.897 516.074 662.923 515.666 664.159 515.666ZM664.159 522.29C664.795 522.29 665.329 522.068 665.761 521.624C666.193 521.168 666.409 520.61 666.409 519.95C666.409 519.29 666.193 518.738 665.761 518.294C665.329 517.838 664.795 517.61 664.159 517.61C663.523 517.61 662.977 517.838 662.521 518.294C662.089 518.738 661.873 519.29 661.873 519.95C661.873 520.61 662.089 521.168 662.521 521.624C662.965 522.068 663.511 522.29 664.159 522.29ZM671.72 528.05H669.776V515.9H671.72V516.548C672.416 515.96 673.232 515.666 674.168 515.666C675.296 515.666 676.232 516.074 676.976 516.89C677.732 517.694 678.11 518.714 678.11 519.95C678.11 521.162 677.732 522.182 676.976 523.01C676.232 523.826 675.296 524.234 674.168 524.234C673.232 524.234 672.416 523.94 671.72 523.352V528.05ZM673.916 517.61C673.316 517.61 672.806 517.838 672.386 518.294C671.966 518.75 671.756 519.302 671.756 519.95C671.756 520.61 671.966 521.168 672.386 521.624C672.794 522.068 673.304 522.29 673.916 522.29C674.54 522.29 675.056 522.068 675.464 521.624C675.884 521.168 676.094 520.61 676.094 519.95C676.094 519.302 675.884 518.75 675.464 518.294C675.044 517.838 674.528 517.61 673.916 517.61ZM681.386 524H679.442V515.9H681.386V516.764C681.926 516.032 682.688 515.666 683.672 515.666C684.776 515.666 685.628 516.11 686.228 516.998C686.792 516.11 687.65 515.666 688.802 515.666C689.726 515.666 690.494 515.954 691.106 516.53C691.718 517.106 692.024 517.82 692.024 518.672V524H690.098V519.23C690.098 518.738 689.936 518.33 689.612 518.006C689.288 517.682 688.886 517.52 688.406 517.52C687.926 517.52 687.524 517.688 687.2 518.024C686.876 518.348 686.714 518.75 686.714 519.23V524H684.77V519.23C684.77 518.738 684.608 518.33 684.284 518.006C683.96 517.682 683.558 517.52 683.078 517.52C682.598 517.52 682.196 517.688 681.872 518.024C681.548 518.348 681.386 518.75 681.386 519.23V524ZM701.796 520.67H695.37C695.514 521.198 695.802 521.63 696.234 521.966C696.666 522.29 697.17 522.452 697.746 522.452C698.526 522.452 699.156 522.164 699.636 521.588L701.526 522.146C701.154 522.794 700.632 523.304 699.96 523.676C699.3 524.048 698.562 524.234 697.746 524.234C696.51 524.234 695.466 523.826 694.614 523.01C693.774 522.206 693.354 521.186 693.354 519.95C693.354 518.738 693.762 517.724 694.578 516.908C695.382 516.08 696.396 515.666 697.62 515.666C698.82 515.666 699.822 516.08 700.626 516.908C701.442 517.724 701.85 518.738 701.85 519.95C701.85 520.202 701.832 520.442 701.796 520.67ZM695.388 519.158H699.852C699.696 518.654 699.414 518.246 699.006 517.934C698.598 517.61 698.124 517.448 697.584 517.448C697.068 517.448 696.606 517.61 696.198 517.934C695.802 518.246 695.532 518.654 695.388 519.158ZM703.062 524V515.9H705.006V516.89C705.606 516.074 706.416 515.666 707.436 515.666C708.36 515.666 709.122 515.966 709.722 516.566C710.334 517.154 710.64 517.904 710.64 518.816V524H708.696V519.374C708.696 518.846 708.522 518.408 708.174 518.06C707.826 517.7 707.388 517.52 706.86 517.52C706.344 517.52 705.906 517.7 705.546 518.06C705.186 518.42 705.006 518.858 705.006 519.374V524H703.062ZM711.587 517.592V515.9H712.739V514.316H714.683V515.9H716.771V517.592H714.683V521.156C714.683 521.444 714.779 521.684 714.971 521.876C715.163 522.056 715.397 522.146 715.673 522.146H716.771V524H715.511C714.743 524 714.083 523.754 713.531 523.262C713.003 522.77 712.739 522.164 712.739 521.444V517.592H711.587Z" fill="#1E1E1E"/>
<rect y="499" width="262" height="40" rx="20" fill="#D9D9D9"/>
<path d="M43.29 524H37.098V511.85H42.93C43.986 511.85 44.868 512.168 45.576 512.804C46.284 513.44 46.638 514.214 46.638 515.126C46.638 516.146 46.224 516.974 45.396 517.61C45.948 517.922 46.38 518.336 46.692 518.852C47.004 519.368 47.16 519.932 47.16 520.544C47.16 521.516 46.788 522.338 46.044 523.01C45.312 523.67 44.394 524 43.29 524ZM43.29 518.726H39.24V522.02H43.29C43.746 522.02 44.13 521.864 44.442 521.552C44.766 521.228 44.928 520.832 44.928 520.364C44.928 519.908 44.766 519.524 44.442 519.212C44.13 518.888 43.746 518.726 43.29 518.726ZM42.93 513.83H39.24V516.764H42.93C43.35 516.764 43.698 516.626 43.974 516.35C44.262 516.074 44.406 515.726 44.406 515.306C44.406 514.886 44.262 514.538 43.974 514.262C43.698 513.974 43.35 513.83 42.93 513.83ZM48.481 521.084V515.9H50.425V520.526C50.425 521.054 50.599 521.498 50.947 521.858C51.307 522.206 51.745 522.38 52.261 522.38C52.789 522.38 53.227 522.206 53.575 521.858C53.935 521.498 54.115 521.054 54.115 520.526V515.9H56.059V524H54.115V523.01C53.515 523.826 52.705 524.234 51.685 524.234C50.785 524.234 50.023 523.934 49.399 523.334C48.787 522.722 48.481 521.972 48.481 521.084ZM63.7019 517.844L61.8839 518.15C61.7399 517.61 61.2659 517.34 60.4619 517.34C60.1259 517.34 59.8499 517.406 59.6339 517.538C59.4299 517.658 59.3279 517.826 59.3279 518.042C59.3279 518.33 59.5679 518.552 60.0479 518.708L61.7039 519.266C62.4479 519.53 62.9879 519.854 63.3239 520.238C63.6599 520.622 63.8279 521.108 63.8279 521.696C63.8279 522.5 63.5339 523.124 62.9459 523.568C62.3579 524.012 61.5839 524.234 60.6239 524.234C59.6639 524.234 58.8899 524.024 58.3019 523.604C57.7139 523.184 57.3659 522.602 57.2579 521.858L59.0759 521.588C59.2439 522.224 59.7779 522.542 60.6779 522.542C61.0619 522.542 61.3739 522.476 61.6139 522.344C61.8539 522.2 61.9739 522.008 61.9739 521.768C61.9739 521.444 61.6739 521.18 61.0739 520.976L59.4179 520.454C58.7339 520.226 58.2359 519.938 57.9239 519.59C57.6239 519.23 57.4739 518.762 57.4739 518.186C57.4739 517.37 57.7559 516.746 58.3199 516.314C58.8839 515.882 59.6459 515.666 60.6059 515.666C61.4699 515.666 62.1779 515.864 62.7299 516.26C63.2819 516.644 63.6059 517.172 63.7019 517.844ZM67.0146 524H65.0706V515.9H67.0146V524ZM64.8186 513.326C64.8186 512.966 64.9326 512.672 65.1606 512.444C65.4006 512.204 65.6946 512.084 66.0426 512.084C66.3906 512.084 66.6846 512.204 66.9246 512.444C67.1646 512.672 67.2846 512.966 67.2846 513.326C67.2846 513.674 67.1646 513.968 66.9246 514.208C66.6846 514.436 66.3906 514.55 66.0426 514.55C65.6946 514.55 65.4006 514.436 65.1606 514.208C64.9326 513.968 64.8186 513.674 64.8186 513.326ZM68.6544 524V515.9H70.5984V516.89C71.1984 516.074 72.0084 515.666 73.0284 515.666C73.9524 515.666 74.7144 515.966 75.3144 516.566C75.9264 517.154 76.2324 517.904 76.2324 518.816V524H74.2884V519.374C74.2884 518.846 74.1144 518.408 73.7664 518.06C73.4184 517.7 72.9804 517.52 72.4524 517.52C71.9364 517.52 71.4984 517.7 71.1384 518.06C70.7784 518.42 70.5984 518.858 70.5984 519.374V524H68.6544ZM85.9992 520.67H79.5732C79.7172 521.198 80.0052 521.63 80.4372 521.966C80.8692 522.29 81.3732 522.452 81.9492 522.452C82.7292 522.452 83.3592 522.164 83.8392 521.588L85.7292 522.146C85.3572 522.794 84.8352 523.304 84.1632 523.676C83.5032 524.048 82.7652 524.234 81.9492 524.234C80.7132 524.234 79.6692 523.826 78.8172 523.01C77.9772 522.206 77.5572 521.186 77.5572 519.95C77.5572 518.738 77.9652 517.724 78.7812 516.908C79.5852 516.08 80.5992 515.666 81.8232 515.666C83.0232 515.666 84.0252 516.08 84.8292 516.908C85.6452 517.724 86.0532 518.738 86.0532 519.95C86.0532 520.202 86.0352 520.442 85.9992 520.67ZM79.5912 519.158H84.0552C83.8992 518.654 83.6172 518.246 83.2092 517.934C82.8012 517.61 82.3272 517.448 81.7872 517.448C81.2712 517.448 80.8092 517.61 80.4012 517.934C80.0052 518.246 79.7352 518.654 79.5912 519.158ZM93.2774 517.844L91.4594 518.15C91.3154 517.61 90.8414 517.34 90.0374 517.34C89.7014 517.34 89.4254 517.406 89.2094 517.538C89.0054 517.658 88.9034 517.826 88.9034 518.042C88.9034 518.33 89.1434 518.552 89.6234 518.708L91.2794 519.266C92.0234 519.53 92.5634 519.854 92.8994 520.238C93.2354 520.622 93.4034 521.108 93.4034 521.696C93.4034 522.5 93.1094 523.124 92.5214 523.568C91.9334 524.012 91.1594 524.234 90.1994 524.234C89.2394 524.234 88.4654 524.024 87.8774 523.604C87.2894 523.184 86.9414 522.602 86.8334 521.858L88.6514 521.588C88.8194 522.224 89.3534 522.542 90.2534 522.542C90.6374 522.542 90.9494 522.476 91.1894 522.344C91.4294 522.2 91.5494 522.008 91.5494 521.768C91.5494 521.444 91.2494 521.18 90.6494 520.976L88.9934 520.454C88.3094 520.226 87.8114 519.938 87.4994 519.59C87.1994 519.23 87.0494 518.762 87.0494 518.186C87.0494 517.37 87.3314 516.746 87.8954 516.314C88.4594 515.882 89.2214 515.666 90.1814 515.666C91.0454 515.666 91.7534 515.864 92.3054 516.26C92.8574 516.644 93.1814 517.172 93.2774 517.844ZM100.658 517.844L98.8401 518.15C98.6961 517.61 98.2221 517.34 97.4181 517.34C97.0821 517.34 96.8061 517.406 96.5901 517.538C96.3861 517.658 96.2841 517.826 96.2841 518.042C96.2841 518.33 96.5241 518.552 97.0041 518.708L98.6601 519.266C99.4041 519.53 99.9441 519.854 100.28 520.238C100.616 520.622 100.784 521.108 100.784 521.696C100.784 522.5 100.49 523.124 99.9021 523.568C99.3141 524.012 98.5401 524.234 97.5801 524.234C96.6201 524.234 95.8461 524.024 95.2581 523.604C94.6701 523.184 94.3221 522.602 94.2141 521.858L96.0321 521.588C96.2001 522.224 96.7341 522.542 97.6341 522.542C98.0181 522.542 98.3301 522.476 98.5701 522.344C98.8101 522.2 98.9301 522.008 98.9301 521.768C98.9301 521.444 98.6301 521.18 98.0301 520.976L96.3741 520.454C95.6901 520.226 95.1921 519.938 94.8801 519.59C94.5801 519.23 94.4301 518.762 94.4301 518.186C94.4301 517.37 94.7121 516.746 95.2761 516.314C95.8401 515.882 96.6021 515.666 97.5621 515.666C98.4261 515.666 99.1341 515.864 99.6861 516.26C100.238 516.644 100.562 517.172 100.658 517.844ZM108.346 524H106.402V515.9H108.346V516.764C108.886 516.032 109.648 515.666 110.632 515.666C111.736 515.666 112.588 516.11 113.188 516.998C113.752 516.11 114.61 515.666 115.762 515.666C116.686 515.666 117.454 515.954 118.066 516.53C118.678 517.106 118.984 517.82 118.984 518.672V524H117.058V519.23C117.058 518.738 116.896 518.33 116.572 518.006C116.248 517.682 115.846 517.52 115.366 517.52C114.886 517.52 114.484 517.688 114.16 518.024C113.836 518.348 113.674 518.75 113.674 519.23V524H111.73V519.23C111.73 518.738 111.568 518.33 111.244 518.006C110.92 517.682 110.518 517.52 110.038 517.52C109.558 517.52 109.156 517.688 108.832 518.024C108.508 518.348 108.346 518.75 108.346 519.23V524ZM124.616 515.666C125.84 515.666 126.86 516.074 127.676 516.89C128.492 517.706 128.9 518.726 128.9 519.95C128.9 521.174 128.492 522.194 127.676 523.01C126.86 523.826 125.84 524.234 124.616 524.234C123.38 524.234 122.354 523.826 121.538 523.01C120.722 522.194 120.314 521.174 120.314 519.95C120.314 518.726 120.722 517.706 121.538 516.89C122.354 516.074 123.38 515.666 124.616 515.666ZM124.616 522.29C125.252 522.29 125.786 522.068 126.218 521.624C126.65 521.168 126.866 520.61 126.866 519.95C126.866 519.29 126.65 518.738 126.218 518.294C125.786 517.838 125.252 517.61 124.616 517.61C123.98 517.61 123.434 517.838 122.978 518.294C122.546 518.738 122.33 519.29 122.33 519.95C122.33 520.61 122.546 521.168 122.978 521.624C123.422 522.068 123.968 522.29 124.616 522.29ZM129.927 519.95C129.927 518.738 130.305 517.724 131.061 516.908C131.817 516.08 132.759 515.666 133.887 515.666C134.823 515.666 135.639 515.96 136.335 516.548V510.95H138.261V524H136.335V523.352C135.639 523.94 134.823 524.234 133.887 524.234C132.759 524.234 131.817 523.826 131.061 523.01C130.305 522.194 129.927 521.174 129.927 519.95ZM136.299 519.95C136.299 519.302 136.089 518.75 135.669 518.294C135.249 517.838 134.733 517.61 134.121 517.61C133.509 517.61 132.993 517.838 132.573 518.294C132.153 518.75 131.943 519.302 131.943 519.95C131.943 520.61 132.153 521.168 132.573 521.624C132.981 522.068 133.497 522.29 134.121 522.29C134.745 522.29 135.261 522.068 135.669 521.624C136.089 521.168 136.299 520.61 136.299 519.95ZM148.035 520.67H141.609C141.753 521.198 142.041 521.63 142.473 521.966C142.905 522.29 143.409 522.452 143.985 522.452C144.765 522.452 145.395 522.164 145.875 521.588L147.765 522.146C147.393 522.794 146.871 523.304 146.199 523.676C145.539 524.048 144.801 524.234 143.985 524.234C142.749 524.234 141.705 523.826 140.853 523.01C140.013 522.206 139.593 521.186 139.593 519.95C139.593 518.738 140.001 517.724 140.817 516.908C141.621 516.08 142.635 515.666 143.859 515.666C145.059 515.666 146.061 516.08 146.865 516.908C147.681 517.724 148.089 518.738 148.089 519.95C148.089 520.202 148.071 520.442 148.035 520.67ZM141.627 519.158H146.091C145.935 518.654 145.653 518.246 145.245 517.934C144.837 517.61 144.363 517.448 143.823 517.448C143.307 517.448 142.845 517.61 142.437 517.934C142.041 518.246 141.771 518.654 141.627 519.158ZM151.245 524H149.301V510.95H151.245V524ZM156.954 519.95C156.954 518.738 157.332 517.724 158.088 516.908C158.844 516.08 159.786 515.666 160.914 515.666C161.85 515.666 162.666 515.96 163.362 516.548V510.95H165.288V524H163.362V523.352C162.666 523.94 161.85 524.234 160.914 524.234C159.786 524.234 158.844 523.826 158.088 523.01C157.332 522.194 156.954 521.174 156.954 519.95ZM163.326 519.95C163.326 519.302 163.116 518.75 162.696 518.294C162.276 517.838 161.76 517.61 161.148 517.61C160.536 517.61 160.02 517.838 159.6 518.294C159.18 518.75 158.97 519.302 158.97 519.95C158.97 520.61 159.18 521.168 159.6 521.624C160.008 522.068 160.524 522.29 161.148 522.29C161.772 522.29 162.288 522.068 162.696 521.624C163.116 521.168 163.326 520.61 163.326 519.95ZM175.062 520.67H168.636C168.78 521.198 169.068 521.63 169.5 521.966C169.932 522.29 170.436 522.452 171.012 522.452C171.792 522.452 172.422 522.164 172.902 521.588L174.792 522.146C174.42 522.794 173.898 523.304 173.226 523.676C172.566 524.048 171.828 524.234 171.012 524.234C169.776 524.234 168.732 523.826 167.88 523.01C167.04 522.206 166.62 521.186 166.62 519.95C166.62 518.738 167.028 517.724 167.844 516.908C168.648 516.08 169.662 515.666 170.886 515.666C172.086 515.666 173.088 516.08 173.892 516.908C174.708 517.724 175.116 518.738 175.116 519.95C175.116 520.202 175.098 520.442 175.062 520.67ZM168.654 519.158H173.118C172.962 518.654 172.68 518.246 172.272 517.934C171.864 517.61 171.39 517.448 170.85 517.448C170.334 517.448 169.872 517.61 169.464 517.934C169.068 518.246 168.798 518.654 168.654 519.158ZM178.812 513.794V515.9H180.756V517.592H178.812V524H176.886V517.592H175.644V515.9H176.886V513.524C176.886 512.792 177.15 512.18 177.678 511.688C178.206 511.196 178.866 510.95 179.658 510.95H180.756V512.822H179.82C179.532 512.822 179.292 512.918 179.1 513.11C178.908 513.29 178.812 513.518 178.812 513.794ZM183.744 524H181.8V515.9H183.744V524ZM181.53 513.326C181.53 512.966 181.65 512.672 181.89 512.444C182.13 512.204 182.424 512.084 182.772 512.084C183.12 512.084 183.408 512.204 183.636 512.444C183.876 512.672 183.996 512.966 183.996 513.326C183.996 513.674 183.876 513.968 183.636 514.208C183.408 514.436 183.12 514.55 182.772 514.55C182.424 514.55 182.13 514.436 181.89 514.208C181.65 513.968 181.53 513.674 181.53 513.326ZM185.379 524V515.9H187.323V516.89C187.923 516.074 188.733 515.666 189.753 515.666C190.677 515.666 191.439 515.966 192.039 516.566C192.651 517.154 192.957 517.904 192.957 518.816V524H191.013V519.374C191.013 518.846 190.839 518.408 190.491 518.06C190.143 517.7 189.705 517.52 189.177 517.52C188.661 517.52 188.223 517.7 187.863 518.06C187.503 518.42 187.323 518.858 187.323 519.374V524H185.379ZM196.532 524H194.588V515.9H196.532V524ZM194.336 513.326C194.336 512.966 194.45 512.672 194.678 512.444C194.918 512.204 195.212 512.084 195.56 512.084C195.908 512.084 196.202 512.204 196.442 512.444C196.682 512.672 196.802 512.966 196.802 513.326C196.802 513.674 196.682 513.968 196.442 514.208C196.202 514.436 195.908 514.55 195.56 514.55C195.212 514.55 194.918 514.436 194.678 514.208C194.45 513.968 194.336 513.674 194.336 513.326ZM197.487 517.592V515.9H198.639V514.316H200.583V515.9H202.671V517.592H200.583V521.156C200.583 521.444 200.679 521.684 200.871 521.876C201.063 522.056 201.297 522.146 201.573 522.146H202.671V524H201.411C200.643 524 199.983 523.754 199.431 523.262C198.903 522.77 198.639 522.164 198.639 521.444V517.592H197.487ZM205.826 524H203.882V515.9H205.826V524ZM203.63 513.326C203.63 512.966 203.744 512.672 203.972 512.444C204.212 512.204 204.506 512.084 204.854 512.084C205.202 512.084 205.496 512.204 205.736 512.444C205.976 512.672 206.096 512.966 206.096 513.326C206.096 513.674 205.976 513.968 205.736 514.208C205.496 514.436 205.202 514.55 204.854 514.55C204.506 514.55 204.212 514.436 203.972 514.208C203.744 513.968 203.63 513.674 203.63 513.326ZM211.462 515.666C212.686 515.666 213.706 516.074 214.522 516.89C215.338 517.706 215.746 518.726 215.746 519.95C215.746 521.174 215.338 522.194 214.522 523.01C213.706 523.826 212.686 524.234 211.462 524.234C210.226 524.234 209.2 523.826 208.384 523.01C207.568 522.194 207.16 521.174 207.16 519.95C207.16 518.726 207.568 517.706 208.384 516.89C209.2 516.074 210.226 515.666 211.462 515.666ZM211.462 522.29C212.098 522.29 212.632 522.068 213.064 521.624C213.496 521.168 213.712 520.61 213.712 519.95C213.712 519.29 213.496 518.738 213.064 518.294C212.632 517.838 212.098 517.61 211.462 517.61C210.826 517.61 210.28 517.838 209.824 518.294C209.392 518.738 209.176 519.29 209.176 519.95C209.176 520.61 209.392 521.168 209.824 521.624C210.268 522.068 210.814 522.29 211.462 522.29ZM217.079 524V515.9H219.023V516.89C219.623 516.074 220.433 515.666 221.453 515.666C222.377 515.666 223.139 515.966 223.739 516.566C224.351 517.154 224.657 517.904 224.657 518.816V524H222.713V519.374C222.713 518.846 222.539 518.408 222.191 518.06C221.843 517.7 221.405 517.52 220.877 517.52C220.361 517.52 219.923 517.7 219.563 518.06C219.203 518.42 219.023 518.858 219.023 519.374V524H217.079Z" fill="#1E1E1E"/>
<rect x="5" y="204" width="165" height="40" rx="20" fill="#D9D9D9"/>
<path d="M44.24 224.626V229H42.098V216.85H47.498C48.686 216.85 49.67 217.222 50.45 217.966C51.242 218.698 51.638 219.622 51.638 220.738C51.638 221.854 51.242 222.778 50.45 223.51C49.67 224.254 48.686 224.626 47.498 224.626H44.24ZM47.498 218.83H44.24V222.646H47.498C48.05 222.646 48.506 222.466 48.866 222.106C49.226 221.746 49.406 221.29 49.406 220.738C49.406 220.198 49.226 219.748 48.866 219.388C48.506 219.016 48.05 218.83 47.498 218.83ZM55.0559 229H53.1119V220.9H55.0559V229ZM52.8599 218.326C52.8599 217.966 52.9739 217.672 53.2019 217.444C53.4419 217.204 53.7359 217.084 54.0839 217.084C54.4319 217.084 54.7259 217.204 54.9659 217.444C55.2059 217.672 55.3259 217.966 55.3259 218.326C55.3259 218.674 55.2059 218.968 54.9659 219.208C54.7259 219.436 54.4319 219.55 54.0839 219.55C53.7359 219.55 53.4419 219.436 53.2019 219.208C52.9739 218.968 52.8599 218.674 52.8599 218.326ZM56.0117 222.592V220.9H57.1637V219.316H59.1077V220.9H61.1957V222.592H59.1077V226.156C59.1077 226.444 59.2037 226.684 59.3957 226.876C59.5877 227.056 59.8217 227.146 60.0977 227.146H61.1957V229H59.9357C59.1677 229 58.5077 228.754 57.9557 228.262C57.4277 227.77 57.1637 227.164 57.1637 226.444V222.592H56.0117ZM70.3985 223.33L68.4365 223.924C68.2685 223.528 67.9985 223.21 67.6265 222.97C67.2665 222.73 66.8525 222.61 66.3845 222.61C65.7605 222.61 65.2205 222.838 64.7645 223.294C64.3325 223.738 64.1165 224.29 64.1165 224.95C64.1165 225.61 64.3325 226.168 64.7645 226.624C65.2085 227.068 65.7485 227.29 66.3845 227.29C66.8525 227.29 67.2665 227.17 67.6265 226.93C67.9985 226.69 68.2685 226.372 68.4365 225.976L70.3985 226.552C70.0745 227.38 69.5525 228.034 68.8325 228.514C68.1245 228.994 67.3085 229.234 66.3845 229.234C65.1605 229.234 64.1405 228.826 63.3245 228.01C62.5085 227.194 62.1005 226.174 62.1005 224.95C62.1005 223.726 62.5085 222.706 63.3245 221.89C64.1405 221.074 65.1605 220.666 66.3845 220.666C67.2965 220.666 68.1125 220.906 68.8325 221.386C69.5525 221.866 70.0745 222.514 70.3985 223.33ZM71.545 229V215.95H73.489V221.89C74.101 221.074 74.935 220.666 75.991 220.666C76.927 220.666 77.707 220.966 78.331 221.566C78.955 222.154 79.267 222.91 79.267 223.834V229H77.323V224.374C77.323 223.846 77.143 223.408 76.783 223.06C76.423 222.7 75.967 222.52 75.415 222.52C74.863 222.52 74.401 222.7 74.029 223.06C73.669 223.408 73.489 223.846 73.489 224.374V229H71.545ZM84.9809 224.95C84.9809 223.738 85.3589 222.724 86.1149 221.908C86.8709 221.08 87.8129 220.666 88.9409 220.666C89.8769 220.666 90.6929 220.96 91.3889 221.548V215.95H93.3149V229H91.3889V228.352C90.6929 228.94 89.8769 229.234 88.9409 229.234C87.8129 229.234 86.8709 228.826 86.1149 228.01C85.3589 227.194 84.9809 226.174 84.9809 224.95ZM91.3529 224.95C91.3529 224.302 91.1429 223.75 90.7229 223.294C90.3029 222.838 89.7869 222.61 89.1749 222.61C88.5629 222.61 88.0469 222.838 87.6269 223.294C87.2069 223.75 86.9969 224.302 86.9969 224.95C86.9969 225.61 87.2069 226.168 87.6269 226.624C88.0349 227.068 88.5509 227.29 89.1749 227.29C89.7989 227.29 90.3149 227.068 90.7229 226.624C91.1429 226.168 91.3529 225.61 91.3529 224.95ZM103.089 225.67H96.6627C96.8067 226.198 97.0947 226.63 97.5267 226.966C97.9587 227.29 98.4627 227.452 99.0387 227.452C99.8187 227.452 100.449 227.164 100.929 226.588L102.819 227.146C102.447 227.794 101.925 228.304 101.253 228.676C100.593 229.048 99.8547 229.234 99.0387 229.234C97.8027 229.234 96.7587 228.826 95.9067 228.01C95.0667 227.206 94.6467 226.186 94.6467 224.95C94.6467 223.738 95.0547 222.724 95.8707 221.908C96.6747 221.08 97.6887 220.666 98.9127 220.666C100.113 220.666 101.115 221.08 101.919 221.908C102.735 222.724 103.143 223.738 103.143 224.95C103.143 225.202 103.125 225.442 103.089 225.67ZM96.6807 224.158H101.145C100.989 223.654 100.707 223.246 100.299 222.934C99.8907 222.61 99.4167 222.448 98.8767 222.448C98.3607 222.448 97.8987 222.61 97.4907 222.934C97.0947 223.246 96.8247 223.654 96.6807 224.158ZM110.367 222.844L108.549 223.15C108.405 222.61 107.931 222.34 107.127 222.34C106.791 222.34 106.515 222.406 106.299 222.538C106.095 222.658 105.993 222.826 105.993 223.042C105.993 223.33 106.233 223.552 106.713 223.708L108.369 224.266C109.113 224.53 109.653 224.854 109.989 225.238C110.325 225.622 110.493 226.108 110.493 226.696C110.493 227.5 110.199 228.124 109.611 228.568C109.023 229.012 108.249 229.234 107.289 229.234C106.329 229.234 105.555 229.024 104.967 228.604C104.379 228.184 104.031 227.602 103.923 226.858L105.741 226.588C105.909 227.224 106.443 227.542 107.343 227.542C107.727 227.542 108.039 227.476 108.279 227.344C108.519 227.2 108.639 227.008 108.639 226.768C108.639 226.444 108.339 226.18 107.739 225.976L106.083 225.454C105.399 225.226 104.901 224.938 104.589 224.59C104.289 224.23 104.139 223.762 104.139 223.186C104.139 222.37 104.421 221.746 104.985 221.314C105.549 220.882 106.311 220.666 107.271 220.666C108.135 220.666 108.843 220.864 109.395 221.26C109.947 221.644 110.271 222.172 110.367 222.844ZM113.68 229H111.736V220.9H113.68V229ZM111.484 218.326C111.484 217.966 111.598 217.672 111.826 217.444C112.066 217.204 112.36 217.084 112.708 217.084C113.056 217.084 113.35 217.204 113.59 217.444C113.83 217.672 113.95 217.966 113.95 218.326C113.95 218.674 113.83 218.968 113.59 219.208C113.35 219.436 113.056 219.55 112.708 219.55C112.36 219.55 112.066 219.436 111.826 219.208C111.598 218.968 111.484 218.674 111.484 218.326ZM115.013 224.95C115.013 223.738 115.391 222.724 116.147 221.908C116.903 221.08 117.845 220.666 118.973 220.666C119.909 220.666 120.725 220.96 121.421 221.548V220.9H123.347V229.234C123.347 230.374 122.957 231.334 122.177 232.114C121.397 232.894 120.431 233.284 119.279 233.284C118.391 233.284 117.569 233.05 116.813 232.582C116.057 232.102 115.547 231.508 115.283 230.8L117.245 230.26C117.377 230.572 117.629 230.83 118.001 231.034C118.373 231.25 118.775 231.358 119.207 231.358C119.843 231.358 120.365 231.154 120.773 230.746C121.205 230.35 121.421 229.852 121.421 229.252V228.352C120.725 228.94 119.909 229.234 118.973 229.234C117.845 229.234 116.903 228.826 116.147 228.01C115.391 227.194 115.013 226.174 115.013 224.95ZM121.385 224.95C121.385 224.302 121.175 223.75 120.755 223.294C120.335 222.838 119.819 222.61 119.207 222.61C118.595 222.61 118.079 222.838 117.659 223.294C117.239 223.75 117.029 224.302 117.029 224.95C117.029 225.61 117.239 226.168 117.659 226.624C118.067 227.068 118.583 227.29 119.207 227.29C119.831 227.29 120.347 227.068 120.755 226.624C121.175 226.168 121.385 225.61 121.385 224.95ZM124.985 229V220.9H126.929V221.89C127.529 221.074 128.339 220.666 129.359 220.666C130.283 220.666 131.045 220.966 131.645 221.566C132.257 222.154 132.563 222.904 132.563 223.816V229H130.619V224.374C130.619 223.846 130.445 223.408 130.097 223.06C129.749 222.7 129.311 222.52 128.783 222.52C128.267 222.52 127.829 222.7 127.469 223.06C127.109 223.42 126.929 223.858 126.929 224.374V229H124.985Z" fill="#1E1E1E"/>
<circle cx="586" cy="94" r="16" fill="#0A66C2"/>
<path d="M590 99.75C590.414 99.75 590.75 99.4142 590.75 99L590.75 92.25C590.75 91.8358 590.414 91.5 590 91.5C589.586 91.5 589.25 91.8358 589.25 92.25V98.25H583.25C582.836 98.25 582.5 98.5858 582.5 99C582.5 99.4142 582.836 99.75 583.25 99.75L590 99.75ZM579.47 89.5303L589.47 99.5303L590.53 98.4697L580.53 88.4697L579.47 89.5303Z" fill="white"/>
<circle cx="186" cy="94" r="16" fill="#0A66C2"/>
<path d="M190.75 89C190.75 88.5858 190.414 88.25 190 88.25L183.25 88.25C182.836 88.25 182.5 88.5858 182.5 89C182.5 89.4142 182.836 89.75 183.25 89.75H189.25V95.75C189.25 96.1642 189.586 96.5 190 96.5C190.414 96.5 190.75 96.1642 190.75 95.75L190.75 89ZM180.53 99.5303L190.53 89.5303L189.47 88.4697L179.47 98.4697L180.53 99.5303Z" fill="white"/>
<circle cx="16" cy="16" r="16" transform="matrix(-1 0 0 1 712 374)" fill="#0A66C2"/>
<path d="M695.433 397.551C695.095 397.79 694.627 397.71 694.388 397.372L690.49 391.862C690.25 391.523 690.331 391.055 690.669 390.816C691.007 390.577 691.475 390.657 691.714 390.995L695.179 395.894L700.078 392.428C700.416 392.189 700.884 392.269 701.123 392.608C701.362 392.946 701.282 393.414 700.944 393.653L695.433 397.551ZM698.128 383.127L695.739 397.066L694.261 396.812L696.649 382.873L698.128 383.127Z" fill="white"/>
<circle cx="16" cy="16" r="16" transform="matrix(-1 0 0 1 88 356)" fill="#0A66C2"/>
<path d="M70.4014 364.564C70.6412 364.226 71.1094 364.147 71.4471 364.386L76.9506 368.294C77.2884 368.534 77.3677 369.003 77.1279 369.34C76.8881 369.678 76.4199 369.757 76.0822 369.518L71.1901 366.044L67.7162 370.936C67.4764 371.273 67.0082 371.353 66.6705 371.113C66.3328 370.873 66.2534 370.405 66.4932 370.067L70.4014 364.564ZM72.637 379.066L70.2734 365.123L71.7523 364.873L74.1159 378.816L72.637 379.066Z" fill="white"/>
<circle cx="16" cy="16" r="16" transform="matrix(1.19249e-08 -1 -1 -1.19249e-08 411 668)" fill="#0A66C2"/>
<path d="M387.429 652.725C387.136 652.432 387.136 651.957 387.429 651.664L392.202 646.891C392.495 646.598 392.97 646.598 393.263 646.891C393.556 647.184 393.556 647.659 393.263 647.952L389.02 652.194L393.263 656.437C393.556 656.73 393.556 657.205 393.263 657.498C392.97 657.79 392.495 657.79 392.202 657.498L387.429 652.725ZM402.102 652.944L387.959 652.944L387.959 651.444L402.102 651.444L402.102 652.944Z" fill="white"/>
</svg>
