<svg width="230" height="124" viewBox="0 0 230 124" fill="none" xmlns="http://www.w3.org/2000/svg">
<path d="M24.92 44H2.904V0.799999H23.64C27.3947 0.799999 30.5307 1.93067 33.048 4.192C35.5653 6.45333 36.824 9.20533 36.824 12.448C36.824 16.0747 35.352 19.0187 32.408 21.28C34.3707 22.3893 35.9067 23.8613 37.016 25.696C38.1253 27.5307 38.68 29.536 38.68 31.712C38.68 35.168 37.3573 38.0907 34.712 40.48C32.1093 42.8267 28.8453 44 24.92 44ZM24.92 25.248H10.52V36.96H24.92C26.5413 36.96 27.9067 36.4053 29.016 35.296C30.168 34.144 30.744 32.736 30.744 31.072C30.744 29.4507 30.168 28.0853 29.016 26.976C27.9067 25.824 26.5413 25.248 24.92 25.248ZM23.64 7.84H10.52V18.272H23.64C25.1333 18.272 26.3707 17.7813 27.352 16.8C28.376 15.8187 28.888 14.5813 28.888 13.088C28.888 11.5947 28.376 10.3573 27.352 9.376C26.3707 8.352 25.1333 7.84 23.64 7.84ZM43.377 33.632V15.2H50.289V31.648C50.289 33.5253 50.9077 35.104 52.145 36.384C53.425 37.6213 54.9823 38.24 56.817 38.24C58.6943 38.24 60.2517 37.6213 61.489 36.384C62.769 35.104 63.409 33.5253 63.409 31.648V15.2H70.321V44H63.409V40.48C61.2757 43.3813 58.3957 44.832 54.769 44.832C51.569 44.832 48.8597 43.7653 46.641 41.632C44.465 39.456 43.377 36.7893 43.377 33.632ZM97.4955 22.112L91.0315 23.2C90.5195 21.28 88.8342 20.32 85.9755 20.32C84.7808 20.32 83.7995 20.5547 83.0315 21.024C82.3062 21.4507 81.9435 22.048 81.9435 22.816C81.9435 23.84 82.7968 24.6293 84.5035 25.184L90.3915 27.168C93.0368 28.1067 94.9568 29.2587 96.1515 30.624C97.3462 31.9893 97.9435 33.7173 97.9435 35.808C97.9435 38.6667 96.8982 40.8853 94.8075 42.464C92.7168 44.0427 89.9648 44.832 86.5515 44.832C83.1382 44.832 80.3862 44.0853 78.2955 42.592C76.2048 41.0987 74.9675 39.0293 74.5835 36.384L81.0475 35.424C81.6448 37.6853 83.5435 38.816 86.7435 38.816C88.1088 38.816 89.2182 38.5813 90.0715 38.112C90.9248 37.6 91.3515 36.9173 91.3515 36.064C91.3515 34.912 90.2848 33.9733 88.1515 33.248L82.2635 31.392C79.8315 30.5813 78.0608 29.5573 76.9515 28.32C75.8848 27.04 75.3515 25.376 75.3515 23.328C75.3515 20.4267 76.3542 18.208 78.3595 16.672C80.3648 15.136 83.0742 14.368 86.4875 14.368C89.5595 14.368 92.0768 15.072 94.0395 16.48C96.0022 17.8453 97.1542 19.7227 97.4955 22.112ZM109.274 44H102.362V15.2H109.274V44ZM101.466 6.048C101.466 4.768 101.871 3.72267 102.682 2.912C103.535 2.05866 104.581 1.632 105.818 1.632C107.055 1.632 108.101 2.05866 108.954 2.912C109.807 3.72267 110.234 4.768 110.234 6.048C110.234 7.28533 109.807 8.33067 108.954 9.184C108.101 9.99466 107.055 10.4 105.818 10.4C104.581 10.4 103.535 9.99466 102.682 9.184C101.871 8.33067 101.466 7.28533 101.466 6.048ZM115.105 44V15.2H122.017V18.72C124.15 15.8187 127.03 14.368 130.657 14.368C133.942 14.368 136.651 15.4347 138.785 17.568C140.961 19.6587 142.049 22.3253 142.049 25.568V44H135.137V27.552C135.137 25.6747 134.518 24.1173 133.281 22.88C132.043 21.6 130.486 20.96 128.609 20.96C126.774 20.96 125.217 21.6 123.937 22.88C122.657 24.16 122.017 25.7173 122.017 27.552V44H115.105ZM176.775 32.16H153.927C154.439 34.0373 155.463 35.5733 156.999 36.768C158.535 37.92 160.327 38.496 162.375 38.496C165.148 38.496 167.388 37.472 169.095 35.424L175.815 37.408C174.492 39.712 172.636 41.5253 170.247 42.848C167.9 44.1707 165.276 44.832 162.375 44.832C157.98 44.832 154.268 43.3813 151.239 40.48C148.252 37.6213 146.759 33.9947 146.759 29.6C146.759 25.2907 148.21 21.6853 151.111 18.784C153.97 15.84 157.575 14.368 161.927 14.368C166.194 14.368 169.756 15.84 172.615 18.784C175.516 21.6853 176.967 25.2907 176.967 29.6C176.967 30.496 176.903 31.3493 176.775 32.16ZM153.991 26.784H169.863C169.308 24.992 168.306 23.5413 166.855 22.432C165.404 21.28 163.719 20.704 161.799 20.704C159.964 20.704 158.322 21.28 156.871 22.432C155.463 23.5413 154.503 24.992 153.991 26.784ZM202.653 22.112L196.189 23.2C195.677 21.28 193.992 20.32 191.133 20.32C189.938 20.32 188.957 20.5547 188.189 21.024C187.464 21.4507 187.101 22.048 187.101 22.816C187.101 23.84 187.954 24.6293 189.661 25.184L195.549 27.168C198.194 28.1067 200.114 29.2587 201.309 30.624C202.504 31.9893 203.101 33.7173 203.101 35.808C203.101 38.6667 202.056 40.8853 199.965 42.464C197.874 44.0427 195.122 44.832 191.709 44.832C188.296 44.832 185.544 44.0853 183.453 42.592C181.362 41.0987 180.125 39.0293 179.741 36.384L186.205 35.424C186.802 37.6853 188.701 38.816 191.901 38.816C193.266 38.816 194.376 38.5813 195.229 38.112C196.082 37.6 196.509 36.9173 196.509 36.064C196.509 34.912 195.442 33.9733 193.309 33.248L187.421 31.392C184.989 30.5813 183.218 29.5573 182.109 28.32C181.042 27.04 180.509 25.376 180.509 23.328C180.509 20.4267 181.512 18.208 183.517 16.672C185.522 15.136 188.232 14.368 191.645 14.368C194.717 14.368 197.234 15.072 199.197 16.48C201.16 17.8453 202.312 19.7227 202.653 22.112ZM228.895 22.112L222.431 23.2C221.919 21.28 220.234 20.32 217.375 20.32C216.181 20.32 215.199 20.5547 214.431 21.024C213.706 21.4507 213.343 22.048 213.343 22.816C213.343 23.84 214.197 24.6293 215.903 25.184L221.791 27.168C224.437 28.1067 226.357 29.2587 227.551 30.624C228.746 31.9893 229.343 33.7173 229.343 35.808C229.343 38.6667 228.298 40.8853 226.207 42.464C224.117 44.0427 221.365 44.832 217.951 44.832C214.538 44.832 211.786 44.0853 209.695 42.592C207.605 41.0987 206.367 39.0293 205.983 36.384L212.447 35.424C213.045 37.6853 214.943 38.816 218.143 38.816C219.509 38.816 220.618 38.5813 221.471 38.112C222.325 37.6 222.751 36.9173 222.751 36.064C222.751 34.912 221.685 33.9733 219.551 33.248L213.663 31.392C211.231 30.5813 209.461 29.5573 208.351 28.32C207.285 27.04 206.751 25.376 206.751 23.328C206.751 20.4267 207.754 18.208 209.759 16.672C211.765 15.136 214.474 14.368 217.887 14.368C220.959 14.368 223.477 15.072 225.439 16.48C227.402 17.8453 228.554 19.7227 228.895 22.112ZM0.984 93.6C0.984 89.2907 2.328 85.6853 5.016 82.784C7.704 79.84 11.0533 78.368 15.064 78.368C18.392 78.368 21.2933 79.4133 23.768 81.504V61.6H30.616V108H23.768V105.696C21.2933 107.787 18.392 108.832 15.064 108.832C11.0533 108.832 7.704 107.381 5.016 104.48C2.328 101.579 0.984 97.952 0.984 93.6ZM23.64 93.6C23.64 91.296 22.8933 89.3333 21.4 87.712C19.9067 86.0907 18.072 85.28 15.896 85.28C13.72 85.28 11.8853 86.0907 10.392 87.712C8.89867 89.3333 8.152 91.296 8.152 93.6C8.152 95.9467 8.89867 97.9307 10.392 99.552C11.8427 101.131 13.6773 101.92 15.896 101.92C18.1147 101.92 19.9493 101.131 21.4 99.552C22.8933 97.9307 23.64 95.9467 23.64 93.6ZM65.3675 96.16H42.5195C43.0315 98.0373 44.0555 99.5733 45.5915 100.768C47.1275 101.92 48.9195 102.496 50.9675 102.496C53.7408 102.496 55.9808 101.472 57.6875 99.424L64.4075 101.408C63.0848 103.712 61.2288 105.525 58.8395 106.848C56.4928 108.171 53.8688 108.832 50.9675 108.832C46.5728 108.832 42.8608 107.381 39.8315 104.48C36.8448 101.621 35.3515 97.9947 35.3515 93.6C35.3515 89.2907 36.8022 85.6853 39.7035 82.784C42.5622 79.84 46.1675 78.368 50.5195 78.368C54.7862 78.368 58.3488 79.84 61.2075 82.784C64.1088 85.6853 65.5595 89.2907 65.5595 93.6C65.5595 94.496 65.4955 95.3493 65.3675 96.16ZM42.5835 90.784H58.4555C57.9008 88.992 56.8982 87.5413 55.4475 86.432C53.9968 85.28 52.3115 84.704 50.3915 84.704C48.5568 84.704 46.9142 85.28 45.4635 86.432C44.0555 87.5413 43.0955 88.992 42.5835 90.784ZM91.2455 86.112L84.7815 87.2C84.2695 85.28 82.5842 84.32 79.7255 84.32C78.5308 84.32 77.5495 84.5547 76.7815 85.024C76.0562 85.4507 75.6935 86.048 75.6935 86.816C75.6935 87.84 76.5468 88.6293 78.2535 89.184L84.1415 91.168C86.7868 92.1067 88.7068 93.2587 89.9015 94.624C91.0962 95.9893 91.6935 97.7173 91.6935 99.808C91.6935 102.667 90.6482 104.885 88.5575 106.464C86.4668 108.043 83.7148 108.832 80.3015 108.832C76.8882 108.832 74.1362 108.085 72.0455 106.592C69.9548 105.099 68.7175 103.029 68.3335 100.384L74.7975 99.424C75.3948 101.685 77.2935 102.816 80.4935 102.816C81.8588 102.816 82.9682 102.581 83.8215 102.112C84.6748 101.6 85.1015 100.917 85.1015 100.064C85.1015 98.912 84.0348 97.9733 81.9015 97.248L76.0135 95.392C73.5815 94.5813 71.8108 93.5573 70.7015 92.32C69.6348 91.04 69.1015 89.376 69.1015 87.328C69.1015 84.4267 70.1042 82.208 72.1095 80.672C74.1148 79.136 76.8242 78.368 80.2375 78.368C83.3095 78.368 85.8268 79.072 87.7895 80.48C89.7522 81.8453 90.9042 83.7227 91.2455 86.112ZM103.024 108H96.112V79.2H103.024V108ZM95.216 70.048C95.216 68.768 95.6213 67.7227 96.432 66.912C97.2853 66.0587 98.3307 65.632 99.568 65.632C100.805 65.632 101.851 66.0587 102.704 66.912C103.557 67.7227 103.984 68.768 103.984 70.048C103.984 71.2853 103.557 72.3307 102.704 73.184C101.851 73.9947 100.805 74.4 99.568 74.4C98.3307 74.4 97.2853 73.9947 96.432 73.184C95.6213 72.3307 95.216 71.2853 95.216 70.048ZM107.767 93.6C107.767 89.2907 109.111 85.6853 111.799 82.784C114.487 79.84 117.836 78.368 121.847 78.368C125.175 78.368 128.076 79.4133 130.551 81.504V79.2H137.399V108.832C137.399 112.885 136.012 116.299 133.239 119.072C130.465 121.845 127.031 123.232 122.935 123.232C119.777 123.232 116.855 122.4 114.167 120.736C111.479 119.029 109.665 116.917 108.727 114.4L115.703 112.48C116.172 113.589 117.068 114.507 118.391 115.232C119.713 116 121.143 116.384 122.679 116.384C124.94 116.384 126.796 115.659 128.247 114.208C129.783 112.8 130.551 111.029 130.551 108.896V105.696C128.076 107.787 125.175 108.832 121.847 108.832C117.836 108.832 114.487 107.381 111.799 104.48C109.111 101.579 107.767 97.952 107.767 93.6ZM130.423 93.6C130.423 91.296 129.676 89.3333 128.183 87.712C126.689 86.0907 124.855 85.28 122.679 85.28C120.503 85.28 118.668 86.0907 117.175 87.712C115.681 89.3333 114.935 91.296 114.935 93.6C114.935 95.9467 115.681 97.9307 117.175 99.552C118.625 101.131 120.46 101.92 122.679 101.92C124.897 101.92 126.732 101.131 128.183 99.552C129.676 97.9307 130.423 95.9467 130.423 93.6ZM143.222 108V79.2H150.134V82.72C152.267 79.8187 155.147 78.368 158.774 78.368C162.059 78.368 164.769 79.4347 166.902 81.568C169.078 83.6587 170.166 86.3253 170.166 89.568V108H163.254V91.552C163.254 89.6747 162.635 88.1173 161.398 86.88C160.161 85.6 158.603 84.96 156.726 84.96C154.891 84.96 153.334 85.6 152.054 86.88C150.774 88.16 150.134 89.7173 150.134 91.552V108H143.222Z" fill="white"/>
</svg>
