<svg width="295" height="120" viewBox="0 0 295 120" fill="none" xmlns="http://www.w3.org/2000/svg">
<path d="M2.06 15H0.36L6.3 1.5H7.58L13.52 15H11.84L10.48 11.9H3.42L2.06 15ZM9.82 10.4L6.96 3.82L4.08 10.4H9.82ZM16.5067 9.92V15H15.0467V6H16.5067V7.52C17.1867 6.37333 18.2467 5.8 19.6867 5.8H19.9467V7.44C19.7201 7.37333 19.5001 7.34 19.2867 7.34C18.5001 7.34 17.8401 7.58667 17.3067 8.08C16.7734 8.57333 16.5067 9.18667 16.5067 9.92ZM29.9177 11H22.1977C22.291 11.8 22.6443 12.4733 23.2577 13.02C23.871 13.5533 24.611 13.82 25.4777 13.82C26.6243 13.82 27.511 13.3867 28.1377 12.52L29.5577 12.98C29.1443 13.6733 28.5777 14.22 27.8577 14.62C27.1377 15.0067 26.3443 15.2 25.4777 15.2C24.091 15.2 22.9443 14.7533 22.0377 13.86C21.131 12.9533 20.6777 11.8333 20.6777 10.5C20.6777 9.16667 21.1243 8.05333 22.0177 7.16C22.9243 6.25333 24.031 5.8 25.3377 5.8C26.6443 5.8 27.7377 6.25333 28.6177 7.16C29.511 8.05333 29.9577 9.16667 29.9577 10.5C29.9577 10.7 29.9443 10.8667 29.9177 11ZM22.2177 9.82H28.4377C28.291 9.04667 27.9243 8.41333 27.3377 7.92C26.7643 7.42667 26.0843 7.18 25.2977 7.18C24.5377 7.18 23.871 7.42667 23.2977 7.92C22.7243 8.41333 22.3643 9.04667 22.2177 9.82ZM38.8537 16.42L39.5337 14.76L35.9537 6H37.4737L40.2737 12.98L43.1737 6H44.6937L40.1137 16.92C39.7404 17.8133 39.2804 18.4667 38.7337 18.88C38.2004 19.2933 37.5271 19.5 36.7137 19.5H36.3737V18.08H36.7137C37.6737 18.08 38.3871 17.5267 38.8537 16.42ZM49.98 15.2C48.6333 15.2 47.5133 14.7533 46.62 13.86C45.7267 12.9667 45.28 11.8467 45.28 10.5C45.28 9.15333 45.7267 8.03333 46.62 7.14C47.5133 6.24667 48.6333 5.8 49.98 5.8C51.3133 5.8 52.4267 6.24667 53.32 7.14C54.2267 8.04667 54.68 9.16667 54.68 10.5C54.68 11.8333 54.2267 12.9533 53.32 13.86C52.4267 14.7533 51.3133 15.2 49.98 15.2ZM49.98 7.28C49.0733 7.28 48.32 7.58667 47.72 8.2C47.12 8.81333 46.82 9.58 46.82 10.5C46.82 11.42 47.12 12.1867 47.72 12.8C48.32 13.4133 49.0733 13.72 49.98 13.72C50.8867 13.72 51.64 13.4133 52.24 12.8C52.84 12.1867 53.14 11.42 53.14 10.5C53.14 9.58 52.84 8.81333 52.24 8.2C51.64 7.58667 50.8867 7.28 49.98 7.28ZM56.577 11.62V6H58.057V11.22C58.057 11.9533 58.297 12.5667 58.777 13.06C59.2704 13.54 59.8837 13.78 60.617 13.78C61.417 13.78 62.0704 13.5333 62.577 13.04C63.1104 12.5467 63.377 11.9333 63.377 11.2V6H64.857V15H63.377V13.52C62.697 14.64 61.637 15.2 60.197 15.2C59.157 15.2 58.2904 14.86 57.597 14.18C56.917 13.5 56.577 12.6467 56.577 11.62ZM76.4122 5.8C77.7322 5.8 78.8189 6.28 79.6722 7.24V6H81.1522V15H79.6722V13.76C78.8189 14.72 77.7322 15.2 76.4122 15.2C75.1455 15.2 74.0855 14.7533 73.2322 13.86C72.3922 12.9667 71.9722 11.8467 71.9722 10.5C71.9722 9.18 72.3922 8.06667 73.2322 7.16C74.0989 6.25333 75.1589 5.8 76.4122 5.8ZM78.7522 8.2C78.1789 7.58667 77.4522 7.28 76.5722 7.28C75.6922 7.28 74.9655 7.58667 74.3922 8.2C73.8055 8.82667 73.5122 9.59333 73.5122 10.5C73.5122 11.4067 73.8055 12.1733 74.3922 12.8C74.9655 13.4133 75.6922 13.72 76.5722 13.72C77.4522 13.72 78.1789 13.4133 78.7522 12.8C79.3389 12.1733 79.6322 11.4067 79.6322 10.5C79.6322 9.59333 79.3389 8.82667 78.7522 8.2ZM83.5436 15V6H85.0036V7.5C85.6569 6.36667 86.7169 5.8 88.1836 5.8C89.2369 5.8 90.1036 6.14 90.7836 6.82C91.4769 7.5 91.8236 8.35333 91.8236 9.38V15H90.3436V9.78C90.3436 9.04667 90.0969 8.44 89.6036 7.96C89.1236 7.46667 88.5169 7.22 87.7836 7.22C86.9969 7.22 86.3369 7.46667 85.8036 7.96C85.2703 8.45333 85.0036 9.06667 85.0036 9.8V15H83.5436ZM100.859 15H99.3788V6H100.859V15ZM99.0988 3.06C99.0721 2.64667 99.2321 2.36 99.5788 2.2C99.9388 2.02667 100.292 2.02667 100.639 2.2C100.999 2.36 101.159 2.64667 101.119 3.06C101.119 3.35333 101.025 3.6 100.839 3.8C100.652 3.98667 100.412 4.08 100.119 4.08C99.8254 4.08 99.5788 3.98667 99.3788 3.8C99.1921 3.61333 99.0988 3.36667 99.0988 3.06ZM103.263 15V6H104.723V7.5C105.376 6.36667 106.436 5.8 107.903 5.8C108.956 5.8 109.823 6.14 110.503 6.82C111.196 7.5 111.543 8.35333 111.543 9.38V15H110.063V9.78C110.063 9.04667 109.816 8.44 109.323 7.96C108.843 7.46667 108.236 7.22 107.503 7.22C106.716 7.22 106.056 7.46667 105.523 7.96C104.99 8.45333 104.723 9.06667 104.723 9.8V15H103.263ZM116.531 15L112.671 6H114.191L117.211 13.12L120.231 6H121.751L117.891 15H116.531ZM131.589 11H123.869C123.962 11.8 124.315 12.4733 124.929 13.02C125.542 13.5533 126.282 13.82 127.149 13.82C128.295 13.82 129.182 13.3867 129.809 12.52L131.229 12.98C130.815 13.6733 130.249 14.22 129.529 14.62C128.809 15.0067 128.015 15.2 127.149 15.2C125.762 15.2 124.615 14.7533 123.709 13.86C122.802 12.9533 122.349 11.8333 122.349 10.5C122.349 9.16667 122.795 8.05333 123.689 7.16C124.595 6.25333 125.702 5.8 127.009 5.8C128.315 5.8 129.409 6.25333 130.289 7.16C131.182 8.05333 131.629 9.16667 131.629 10.5C131.629 10.7 131.615 10.8667 131.589 11ZM123.889 9.82H130.109C129.962 9.04667 129.595 8.41333 129.009 7.92C128.435 7.42667 127.755 7.18 126.969 7.18C126.209 7.18 125.542 7.42667 124.969 7.92C124.395 8.41333 124.035 9.04667 123.889 9.82ZM133.451 15V6H134.911V7.5C135.565 6.36667 136.625 5.8 138.091 5.8C139.145 5.8 140.011 6.14 140.691 6.82C141.385 7.5 141.731 8.35333 141.731 9.38V15H140.251V9.78C140.251 9.04667 140.005 8.44 139.511 7.96C139.031 7.46667 138.425 7.22 137.691 7.22C136.905 7.22 136.245 7.46667 135.711 7.96C135.178 8.45333 134.911 9.06667 134.911 9.8V15H133.451ZM143.133 7.3V6H144.593V4.14H146.053V6H148.613V7.3H146.053V12.16C146.053 12.5733 146.173 12.9133 146.413 13.18C146.666 13.4467 146.98 13.58 147.353 13.58H148.613V15H147.253C146.493 15 145.86 14.7467 145.353 14.24C144.846 13.7067 144.593 13.0733 144.593 12.34V7.3H143.133ZM154.561 15.2C153.215 15.2 152.095 14.7533 151.201 13.86C150.308 12.9667 149.861 11.8467 149.861 10.5C149.861 9.15333 150.308 8.03333 151.201 7.14C152.095 6.24667 153.215 5.8 154.561 5.8C155.895 5.8 157.008 6.24667 157.901 7.14C158.808 8.04667 159.261 9.16667 159.261 10.5C159.261 11.8333 158.808 12.9533 157.901 13.86C157.008 14.7533 155.895 15.2 154.561 15.2ZM154.561 7.28C153.655 7.28 152.901 7.58667 152.301 8.2C151.701 8.81333 151.401 9.58 151.401 10.5C151.401 11.42 151.701 12.1867 152.301 12.8C152.901 13.4133 153.655 13.72 154.561 13.72C155.468 13.72 156.221 13.4133 156.821 12.8C157.421 12.1867 157.721 11.42 157.721 10.5C157.721 9.58 157.421 8.81333 156.821 8.2C156.221 7.58667 155.468 7.28 154.561 7.28ZM162.658 9.92V15H161.198V6H162.658V7.52C163.338 6.37333 164.398 5.8 165.838 5.8H166.098V7.44C165.872 7.37333 165.652 7.34 165.438 7.34C164.652 7.34 163.992 7.58667 163.458 8.08C162.925 8.57333 162.658 9.18667 162.658 9.92ZM176.155 15H174.875L171.815 6H173.295L175.495 12.74L177.675 6H178.975L181.135 12.72L183.355 6H184.835L181.775 15H180.475L178.315 8.44L176.155 15ZM187.71 15H186.23V6H187.71V15ZM185.95 3.06C185.924 2.64667 186.084 2.36 186.43 2.2C186.79 2.02667 187.144 2.02667 187.49 2.2C187.85 2.36 188.01 2.64667 187.97 3.06C187.97 3.35333 187.877 3.6 187.69 3.8C187.504 3.98667 187.264 4.08 186.97 4.08C186.677 4.08 186.43 3.98667 186.23 3.8C186.044 3.61333 185.95 3.36667 185.95 3.06ZM189.135 7.3V6H190.595V4.14H192.055V6H194.615V7.3H192.055V12.16C192.055 12.5733 192.175 12.9133 192.415 13.18C192.668 13.4467 192.981 13.58 193.355 13.58H194.615V15H193.255C192.495 15 191.861 14.7467 191.355 14.24C190.848 13.7067 190.595 13.0733 190.595 12.34V7.3H189.135ZM196.421 15V0.5H197.881V7.5C198.574 6.36667 199.648 5.8 201.101 5.8C202.154 5.8 203.021 6.14667 203.701 6.84C204.394 7.52 204.741 8.37333 204.741 9.4V15H203.261V9.78C203.261 9.04667 203.014 8.44 202.521 7.96C202.028 7.46667 201.414 7.22 200.681 7.22C199.881 7.22 199.214 7.46667 198.681 7.96C198.148 8.45333 197.881 9.06667 197.881 9.8V15H196.421ZM216.255 5.8C217.575 5.8 218.662 6.28 219.515 7.24V6H220.995V15H219.515V13.76C218.662 14.72 217.575 15.2 216.255 15.2C214.988 15.2 213.928 14.7533 213.075 13.86C212.235 12.9667 211.815 11.8467 211.815 10.5C211.815 9.18 212.235 8.06667 213.075 7.16C213.942 6.25333 215.002 5.8 216.255 5.8ZM218.595 8.2C218.022 7.58667 217.295 7.28 216.415 7.28C215.535 7.28 214.808 7.58667 214.235 8.2C213.648 8.82667 213.355 9.59333 213.355 10.5C213.355 11.4067 213.648 12.1733 214.235 12.8C214.808 13.4133 215.535 13.72 216.415 13.72C217.295 13.72 218.022 13.4133 218.595 12.8C219.182 12.1733 219.475 11.4067 219.475 10.5C219.475 9.59333 219.182 8.82667 218.595 8.2ZM232.52 15.2C231.253 15.2 230.193 14.7533 229.34 13.86C228.5 12.9667 228.08 11.8467 228.08 10.5C228.08 9.18 228.5 8.06667 229.34 7.16C230.207 6.25333 231.267 5.8 232.52 5.8C233.84 5.8 234.927 6.28 235.78 7.24V6H237.24V15.16C237.24 16.4667 236.8 17.5467 235.92 18.4C235.053 19.2667 233.967 19.7 232.66 19.7C231.753 19.7 230.913 19.48 230.14 19.04C229.38 18.6 228.827 18.0267 228.48 17.32L229.96 16.86C230.187 17.2733 230.54 17.6067 231.02 17.86C231.513 18.1133 232.04 18.24 232.6 18.24C233.493 18.24 234.253 17.9467 234.88 17.36C235.507 16.7733 235.807 16.04 235.78 15.16V13.76C234.927 14.72 233.84 15.2 232.52 15.2ZM234.86 8.2C234.287 7.58667 233.56 7.28 232.68 7.28C231.8 7.28 231.073 7.58667 230.5 8.2C229.913 8.82667 229.62 9.59333 229.62 10.5C229.62 11.4067 229.913 12.1733 230.5 12.8C231.073 13.4133 231.8 13.72 232.68 13.72C233.56 13.72 234.287 13.4133 234.86 12.8C235.447 12.1733 235.74 11.4067 235.74 10.5C235.74 9.59333 235.447 8.82667 234.86 8.2ZM241.111 9.92V15H239.651V6H241.111V7.52C241.791 6.37333 242.851 5.8 244.291 5.8H244.551V7.44C244.325 7.37333 244.105 7.34 243.891 7.34C243.105 7.34 242.445 7.58667 241.911 8.08C241.378 8.57333 241.111 9.18667 241.111 9.92ZM249.982 15.2C248.636 15.2 247.516 14.7533 246.622 13.86C245.729 12.9667 245.282 11.8467 245.282 10.5C245.282 9.15333 245.729 8.03333 246.622 7.14C247.516 6.24667 248.636 5.8 249.982 5.8C251.316 5.8 252.429 6.24667 253.322 7.14C254.229 8.04667 254.682 9.16667 254.682 10.5C254.682 11.8333 254.229 12.9533 253.322 13.86C252.429 14.7533 251.316 15.2 249.982 15.2ZM249.982 7.28C249.076 7.28 248.322 7.58667 247.722 8.2C247.122 8.81333 246.822 9.58 246.822 10.5C246.822 11.42 247.122 12.1867 247.722 12.8C248.322 13.4133 249.076 13.72 249.982 13.72C250.889 13.72 251.642 13.4133 252.242 12.8C252.842 12.1867 253.142 11.42 253.142 10.5C253.142 9.58 252.842 8.81333 252.242 8.2C251.642 7.58667 250.889 7.28 249.982 7.28ZM256.579 11.62V6H258.059V11.22C258.059 11.9533 258.299 12.5667 258.779 13.06C259.273 13.54 259.886 13.78 260.619 13.78C261.419 13.78 262.073 13.5333 262.579 13.04C263.113 12.5467 263.379 11.9333 263.379 11.2V6H264.859V15H263.379V13.52C262.699 14.64 261.639 15.2 260.199 15.2C259.159 15.2 258.293 14.86 257.599 14.18C256.919 13.5 256.579 12.6467 256.579 11.62ZM267.281 15V6H268.741V7.5C269.394 6.36667 270.454 5.8 271.921 5.8C272.974 5.8 273.841 6.14 274.521 6.82C275.214 7.5 275.561 8.35333 275.561 9.38V15H274.081V9.78C274.081 9.04667 273.834 8.44 273.341 7.96C272.861 7.46667 272.254 7.22 271.521 7.22C270.734 7.22 270.074 7.46667 269.541 7.96C269.008 8.45333 268.741 9.06667 268.741 9.8V15H267.281ZM281.903 5.8C283.223 5.8 284.309 6.28 285.163 7.24V0.5H286.623V15H285.163V13.76C284.309 14.72 283.223 15.2 281.903 15.2C280.636 15.2 279.576 14.7533 278.723 13.86C277.883 12.9667 277.463 11.8467 277.463 10.5C277.463 9.18 277.883 8.06667 278.723 7.16C279.589 6.25333 280.649 5.8 281.903 5.8ZM284.243 8.2C283.669 7.58667 282.943 7.28 282.063 7.28C281.183 7.28 280.456 7.58667 279.883 8.2C279.296 8.82667 279.003 9.59333 279.003 10.5C279.003 11.4067 279.296 12.1733 279.883 12.8C280.456 13.4133 281.183 13.72 282.063 13.72C282.943 13.72 283.669 13.4133 284.243 12.8C284.829 12.1733 285.123 11.4067 285.123 10.5C285.123 9.59333 284.829 8.82667 284.243 8.2ZM289.114 11.18V9.82H294.174V11.18H289.114ZM1.26 35V20.5H2.72V27.24C3.57333 26.28 4.66 25.8 5.98 25.8C7.24667 25.8 8.3 26.2533 9.14 27.16C9.99333 28.0533 10.42 29.1667 10.42 30.5C10.42 31.8467 9.99333 32.9667 9.14 33.86C8.3 34.7533 7.24667 35.2 5.98 35.2C4.66 35.2 3.57333 34.72 2.72 33.76V35H1.26ZM8 28.2C7.42667 27.5867 6.7 27.28 5.82 27.28C4.94 27.28 4.21333 27.5867 3.64 28.2C3.05333 28.8267 2.76 29.5933 2.76 30.5C2.76 31.4067 3.05333 32.1733 3.64 32.8C4.21333 33.4133 4.94 33.72 5.82 33.72C6.7 33.72 7.42667 33.4133 8 32.8C8.6 32.1867 8.9 31.42 8.9 30.5C8.9 29.58 8.6 28.8133 8 28.2ZM13.8114 29.92V35H12.3514V26H13.8114V27.52C14.4914 26.3733 15.5514 25.8 16.9914 25.8H17.2514V27.44C17.0247 27.3733 16.8047 27.34 16.5914 27.34C15.8047 27.34 15.1447 27.5867 14.6114 28.08C14.0781 28.5733 13.8114 29.1867 13.8114 29.92ZM27.2223 31H19.5023C19.5957 31.8 19.949 32.4733 20.5623 33.02C21.1757 33.5533 21.9157 33.82 22.7823 33.82C23.929 33.82 24.8157 33.3867 25.4423 32.52L26.8623 32.98C26.449 33.6733 25.8823 34.22 25.1623 34.62C24.4423 35.0067 23.649 35.2 22.7823 35.2C21.3957 35.2 20.249 34.7533 19.3423 33.86C18.4357 32.9533 17.9823 31.8333 17.9823 30.5C17.9823 29.1667 18.429 28.0533 19.3223 27.16C20.229 26.2533 21.3357 25.8 22.6423 25.8C23.949 25.8 25.0423 26.2533 25.9223 27.16C26.8157 28.0533 27.2623 29.1667 27.2623 30.5C27.2623 30.7 27.249 30.8667 27.2223 31ZM19.5223 29.82H25.7423C25.5957 29.0467 25.229 28.4133 24.6423 27.92C24.069 27.4267 23.389 27.18 22.6023 27.18C21.8423 27.18 21.1757 27.4267 20.6023 27.92C20.029 28.4133 19.669 29.0467 19.5223 29.82ZM33.045 25.8C34.365 25.8 35.4517 26.28 36.305 27.24V26H37.785V35H36.305V33.76C35.4517 34.72 34.365 35.2 33.045 35.2C31.7783 35.2 30.7183 34.7533 29.865 33.86C29.025 32.9667 28.605 31.8467 28.605 30.5C28.605 29.18 29.025 28.0667 29.865 27.16C30.7317 26.2533 31.7917 25.8 33.045 25.8ZM35.385 28.2C34.8117 27.5867 34.085 27.28 33.205 27.28C32.325 27.28 31.5983 27.5867 31.025 28.2C30.4383 28.8267 30.145 29.5933 30.145 30.5C30.145 31.4067 30.4383 32.1733 31.025 32.8C31.5983 33.4133 32.325 33.72 33.205 33.72C34.085 33.72 34.8117 33.4133 35.385 32.8C35.9717 32.1733 36.265 31.4067 36.265 30.5C36.265 29.5933 35.9717 28.8267 35.385 28.2ZM40.1764 35V20.5H41.6364V35H40.1764ZM47.6164 35H45.7764L41.7364 30.34L45.4164 26H47.2364L43.5564 30.34L47.6164 35ZM50.5603 35H49.0803V26H50.5603V35ZM48.8003 23.06C48.7736 22.6467 48.9336 22.36 49.2803 22.2C49.6403 22.0267 49.9936 22.0267 50.3403 22.2C50.7003 22.36 50.8603 22.6467 50.8203 23.06C50.8203 23.3533 50.727 23.6 50.5403 23.8C50.3536 23.9867 50.1136 24.08 49.8203 24.08C49.527 24.08 49.2803 23.9867 49.0803 23.8C48.8936 23.6133 48.8003 23.3667 48.8003 23.06ZM52.9647 35V26H54.4247V27.5C55.078 26.3667 56.138 25.8 57.6047 25.8C58.658 25.8 59.5247 26.14 60.2047 26.82C60.898 27.5 61.2447 28.3533 61.2447 29.38V35H59.7647V29.78C59.7647 29.0467 59.518 28.44 59.0247 27.96C58.5447 27.4667 57.938 27.22 57.2047 27.22C56.418 27.22 55.758 27.4667 55.2247 27.96C54.6914 28.4533 54.4247 29.0667 54.4247 29.8V35H52.9647ZM67.5864 35.2C66.3197 35.2 65.2597 34.7533 64.4064 33.86C63.5664 32.9667 63.1464 31.8467 63.1464 30.5C63.1464 29.18 63.5664 28.0667 64.4064 27.16C65.2731 26.2533 66.3331 25.8 67.5864 25.8C68.9064 25.8 69.9931 26.28 70.8464 27.24V26H72.3064V35.16C72.3064 36.4667 71.8664 37.5467 70.9864 38.4C70.1197 39.2667 69.0331 39.7 67.7264 39.7C66.8197 39.7 65.9797 39.48 65.2064 39.04C64.4464 38.6 63.8931 38.0267 63.5464 37.32L65.0264 36.86C65.2531 37.2733 65.6064 37.6067 66.0864 37.86C66.5797 38.1133 67.1064 38.24 67.6664 38.24C68.5597 38.24 69.3197 37.9467 69.9464 37.36C70.5731 36.7733 70.8731 36.04 70.8464 35.16V33.76C69.9931 34.72 68.9064 35.2 67.5864 35.2ZM69.9264 28.2C69.3531 27.5867 68.6264 27.28 67.7464 27.28C66.8664 27.28 66.1397 27.5867 65.5664 28.2C64.9797 28.8267 64.6864 29.5933 64.6864 30.5C64.6864 31.4067 64.9797 32.1733 65.5664 32.8C66.1397 33.4133 66.8664 33.72 67.7464 33.72C68.6264 33.72 69.3531 33.4133 69.9264 32.8C70.5131 32.1733 70.8064 31.4067 70.8064 30.5C70.8064 29.5933 70.5131 28.8267 69.9264 28.2ZM81.3512 39.5H79.8912V26H81.3512V27.24C82.2046 26.28 83.2912 25.8 84.6112 25.8C85.8779 25.8 86.9312 26.2533 87.7712 27.16C88.6246 28.0533 89.0512 29.1667 89.0512 30.5C89.0512 31.8467 88.6246 32.9667 87.7712 33.86C86.9312 34.7533 85.8779 35.2 84.6112 35.2C83.2912 35.2 82.2046 34.72 81.3512 33.76V39.5ZM86.6312 28.2C86.0579 27.5867 85.3312 27.28 84.4512 27.28C83.5712 27.28 82.8446 27.5867 82.2712 28.2C81.6846 28.8267 81.3912 29.5933 81.3912 30.5C81.3912 31.4067 81.6846 32.1733 82.2712 32.8C82.8446 33.4133 83.5712 33.72 84.4512 33.72C85.3312 33.72 86.0579 33.4133 86.6312 32.8C87.2312 32.1867 87.5312 31.42 87.5312 30.5C87.5312 29.58 87.2312 28.8133 86.6312 28.2ZM92.4427 29.92V35H90.9827V26H92.4427V27.52C93.1227 26.3733 94.1827 25.8 95.6227 25.8H95.8827V27.44C95.656 27.3733 95.436 27.34 95.2227 27.34C94.436 27.34 93.776 27.5867 93.2427 28.08C92.7093 28.5733 92.4427 29.1867 92.4427 29.92ZM101.314 35.2C99.9669 35.2 98.8469 34.7533 97.9536 33.86C97.0603 32.9667 96.6136 31.8467 96.6136 30.5C96.6136 29.1533 97.0603 28.0333 97.9536 27.14C98.8469 26.2467 99.9669 25.8 101.314 25.8C102.647 25.8 103.76 26.2467 104.654 27.14C105.56 28.0467 106.014 29.1667 106.014 30.5C106.014 31.8333 105.56 32.9533 104.654 33.86C103.76 34.7533 102.647 35.2 101.314 35.2ZM101.314 27.28C100.407 27.28 99.6536 27.5867 99.0536 28.2C98.4536 28.8133 98.1536 29.58 98.1536 30.5C98.1536 31.42 98.4536 32.1867 99.0536 32.8C99.6536 33.4133 100.407 33.72 101.314 33.72C102.22 33.72 102.974 33.4133 103.574 32.8C104.174 32.1867 104.474 31.42 104.474 30.5C104.474 29.58 104.174 28.8133 103.574 28.2C102.974 27.5867 102.22 27.28 101.314 27.28ZM106.893 27.3V26H108.353V24.14H109.813V26H112.373V27.3H109.813V32.16C109.813 32.5733 109.933 32.9133 110.173 33.18C110.426 33.4467 110.739 33.58 111.113 33.58H112.373V35H111.013C110.253 35 109.619 34.7467 109.113 34.24C108.606 33.7067 108.353 33.0733 108.353 32.34V27.3H106.893ZM118.321 35.2C116.974 35.2 115.854 34.7533 114.961 33.86C114.067 32.9667 113.621 31.8467 113.621 30.5C113.621 29.1533 114.067 28.0333 114.961 27.14C115.854 26.2467 116.974 25.8 118.321 25.8C119.654 25.8 120.767 26.2467 121.661 27.14C122.567 28.0467 123.021 29.1667 123.021 30.5C123.021 31.8333 122.567 32.9533 121.661 33.86C120.767 34.7533 119.654 35.2 118.321 35.2ZM118.321 27.28C117.414 27.28 116.661 27.5867 116.061 28.2C115.461 28.8133 115.161 29.58 115.161 30.5C115.161 31.42 115.461 32.1867 116.061 32.8C116.661 33.4133 117.414 33.72 118.321 33.72C119.227 33.72 119.981 33.4133 120.581 32.8C121.181 32.1867 121.481 31.42 121.481 30.5C121.481 29.58 121.181 28.8133 120.581 28.2C119.981 27.5867 119.227 27.28 118.321 27.28ZM123.9 27.3V26H125.36V24.14H126.82V26H129.38V27.3H126.82V32.16C126.82 32.5733 126.94 32.9133 127.18 33.18C127.433 33.4467 127.746 33.58 128.12 33.58H129.38V35H128.02C127.26 35 126.626 34.7467 126.12 34.24C125.613 33.7067 125.36 33.0733 125.36 32.34V27.3H123.9ZM133.086 36.42L133.766 34.76L130.186 26H131.706L134.506 32.98L137.406 26H138.926L134.346 36.92C133.972 37.8133 133.512 38.4667 132.966 38.88C132.432 39.2933 131.759 39.5 130.946 39.5H130.606V38.08H130.946C131.906 38.08 132.619 37.5267 133.086 36.42ZM141.804 39.5H140.344V26H141.804V27.24C142.657 26.28 143.744 25.8 145.064 25.8C146.33 25.8 147.384 26.2533 148.224 27.16C149.077 28.0533 149.504 29.1667 149.504 30.5C149.504 31.8467 149.077 32.9667 148.224 33.86C147.384 34.7533 146.33 35.2 145.064 35.2C143.744 35.2 142.657 34.72 141.804 33.76V39.5ZM147.084 28.2C146.51 27.5867 145.784 27.28 144.904 27.28C144.024 27.28 143.297 27.5867 142.724 28.2C142.137 28.8267 141.844 29.5933 141.844 30.5C141.844 31.4067 142.137 32.1733 142.724 32.8C143.297 33.4133 144.024 33.72 144.904 33.72C145.784 33.72 146.51 33.4133 147.084 32.8C147.684 32.1867 147.984 31.42 147.984 30.5C147.984 29.58 147.684 28.8133 147.084 28.2ZM160.195 31H152.475C152.568 31.8 152.922 32.4733 153.535 33.02C154.148 33.5533 154.888 33.82 155.755 33.82C156.902 33.82 157.788 33.3867 158.415 32.52L159.835 32.98C159.422 33.6733 158.855 34.22 158.135 34.62C157.415 35.0067 156.622 35.2 155.755 35.2C154.368 35.2 153.222 34.7533 152.315 33.86C151.408 32.9533 150.955 31.8333 150.955 30.5C150.955 29.1667 151.402 28.0533 152.295 27.16C153.202 26.2533 154.308 25.8 155.615 25.8C156.922 25.8 158.015 26.2533 158.895 27.16C159.788 28.0533 160.235 29.1667 160.235 30.5C160.235 30.7 160.222 30.8667 160.195 31ZM152.495 29.82H158.715C158.568 29.0467 158.202 28.4133 157.615 27.92C157.042 27.4267 156.362 27.18 155.575 27.18C154.815 27.18 154.148 27.4267 153.575 27.92C153.002 28.4133 152.642 29.0467 152.495 29.82ZM168.711 35H167.231V26H168.711V35ZM166.951 23.06C166.924 22.6467 167.084 22.36 167.431 22.2C167.791 22.0267 168.144 22.0267 168.491 22.2C168.851 22.36 169.011 22.6467 168.971 23.06C168.971 23.3533 168.878 23.6 168.691 23.8C168.504 23.9867 168.264 24.08 167.971 24.08C167.678 24.08 167.431 23.9867 167.231 23.8C167.044 23.6133 166.951 23.3667 166.951 23.06ZM171.115 35V26H172.575V27.5C173.229 26.3667 174.289 25.8 175.755 25.8C176.809 25.8 177.675 26.14 178.355 26.82C179.049 27.5 179.395 28.3533 179.395 29.38V35H177.915V29.78C177.915 29.0467 177.669 28.44 177.175 27.96C176.695 27.4667 176.089 27.22 175.355 27.22C174.569 27.22 173.909 27.4667 173.375 27.96C172.842 28.4533 172.575 29.0667 172.575 29.8V35H171.115ZM186.951 35V20.5H188.411V27.5C189.104 26.3667 190.177 25.8 191.631 25.8C192.684 25.8 193.551 26.1467 194.231 26.84C194.924 27.52 195.271 28.3733 195.271 29.4V35H193.791V29.78C193.791 29.0467 193.544 28.44 193.051 27.96C192.557 27.4667 191.944 27.22 191.211 27.22C190.411 27.22 189.744 27.4667 189.211 27.96C188.677 28.4533 188.411 29.0667 188.411 29.8V35H186.951ZM201.611 25.8C202.931 25.8 204.018 26.28 204.871 27.24V26H206.351V35H204.871V33.76C204.018 34.72 202.931 35.2 201.611 35.2C200.345 35.2 199.285 34.7533 198.431 33.86C197.591 32.9667 197.171 31.8467 197.171 30.5C197.171 29.18 197.591 28.0667 198.431 27.16C199.298 26.2533 200.358 25.8 201.611 25.8ZM203.951 28.2C203.378 27.5867 202.651 27.28 201.771 27.28C200.891 27.28 200.165 27.5867 199.591 28.2C199.005 28.8267 198.711 29.5933 198.711 30.5C198.711 31.4067 199.005 32.1733 199.591 32.8C200.165 33.4133 200.891 33.72 201.771 33.72C202.651 33.72 203.378 33.4133 203.951 32.8C204.538 32.1733 204.831 31.4067 204.831 30.5C204.831 29.5933 204.538 28.8267 203.951 28.2ZM208.743 35V26H210.203V27.5C210.856 26.3667 211.916 25.8 213.383 25.8C214.436 25.8 215.303 26.14 215.983 26.82C216.676 27.5 217.023 28.3533 217.023 29.38V35H215.543V29.78C215.543 29.0467 215.296 28.44 214.803 27.96C214.323 27.4667 213.716 27.22 212.983 27.22C212.196 27.22 211.536 27.4667 211.003 27.96C210.469 28.4533 210.203 29.0667 210.203 29.8V35H208.743ZM223.365 25.8C224.685 25.8 225.771 26.28 226.625 27.24V20.5H228.085V35H226.625V33.76C225.771 34.72 224.685 35.2 223.365 35.2C222.098 35.2 221.038 34.7533 220.185 33.86C219.345 32.9667 218.925 31.8467 218.925 30.5C218.925 29.18 219.345 28.0667 220.185 27.16C221.051 26.2533 222.111 25.8 223.365 25.8ZM225.705 28.2C225.131 27.5867 224.405 27.28 223.525 27.28C222.645 27.28 221.918 27.5867 221.345 28.2C220.758 28.8267 220.465 29.5933 220.465 30.5C220.465 31.4067 220.758 32.1733 221.345 32.8C221.918 33.4133 222.645 33.72 223.525 33.72C224.405 33.72 225.131 33.4133 225.705 32.8C226.291 32.1733 226.585 31.4067 226.585 30.5C226.585 29.5933 226.291 28.8267 225.705 28.2ZM237.296 25.22C237.296 24.54 236.996 23.9667 236.396 23.5C235.809 23.02 235.089 22.78 234.236 22.78C233.503 22.78 232.863 22.9667 232.316 23.34C231.769 23.7 231.403 24.18 231.216 24.78L229.656 24.32C229.949 23.4133 230.509 22.6867 231.336 22.14C232.163 21.58 233.123 21.3 234.216 21.3C235.509 21.3 236.609 21.68 237.516 22.44C238.409 23.1733 238.856 24.1067 238.856 25.24C238.856 25.7867 238.736 26.3067 238.496 26.8C238.256 27.28 237.949 27.68 237.576 28C237.216 28.32 236.876 28.58 236.556 28.78C236.236 28.98 235.929 29.1333 235.636 29.24L235.276 29.38L235.196 30.94H233.796L233.636 28.56C234.049 28.4267 234.469 28.2533 234.896 28.04C235.363 27.7867 235.736 27.56 236.016 27.36C236.363 27.0933 236.663 26.7667 236.916 26.38C237.169 25.9933 237.296 25.6067 237.296 25.22ZM233.436 34.12C233.436 33.8267 233.536 33.58 233.736 33.38C233.936 33.1667 234.189 33.06 234.496 33.06C234.803 33.06 235.056 33.16 235.256 33.36C235.469 33.56 235.576 33.8133 235.576 34.12C235.576 34.4267 235.469 34.6867 235.256 34.9C235.056 35.1 234.803 35.2 234.496 35.2C234.189 35.2 233.936 35.1 233.736 34.9C233.536 34.6867 233.436 34.4267 233.436 34.12ZM6.88 75H1.56V61.5H6.88C8.86667 61.5 10.5133 62.1467 11.82 63.44C13.1533 64.7333 13.82 66.34 13.82 68.26C13.82 70.1667 13.1533 71.7667 11.82 73.06C10.5133 74.3533 8.86667 75 6.88 75ZM6.88 63H3.18V73.5H6.88C8.36 73.5 9.61333 73 10.64 72C11.6533 70.9867 12.16 69.74 12.16 68.26C12.16 67.02 11.7867 65.9267 11.04 64.98C10.2933 64.0333 9.33333 63.42 8.16 63.14L7.44 63.02C7.36 63.0067 7.17333 63 6.88 63ZM20.1261 75.2C18.7794 75.2 17.6594 74.7533 16.7661 73.86C15.8728 72.9667 15.4261 71.8467 15.4261 70.5C15.4261 69.1533 15.8728 68.0333 16.7661 67.14C17.6594 66.2467 18.7794 65.8 20.1261 65.8C21.4594 65.8 22.5728 66.2467 23.4661 67.14C24.3728 68.0467 24.8261 69.1667 24.8261 70.5C24.8261 71.8333 24.3728 72.9533 23.4661 73.86C22.5728 74.7533 21.4594 75.2 20.1261 75.2ZM20.1261 67.28C19.2194 67.28 18.4661 67.5867 17.8661 68.2C17.2661 68.8133 16.9661 69.58 16.9661 70.5C16.9661 71.42 17.2661 72.1867 17.8661 72.8C18.4661 73.4133 19.2194 73.72 20.1261 73.72C21.0328 73.72 21.7861 73.4133 22.3861 72.8C22.9861 72.1867 23.2861 71.42 23.2861 70.5C23.2861 69.58 22.9861 68.8133 22.3861 68.2C21.7861 67.5867 21.0328 67.28 20.1261 67.28ZM33.8366 76.42L34.5166 74.76L30.9366 66H32.4566L35.2566 72.98L38.1566 66H39.6766L35.0966 76.92C34.7232 77.8133 34.2632 78.4667 33.7166 78.88C33.1832 79.2933 32.5099 79.5 31.6966 79.5H31.3566V78.08H31.6966C32.6566 78.08 33.3699 77.5267 33.8366 76.42ZM44.9628 75.2C43.6161 75.2 42.4961 74.7533 41.6028 73.86C40.7095 72.9667 40.2628 71.8467 40.2628 70.5C40.2628 69.1533 40.7095 68.0333 41.6028 67.14C42.4961 66.2467 43.6161 65.8 44.9628 65.8C46.2961 65.8 47.4095 66.2467 48.3028 67.14C49.2095 68.0467 49.6628 69.1667 49.6628 70.5C49.6628 71.8333 49.2095 72.9533 48.3028 73.86C47.4095 74.7533 46.2961 75.2 44.9628 75.2ZM44.9628 67.28C44.0561 67.28 43.3028 67.5867 42.7028 68.2C42.1028 68.8133 41.8028 69.58 41.8028 70.5C41.8028 71.42 42.1028 72.1867 42.7028 72.8C43.3028 73.4133 44.0561 73.72 44.9628 73.72C45.8695 73.72 46.6228 73.4133 47.2228 72.8C47.8228 72.1867 48.1228 71.42 48.1228 70.5C48.1228 69.58 47.8228 68.8133 47.2228 68.2C46.6228 67.5867 45.8695 67.28 44.9628 67.28ZM51.5598 71.62V66H53.0398V71.22C53.0398 71.9533 53.2798 72.5667 53.7598 73.06C54.2532 73.54 54.8665 73.78 55.5998 73.78C56.3998 73.78 57.0532 73.5333 57.5598 73.04C58.0932 72.5467 58.3598 71.9333 58.3598 71.2V66H59.8398V75H58.3598V73.52C57.6798 74.64 56.6198 75.2 55.1798 75.2C54.1398 75.2 53.2732 74.86 52.5798 74.18C51.8998 73.5 51.5598 72.6467 51.5598 71.62ZM67.435 75V60.5H68.895V67.24C69.7483 66.28 70.835 65.8 72.155 65.8C73.4217 65.8 74.475 66.2533 75.315 67.16C76.1683 68.0533 76.595 69.1667 76.595 70.5C76.595 71.8467 76.1683 72.9667 75.315 73.86C74.475 74.7533 73.4217 75.2 72.155 75.2C70.835 75.2 69.7483 74.72 68.895 73.76V75H67.435ZM74.175 68.2C73.6017 67.5867 72.875 67.28 71.995 67.28C71.115 67.28 70.3883 67.5867 69.815 68.2C69.2283 68.8267 68.935 69.5933 68.935 70.5C68.935 71.4067 69.2283 72.1733 69.815 72.8C70.3883 73.4133 71.115 73.72 71.995 73.72C72.875 73.72 73.6017 73.4133 74.175 72.8C74.775 72.1867 75.075 71.42 75.075 70.5C75.075 69.58 74.775 68.8133 74.175 68.2ZM87.2864 71H79.5664C79.6597 71.8 80.0131 72.4733 80.6264 73.02C81.2397 73.5533 81.9797 73.82 82.8464 73.82C83.9931 73.82 84.8797 73.3867 85.5064 72.52L86.9264 72.98C86.5131 73.6733 85.9464 74.22 85.2264 74.62C84.5064 75.0067 83.7131 75.2 82.8464 75.2C81.4597 75.2 80.3131 74.7533 79.4064 73.86C78.4997 72.9533 78.0464 71.8333 78.0464 70.5C78.0464 69.1667 78.4931 68.0533 79.3864 67.16C80.2931 66.2533 81.3997 65.8 82.7064 65.8C84.0131 65.8 85.1064 66.2533 85.9864 67.16C86.8797 68.0533 87.3264 69.1667 87.3264 70.5C87.3264 70.7 87.3131 70.8667 87.2864 71ZM79.5864 69.82H85.8064C85.6597 69.0467 85.2931 68.4133 84.7064 67.92C84.1331 67.4267 83.4531 67.18 82.6664 67.18C81.9064 67.18 81.2397 67.4267 80.6664 67.92C80.0931 68.4133 79.7331 69.0467 79.5864 69.82ZM90.6091 75H89.1491V60.5H90.6091V75ZM94.5134 75H93.0334V66H94.5134V75ZM92.7534 63.06C92.7268 62.6467 92.8868 62.36 93.2334 62.2C93.5934 62.0267 93.9468 62.0267 94.2934 62.2C94.6534 62.36 94.8134 62.6467 94.7734 63.06C94.7734 63.3533 94.6801 63.6 94.4934 63.8C94.3068 63.9867 94.0668 64.08 93.7734 64.08C93.4801 64.08 93.2334 63.9867 93.0334 63.8C92.8468 63.6133 92.7534 63.3667 92.7534 63.06ZM105.678 71H97.9578C98.0511 71.8 98.4045 72.4733 99.0178 73.02C99.6311 73.5533 100.371 73.82 101.238 73.82C102.384 73.82 103.271 73.3867 103.898 72.52L105.318 72.98C104.904 73.6733 104.338 74.22 103.618 74.62C102.898 75.0067 102.104 75.2 101.238 75.2C99.8511 75.2 98.7045 74.7533 97.7978 73.86C96.8911 72.9533 96.4378 71.8333 96.4378 70.5C96.4378 69.1667 96.8845 68.0533 97.7778 67.16C98.6845 66.2533 99.7911 65.8 101.098 65.8C102.404 65.8 103.498 66.2533 104.378 67.16C105.271 68.0533 105.718 69.1667 105.718 70.5C105.718 70.7 105.704 70.8667 105.678 71ZM97.9778 69.82H104.198C104.051 69.0467 103.684 68.4133 103.098 67.92C102.524 67.4267 101.844 67.18 101.058 67.18C100.298 67.18 99.6311 67.4267 99.0578 67.92C98.4845 68.4133 98.1245 69.0467 97.9778 69.82ZM110.049 75L106.189 66H107.709L110.729 73.12L113.749 66H115.269L111.409 75H110.049ZM125.107 71H117.387C117.48 71.8 117.833 72.4733 118.447 73.02C119.06 73.5533 119.8 73.82 120.667 73.82C121.813 73.82 122.7 73.3867 123.327 72.52L124.747 72.98C124.333 73.6733 123.767 74.22 123.047 74.62C122.327 75.0067 121.533 75.2 120.667 75.2C119.28 75.2 118.133 74.7533 117.227 73.86C116.32 72.9533 115.867 71.8333 115.867 70.5C115.867 69.1667 116.313 68.0533 117.207 67.16C118.113 66.2533 119.22 65.8 120.527 65.8C121.833 65.8 122.927 66.2533 123.807 67.16C124.7 68.0533 125.147 69.1667 125.147 70.5C125.147 70.7 125.133 70.8667 125.107 71ZM117.407 69.82H123.627C123.48 69.0467 123.113 68.4133 122.527 67.92C121.953 67.4267 121.273 67.18 120.487 67.18C119.727 67.18 119.06 67.4267 118.487 67.92C117.913 68.4133 117.553 69.0467 117.407 69.82ZM134.043 76.42L134.723 74.76L131.143 66H132.663L135.463 72.98L138.363 66H139.883L135.303 76.92C134.929 77.8133 134.469 78.4667 133.923 78.88C133.389 79.2933 132.716 79.5 131.903 79.5H131.563V78.08H131.903C132.863 78.08 133.576 77.5267 134.043 76.42ZM145.169 75.2C143.822 75.2 142.702 74.7533 141.809 73.86C140.916 72.9667 140.469 71.8467 140.469 70.5C140.469 69.1533 140.916 68.0333 141.809 67.14C142.702 66.2467 143.822 65.8 145.169 65.8C146.502 65.8 147.616 66.2467 148.509 67.14C149.416 68.0467 149.869 69.1667 149.869 70.5C149.869 71.8333 149.416 72.9533 148.509 73.86C147.616 74.7533 146.502 75.2 145.169 75.2ZM145.169 67.28C144.262 67.28 143.509 67.5867 142.909 68.2C142.309 68.8133 142.009 69.58 142.009 70.5C142.009 71.42 142.309 72.1867 142.909 72.8C143.509 73.4133 144.262 73.72 145.169 73.72C146.076 73.72 146.829 73.4133 147.429 72.8C148.029 72.1867 148.329 71.42 148.329 70.5C148.329 69.58 148.029 68.8133 147.429 68.2C146.829 67.5867 146.076 67.28 145.169 67.28ZM151.766 71.62V66H153.246V71.22C153.246 71.9533 153.486 72.5667 153.966 73.06C154.459 73.54 155.073 73.78 155.806 73.78C156.606 73.78 157.259 73.5333 157.766 73.04C158.299 72.5467 158.566 71.9333 158.566 71.2V66H160.046V75H158.566V73.52C157.886 74.64 156.826 75.2 155.386 75.2C154.346 75.2 153.479 74.86 152.786 74.18C152.106 73.5 151.766 72.6467 151.766 71.62ZM163.928 69.92V75H162.468V66H163.928V67.52C164.608 66.3733 165.668 65.8 167.108 65.8H167.368V67.44C167.141 67.3733 166.921 67.34 166.708 67.34C165.921 67.34 165.261 67.5867 164.728 68.08C164.194 68.5733 163.928 69.1867 163.928 69.92ZM182.584 68.52L181.104 68.98C180.851 68.46 180.478 68.0467 179.984 67.74C179.491 67.4333 178.931 67.28 178.304 67.28C177.398 67.28 176.644 67.5867 176.044 68.2C175.444 68.8133 175.144 69.58 175.144 70.5C175.144 71.42 175.444 72.1867 176.044 72.8C176.644 73.4133 177.398 73.72 178.304 73.72C178.931 73.72 179.491 73.5667 179.984 73.26C180.478 72.9533 180.851 72.54 181.104 72.02L182.584 72.48C182.224 73.32 181.658 73.9867 180.884 74.48C180.124 74.96 179.264 75.2 178.304 75.2C176.958 75.2 175.838 74.7533 174.944 73.86C174.051 72.9667 173.604 71.8467 173.604 70.5C173.604 69.1533 174.051 68.0333 174.944 67.14C175.838 66.2467 176.958 65.8 178.304 65.8C179.264 65.8 180.124 66.0467 180.884 66.54C181.658 67.02 182.224 67.68 182.584 68.52ZM185.815 69.92V75H184.355V66H185.815V67.52C186.495 66.3733 187.555 65.8 188.995 65.8H189.255V67.44C189.029 67.3733 188.809 67.34 188.595 67.34C187.809 67.34 187.149 67.5867 186.615 68.08C186.082 68.5733 185.815 69.1867 185.815 69.92ZM199.226 71H191.506C191.6 71.8 191.953 72.4733 192.566 73.02C193.18 73.5533 193.92 73.82 194.786 73.82C195.933 73.82 196.82 73.3867 197.446 72.52L198.866 72.98C198.453 73.6733 197.886 74.22 197.166 74.62C196.446 75.0067 195.653 75.2 194.786 75.2C193.4 75.2 192.253 74.7533 191.346 73.86C190.44 72.9533 189.986 71.8333 189.986 70.5C189.986 69.1667 190.433 68.0533 191.326 67.16C192.233 66.2533 193.34 65.8 194.646 65.8C195.953 65.8 197.046 66.2533 197.926 67.16C198.82 68.0533 199.266 69.1667 199.266 70.5C199.266 70.7 199.253 70.8667 199.226 71ZM191.526 69.82H197.746C197.6 69.0467 197.233 68.4133 196.646 67.92C196.073 67.4267 195.393 67.18 194.606 67.18C193.846 67.18 193.18 67.4267 192.606 67.92C192.033 68.4133 191.673 69.0467 191.526 69.82ZM205.049 65.8C206.369 65.8 207.456 66.28 208.309 67.24V66H209.789V75H208.309V73.76C207.456 74.72 206.369 75.2 205.049 75.2C203.782 75.2 202.722 74.7533 201.869 73.86C201.029 72.9667 200.609 71.8467 200.609 70.5C200.609 69.18 201.029 68.0667 201.869 67.16C202.736 66.2533 203.796 65.8 205.049 65.8ZM207.389 68.2C206.816 67.5867 206.089 67.28 205.209 67.28C204.329 67.28 203.602 67.5867 203.029 68.2C202.442 68.8267 202.149 69.5933 202.149 70.5C202.149 71.4067 202.442 72.1733 203.029 72.8C203.602 73.4133 204.329 73.72 205.209 73.72C206.089 73.72 206.816 73.4133 207.389 72.8C207.976 72.1733 208.269 71.4067 208.269 70.5C208.269 69.5933 207.976 68.8267 207.389 68.2ZM211.2 67.3V66H212.66V64.14H214.12V66H216.68V67.3H214.12V72.16C214.12 72.5733 214.24 72.9133 214.48 73.18C214.734 73.4467 215.047 73.58 215.42 73.58H216.68V75H215.32C214.56 75 213.927 74.7467 213.42 74.24C212.914 73.7067 212.66 73.0733 212.66 72.34V67.3H211.2ZM219.967 75H218.487V66H219.967V75ZM218.207 63.06C218.18 62.6467 218.34 62.36 218.687 62.2C219.047 62.0267 219.4 62.0267 219.747 62.2C220.107 62.36 220.267 62.6467 220.227 63.06C220.227 63.3533 220.133 63.6 219.947 63.8C219.76 63.9867 219.52 64.08 219.227 64.08C218.933 64.08 218.687 63.9867 218.487 63.8C218.3 63.6133 218.207 63.3667 218.207 63.06ZM226.591 75.2C225.244 75.2 224.124 74.7533 223.231 73.86C222.338 72.9667 221.891 71.8467 221.891 70.5C221.891 69.1533 222.338 68.0333 223.231 67.14C224.124 66.2467 225.244 65.8 226.591 65.8C227.924 65.8 229.038 66.2467 229.931 67.14C230.838 68.0467 231.291 69.1667 231.291 70.5C231.291 71.8333 230.838 72.9533 229.931 73.86C229.038 74.7533 227.924 75.2 226.591 75.2ZM226.591 67.28C225.684 67.28 224.931 67.5867 224.331 68.2C223.731 68.8133 223.431 69.58 223.431 70.5C223.431 71.42 223.731 72.1867 224.331 72.8C224.931 73.4133 225.684 73.72 226.591 73.72C227.498 73.72 228.251 73.4133 228.851 72.8C229.451 72.1867 229.751 71.42 229.751 70.5C229.751 69.58 229.451 68.8133 228.851 68.2C228.251 67.5867 227.498 67.28 226.591 67.28ZM233.228 75V66H234.688V67.5C235.341 66.3667 236.401 65.8 237.868 65.8C238.921 65.8 239.788 66.14 240.468 66.82C241.161 67.5 241.508 68.3533 241.508 69.38V75H240.028V69.78C240.028 69.0467 239.781 68.44 239.288 67.96C238.808 67.4667 238.201 67.22 237.468 67.22C236.681 67.22 236.021 67.4667 235.488 67.96C234.955 68.4533 234.688 69.0667 234.688 69.8V75H233.228ZM249.063 75V60.5H250.523V67.5C251.216 66.3667 252.29 65.8 253.743 65.8C254.796 65.8 255.663 66.1467 256.343 66.84C257.036 67.52 257.383 68.3733 257.383 69.4V75H255.903V69.78C255.903 69.0467 255.656 68.44 255.163 67.96C254.67 67.4667 254.056 67.22 253.323 67.22C252.523 67.22 251.856 67.4667 251.323 67.96C250.79 68.4533 250.523 69.0667 250.523 69.8V75H249.063ZM263.984 75.2C262.637 75.2 261.517 74.7533 260.624 73.86C259.731 72.9667 259.284 71.8467 259.284 70.5C259.284 69.1533 259.731 68.0333 260.624 67.14C261.517 66.2467 262.637 65.8 263.984 65.8C265.317 65.8 266.431 66.2467 267.324 67.14C268.231 68.0467 268.684 69.1667 268.684 70.5C268.684 71.8333 268.231 72.9533 267.324 73.86C266.431 74.7533 265.317 75.2 263.984 75.2ZM263.984 67.28C263.077 67.28 262.324 67.5867 261.724 68.2C261.124 68.8133 260.824 69.58 260.824 70.5C260.824 71.42 261.124 72.1867 261.724 72.8C262.324 73.4133 263.077 73.72 263.984 73.72C264.891 73.72 265.644 73.4133 266.244 72.8C266.844 72.1867 267.144 71.42 267.144 70.5C267.144 69.58 266.844 68.8133 266.244 68.2C265.644 67.5867 264.891 67.28 263.984 67.28ZM272.081 75H270.621V60.5H272.081V75ZM278.465 65.8C279.785 65.8 280.872 66.28 281.725 67.24V60.5H283.185V75H281.725V73.76C280.872 74.72 279.785 75.2 278.465 75.2C277.199 75.2 276.139 74.7533 275.285 73.86C274.445 72.9667 274.025 71.8467 274.025 70.5C274.025 69.18 274.445 68.0667 275.285 67.16C276.152 66.2533 277.212 65.8 278.465 65.8ZM280.805 68.2C280.232 67.5867 279.505 67.28 278.625 67.28C277.745 67.28 277.019 67.5867 276.445 68.2C275.859 68.8267 275.565 69.5933 275.565 70.5C275.565 71.4067 275.859 72.1733 276.445 72.8C277.019 73.4133 277.745 73.72 278.625 73.72C279.505 73.72 280.232 73.4133 280.805 72.8C281.392 72.1733 281.685 71.4067 281.685 70.5C281.685 69.5933 281.392 68.8267 280.805 68.2ZM291.717 67.96L290.337 68.22C290.243 67.8867 290.023 67.62 289.677 67.42C289.343 67.2067 288.923 67.1 288.417 67.1C287.923 67.1 287.51 67.2067 287.177 67.42C286.857 67.6333 286.697 67.9133 286.697 68.26C286.697 68.7533 287.017 69.1067 287.657 69.32L289.837 70.1C291.21 70.5933 291.897 71.4133 291.897 72.56C291.897 73.3867 291.583 74.0333 290.957 74.5C290.33 74.9667 289.517 75.2 288.517 75.2C287.557 75.2 286.763 74.9867 286.137 74.56C285.51 74.12 285.137 73.54 285.017 72.82L286.417 72.6C286.497 72.9867 286.73 73.3 287.117 73.54C287.503 73.78 287.977 73.9 288.537 73.9C289.097 73.9 289.557 73.78 289.917 73.54C290.29 73.3 290.477 72.9867 290.477 72.6C290.477 72.08 290.083 71.68 289.297 71.4L287.177 70.66C285.91 70.1933 285.277 69.4333 285.277 68.38C285.277 67.5667 285.57 66.9333 286.157 66.48C286.757 66.0267 287.543 65.8 288.517 65.8C289.383 65.8 290.103 66 290.677 66.4C291.25 66.7867 291.597 67.3067 291.717 67.96ZM0.28 87.3V86H1.74V84.14H3.2V86H5.76V87.3H3.2V92.16C3.2 92.5733 3.32 92.9133 3.56 93.18C3.81333 93.4467 4.12667 93.58 4.5 93.58H5.76V95H4.4C3.64 95 3.00667 94.7467 2.5 94.24C1.99333 93.7067 1.74 93.0733 1.74 92.34V87.3H0.28ZM7.56625 95V80.5H9.02625V87.5C9.71958 86.3667 10.7929 85.8 12.2463 85.8C13.2996 85.8 14.1663 86.1467 14.8463 86.84C15.5396 87.52 15.8863 88.3733 15.8863 89.4V95H14.4063V89.78C14.4063 89.0467 14.1596 88.44 13.6663 87.96C13.1729 87.4667 12.5596 87.22 11.8263 87.22C11.0263 87.22 10.3596 87.4667 9.82625 87.96C9.29292 88.4533 9.02625 89.0667 9.02625 89.8V95H7.56625ZM27.027 91H19.307C19.4004 91.8 19.7537 92.4733 20.367 93.02C20.9804 93.5533 21.7204 93.82 22.587 93.82C23.7337 93.82 24.6204 93.3867 25.247 92.52L26.667 92.98C26.2537 93.6733 25.687 94.22 24.967 94.62C24.247 95.0067 23.4537 95.2 22.587 95.2C21.2004 95.2 20.0537 94.7533 19.147 93.86C18.2404 92.9533 17.787 91.8333 17.787 90.5C17.787 89.1667 18.2337 88.0533 19.127 87.16C20.0337 86.2533 21.1404 85.8 22.447 85.8C23.7537 85.8 24.847 86.2533 25.727 87.16C26.6204 88.0533 27.067 89.1667 27.067 90.5C27.067 90.7 27.0537 90.8667 27.027 91ZM19.327 89.82H25.547C25.4004 89.0467 25.0337 88.4133 24.447 87.92C23.8737 87.4267 23.1937 87.18 22.407 87.18C21.647 87.18 20.9804 87.4267 20.407 87.92C19.8337 88.4133 19.4737 89.0467 19.327 89.82ZM34.0631 95V80.5H35.5231V95H34.0631ZM41.5031 95H39.6631L35.6231 90.34L39.3031 86H41.1231L37.4431 90.34L41.5031 95ZM51.2583 91H43.5383C43.6316 91.8 43.9849 92.4733 44.5983 93.02C45.2116 93.5533 45.9516 93.82 46.8183 93.82C47.9649 93.82 48.8516 93.3867 49.4783 92.52L50.8983 92.98C50.4849 93.6733 49.9183 94.22 49.1983 94.62C48.4783 95.0067 47.6849 95.2 46.8183 95.2C45.4316 95.2 44.2849 94.7533 43.3783 93.86C42.4716 92.9533 42.0183 91.8333 42.0183 90.5C42.0183 89.1667 42.4649 88.0533 43.3583 87.16C44.2649 86.2533 45.3716 85.8 46.6783 85.8C47.9849 85.8 49.0783 86.2533 49.9583 87.16C50.8516 88.0533 51.2983 89.1667 51.2983 90.5C51.2983 90.7 51.2849 90.8667 51.2583 91ZM43.5583 89.82H49.7783C49.6316 89.0467 49.2649 88.4133 48.6783 87.92C48.1049 87.4267 47.4249 87.18 46.6383 87.18C45.8783 87.18 45.2116 87.4267 44.6383 87.92C44.0649 88.4133 43.7049 89.0467 43.5583 89.82ZM54.6694 96.42L55.3494 94.76L51.7694 86H53.2894L56.0894 92.98L58.9894 86H60.5094L55.9294 96.92C55.556 97.8133 55.096 98.4667 54.5494 98.88C54.016 99.2933 53.3427 99.5 52.5294 99.5H52.1894V98.08H52.5294C53.4894 98.08 54.2027 97.5267 54.6694 96.42ZM66.1206 87.3V86H67.5806V84.14H69.0406V86H71.6006V87.3H69.0406V92.16C69.0406 92.5733 69.1606 92.9133 69.4006 93.18C69.654 93.4467 69.9673 93.58 70.3406 93.58H71.6006V95H70.2406C69.4806 95 68.8473 94.7467 68.3406 94.24C67.834 93.7067 67.5806 93.0733 67.5806 92.34V87.3H66.1206ZM77.5487 95.2C76.2021 95.2 75.0821 94.7533 74.1887 93.86C73.2954 92.9667 72.8487 91.8467 72.8487 90.5C72.8487 89.1533 73.2954 88.0333 74.1887 87.14C75.0821 86.2467 76.2021 85.8 77.5487 85.8C78.8821 85.8 79.9954 86.2467 80.8887 87.14C81.7954 88.0467 82.2487 89.1667 82.2487 90.5C82.2487 91.8333 81.7954 92.9533 80.8887 93.86C79.9954 94.7533 78.8821 95.2 77.5487 95.2ZM77.5487 87.28C76.6421 87.28 75.8887 87.5867 75.2887 88.2C74.6887 88.8133 74.3887 89.58 74.3887 90.5C74.3887 91.42 74.6887 92.1867 75.2887 92.8C75.8887 93.4133 76.6421 93.72 77.5487 93.72C78.4554 93.72 79.2087 93.4133 79.8087 92.8C80.4087 92.1867 80.7087 91.42 80.7087 90.5C80.7087 89.58 80.4087 88.8133 79.8087 88.2C79.2087 87.5867 78.4554 87.28 77.5487 87.28ZM95.4792 87.96L94.0992 88.22C94.0059 87.8867 93.7859 87.62 93.4392 87.42C93.1059 87.2067 92.6859 87.1 92.1792 87.1C91.6859 87.1 91.2726 87.2067 90.9392 87.42C90.6192 87.6333 90.4592 87.9133 90.4592 88.26C90.4592 88.7533 90.7792 89.1067 91.4192 89.32L93.5992 90.1C94.9726 90.5933 95.6592 91.4133 95.6592 92.56C95.6592 93.3867 95.3459 94.0333 94.7192 94.5C94.0926 94.9667 93.2792 95.2 92.2792 95.2C91.3192 95.2 90.5259 94.9867 89.8992 94.56C89.2726 94.12 88.8992 93.54 88.7792 92.82L90.1792 92.6C90.2592 92.9867 90.4926 93.3 90.8792 93.54C91.2659 93.78 91.7392 93.9 92.2992 93.9C92.8592 93.9 93.3192 93.78 93.6792 93.54C94.0526 93.3 94.2392 92.9867 94.2392 92.6C94.2392 92.08 93.8459 91.68 93.0592 91.4L90.9392 90.66C89.6726 90.1933 89.0392 89.4333 89.0392 88.38C89.0392 87.5667 89.3326 86.9333 89.9192 86.48C90.5192 86.0267 91.3059 85.8 92.2792 85.8C93.1459 85.8 93.8659 86 94.4392 86.4C95.0126 86.7867 95.3592 87.3067 95.4792 87.96ZM101.8 95.2C100.453 95.2 99.3329 94.7533 98.4395 93.86C97.5462 92.9667 97.0995 91.8467 97.0995 90.5C97.0995 89.1533 97.5462 88.0333 98.4395 87.14C99.3329 86.2467 100.453 85.8 101.8 85.8C103.133 85.8 104.246 86.2467 105.14 87.14C106.046 88.0467 106.5 89.1667 106.5 90.5C106.5 91.8333 106.046 92.9533 105.14 93.86C104.246 94.7533 103.133 95.2 101.8 95.2ZM101.8 87.28C100.893 87.28 100.14 87.5867 99.5395 88.2C98.9395 88.8133 98.6395 89.58 98.6395 90.5C98.6395 91.42 98.9395 92.1867 99.5395 92.8C100.14 93.4133 100.893 93.72 101.8 93.72C102.706 93.72 103.46 93.4133 104.06 92.8C104.66 92.1867 104.96 91.42 104.96 90.5C104.96 89.58 104.66 88.8133 104.06 88.2C103.46 87.5867 102.706 87.28 101.8 87.28ZM109.897 95H108.437V80.5H109.897V95ZM115.181 95L111.321 86H112.841L115.861 93.12L118.881 86H120.401L116.541 95H115.181ZM123.31 95H121.83V86H123.31V95ZM121.55 83.06C121.524 82.6467 121.684 82.36 122.03 82.2C122.39 82.0267 122.744 82.0267 123.09 82.2C123.45 82.36 123.61 82.6467 123.57 83.06C123.57 83.3533 123.477 83.6 123.29 83.8C123.104 83.9867 122.864 84.08 122.57 84.08C122.277 84.08 122.03 83.9867 121.83 83.8C121.644 83.6133 121.55 83.3667 121.55 83.06ZM125.715 95V86H127.175V87.5C127.828 86.3667 128.888 85.8 130.355 85.8C131.408 85.8 132.275 86.14 132.955 86.82C133.648 87.5 133.995 88.3533 133.995 89.38V95H132.515V89.78C132.515 89.0467 132.268 88.44 131.775 87.96C131.295 87.4667 130.688 87.22 129.955 87.22C129.168 87.22 128.508 87.4667 127.975 87.96C127.441 88.4533 127.175 89.0667 127.175 89.8V95H125.715ZM140.336 95.2C139.07 95.2 138.01 94.7533 137.156 93.86C136.316 92.9667 135.896 91.8467 135.896 90.5C135.896 89.18 136.316 88.0667 137.156 87.16C138.023 86.2533 139.083 85.8 140.336 85.8C141.656 85.8 142.743 86.28 143.596 87.24V86H145.056V95.16C145.056 96.4667 144.616 97.5467 143.736 98.4C142.87 99.2667 141.783 99.7 140.476 99.7C139.57 99.7 138.73 99.48 137.956 99.04C137.196 98.6 136.643 98.0267 136.296 97.32L137.776 96.86C138.003 97.2733 138.356 97.6067 138.836 97.86C139.33 98.1133 139.856 98.24 140.416 98.24C141.31 98.24 142.07 97.9467 142.696 97.36C143.323 96.7733 143.623 96.04 143.596 95.16V93.76C142.743 94.72 141.656 95.2 140.336 95.2ZM142.676 88.2C142.103 87.5867 141.376 87.28 140.496 87.28C139.616 87.28 138.89 87.5867 138.316 88.2C137.73 88.8267 137.436 89.5933 137.436 90.5C137.436 91.4067 137.73 92.1733 138.316 92.8C138.89 93.4133 139.616 93.72 140.496 93.72C141.376 93.72 142.103 93.4133 142.676 92.8C143.263 92.1733 143.556 91.4067 143.556 90.5C143.556 89.5933 143.263 88.8267 142.676 88.2ZM156.601 85.8C157.921 85.8 159.008 86.28 159.861 87.24V86H161.341V95H159.861V93.76C159.008 94.72 157.921 95.2 156.601 95.2C155.335 95.2 154.275 94.7533 153.421 93.86C152.581 92.9667 152.161 91.8467 152.161 90.5C152.161 89.18 152.581 88.0667 153.421 87.16C154.288 86.2533 155.348 85.8 156.601 85.8ZM158.941 88.2C158.368 87.5867 157.641 87.28 156.761 87.28C155.881 87.28 155.155 87.5867 154.581 88.2C153.995 88.8267 153.701 89.5933 153.701 90.5C153.701 91.4067 153.995 92.1733 154.581 92.8C155.155 93.4133 155.881 93.72 156.761 93.72C157.641 93.72 158.368 93.4133 158.941 92.8C159.528 92.1733 159.821 91.4067 159.821 90.5C159.821 89.5933 159.528 88.8267 158.941 88.2ZM170.366 89.92V95H168.906V86H170.366V87.52C171.046 86.3733 172.106 85.8 173.546 85.8H173.806V87.44C173.579 87.3733 173.359 87.34 173.146 87.34C172.359 87.34 171.699 87.5867 171.166 88.08C170.633 88.5733 170.366 89.1867 170.366 89.92ZM183.777 91H176.057C176.15 91.8 176.504 92.4733 177.117 93.02C177.73 93.5533 178.47 93.82 179.337 93.82C180.484 93.82 181.37 93.3867 181.997 92.52L183.417 92.98C183.004 93.6733 182.437 94.22 181.717 94.62C180.997 95.0067 180.204 95.2 179.337 95.2C177.95 95.2 176.804 94.7533 175.897 93.86C174.99 92.9533 174.537 91.8333 174.537 90.5C174.537 89.1667 174.984 88.0533 175.877 87.16C176.784 86.2533 177.89 85.8 179.197 85.8C180.504 85.8 181.597 86.2533 182.477 87.16C183.37 88.0533 183.817 89.1667 183.817 90.5C183.817 90.7 183.804 90.8667 183.777 91ZM176.077 89.82H182.297C182.15 89.0467 181.784 88.4133 181.197 87.92C180.624 87.4267 179.944 87.18 179.157 87.18C178.397 87.18 177.73 87.4267 177.157 87.92C176.584 88.4133 176.224 89.0467 176.077 89.82ZM189.6 85.8C190.92 85.8 192.006 86.28 192.86 87.24V86H194.34V95H192.86V93.76C192.006 94.72 190.92 95.2 189.6 95.2C188.333 95.2 187.273 94.7533 186.42 93.86C185.58 92.9667 185.16 91.8467 185.16 90.5C185.16 89.18 185.58 88.0667 186.42 87.16C187.286 86.2533 188.346 85.8 189.6 85.8ZM191.94 88.2C191.366 87.5867 190.64 87.28 189.76 87.28C188.88 87.28 188.153 87.5867 187.58 88.2C186.993 88.8267 186.7 89.5933 186.7 90.5C186.7 91.4067 186.993 92.1733 187.58 92.8C188.153 93.4133 188.88 93.72 189.76 93.72C190.64 93.72 191.366 93.4133 191.94 92.8C192.526 92.1733 192.82 91.4067 192.82 90.5C192.82 89.5933 192.526 88.8267 191.94 88.2ZM198.191 95H196.731V80.5H198.191V95ZM200.695 91.18V89.82H205.755V91.18H200.695ZM211.59 95H210.31L207.25 86H208.73L210.93 92.74L213.11 86H214.41L216.57 92.72L218.79 86H220.27L217.21 95H215.91L213.75 88.44L211.59 95ZM225.534 95.2C224.187 95.2 223.067 94.7533 222.174 93.86C221.281 92.9667 220.834 91.8467 220.834 90.5C220.834 89.1533 221.281 88.0333 222.174 87.14C223.067 86.2467 224.187 85.8 225.534 85.8C226.867 85.8 227.981 86.2467 228.874 87.14C229.781 88.0467 230.234 89.1667 230.234 90.5C230.234 91.8333 229.781 92.9533 228.874 93.86C227.981 94.7533 226.867 95.2 225.534 95.2ZM225.534 87.28C224.627 87.28 223.874 87.5867 223.274 88.2C222.674 88.8133 222.374 89.58 222.374 90.5C222.374 91.42 222.674 92.1867 223.274 92.8C223.874 93.4133 224.627 93.72 225.534 93.72C226.441 93.72 227.194 93.4133 227.794 92.8C228.394 92.1867 228.694 91.42 228.694 90.5C228.694 89.58 228.394 88.8133 227.794 88.2C227.194 87.5867 226.441 87.28 225.534 87.28ZM233.631 89.92V95H232.171V86H233.631V87.52C234.311 86.3733 235.371 85.8 236.811 85.8H237.071V87.44C236.844 87.3733 236.624 87.34 236.411 87.34C235.624 87.34 234.964 87.5867 234.431 88.08C233.898 88.5733 233.631 89.1867 233.631 89.92ZM240.074 95H238.614V80.5H240.074V95ZM246.458 85.8C247.778 85.8 248.865 86.28 249.718 87.24V80.5H251.178V95H249.718V93.76C248.865 94.72 247.778 95.2 246.458 95.2C245.192 95.2 244.132 94.7533 243.278 93.86C242.438 92.9667 242.018 91.8467 242.018 90.5C242.018 89.18 242.438 88.0667 243.278 87.16C244.145 86.2533 245.205 85.8 246.458 85.8ZM248.798 88.2C248.225 87.5867 247.498 87.28 246.618 87.28C245.738 87.28 245.012 87.5867 244.438 88.2C243.852 88.8267 243.558 89.5933 243.558 90.5C243.558 91.4067 243.852 92.1733 244.438 92.8C245.012 93.4133 245.738 93.72 246.618 93.72C247.498 93.72 248.225 93.4133 248.798 92.8C249.385 92.1733 249.678 91.4067 249.678 90.5C249.678 89.5933 249.385 88.8267 248.798 88.2ZM2.72 119.5H1.26V106H2.72V107.24C3.57333 106.28 4.66 105.8 5.98 105.8C7.24667 105.8 8.3 106.253 9.14 107.16C9.99333 108.053 10.42 109.167 10.42 110.5C10.42 111.847 9.99333 112.967 9.14 113.86C8.3 114.753 7.24667 115.2 5.98 115.2C4.66 115.2 3.57333 114.72 2.72 113.76V119.5ZM8 108.2C7.42667 107.587 6.7 107.28 5.82 107.28C4.94 107.28 4.21333 107.587 3.64 108.2C3.05333 108.827 2.76 109.593 2.76 110.5C2.76 111.407 3.05333 112.173 3.64 112.8C4.21333 113.413 4.94 113.72 5.82 113.72C6.7 113.72 7.42667 113.413 8 112.8C8.6 112.187 8.9 111.42 8.9 110.5C8.9 109.58 8.6 108.813 8 108.2ZM13.8114 109.92V115H12.3514V106H13.8114V107.52C14.4914 106.373 15.5514 105.8 16.9914 105.8H17.2514V107.44C17.0247 107.373 16.8047 107.34 16.5914 107.34C15.8047 107.34 15.1447 107.587 14.6114 108.08C14.0781 108.573 13.8114 109.187 13.8114 109.92ZM22.6823 115.2C21.3357 115.2 20.2157 114.753 19.3223 113.86C18.429 112.967 17.9823 111.847 17.9823 110.5C17.9823 109.153 18.429 108.033 19.3223 107.14C20.2157 106.247 21.3357 105.8 22.6823 105.8C24.0157 105.8 25.129 106.247 26.0223 107.14C26.929 108.047 27.3823 109.167 27.3823 110.5C27.3823 111.833 26.929 112.953 26.0223 113.86C25.129 114.753 24.0157 115.2 22.6823 115.2ZM22.6823 107.28C21.7757 107.28 21.0223 107.587 20.4223 108.2C19.8223 108.813 19.5223 109.58 19.5223 110.5C19.5223 111.42 19.8223 112.187 20.4223 112.8C21.0223 113.413 21.7757 113.72 22.6823 113.72C23.589 113.72 24.3423 113.413 24.9423 112.8C25.5423 112.187 25.8423 111.42 25.8423 110.5C25.8423 109.58 25.5423 108.813 24.9423 108.2C24.3423 107.587 23.589 107.28 22.6823 107.28ZM29.3194 115V100.5H30.7794V107.24C31.6327 106.28 32.7194 105.8 34.0394 105.8C35.306 105.8 36.3594 106.253 37.1994 107.16C38.0527 108.053 38.4794 109.167 38.4794 110.5C38.4794 111.847 38.0527 112.967 37.1994 113.86C36.3594 114.753 35.306 115.2 34.0394 115.2C32.7194 115.2 31.6327 114.72 30.7794 113.76V115H29.3194ZM36.0594 108.2C35.486 107.587 34.7594 107.28 33.8794 107.28C32.9994 107.28 32.2727 107.587 31.6994 108.2C31.1127 108.827 30.8194 109.593 30.8194 110.5C30.8194 111.407 31.1127 112.173 31.6994 112.8C32.2727 113.413 32.9994 113.72 33.8794 113.72C34.7594 113.72 35.486 113.413 36.0594 112.8C36.6594 112.187 36.9594 111.42 36.9594 110.5C36.9594 109.58 36.6594 108.813 36.0594 108.2ZM41.8708 115H40.4108V100.5H41.8708V115ZM53.0552 111H45.3352C45.4285 111.8 45.7818 112.473 46.3952 113.02C47.0085 113.553 47.7485 113.82 48.6152 113.82C49.7618 113.82 50.6485 113.387 51.2752 112.52L52.6952 112.98C52.2818 113.673 51.7152 114.22 50.9952 114.62C50.2752 115.007 49.4818 115.2 48.6152 115.2C47.2285 115.2 46.0818 114.753 45.1752 113.86C44.2685 112.953 43.8152 111.833 43.8152 110.5C43.8152 109.167 44.2618 108.053 45.1552 107.16C46.0618 106.253 47.1685 105.8 48.4752 105.8C49.7818 105.8 50.8752 106.253 51.7552 107.16C52.6485 108.053 53.0952 109.167 53.0952 110.5C53.0952 110.7 53.0818 110.867 53.0552 111ZM45.3552 109.82H51.5752C51.4285 109.047 51.0618 108.413 50.4752 107.92C49.9018 107.427 49.2218 107.18 48.4352 107.18C47.6752 107.18 47.0085 107.427 46.4352 107.92C45.8618 108.413 45.5018 109.047 45.3552 109.82ZM56.3778 115H54.9178V106H56.3778V107.32C57.0311 106.307 58.0178 105.8 59.3378 105.8C59.9778 105.8 60.5645 105.96 61.0978 106.28C61.6445 106.587 62.0578 107.007 62.3378 107.54C62.4978 107.26 62.6645 107.027 62.8378 106.84C63.0645 106.573 63.4245 106.333 63.9178 106.12C64.4245 105.907 64.9578 105.8 65.5178 105.8C66.5445 105.8 67.3845 106.12 68.0378 106.76C68.7045 107.4 69.0378 108.2 69.0378 109.16V115H67.5778V109.54C67.5778 108.887 67.3578 108.34 66.9178 107.9C66.4778 107.447 65.9245 107.22 65.2578 107.22C64.5378 107.22 63.9311 107.447 63.4378 107.9C62.9578 108.367 62.7178 108.927 62.7178 109.58V115H61.2378V109.54C61.2378 108.873 61.0178 108.32 60.5778 107.88C60.1378 107.44 59.5845 107.22 58.9178 107.22C58.1978 107.22 57.5911 107.447 57.0978 107.9C56.6178 108.367 56.3778 108.927 56.3778 109.58V115ZM76.8522 105.22C76.8522 104.54 76.5522 103.967 75.9522 103.5C75.3655 103.02 74.6455 102.78 73.7922 102.78C73.0589 102.78 72.4189 102.967 71.8722 103.34C71.3255 103.7 70.9589 104.18 70.7722 104.78L69.2122 104.32C69.5055 103.413 70.0655 102.687 70.8922 102.14C71.7189 101.58 72.6789 101.3 73.7722 101.3C75.0655 101.3 76.1655 101.68 77.0722 102.44C77.9655 103.173 78.4122 104.107 78.4122 105.24C78.4122 105.787 78.2922 106.307 78.0522 106.8C77.8122 107.28 77.5055 107.68 77.1322 108C76.7722 108.32 76.4322 108.58 76.1122 108.78C75.7922 108.98 75.4855 109.133 75.1922 109.24L74.8322 109.38L74.7522 110.94H73.3522L73.1922 108.56C73.6055 108.427 74.0255 108.253 74.4522 108.04C74.9189 107.787 75.2922 107.56 75.5722 107.36C75.9189 107.093 76.2189 106.767 76.4722 106.38C76.7255 105.993 76.8522 105.607 76.8522 105.22ZM72.9922 114.12C72.9922 113.827 73.0922 113.58 73.2922 113.38C73.4922 113.167 73.7455 113.06 74.0522 113.06C74.3589 113.06 74.6122 113.16 74.8122 113.36C75.0255 113.56 75.1322 113.813 75.1322 114.12C75.1322 114.427 75.0255 114.687 74.8122 114.9C74.6122 115.1 74.3589 115.2 74.0522 115.2C73.7455 115.2 73.4922 115.1 73.2922 114.9C73.0922 114.687 72.9922 114.427 72.9922 114.12Z" fill="white"/>
</svg>
