<svg width="899" height="129" viewBox="0 0 899 129" fill="none" xmlns="http://www.w3.org/2000/svg">
<path d="M17.224 98H0.474L39.334 7.55H52.332L91.326 98H74.576L67.072 80.178H24.728L17.224 98ZM60.908 65.572L45.9 30.196L30.892 65.572H60.908ZM145.498 98H131.026V0.849997H145.498V98ZM155.427 67.85C155.427 58.8273 158.241 51.2787 163.869 45.204C169.497 39.04 176.51 35.958 184.907 35.958C191.875 35.958 197.95 38.1467 203.131 42.524V37.7H217.469V98H203.131V93.176C197.95 97.5533 191.875 99.742 184.907 99.742C176.51 99.742 169.497 96.7047 163.869 90.63C158.241 84.5553 155.427 76.962 155.427 67.85ZM202.863 67.85C202.863 63.026 201.3 58.9167 198.173 55.522C195.047 52.1273 191.205 50.43 186.649 50.43C182.093 50.43 178.252 52.1273 175.125 55.522C171.999 58.9167 170.435 63.026 170.435 67.85C170.435 72.7633 171.999 76.9173 175.125 80.312C178.163 83.6173 182.004 85.27 186.649 85.27C191.295 85.27 195.136 83.6173 198.173 80.312C201.3 76.9173 202.863 72.7633 202.863 67.85ZM229.793 76.292V37.7H244.265V72.138C244.265 76.0687 245.56 79.374 248.151 82.054C250.831 84.6447 254.092 85.94 257.933 85.94C261.864 85.94 265.124 84.6447 267.715 82.054C270.395 79.374 271.735 76.0687 271.735 72.138V37.7H286.207V98H271.735V90.63C267.268 96.7047 261.238 99.742 253.645 99.742C246.945 99.742 241.272 97.5087 236.627 93.042C232.071 88.486 229.793 82.9027 229.793 76.292ZM298.348 98V37.7H312.82V45.07C317.286 38.9953 323.316 35.958 330.91 35.958C337.788 35.958 343.461 38.1913 347.928 42.658C352.484 47.0353 354.762 52.6187 354.762 59.408V98H340.29V63.562C340.29 59.6313 338.994 56.3707 336.404 53.78C333.813 51.1 330.552 49.76 326.622 49.76C322.78 49.76 319.52 51.1 316.84 53.78C314.16 56.46 312.82 59.7207 312.82 63.562V98H298.348ZM426.398 55.79L411.792 60.212C410.542 57.264 408.532 54.8967 405.762 53.11C403.082 51.3233 400 50.43 396.516 50.43C391.871 50.43 387.851 52.1273 384.456 55.522C381.24 58.8273 379.632 62.9367 379.632 67.85C379.632 72.7633 381.24 76.9173 384.456 80.312C387.762 83.6173 391.782 85.27 396.516 85.27C400 85.27 403.082 84.3767 405.762 82.59C408.532 80.8033 410.542 78.436 411.792 75.488L426.398 79.776C423.986 85.94 420.1 90.8087 414.74 94.382C409.47 97.9553 403.395 99.742 396.516 99.742C387.404 99.742 379.811 96.7047 373.736 90.63C367.662 84.5553 364.624 76.962 364.624 67.85C364.624 58.738 367.662 51.1447 373.736 45.07C379.811 38.9953 387.404 35.958 396.516 35.958C403.306 35.958 409.38 37.7447 414.74 41.318C420.1 44.8913 423.986 49.7153 426.398 55.79ZM434.933 98V0.849997H449.405V45.07C453.961 38.9953 460.17 35.958 468.031 35.958C474.999 35.958 480.806 38.1913 485.451 42.658C490.097 47.0353 492.419 52.6633 492.419 59.542V98H477.947V63.562C477.947 59.6313 476.607 56.3707 473.927 53.78C471.247 51.1 467.853 49.76 463.743 49.76C459.634 49.76 456.195 51.1 453.425 53.78C450.745 56.3707 449.405 59.6313 449.405 63.562V98H434.933ZM519.138 128.15H504.666V37.7H519.138V42.524C524.319 38.1467 530.394 35.958 537.362 35.958C545.759 35.958 552.727 38.9953 558.266 45.07C563.894 51.0553 566.708 58.6487 566.708 67.85C566.708 76.8727 563.894 84.466 558.266 90.63C552.727 96.7047 545.759 99.742 537.362 99.742C530.394 99.742 524.319 97.5533 519.138 93.176V128.15ZM535.486 50.43C531.019 50.43 527.222 52.1273 524.096 55.522C520.969 58.9167 519.406 63.026 519.406 67.85C519.406 72.7633 520.969 76.9173 524.096 80.312C527.133 83.6173 530.93 85.27 535.486 85.27C540.131 85.27 543.972 83.6173 547.01 80.312C550.136 76.9173 551.7 72.7633 551.7 67.85C551.7 63.026 550.136 58.9167 547.01 55.522C543.883 52.1273 540.042 50.43 535.486 50.43ZM574.345 67.85C574.345 58.8273 577.159 51.2787 582.787 45.204C588.415 39.04 595.427 35.958 603.825 35.958C610.793 35.958 616.867 38.1467 622.049 42.524V37.7H636.387V98H622.049V93.176C616.867 97.5533 610.793 99.742 603.825 99.742C595.427 99.742 588.415 96.7047 582.787 90.63C577.159 84.5553 574.345 76.962 574.345 67.85ZM621.781 67.85C621.781 63.026 620.217 58.9167 617.091 55.522C613.964 52.1273 610.123 50.43 605.567 50.43C601.011 50.43 597.169 52.1273 594.043 55.522C590.916 58.9167 589.353 63.026 589.353 67.85C589.353 72.7633 590.916 76.9173 594.043 80.312C597.08 83.6173 600.921 85.27 605.567 85.27C610.212 85.27 614.053 83.6173 617.091 80.312C620.217 76.9173 621.781 72.7633 621.781 67.85ZM646.433 67.85C646.433 58.8273 649.247 51.2787 654.875 45.204C660.503 39.04 667.515 35.958 675.913 35.958C682.881 35.958 688.955 38.1467 694.137 42.524V0.849997H708.475V98H694.137V93.176C688.955 97.5533 682.881 99.742 675.913 99.742C667.515 99.742 660.503 96.7047 654.875 90.63C649.247 84.5553 646.433 76.962 646.433 67.85ZM693.869 67.85C693.869 63.026 692.305 58.9167 689.179 55.522C686.052 52.1273 682.211 50.43 677.655 50.43C673.099 50.43 669.257 52.1273 666.131 55.522C663.004 58.9167 661.441 63.026 661.441 67.85C661.441 72.7633 663.004 76.9173 666.131 80.312C669.168 83.6173 673.009 85.27 677.655 85.27C682.3 85.27 686.141 83.6173 689.179 80.312C692.305 76.9173 693.869 72.7633 693.869 67.85ZM771.728 22.022V37.7H786.2V50.296H771.728V98H757.39V50.296H748.144V37.7H757.39V20.012C757.39 14.5627 759.355 10.0067 763.286 6.344C767.216 2.68133 772.13 0.849997 778.026 0.849997H786.2V14.786H779.232C777.088 14.786 775.301 15.5007 773.872 16.93C772.442 18.27 771.728 19.9673 771.728 22.022ZM821.833 35.958C830.945 35.958 838.539 38.9953 844.613 45.07C850.688 51.1447 853.725 58.738 853.725 67.85C853.725 76.962 850.688 84.5553 844.613 90.63C838.539 96.7047 830.945 99.742 821.833 99.742C812.632 99.742 804.994 96.7047 798.919 90.63C792.845 84.5553 789.807 76.962 789.807 67.85C789.807 58.738 792.845 51.1447 798.919 45.07C804.994 38.9953 812.632 35.958 821.833 35.958ZM821.833 85.27C826.568 85.27 830.543 83.6173 833.759 80.312C836.975 76.9173 838.583 72.7633 838.583 67.85C838.583 62.9367 836.975 58.8273 833.759 55.522C830.543 52.1273 826.568 50.43 821.833 50.43C817.099 50.43 813.034 52.1273 809.639 55.522C806.423 58.8273 804.815 62.9367 804.815 67.85C804.815 72.7633 806.423 76.9173 809.639 80.312C812.945 83.6173 817.009 85.27 821.833 85.27ZM878.122 37.7V45.07C882.588 38.9953 888.618 35.958 896.212 35.958C897.194 35.958 897.82 36.0027 898.088 36.092V52.038C896.033 51.234 894.023 50.832 892.058 50.832C888.127 50.832 884.822 52.172 882.142 54.852C879.462 57.532 878.122 60.8373 878.122 64.768V98H863.65V37.7H878.122Z" fill="#1E1E1E"/>
</svg>
