<svg width="908" height="129" viewBox="0 0 908 129" fill="none" xmlns="http://www.w3.org/2000/svg">
<path d="M48.8809 52.172L35.3469 54.45C34.2749 50.43 30.7462 48.42 24.7609 48.42C22.2595 48.42 20.2049 48.9113 18.5969 49.894C17.0782 50.7873 16.3189 52.038 16.3189 53.646C16.3189 55.79 18.1055 57.4427 21.6789 58.604L34.0069 62.758C39.5455 64.7233 43.5655 67.1353 46.0669 69.994C48.5682 72.8527 49.8189 76.4707 49.8189 80.848C49.8189 86.8333 47.6302 91.4787 43.2529 94.784C38.8755 98.0893 33.1135 99.742 25.9669 99.742C18.8202 99.742 13.0582 98.1787 8.68087 95.052C4.30354 91.9253 1.71287 87.5927 0.908871 82.054L14.4429 80.044C15.6935 84.7787 19.6689 87.146 26.3689 87.146C29.2275 87.146 31.5502 86.6547 33.3369 85.672C35.1235 84.6 36.0169 83.1707 36.0169 81.384C36.0169 78.972 33.7835 77.0067 29.3169 75.488L16.9889 71.602C11.8969 69.9047 8.18954 67.7607 5.86687 65.17C3.63354 62.49 2.51687 59.006 2.51687 54.718C2.51687 48.6433 4.6162 43.998 8.81487 40.782C13.0135 37.566 18.6862 35.958 25.8329 35.958C32.2649 35.958 37.5355 37.432 41.6449 40.38C45.7542 43.2387 48.1662 47.1693 48.8809 52.172ZM53.9781 50.296V37.7H62.5541V25.908H77.0261V37.7H92.5701V50.296H77.0261V76.828C77.0261 78.972 77.7408 80.7587 79.1701 82.188C80.5994 83.528 82.3414 84.198 84.3961 84.198H92.5701V98H83.1901C77.4728 98 72.5594 96.1687 68.4501 92.506C64.5194 88.8433 62.5541 84.332 62.5541 78.972V50.296H53.9781ZM99.3057 67.85C99.3057 58.8273 102.12 51.2787 107.748 45.204C113.376 39.04 120.388 35.958 128.786 35.958C135.754 35.958 141.828 38.1467 147.01 42.524V37.7H161.348V98H147.01V93.176C141.828 97.5533 135.754 99.742 128.786 99.742C120.388 99.742 113.376 96.7047 107.748 90.63C102.12 84.5553 99.3057 76.962 99.3057 67.85ZM146.742 67.85C146.742 63.026 145.178 58.9167 142.052 55.522C138.925 52.1273 135.084 50.43 130.528 50.43C125.972 50.43 122.13 52.1273 119.004 55.522C115.877 58.9167 114.314 63.026 114.314 67.85C114.314 72.7633 115.877 76.9173 119.004 80.312C122.041 83.6173 125.882 85.27 130.528 85.27C135.173 85.27 139.014 83.6173 142.052 80.312C145.178 76.9173 146.742 72.7633 146.742 67.85ZM188.144 37.7V45.07C192.61 38.9953 198.64 35.958 206.234 35.958C207.216 35.958 207.842 36.0027 208.11 36.092V52.038C206.055 51.234 204.045 50.832 202.08 50.832C198.149 50.832 194.844 52.172 192.164 54.852C189.484 57.532 188.144 60.8373 188.144 64.768V98H173.672V37.7H188.144ZM210.701 50.296V37.7H219.277V25.908H233.749V37.7H249.293V50.296H233.749V76.828C233.749 78.972 234.463 80.7587 235.893 82.188C237.322 83.528 239.064 84.198 241.119 84.198H249.293V98H239.913C234.195 98 229.282 96.1687 225.173 92.506C221.242 88.8433 219.277 84.332 219.277 78.972V50.296H210.701ZM258.306 76.292V37.7H272.778V72.138C272.778 76.0687 274.073 79.374 276.664 82.054C279.344 84.6447 282.605 85.94 286.446 85.94C290.377 85.94 293.637 84.6447 296.228 82.054C298.908 79.374 300.248 76.0687 300.248 72.138V37.7H314.72V98H300.248V90.63C295.781 96.7047 289.751 99.742 282.158 99.742C275.458 99.742 269.785 97.5087 265.14 93.042C260.584 88.486 258.306 82.9027 258.306 76.292ZM341.333 128.15H326.861V37.7H341.333V42.524C346.514 38.1467 352.589 35.958 359.557 35.958C367.954 35.958 374.922 38.9953 380.461 45.07C386.089 51.0553 388.903 58.6487 388.903 67.85C388.903 76.8727 386.089 84.466 380.461 90.63C374.922 96.7047 367.954 99.742 359.557 99.742C352.589 99.742 346.514 97.5533 341.333 93.176V128.15ZM357.681 50.43C353.214 50.43 349.417 52.1273 346.291 55.522C343.164 58.9167 341.601 63.026 341.601 67.85C341.601 72.7633 343.164 76.9173 346.291 80.312C349.328 83.6173 353.125 85.27 357.681 85.27C362.326 85.27 366.167 83.6173 369.205 80.312C372.331 76.9173 373.895 72.7633 373.895 67.85C373.895 63.026 372.331 58.9167 369.205 55.522C366.078 52.1273 362.237 50.43 357.681 50.43ZM449.878 22.022V37.7H464.35V50.296H449.878V98H435.54V50.296H426.294V37.7H435.54V20.012C435.54 14.5627 437.505 10.0067 441.436 6.344C445.367 2.68133 450.28 0.849997 456.176 0.849997H464.35V14.786H457.382C455.238 14.786 453.451 15.5007 452.022 16.93C450.593 18.27 449.878 19.9673 449.878 22.022ZM499.983 35.958C509.095 35.958 516.689 38.9953 522.764 45.07C528.838 51.1447 531.875 58.738 531.875 67.85C531.875 76.962 528.838 84.5553 522.764 90.63C516.689 96.7047 509.095 99.742 499.983 99.742C490.782 99.742 483.144 96.7047 477.069 90.63C470.995 84.5553 467.957 76.962 467.957 67.85C467.957 58.738 470.995 51.1447 477.069 45.07C483.144 38.9953 490.782 35.958 499.983 35.958ZM499.983 85.27C504.718 85.27 508.693 83.6173 511.91 80.312C515.125 76.9173 516.733 72.7633 516.733 67.85C516.733 62.9367 515.125 58.8273 511.91 55.522C508.693 52.1273 504.718 50.43 499.983 50.43C495.249 50.43 491.184 52.1273 487.789 55.522C484.573 58.8273 482.965 62.9367 482.965 67.85C482.965 72.7633 484.573 76.9173 487.789 80.312C491.095 83.6173 495.159 85.27 499.983 85.27ZM541.8 76.292V37.7H556.272V72.138C556.272 76.0687 557.567 79.374 560.158 82.054C562.838 84.6447 566.099 85.94 569.94 85.94C573.871 85.94 577.131 84.6447 579.722 82.054C582.402 79.374 583.742 76.0687 583.742 72.138V37.7H598.214V98H583.742V90.63C579.275 96.7047 573.245 99.742 565.652 99.742C558.952 99.742 553.279 97.5087 548.634 93.042C544.078 88.486 541.8 82.9027 541.8 76.292ZM610.354 98V37.7H624.826V45.07C629.293 38.9953 635.323 35.958 642.916 35.958C649.795 35.958 655.468 38.1913 659.934 42.658C664.49 47.0353 666.768 52.6187 666.768 59.408V98H652.296V63.562C652.296 59.6313 651.001 56.3707 648.41 53.78C645.82 51.1 642.559 49.76 638.628 49.76C634.787 49.76 631.526 51.1 628.846 53.78C626.166 56.46 624.826 59.7207 624.826 63.562V98H610.354ZM676.631 67.85C676.631 58.8273 679.445 51.2787 685.073 45.204C690.701 39.04 697.714 35.958 706.111 35.958C713.079 35.958 719.154 38.1467 724.335 42.524V0.849997H738.673V98H724.335V93.176C719.154 97.5533 713.079 99.742 706.111 99.742C697.714 99.742 690.701 96.7047 685.073 90.63C679.445 84.5553 676.631 76.962 676.631 67.85ZM724.067 67.85C724.067 63.026 722.504 58.9167 719.377 55.522C716.25 52.1273 712.409 50.43 707.853 50.43C703.297 50.43 699.456 52.1273 696.329 55.522C693.202 58.9167 691.639 63.026 691.639 67.85C691.639 72.7633 693.202 76.9173 696.329 80.312C699.366 83.6173 703.208 85.27 707.853 85.27C712.498 85.27 716.34 83.6173 719.377 80.312C722.504 76.9173 724.067 72.7633 724.067 67.85ZM811.434 73.21H763.596C764.668 77.1407 766.812 80.3567 770.028 82.858C773.244 85.27 776.996 86.476 781.284 86.476C787.091 86.476 791.781 84.332 795.354 80.044L809.424 84.198C806.655 89.022 802.769 92.8187 797.766 95.588C792.853 98.3573 787.359 99.742 781.284 99.742C772.083 99.742 764.311 96.7047 757.968 90.63C751.715 84.6447 748.588 77.0513 748.588 67.85C748.588 58.8273 751.625 51.2787 757.7 45.204C763.685 39.04 771.234 35.958 780.346 35.958C789.279 35.958 796.739 39.04 802.724 45.204C808.799 51.2787 811.836 58.8273 811.836 67.85C811.836 69.726 811.702 71.5127 811.434 73.21ZM763.73 61.954H796.962C795.801 58.202 793.701 55.1647 790.664 52.842C787.627 50.43 784.098 49.224 780.078 49.224C776.237 49.224 772.797 50.43 769.76 52.842C766.812 55.1647 764.802 58.202 763.73 61.954ZM835.332 37.7V45.07C839.799 38.9953 845.829 35.958 853.422 35.958C854.405 35.958 855.03 36.0027 855.298 36.092V52.038C853.243 51.234 851.233 50.832 849.268 50.832C845.337 50.832 842.032 52.172 839.352 54.852C836.672 57.532 835.332 60.8373 835.332 64.768V98H820.86V37.7H835.332ZM906.559 52.172L893.025 54.45C891.953 50.43 888.425 48.42 882.439 48.42C879.938 48.42 877.883 48.9113 876.275 49.894C874.757 50.7873 873.997 52.038 873.997 53.646C873.997 55.79 875.784 57.4427 879.357 58.604L891.685 62.758C897.224 64.7233 901.244 67.1353 903.745 69.994C906.247 72.8527 907.497 76.4707 907.497 80.848C907.497 86.8333 905.309 91.4787 900.931 94.784C896.554 98.0893 890.792 99.742 883.645 99.742C876.499 99.742 870.737 98.1787 866.359 95.052C861.982 91.9253 859.391 87.5927 858.587 82.054L872.121 80.044C873.372 84.7787 877.347 87.146 884.047 87.146C886.906 87.146 889.229 86.6547 891.015 85.672C892.802 84.6 893.695 83.1707 893.695 81.384C893.695 78.972 891.462 77.0067 886.995 75.488L874.667 71.602C869.575 69.9047 865.868 67.7607 863.545 65.17C861.312 62.49 860.195 59.006 860.195 54.718C860.195 48.6433 862.295 43.998 866.493 40.782C870.692 37.566 876.365 35.958 883.511 35.958C889.943 35.958 895.214 37.432 899.323 40.38C903.433 43.2387 905.845 47.1693 906.559 52.172Z" fill="#1E1E1E"/>
</svg>
