<svg width="495" height="67" viewBox="0 0 495 67" fill="none" xmlns="http://www.w3.org/2000/svg">
<path d="M7.824 18H5.88L0.336 1.8H2.808L6.84 14.184L10.752 1.8H12.672L16.608 14.184L20.616 1.8H23.088L17.544 18H15.6L11.712 5.976L7.824 18ZM33.3962 13.392H24.4682C24.6442 14.224 25.0522 14.912 25.6922 15.456C26.3482 15.984 27.1242 16.248 28.0202 16.248C29.2202 16.248 30.1722 15.8 30.8762 14.904L32.9882 15.552C32.5082 16.384 31.8202 17.048 30.9242 17.544C30.0442 18.04 29.0762 18.288 28.0202 18.288C26.3882 18.288 25.0122 17.744 23.8922 16.656C22.7882 15.568 22.2362 14.216 22.2362 12.6C22.2362 10.968 22.7722 9.616 23.8442 8.544C24.9322 7.456 26.2682 6.912 27.8522 6.912C29.4202 6.912 30.7482 7.456 31.8362 8.544C32.9082 9.616 33.4442 10.968 33.4442 12.6C33.4442 12.904 33.4282 13.168 33.3962 13.392ZM24.4922 11.664H31.2122C31.0202 10.848 30.6122 10.192 29.9882 9.696C29.3642 9.2 28.6362 8.952 27.8042 8.952C27.0042 8.952 26.2922 9.208 25.6682 9.72C25.0602 10.216 24.6682 10.864 24.4922 11.664ZM41.3902 18V0.599999H43.5502V8.328C44.5422 7.384 45.7342 6.912 47.1262 6.912C48.6302 6.912 49.8863 7.456 50.8942 8.544C51.9183 9.616 52.4303 10.968 52.4303 12.6C52.4303 14.232 51.9183 15.584 50.8942 16.656C49.8863 17.744 48.6302 18.288 47.1262 18.288C45.7342 18.288 44.5422 17.816 43.5502 16.872V18H41.3902ZM49.2143 10.104C48.5903 9.432 47.8142 9.096 46.8863 9.096C45.9742 9.096 45.1902 9.432 44.5342 10.104C43.9102 10.776 43.5982 11.608 43.5982 12.6C43.5982 13.592 43.9102 14.424 44.5342 15.096C45.1902 15.768 45.9742 16.104 46.8863 16.104C47.8142 16.104 48.5903 15.768 49.2143 15.096C49.8542 14.44 50.1742 13.608 50.1742 12.6C50.1742 11.592 49.8542 10.76 49.2143 10.104ZM65.1924 13.392H56.2644C56.4404 14.224 56.8484 14.912 57.4884 15.456C58.1444 15.984 58.9204 16.248 59.8164 16.248C61.0164 16.248 61.9684 15.8 62.6724 14.904L64.7844 15.552C64.3044 16.384 63.6164 17.048 62.7204 17.544C61.8404 18.04 60.8724 18.288 59.8164 18.288C58.1844 18.288 56.8084 17.744 55.6884 16.656C54.5844 15.568 54.0324 14.216 54.0324 12.6C54.0324 10.968 54.5684 9.616 55.6404 8.544C56.7284 7.456 58.0644 6.912 59.6484 6.912C61.2164 6.912 62.5444 7.456 63.6324 8.544C64.7044 9.616 65.2404 10.968 65.2404 12.6C65.2404 12.904 65.2244 13.168 65.1924 13.392ZM56.2884 11.664H63.0084C62.8164 10.848 62.4084 10.192 61.7844 9.696C61.1604 9.2 60.4324 8.952 59.6004 8.952C58.8004 8.952 58.0884 9.208 57.4644 9.72C56.8564 10.216 56.4644 10.864 56.2884 11.664ZM69.3259 18H67.1659V0.599999H69.3259V18ZM74.0574 18H71.8974V7.2H74.0574V18ZM72.9774 2.304C73.3774 2.304 73.7134 2.44 73.9854 2.712C74.2574 2.984 74.3934 3.32 74.3934 3.72C74.3934 4.36 74.0974 4.8 73.5054 5.04C72.9134 5.28 72.3934 5.184 71.9454 4.752C71.5134 4.304 71.4174 3.784 71.6574 3.192C71.8974 2.6 72.3374 2.304 72.9774 2.304ZM87.309 13.392H78.381C78.557 14.224 78.965 14.912 79.605 15.456C80.261 15.984 81.037 16.248 81.933 16.248C83.133 16.248 84.085 15.8 84.789 14.904L86.901 15.552C86.421 16.384 85.733 17.048 84.837 17.544C83.957 18.04 82.989 18.288 81.933 18.288C80.301 18.288 78.925 17.744 77.805 16.656C76.701 15.568 76.149 14.216 76.149 12.6C76.149 10.968 76.685 9.616 77.757 8.544C78.845 7.456 80.181 6.912 81.765 6.912C83.333 6.912 84.661 7.456 85.749 8.544C86.821 9.616 87.357 10.968 87.357 12.6C87.357 12.904 87.341 13.168 87.309 13.392ZM78.405 11.664H85.125C84.933 10.848 84.525 10.192 83.901 9.696C83.277 9.2 82.549 8.952 81.717 8.952C80.917 8.952 80.205 9.208 79.581 9.72C78.973 10.216 78.581 10.864 78.405 11.664ZM92.3171 18L87.7571 7.2H90.0131L93.3251 15.216L96.6371 7.2H98.8931L94.3331 18H92.3171ZM110.624 13.392H101.696C101.872 14.224 102.28 14.912 102.92 15.456C103.576 15.984 104.352 16.248 105.248 16.248C106.448 16.248 107.4 15.8 108.104 14.904L110.216 15.552C109.736 16.384 109.048 17.048 108.152 17.544C107.272 18.04 106.304 18.288 105.248 18.288C103.616 18.288 102.24 17.744 101.12 16.656C100.016 15.568 99.4637 14.216 99.4637 12.6C99.4637 10.968 99.9997 9.616 101.072 8.544C102.16 7.456 103.496 6.912 105.08 6.912C106.648 6.912 107.976 7.456 109.064 8.544C110.136 9.616 110.672 10.968 110.672 12.6C110.672 12.904 110.656 13.168 110.624 13.392ZM101.72 11.664H108.44C108.248 10.848 107.84 10.192 107.216 9.696C106.592 9.2 105.864 8.952 105.032 8.952C104.232 8.952 103.52 9.208 102.896 9.72C102.288 10.216 101.896 10.864 101.72 11.664ZM117.562 9.12V7.2H119.194V5.04H121.378V7.2H124.306V9.12H121.378V14.424C121.378 14.84 121.514 15.192 121.786 15.48C122.058 15.768 122.394 15.912 122.794 15.912H124.306V18H122.65C121.674 18 120.85 17.688 120.178 17.064C119.522 16.408 119.194 15.616 119.194 14.688V9.12H117.562ZM126.209 18V0.599999H128.369V8.76C129.185 7.528 130.385 6.912 131.969 6.912C133.217 6.912 134.265 7.32 135.113 8.136C135.945 8.92 136.361 9.936 136.361 11.184V18H134.177V11.784C134.177 10.984 133.905 10.32 133.361 9.792C132.833 9.264 132.161 9 131.345 9C130.497 9 129.785 9.272 129.209 9.816C128.649 10.344 128.369 11.008 128.369 11.808V18H126.209ZM143.733 6.912C145.125 6.912 146.317 7.384 147.309 8.328V7.2H149.469V18H147.309V16.872C146.317 17.816 145.125 18.288 143.733 18.288C142.245 18.288 140.981 17.744 139.941 16.656C138.933 15.584 138.429 14.232 138.429 12.6C138.429 10.984 138.933 9.632 139.941 8.544C140.981 7.456 142.245 6.912 143.733 6.912ZM146.301 10.104C145.677 9.432 144.901 9.096 143.973 9.096C143.061 9.096 142.277 9.432 141.621 10.104C140.997 10.776 140.685 11.608 140.685 12.6C140.685 13.592 140.997 14.424 141.621 15.096C142.277 15.768 143.061 16.104 143.973 16.104C144.901 16.104 145.677 15.768 146.301 15.096C146.941 14.44 147.261 13.608 147.261 12.6C147.261 11.592 146.941 10.76 146.301 10.104ZM150.975 9.12V7.2H152.607V5.04H154.791V7.2H157.719V9.12H154.791V14.424C154.791 14.84 154.927 15.192 155.199 15.48C155.471 15.768 155.807 15.912 156.207 15.912H157.719V18H156.063C155.087 18 154.263 17.688 153.591 17.064C152.935 16.408 152.607 15.616 152.607 14.688V9.12H150.975ZM176.059 10.32L173.875 10.992C173.603 10.416 173.195 9.96 172.651 9.624C172.107 9.272 171.499 9.096 170.827 9.096C169.835 9.096 169.019 9.432 168.379 10.104C167.739 10.76 167.419 11.592 167.419 12.6C167.419 13.608 167.739 14.44 168.379 15.096C169.019 15.768 169.835 16.104 170.827 16.104C171.499 16.104 172.107 15.936 172.651 15.6C173.195 15.248 173.603 14.784 173.875 14.208L176.059 14.856C175.627 15.912 174.939 16.752 173.995 17.376C173.067 17.984 172.011 18.288 170.827 18.288C169.211 18.288 167.859 17.744 166.771 16.656C165.699 15.584 165.163 14.232 165.163 12.6C165.163 10.968 165.699 9.616 166.771 8.544C167.859 7.456 169.211 6.912 170.827 6.912C172.027 6.912 173.091 7.216 174.019 7.824C174.947 8.432 175.627 9.264 176.059 10.32ZM180.058 7.2V8.76C180.874 7.528 182.05 6.912 183.586 6.912C183.762 6.912 183.874 6.92 183.922 6.936V9.36C183.682 9.248 183.362 9.192 182.962 9.192C182.13 9.192 181.434 9.456 180.874 9.984C180.33 10.512 180.058 11.176 180.058 11.976V18H177.898V7.2H180.058ZM189.985 6.912C191.377 6.912 192.569 7.384 193.561 8.328V7.2H195.721V18H193.561V16.872C192.569 17.816 191.377 18.288 189.985 18.288C188.497 18.288 187.233 17.744 186.193 16.656C185.185 15.584 184.681 14.232 184.681 12.6C184.681 10.984 185.185 9.632 186.193 8.544C187.233 7.456 188.497 6.912 189.985 6.912ZM192.553 10.104C191.929 9.432 191.153 9.096 190.225 9.096C189.313 9.096 188.529 9.432 187.873 10.104C187.249 10.776 186.937 11.608 186.937 12.6C186.937 13.592 187.249 14.424 187.873 15.096C188.529 15.768 189.313 16.104 190.225 16.104C191.153 16.104 191.929 15.768 192.553 15.096C193.193 14.44 193.513 13.608 193.513 12.6C193.513 11.592 193.193 10.76 192.553 10.104ZM201.139 4.2V7.2H203.875V9.12H201.139V18H198.979V9.12H197.251V7.2H198.979V3.912C198.979 2.968 199.307 2.184 199.963 1.56C200.619 0.919999 201.443 0.599999 202.435 0.599999H203.875V2.688H202.579C202.163 2.688 201.819 2.832 201.547 3.12C201.275 3.408 201.139 3.768 201.139 4.2ZM204.326 9.12V7.2H205.958V5.04H208.142V7.2H211.07V9.12H208.142V14.424C208.142 14.84 208.278 15.192 208.55 15.48C208.822 15.768 209.158 15.912 209.558 15.912H211.07V18H209.414C208.438 18 207.614 17.688 206.942 17.064C206.286 16.408 205.958 15.616 205.958 14.688V9.12H204.326ZM215.132 18H212.972V7.2H215.132V18ZM214.052 2.304C214.452 2.304 214.788 2.44 215.06 2.712C215.332 2.984 215.468 3.32 215.468 3.72C215.468 4.36 215.172 4.8 214.58 5.04C213.988 5.28 213.468 5.184 213.02 4.752C212.588 4.304 212.492 3.784 212.732 3.192C212.972 2.6 213.412 2.304 214.052 2.304ZM217.704 18V7.2H219.864V8.76C220.68 7.528 221.856 6.912 223.392 6.912C224.64 6.912 225.672 7.32 226.488 8.136C227.304 8.92 227.712 9.928 227.712 11.16V18H225.528V11.784C225.528 10.984 225.264 10.32 224.736 9.792C224.208 9.264 223.552 9 222.768 9C221.952 9 221.264 9.272 220.704 9.816C220.144 10.344 219.864 11.008 219.864 11.808V18H217.704ZM235.088 18.288C233.6 18.288 232.336 17.744 231.296 16.656C230.288 15.584 229.784 14.232 229.784 12.6C229.784 10.984 230.288 9.632 231.296 8.544C232.336 7.456 233.6 6.912 235.088 6.912C236.48 6.912 237.672 7.384 238.664 8.328V7.2H240.824V18.264C240.824 19.816 240.296 21.104 239.24 22.128C238.2 23.168 236.904 23.688 235.352 23.688C234.216 23.688 233.168 23.4 232.208 22.824C231.248 22.248 230.576 21.504 230.192 20.592L232.376 19.944C232.6 20.408 232.984 20.784 233.528 21.072C234.072 21.376 234.656 21.528 235.28 21.528C236.224 21.528 237.024 21.216 237.68 20.592C238.336 19.968 238.664 19.192 238.664 18.264V16.872C237.672 17.816 236.48 18.288 235.088 18.288ZM235.328 9.096C234.384 9.096 233.592 9.432 232.952 10.104C232.328 10.776 232.016 11.608 232.016 12.6C232.016 13.592 232.328 14.424 232.952 15.096C233.592 15.768 234.384 16.104 235.328 16.104C236.256 16.104 237.032 15.768 237.656 15.096C238.296 14.44 238.616 13.608 238.616 12.6C238.616 11.592 238.296 10.76 237.656 10.104C237.032 9.432 236.256 9.096 235.328 9.096ZM254.23 6.912C255.623 6.912 256.815 7.384 257.807 8.328V7.2H259.967V18H257.807V16.872C256.815 17.816 255.623 18.288 254.23 18.288C252.743 18.288 251.479 17.744 250.439 16.656C249.431 15.584 248.927 14.232 248.927 12.6C248.927 10.984 249.431 9.632 250.439 8.544C251.479 7.456 252.743 6.912 254.23 6.912ZM256.799 10.104C256.175 9.432 255.399 9.096 254.471 9.096C253.559 9.096 252.775 9.432 252.119 10.104C251.495 10.776 251.183 11.608 251.183 12.6C251.183 13.592 251.495 14.424 252.119 15.096C252.775 15.768 253.559 16.104 254.471 16.104C255.399 16.104 256.175 15.768 256.799 15.096C257.439 14.44 257.759 13.608 257.759 12.6C257.759 11.592 257.439 10.76 256.799 10.104ZM278.965 10.32L276.781 10.992C276.509 10.416 276.101 9.96 275.557 9.624C275.013 9.272 274.405 9.096 273.733 9.096C272.741 9.096 271.925 9.432 271.285 10.104C270.645 10.76 270.325 11.592 270.325 12.6C270.325 13.608 270.645 14.44 271.285 15.096C271.925 15.768 272.741 16.104 273.733 16.104C274.405 16.104 275.013 15.936 275.557 15.6C276.101 15.248 276.509 14.784 276.781 14.208L278.965 14.856C278.533 15.912 277.845 16.752 276.901 17.376C275.973 17.984 274.917 18.288 273.733 18.288C272.117 18.288 270.765 17.744 269.677 16.656C268.605 15.584 268.069 14.232 268.069 12.6C268.069 10.968 268.605 9.616 269.677 8.544C270.765 7.456 272.117 6.912 273.733 6.912C274.933 6.912 275.997 7.216 276.925 7.824C277.853 8.432 278.533 9.264 278.965 10.32ZM281.932 16.656C280.86 15.584 280.324 14.232 280.324 12.6C280.324 10.968 280.86 9.616 281.932 8.544C283.02 7.456 284.372 6.912 285.988 6.912C287.604 6.912 288.956 7.456 290.044 8.544C291.132 9.632 291.676 10.984 291.676 12.6C291.676 14.216 291.132 15.568 290.044 16.656C288.956 17.744 287.604 18.288 285.988 18.288C284.372 18.288 283.02 17.744 281.932 16.656ZM283.54 10.104C282.9 10.76 282.58 11.592 282.58 12.6C282.58 13.608 282.9 14.44 283.54 15.096C284.18 15.768 284.996 16.104 285.988 16.104C286.948 16.104 287.756 15.768 288.412 15.096C289.068 14.408 289.396 13.576 289.396 12.6C289.396 11.624 289.068 10.792 288.412 10.104C287.756 9.432 286.948 9.096 285.988 9.096C284.996 9.096 284.18 9.432 283.54 10.104ZM295.899 18H293.739V7.2H295.899V8.568C296.635 7.464 297.731 6.912 299.187 6.912C299.939 6.912 300.619 7.088 301.227 7.44C301.851 7.776 302.339 8.24 302.691 8.832C303.443 7.552 304.651 6.912 306.315 6.912C307.547 6.912 308.571 7.296 309.387 8.064C310.203 8.832 310.611 9.792 310.611 10.944V18H308.451V11.544C308.451 10.824 308.211 10.224 307.731 9.744C307.251 9.248 306.643 9 305.907 9C305.155 9 304.523 9.248 304.011 9.744C303.515 10.224 303.267 10.832 303.267 11.568V18H301.083V11.544C301.083 10.824 300.843 10.224 300.363 9.744C299.883 9.248 299.283 9 298.563 9C297.811 9 297.179 9.248 296.667 9.744C296.155 10.224 295.899 10.832 295.899 11.568V18ZM315.326 23.4H313.166V7.2H315.326V8.328C316.318 7.384 317.51 6.912 318.902 6.912C320.406 6.912 321.662 7.456 322.67 8.544C323.694 9.616 324.206 10.968 324.206 12.6C324.206 14.232 323.694 15.584 322.67 16.656C321.662 17.744 320.406 18.288 318.902 18.288C317.51 18.288 316.318 17.816 315.326 16.872V23.4ZM320.99 10.104C320.366 9.432 319.59 9.096 318.662 9.096C317.75 9.096 316.966 9.432 316.31 10.104C315.686 10.776 315.374 11.608 315.374 12.6C315.374 13.592 315.686 14.424 316.31 15.096C316.966 15.768 317.75 16.104 318.662 16.104C319.59 16.104 320.366 15.768 320.99 15.096C321.63 14.44 321.95 13.608 321.95 12.6C321.95 11.592 321.63 10.76 320.99 10.104ZM336.968 13.392H328.04C328.216 14.224 328.624 14.912 329.264 15.456C329.92 15.984 330.696 16.248 331.592 16.248C332.792 16.248 333.744 15.8 334.448 14.904L336.56 15.552C336.08 16.384 335.392 17.048 334.496 17.544C333.616 18.04 332.648 18.288 331.592 18.288C329.96 18.288 328.584 17.744 327.464 16.656C326.36 15.568 325.808 14.216 325.808 12.6C325.808 10.968 326.344 9.616 327.416 8.544C328.504 7.456 329.84 6.912 331.424 6.912C332.992 6.912 334.32 7.456 335.408 8.544C336.48 9.616 337.016 10.968 337.016 12.6C337.016 12.904 337 13.168 336.968 13.392ZM328.064 11.664H334.784C334.592 10.848 334.184 10.192 333.56 9.696C332.936 9.2 332.208 8.952 331.376 8.952C330.576 8.952 329.864 9.208 329.24 9.72C328.632 10.216 328.24 10.864 328.064 11.664ZM341.102 18H338.942V0.599999H341.102V18ZM345.833 18H343.673V0.599999H345.833V18ZM350.565 18H348.405V7.2H350.565V18ZM349.485 2.304C349.885 2.304 350.221 2.44 350.493 2.712C350.765 2.984 350.901 3.32 350.901 3.72C350.901 4.36 350.605 4.8 350.013 5.04C349.421 5.28 348.901 5.184 348.453 4.752C348.021 4.304 347.925 3.784 348.165 3.192C348.405 2.6 348.845 2.304 349.485 2.304ZM353.136 18V7.2H355.296V8.76C356.112 7.528 357.288 6.912 358.824 6.912C360.072 6.912 361.104 7.32 361.92 8.136C362.736 8.92 363.144 9.928 363.144 11.16V18H360.96V11.784C360.96 10.984 360.696 10.32 360.168 9.792C359.64 9.264 358.984 9 358.2 9C357.384 9 356.696 9.272 356.136 9.816C355.576 10.344 355.296 11.008 355.296 11.808V18H353.136ZM370.52 18.288C369.032 18.288 367.768 17.744 366.728 16.656C365.72 15.584 365.216 14.232 365.216 12.6C365.216 10.984 365.72 9.632 366.728 8.544C367.768 7.456 369.032 6.912 370.52 6.912C371.912 6.912 373.104 7.384 374.096 8.328V7.2H376.256V18.264C376.256 19.816 375.728 21.104 374.672 22.128C373.632 23.168 372.336 23.688 370.784 23.688C369.648 23.688 368.6 23.4 367.64 22.824C366.68 22.248 366.008 21.504 365.624 20.592L367.808 19.944C368.032 20.408 368.416 20.784 368.96 21.072C369.504 21.376 370.088 21.528 370.712 21.528C371.656 21.528 372.456 21.216 373.112 20.592C373.768 19.968 374.096 19.192 374.096 18.264V16.872C373.104 17.816 371.912 18.288 370.52 18.288ZM370.76 9.096C369.816 9.096 369.024 9.432 368.384 10.104C367.76 10.776 367.448 11.608 367.448 12.6C367.448 13.592 367.76 14.424 368.384 15.096C369.024 15.768 369.816 16.104 370.76 16.104C371.688 16.104 372.464 15.768 373.088 15.096C373.728 14.44 374.048 13.608 374.048 12.6C374.048 11.592 373.728 10.76 373.088 10.104C372.464 9.432 371.688 9.096 370.76 9.096ZM386.999 23.4H384.839V7.2H386.999V8.328C387.991 7.384 389.183 6.912 390.575 6.912C392.079 6.912 393.335 7.456 394.343 8.544C395.367 9.616 395.879 10.968 395.879 12.6C395.879 14.232 395.367 15.584 394.343 16.656C393.335 17.744 392.079 18.288 390.575 18.288C389.183 18.288 387.991 17.816 386.999 16.872V23.4ZM392.663 10.104C392.039 9.432 391.263 9.096 390.335 9.096C389.423 9.096 388.639 9.432 387.983 10.104C387.359 10.776 387.047 11.608 387.047 12.6C387.047 13.592 387.359 14.424 387.983 15.096C388.639 15.768 389.423 16.104 390.335 16.104C391.263 16.104 392.039 15.768 392.663 15.096C393.303 14.44 393.623 13.608 393.623 12.6C393.623 11.592 393.303 10.76 392.663 10.104ZM400.121 7.2V8.76C400.937 7.528 402.113 6.912 403.649 6.912C403.825 6.912 403.937 6.92 403.985 6.936V9.36C403.745 9.248 403.425 9.192 403.025 9.192C402.193 9.192 401.497 9.456 400.937 9.984C400.393 10.512 400.121 11.176 400.121 11.976V18H397.961V7.2H400.121ZM406.352 16.656C405.28 15.584 404.744 14.232 404.744 12.6C404.744 10.968 405.28 9.616 406.352 8.544C407.44 7.456 408.792 6.912 410.408 6.912C412.024 6.912 413.376 7.456 414.464 8.544C415.552 9.632 416.096 10.984 416.096 12.6C416.096 14.216 415.552 15.568 414.464 16.656C413.376 17.744 412.024 18.288 410.408 18.288C408.792 18.288 407.44 17.744 406.352 16.656ZM407.96 10.104C407.32 10.76 407 11.592 407 12.6C407 13.608 407.32 14.44 407.96 15.096C408.6 15.768 409.416 16.104 410.408 16.104C411.368 16.104 412.176 15.768 412.832 15.096C413.488 14.408 413.816 13.576 413.816 12.6C413.816 11.624 413.488 10.792 412.832 10.104C412.176 9.432 411.368 9.096 410.408 9.096C409.416 9.096 408.6 9.432 407.96 10.104ZM420.318 23.4H418.158V7.2H420.318V8.328C421.31 7.384 422.502 6.912 423.894 6.912C425.398 6.912 426.654 7.456 427.662 8.544C428.686 9.616 429.198 10.968 429.198 12.6C429.198 14.232 428.686 15.584 427.662 16.656C426.654 17.744 425.398 18.288 423.894 18.288C422.502 18.288 421.31 17.816 420.318 16.872V23.4ZM425.982 10.104C425.358 9.432 424.582 9.096 423.654 9.096C422.742 9.096 421.958 9.432 421.302 10.104C420.678 10.776 420.366 11.608 420.366 12.6C420.366 13.592 420.678 14.424 421.302 15.096C421.958 15.768 422.742 16.104 423.654 16.104C424.582 16.104 425.358 15.768 425.982 15.096C426.622 14.44 426.942 13.608 426.942 12.6C426.942 11.592 426.622 10.76 425.982 10.104ZM432.409 16.656C431.337 15.584 430.801 14.232 430.801 12.6C430.801 10.968 431.337 9.616 432.409 8.544C433.497 7.456 434.849 6.912 436.465 6.912C438.081 6.912 439.433 7.456 440.521 8.544C441.609 9.632 442.153 10.984 442.153 12.6C442.153 14.216 441.609 15.568 440.521 16.656C439.433 17.744 438.081 18.288 436.465 18.288C434.849 18.288 433.497 17.744 432.409 16.656ZM434.017 10.104C433.377 10.76 433.057 11.592 433.057 12.6C433.057 13.608 433.377 14.44 434.017 15.096C434.657 15.768 435.473 16.104 436.465 16.104C437.425 16.104 438.233 15.768 438.889 15.096C439.545 14.408 439.873 13.576 439.873 12.6C439.873 11.624 439.545 10.792 438.889 10.104C438.233 9.432 437.425 9.096 436.465 9.096C435.473 9.096 434.657 9.432 434.017 10.104ZM451.871 9.672L449.855 10.032C449.583 9.232 448.879 8.832 447.743 8.832C447.215 8.832 446.783 8.944 446.447 9.168C446.111 9.376 445.943 9.648 445.943 9.984C445.943 10.432 446.295 10.792 446.999 11.064L449.423 11.904C451.183 12.528 452.063 13.56 452.063 15C452.063 16.04 451.679 16.848 450.911 17.424C450.143 18 449.143 18.288 447.911 18.288C446.695 18.288 445.703 18.016 444.935 17.472C444.167 16.928 443.711 16.192 443.567 15.264L445.631 14.952C445.711 15.384 445.959 15.728 446.375 15.984C446.807 16.24 447.335 16.368 447.959 16.368C448.551 16.368 449.039 16.248 449.423 16.008C449.807 15.768 449.999 15.456 449.999 15.072C449.999 14.544 449.559 14.128 448.679 13.824L446.279 13.032C444.663 12.472 443.855 11.512 443.855 10.152C443.855 9.112 444.223 8.312 444.959 7.752C445.695 7.192 446.679 6.912 447.911 6.912C449.015 6.912 449.919 7.16 450.623 7.656C451.327 8.152 451.743 8.824 451.871 9.672ZM456.216 18H454.056V7.2H456.216V18ZM455.136 2.304C455.536 2.304 455.872 2.44 456.144 2.712C456.416 2.984 456.552 3.32 456.552 3.72C456.552 4.36 456.256 4.8 455.664 5.04C455.072 5.28 454.552 5.184 454.104 4.752C453.672 4.304 453.576 3.784 453.816 3.192C454.056 2.6 454.496 2.304 455.136 2.304ZM457.732 9.12V7.2H459.364V5.04H461.548V7.2H464.476V9.12H461.548V14.424C461.548 14.84 461.684 15.192 461.956 15.48C462.228 15.768 462.564 15.912 462.964 15.912H464.476V18H462.82C461.844 18 461.02 17.688 460.348 17.064C459.692 16.408 459.364 15.616 459.364 14.688V9.12H457.732ZM468.539 18H466.379V7.2H468.539V18ZM467.459 2.304C467.859 2.304 468.195 2.44 468.467 2.712C468.739 2.984 468.875 3.32 468.875 3.72C468.875 4.36 468.579 4.8 467.987 5.04C467.395 5.28 466.875 5.184 466.427 4.752C465.995 4.304 465.899 3.784 466.139 3.192C466.379 2.6 466.819 2.304 467.459 2.304ZM472.238 16.656C471.166 15.584 470.63 14.232 470.63 12.6C470.63 10.968 471.166 9.616 472.238 8.544C473.326 7.456 474.678 6.912 476.294 6.912C477.91 6.912 479.262 7.456 480.35 8.544C481.438 9.632 481.982 10.984 481.982 12.6C481.982 14.216 481.438 15.568 480.35 16.656C479.262 17.744 477.91 18.288 476.294 18.288C474.678 18.288 473.326 17.744 472.238 16.656ZM473.846 10.104C473.206 10.76 472.886 11.592 472.886 12.6C472.886 13.608 473.206 14.44 473.846 15.096C474.486 15.768 475.302 16.104 476.294 16.104C477.254 16.104 478.062 15.768 478.718 15.096C479.374 14.408 479.702 13.576 479.702 12.6C479.702 11.624 479.374 10.792 478.718 10.104C478.062 9.432 477.254 9.096 476.294 9.096C475.302 9.096 474.486 9.432 473.846 10.104ZM484.045 18V7.2H486.205V8.76C487.021 7.528 488.197 6.912 489.733 6.912C490.981 6.912 492.013 7.32 492.829 8.136C493.645 8.92 494.053 9.928 494.053 11.16V18H491.869V11.784C491.869 10.984 491.605 10.32 491.077 9.792C490.549 9.264 489.893 9 489.109 9C488.293 9 487.605 9.272 487.045 9.816C486.485 10.344 486.205 11.008 486.205 11.808V18H484.045ZM3.504 42H1.344V24.6H3.504V42ZM16.7556 37.392H7.82756C8.00356 38.224 8.41156 38.912 9.05156 39.456C9.70756 39.984 10.4836 40.248 11.3796 40.248C12.5796 40.248 13.5316 39.8 14.2356 38.904L16.3476 39.552C15.8676 40.384 15.1796 41.048 14.2836 41.544C13.4036 42.04 12.4356 42.288 11.3796 42.288C9.74756 42.288 8.37156 41.744 7.25156 40.656C6.14756 39.568 5.59556 38.216 5.59556 36.6C5.59556 34.968 6.13156 33.616 7.20356 32.544C8.29156 31.456 9.62756 30.912 11.2116 30.912C12.7796 30.912 14.1076 31.456 15.1956 32.544C16.2676 33.616 16.8036 34.968 16.8036 36.6C16.8036 36.904 16.7876 37.168 16.7556 37.392ZM7.85156 35.664H14.5716C14.3796 34.848 13.9716 34.192 13.3476 33.696C12.7236 33.2 11.9956 32.952 11.1636 32.952C10.3636 32.952 9.65156 33.208 9.02756 33.72C8.41956 34.216 8.02756 34.864 7.85156 35.664ZM18.729 42V31.2H20.889V32.76C21.705 31.528 22.881 30.912 24.417 30.912C25.665 30.912 26.697 31.32 27.513 32.136C28.329 32.92 28.737 33.928 28.737 35.16V42H26.553V35.784C26.553 34.984 26.289 34.32 25.761 33.792C25.233 33.264 24.577 33 23.793 33C22.977 33 22.289 33.272 21.729 33.816C21.169 34.344 20.889 35.008 20.889 35.808V42H18.729ZM36.1127 30.912C37.5047 30.912 38.6967 31.384 39.6887 32.328V24.6H41.8487V42H39.6887V40.872C38.6967 41.816 37.5047 42.288 36.1127 42.288C34.6247 42.288 33.3607 41.744 32.3207 40.656C31.3127 39.584 30.8087 38.232 30.8087 36.6C30.8087 34.984 31.3127 33.632 32.3207 32.544C33.3607 31.456 34.6247 30.912 36.1127 30.912ZM38.6807 34.104C38.0567 33.432 37.2807 33.096 36.3527 33.096C35.4407 33.096 34.6567 33.432 34.0007 34.104C33.3767 34.776 33.0647 35.608 33.0647 36.6C33.0647 37.592 33.3767 38.424 34.0007 39.096C34.6567 39.768 35.4407 40.104 36.3527 40.104C37.2807 40.104 38.0567 39.768 38.6807 39.096C39.3207 38.44 39.6407 37.608 39.6407 36.6C39.6407 35.592 39.3207 34.76 38.6807 34.104ZM52.0669 33.672L50.0509 34.032C49.7789 33.232 49.0749 32.832 47.9389 32.832C47.4109 32.832 46.9789 32.944 46.6429 33.168C46.3069 33.376 46.1389 33.648 46.1389 33.984C46.1389 34.432 46.4909 34.792 47.1949 35.064L49.6189 35.904C51.3789 36.528 52.2589 37.56 52.2589 39C52.2589 40.04 51.8749 40.848 51.1069 41.424C50.3389 42 49.3389 42.288 48.1069 42.288C46.8909 42.288 45.8989 42.016 45.1309 41.472C44.3629 40.928 43.9069 40.192 43.7629 39.264L45.8269 38.952C45.9069 39.384 46.1549 39.728 46.5709 39.984C47.0029 40.24 47.5309 40.368 48.1549 40.368C48.7469 40.368 49.2349 40.248 49.6189 40.008C50.0029 39.768 50.1949 39.456 50.1949 39.072C50.1949 38.544 49.7549 38.128 48.8749 37.824L46.4749 37.032C44.8589 36.472 44.0509 35.512 44.0509 34.152C44.0509 33.112 44.4189 32.312 45.1549 31.752C45.8909 31.192 46.8749 30.912 48.1069 30.912C49.2109 30.912 50.1149 31.16 50.8189 31.656C51.5229 32.152 51.9389 32.824 52.0669 33.672ZM70.6884 34.32L68.5044 34.992C68.2324 34.416 67.8244 33.96 67.2804 33.624C66.7364 33.272 66.1284 33.096 65.4564 33.096C64.4644 33.096 63.6484 33.432 63.0084 34.104C62.3684 34.76 62.0484 35.592 62.0484 36.6C62.0484 37.608 62.3684 38.44 63.0084 39.096C63.6484 39.768 64.4644 40.104 65.4564 40.104C66.1284 40.104 66.7364 39.936 67.2804 39.6C67.8244 39.248 68.2324 38.784 68.5044 38.208L70.6884 38.856C70.2564 39.912 69.5684 40.752 68.6244 41.376C67.6964 41.984 66.6404 42.288 65.4564 42.288C63.8404 42.288 62.4884 41.744 61.4004 40.656C60.3284 39.584 59.7924 38.232 59.7924 36.6C59.7924 34.968 60.3284 33.616 61.4004 32.544C62.4884 31.456 63.8404 30.912 65.4564 30.912C66.6564 30.912 67.7204 31.216 68.6484 31.824C69.5764 32.432 70.2564 33.264 70.6884 34.32ZM74.6874 31.2V32.76C75.5034 31.528 76.6794 30.912 78.2154 30.912C78.3914 30.912 78.5034 30.92 78.5514 30.936V33.36C78.3114 33.248 77.9914 33.192 77.5914 33.192C76.7594 33.192 76.0634 33.456 75.5034 33.984C74.9594 34.512 74.6874 35.176 74.6874 35.976V42H72.5274V31.2H74.6874ZM90.4703 37.392H81.5423C81.7183 38.224 82.1263 38.912 82.7663 39.456C83.4223 39.984 84.1983 40.248 85.0943 40.248C86.2943 40.248 87.2463 39.8 87.9503 38.904L90.0623 39.552C89.5823 40.384 88.8943 41.048 87.9983 41.544C87.1183 42.04 86.1503 42.288 85.0943 42.288C83.4623 42.288 82.0863 41.744 80.9663 40.656C79.8623 39.568 79.3103 38.216 79.3103 36.6C79.3103 34.968 79.8463 33.616 80.9183 32.544C82.0063 31.456 83.3423 30.912 84.9263 30.912C86.4943 30.912 87.8223 31.456 88.9103 32.544C89.9823 33.616 90.5183 34.968 90.5183 36.6C90.5183 36.904 90.5023 37.168 90.4703 37.392ZM81.5663 35.664H88.2863C88.0943 34.848 87.6863 34.192 87.0623 33.696C86.4383 33.2 85.7103 32.952 84.8783 32.952C84.0783 32.952 83.3663 33.208 82.7423 33.72C82.1343 34.216 81.7423 34.864 81.5663 35.664ZM97.2677 30.912C98.6597 30.912 99.8517 31.384 100.844 32.328V24.6H103.004V42H100.844V40.872C99.8517 41.816 98.6597 42.288 97.2677 42.288C95.7797 42.288 94.5157 41.744 93.4757 40.656C92.4677 39.584 91.9637 38.232 91.9637 36.6C91.9637 34.984 92.4677 33.632 93.4757 32.544C94.5157 31.456 95.7797 30.912 97.2677 30.912ZM99.8357 34.104C99.2117 33.432 98.4357 33.096 97.5077 33.096C96.5957 33.096 95.8117 33.432 95.1557 34.104C94.5317 34.776 94.2197 35.608 94.2197 36.6C94.2197 37.592 94.5317 38.424 95.1557 39.096C95.8117 39.768 96.5957 40.104 97.5077 40.104C98.4357 40.104 99.2117 39.768 99.8357 39.096C100.476 38.44 100.796 37.608 100.796 36.6C100.796 35.592 100.476 34.76 99.8357 34.104ZM107.726 42H105.566V31.2H107.726V42ZM106.646 26.304C107.046 26.304 107.382 26.44 107.654 26.712C107.926 26.984 108.062 27.32 108.062 27.72C108.062 28.36 107.766 28.8 107.174 29.04C106.582 29.28 106.062 29.184 105.614 28.752C105.182 28.304 105.086 27.784 105.326 27.192C105.566 26.6 106.006 26.304 106.646 26.304ZM110.297 42V24.6H112.457V32.328C113.449 31.384 114.641 30.912 116.033 30.912C117.537 30.912 118.793 31.456 119.801 32.544C120.825 33.616 121.337 34.968 121.337 36.6C121.337 38.232 120.825 39.584 119.801 40.656C118.793 41.744 117.537 42.288 116.033 42.288C114.641 42.288 113.449 41.816 112.457 40.872V42H110.297ZM118.121 34.104C117.497 33.432 116.721 33.096 115.793 33.096C114.881 33.096 114.097 33.432 113.441 34.104C112.817 34.776 112.505 35.608 112.505 36.6C112.505 37.592 112.817 38.424 113.441 39.096C114.097 39.768 114.881 40.104 115.793 40.104C116.721 40.104 117.497 39.768 118.121 39.096C118.761 38.44 119.081 37.608 119.081 36.6C119.081 35.592 118.761 34.76 118.121 34.104ZM125.58 42H123.42V31.2H125.58V42ZM124.5 26.304C124.9 26.304 125.236 26.44 125.508 26.712C125.78 26.984 125.916 27.32 125.916 27.72C125.916 28.36 125.62 28.8 125.028 29.04C124.436 29.28 123.916 29.184 123.468 28.752C123.036 28.304 122.94 27.784 123.18 27.192C123.42 26.6 123.86 26.304 124.5 26.304ZM130.311 42H128.151V24.6H130.311V42ZM135.043 42H132.883V31.2H135.043V42ZM133.963 26.304C134.363 26.304 134.699 26.44 134.971 26.712C135.243 26.984 135.379 27.32 135.379 27.72C135.379 28.36 135.083 28.8 134.491 29.04C133.899 29.28 133.379 29.184 132.931 28.752C132.499 28.304 132.403 27.784 132.643 27.192C132.883 26.6 133.323 26.304 133.963 26.304ZM136.558 33.12V31.2H138.19V29.04H140.374V31.2H143.302V33.12H140.374V38.424C140.374 38.84 140.51 39.192 140.782 39.48C141.054 39.768 141.39 39.912 141.79 39.912H143.302V42H141.646C140.67 42 139.846 41.688 139.174 41.064C138.518 40.408 138.19 39.616 138.19 38.688V33.12H136.558ZM147.725 43.272L148.349 41.712L144.125 31.2H146.381L149.453 39.024L152.597 31.2H154.853L149.597 44.016C149.117 45.184 148.517 46.04 147.797 46.584C147.077 47.128 146.181 47.4 145.109 47.4H144.725V45.312H145.109C146.309 45.312 147.181 44.632 147.725 43.272ZM157.709 41.448C157.709 41.864 157.629 42.272 157.469 42.672C157.309 43.072 157.125 43.4 156.917 43.656C156.725 43.928 156.509 44.168 156.269 44.376C156.029 44.6 155.845 44.752 155.717 44.832C155.589 44.928 155.501 44.984 155.453 45L154.757 44.28C154.773 44.264 154.813 44.208 154.877 44.112C154.957 44.032 155.021 43.96 155.069 43.896C155.165 43.768 155.333 43.512 155.573 43.128C155.781 42.776 155.885 42.488 155.885 42.264C155.533 42.216 155.237 42.056 154.997 41.784C154.757 41.496 154.637 41.16 154.637 40.776C154.637 40.392 154.773 40.064 155.045 39.792C155.333 39.52 155.685 39.384 156.101 39.384C156.565 39.384 156.949 39.576 157.253 39.96C157.557 40.344 157.709 40.84 157.709 41.448ZM170.646 30.912C172.038 30.912 173.23 31.384 174.222 32.328V31.2H176.382V42H174.222V40.872C173.23 41.816 172.038 42.288 170.646 42.288C169.158 42.288 167.894 41.744 166.854 40.656C165.846 39.584 165.342 38.232 165.342 36.6C165.342 34.984 165.846 33.632 166.854 32.544C167.894 31.456 169.158 30.912 170.646 30.912ZM173.214 34.104C172.59 33.432 171.814 33.096 170.886 33.096C169.974 33.096 169.19 33.432 168.534 34.104C167.91 34.776 167.598 35.608 167.598 36.6C167.598 37.592 167.91 38.424 168.534 39.096C169.19 39.768 169.974 40.104 170.886 40.104C171.814 40.104 172.59 39.768 173.214 39.096C173.854 38.44 174.174 37.608 174.174 36.6C174.174 35.592 173.854 34.76 173.214 34.104ZM181.104 42H178.944V24.6H181.104V42ZM185.836 42H183.676V24.6H185.836V42ZM188.383 38.016V31.2H190.567V37.416C190.567 38.216 190.831 38.88 191.359 39.408C191.887 39.936 192.543 40.2 193.327 40.2C194.159 40.2 194.847 39.928 195.391 39.384C195.951 38.824 196.231 38.16 196.231 37.392V31.2H198.391V42H196.231V40.44C195.415 41.672 194.239 42.288 192.703 42.288C191.455 42.288 190.423 41.88 189.607 41.064C188.791 40.248 188.383 39.232 188.383 38.016ZM203.127 31.2V32.76C203.943 31.528 205.119 30.912 206.655 30.912C206.831 30.912 206.943 30.92 206.991 30.936V33.36C206.751 33.248 206.431 33.192 206.031 33.192C205.199 33.192 204.503 33.456 203.943 33.984C203.399 34.512 203.127 35.176 203.127 35.976V42H200.967V31.2H203.127ZM218.91 37.392H209.982C210.158 38.224 210.566 38.912 211.206 39.456C211.862 39.984 212.638 40.248 213.534 40.248C214.734 40.248 215.686 39.8 216.39 38.904L218.502 39.552C218.022 40.384 217.334 41.048 216.438 41.544C215.558 42.04 214.59 42.288 213.534 42.288C211.902 42.288 210.526 41.744 209.406 40.656C208.302 39.568 207.75 38.216 207.75 36.6C207.75 34.968 208.286 33.616 209.358 32.544C210.446 31.456 211.782 30.912 213.366 30.912C214.934 30.912 216.262 31.456 217.35 32.544C218.422 33.616 218.958 34.968 218.958 36.6C218.958 36.904 218.942 37.168 218.91 37.392ZM210.006 35.664H216.726C216.534 34.848 216.126 34.192 215.502 33.696C214.878 33.2 214.15 32.952 213.318 32.952C212.518 32.952 211.806 33.208 211.182 33.72C210.574 34.216 210.182 34.864 210.006 35.664ZM222.96 41.448C222.96 41.864 222.88 42.272 222.72 42.672C222.56 43.072 222.376 43.4 222.168 43.656C221.976 43.928 221.76 44.168 221.52 44.376C221.28 44.6 221.096 44.752 220.968 44.832C220.84 44.928 220.752 44.984 220.704 45L220.008 44.28C220.024 44.264 220.064 44.208 220.128 44.112C220.208 44.032 220.272 43.96 220.32 43.896C220.416 43.768 220.584 43.512 220.824 43.128C221.032 42.776 221.136 42.488 221.136 42.264C220.784 42.216 220.488 42.056 220.248 41.784C220.008 41.496 219.888 41.16 219.888 40.776C219.888 40.392 220.024 40.064 220.296 39.792C220.584 39.52 220.936 39.384 221.352 39.384C221.816 39.384 222.2 39.576 222.504 39.96C222.808 40.344 222.96 40.84 222.96 41.448ZM235.897 30.912C237.289 30.912 238.481 31.384 239.473 32.328V31.2H241.633V42H239.473V40.872C238.481 41.816 237.289 42.288 235.897 42.288C234.409 42.288 233.145 41.744 232.105 40.656C231.097 39.584 230.593 38.232 230.593 36.6C230.593 34.984 231.097 33.632 232.105 32.544C233.145 31.456 234.409 30.912 235.897 30.912ZM238.465 34.104C237.841 33.432 237.065 33.096 236.137 33.096C235.225 33.096 234.441 33.432 233.785 34.104C233.161 34.776 232.849 35.608 232.849 36.6C232.849 37.592 233.161 38.424 233.785 39.096C234.441 39.768 235.225 40.104 236.137 40.104C237.065 40.104 237.841 39.768 238.465 39.096C239.105 38.44 239.425 37.608 239.425 36.6C239.425 35.592 239.105 34.76 238.465 34.104ZM244.195 42V31.2H246.355V32.76C247.171 31.528 248.347 30.912 249.883 30.912C251.131 30.912 252.163 31.32 252.979 32.136C253.795 32.92 254.203 33.928 254.203 35.16V42H252.019V35.784C252.019 34.984 251.755 34.32 251.227 33.792C250.699 33.264 250.043 33 249.259 33C248.443 33 247.755 33.272 247.195 33.816C246.635 34.344 246.355 35.008 246.355 35.808V42H244.195ZM261.579 30.912C262.971 30.912 264.163 31.384 265.155 32.328V24.6H267.315V42H265.155V40.872C264.163 41.816 262.971 42.288 261.579 42.288C260.091 42.288 258.827 41.744 257.787 40.656C256.779 39.584 256.275 38.232 256.275 36.6C256.275 34.984 256.779 33.632 257.787 32.544C258.827 31.456 260.091 30.912 261.579 30.912ZM264.147 34.104C263.523 33.432 262.747 33.096 261.819 33.096C260.907 33.096 260.123 33.432 259.467 34.104C258.843 34.776 258.531 35.608 258.531 36.6C258.531 37.592 258.843 38.424 259.467 39.096C260.123 39.768 260.907 40.104 261.819 40.104C262.747 40.104 263.523 39.768 264.147 39.096C264.787 38.44 265.107 37.608 265.107 36.6C265.107 35.592 264.787 34.76 264.147 34.104ZM286.577 37.392H277.649C277.825 38.224 278.233 38.912 278.873 39.456C279.529 39.984 280.305 40.248 281.201 40.248C282.401 40.248 283.353 39.8 284.057 38.904L286.169 39.552C285.689 40.384 285.001 41.048 284.105 41.544C283.225 42.04 282.257 42.288 281.201 42.288C279.569 42.288 278.193 41.744 277.073 40.656C275.969 39.568 275.417 38.216 275.417 36.6C275.417 34.968 275.953 33.616 277.025 32.544C278.113 31.456 279.449 30.912 281.033 30.912C282.601 30.912 283.929 31.456 285.017 32.544C286.089 33.616 286.625 34.968 286.625 36.6C286.625 36.904 286.609 37.168 286.577 37.392ZM277.673 35.664H284.393C284.201 34.848 283.793 34.192 283.169 33.696C282.545 33.2 281.817 32.952 280.985 32.952C280.185 32.952 279.473 33.208 278.849 33.72C278.241 34.216 277.849 34.864 277.673 35.664ZM295.424 42L292.568 38.208L289.712 42H287.144L291.296 36.456L287.36 31.2H289.904L292.568 34.728L295.232 31.2H297.776L293.84 36.456L297.968 42H295.424ZM301.653 47.4H299.493V31.2H301.653V32.328C302.645 31.384 303.837 30.912 305.229 30.912C306.733 30.912 307.989 31.456 308.997 32.544C310.021 33.616 310.533 34.968 310.533 36.6C310.533 38.232 310.021 39.584 308.997 40.656C307.989 41.744 306.733 42.288 305.229 42.288C303.837 42.288 302.645 41.816 301.653 40.872V47.4ZM307.317 34.104C306.693 33.432 305.917 33.096 304.989 33.096C304.077 33.096 303.293 33.432 302.637 34.104C302.013 34.776 301.701 35.608 301.701 36.6C301.701 37.592 302.013 38.424 302.637 39.096C303.293 39.768 304.077 40.104 304.989 40.104C305.917 40.104 306.693 39.768 307.317 39.096C307.957 38.44 308.277 37.608 308.277 36.6C308.277 35.592 307.957 34.76 307.317 34.104ZM323.296 37.392H314.368C314.544 38.224 314.952 38.912 315.592 39.456C316.248 39.984 317.024 40.248 317.92 40.248C319.12 40.248 320.072 39.8 320.776 38.904L322.888 39.552C322.408 40.384 321.72 41.048 320.824 41.544C319.944 42.04 318.976 42.288 317.92 42.288C316.288 42.288 314.912 41.744 313.792 40.656C312.688 39.568 312.136 38.216 312.136 36.6C312.136 34.968 312.672 33.616 313.744 32.544C314.832 31.456 316.168 30.912 317.752 30.912C319.32 30.912 320.648 31.456 321.736 32.544C322.808 33.616 323.344 34.968 323.344 36.6C323.344 36.904 323.328 37.168 323.296 37.392ZM314.392 35.664H321.112C320.92 34.848 320.512 34.192 319.888 33.696C319.264 33.2 318.536 32.952 317.704 32.952C316.904 32.952 316.192 33.208 315.568 33.72C314.96 34.216 314.568 34.864 314.392 35.664ZM330.093 30.912C331.485 30.912 332.677 31.384 333.669 32.328V24.6H335.829V42H333.669V40.872C332.677 41.816 331.485 42.288 330.093 42.288C328.605 42.288 327.341 41.744 326.301 40.656C325.293 39.584 324.789 38.232 324.789 36.6C324.789 34.984 325.293 33.632 326.301 32.544C327.341 31.456 328.605 30.912 330.093 30.912ZM332.661 34.104C332.037 33.432 331.261 33.096 330.333 33.096C329.421 33.096 328.637 33.432 327.981 34.104C327.357 34.776 327.045 35.608 327.045 36.6C327.045 37.592 327.357 38.424 327.981 39.096C328.637 39.768 329.421 40.104 330.333 40.104C331.261 40.104 332.037 39.768 332.661 39.096C333.301 38.44 333.621 37.608 333.621 36.6C333.621 35.592 333.301 34.76 332.661 34.104ZM340.551 42H338.391V31.2H340.551V42ZM339.471 26.304C339.871 26.304 340.207 26.44 340.479 26.712C340.751 26.984 340.887 27.32 340.887 27.72C340.887 28.36 340.591 28.8 339.999 29.04C339.407 29.28 338.887 29.184 338.439 28.752C338.007 28.304 337.911 27.784 338.151 27.192C338.391 26.6 338.831 26.304 339.471 26.304ZM342.067 33.12V31.2H343.699V29.04H345.883V31.2H348.811V33.12H345.883V38.424C345.883 38.84 346.019 39.192 346.291 39.48C346.563 39.768 346.899 39.912 347.299 39.912H348.811V42H347.155C346.179 42 345.355 41.688 344.683 41.064C344.027 40.408 343.699 39.616 343.699 38.688V33.12H342.067ZM361.347 37.392H352.419C352.595 38.224 353.003 38.912 353.643 39.456C354.299 39.984 355.075 40.248 355.971 40.248C357.171 40.248 358.123 39.8 358.827 38.904L360.939 39.552C360.459 40.384 359.771 41.048 358.875 41.544C357.995 42.04 357.027 42.288 355.971 42.288C354.339 42.288 352.963 41.744 351.843 40.656C350.739 39.568 350.187 38.216 350.187 36.6C350.187 34.968 350.723 33.616 351.795 32.544C352.883 31.456 354.219 30.912 355.803 30.912C357.371 30.912 358.699 31.456 359.787 32.544C360.859 33.616 361.395 34.968 361.395 36.6C361.395 36.904 361.379 37.168 361.347 37.392ZM352.443 35.664H359.163C358.971 34.848 358.563 34.192 357.939 33.696C357.315 33.2 356.587 32.952 355.755 32.952C354.955 32.952 354.243 33.208 353.619 33.72C353.011 34.216 352.619 34.864 352.443 35.664ZM370.976 33.672L368.96 34.032C368.688 33.232 367.984 32.832 366.848 32.832C366.32 32.832 365.888 32.944 365.552 33.168C365.216 33.376 365.048 33.648 365.048 33.984C365.048 34.432 365.4 34.792 366.104 35.064L368.528 35.904C370.288 36.528 371.168 37.56 371.168 39C371.168 40.04 370.784 40.848 370.016 41.424C369.248 42 368.248 42.288 367.016 42.288C365.8 42.288 364.808 42.016 364.04 41.472C363.272 40.928 362.816 40.192 362.672 39.264L364.736 38.952C364.816 39.384 365.064 39.728 365.48 39.984C365.912 40.24 366.44 40.368 367.064 40.368C367.656 40.368 368.144 40.248 368.528 40.008C368.912 39.768 369.104 39.456 369.104 39.072C369.104 38.544 368.664 38.128 367.784 37.824L365.384 37.032C363.768 36.472 362.96 35.512 362.96 34.152C362.96 33.112 363.328 32.312 364.064 31.752C364.8 31.192 365.784 30.912 367.016 30.912C368.12 30.912 369.024 31.16 369.728 31.656C370.432 32.152 370.848 32.824 370.976 33.672ZM381.702 43.272L382.326 41.712L378.102 31.2H380.358L383.43 39.024L386.574 31.2H388.83L383.574 44.016C383.094 45.184 382.494 46.04 381.774 46.584C381.054 47.128 380.158 47.4 379.086 47.4H378.702V45.312H379.086C380.286 45.312 381.158 44.632 381.702 43.272ZM390.994 40.656C389.922 39.584 389.386 38.232 389.386 36.6C389.386 34.968 389.922 33.616 390.994 32.544C392.082 31.456 393.434 30.912 395.05 30.912C396.666 30.912 398.018 31.456 399.106 32.544C400.194 33.632 400.738 34.984 400.738 36.6C400.738 38.216 400.194 39.568 399.106 40.656C398.018 41.744 396.666 42.288 395.05 42.288C393.434 42.288 392.082 41.744 390.994 40.656ZM392.602 34.104C391.962 34.76 391.642 35.592 391.642 36.6C391.642 37.608 391.962 38.44 392.602 39.096C393.242 39.768 394.058 40.104 395.05 40.104C396.01 40.104 396.818 39.768 397.474 39.096C398.13 38.408 398.458 37.576 398.458 36.6C398.458 35.624 398.13 34.792 397.474 34.104C396.818 33.432 396.01 33.096 395.05 33.096C394.058 33.096 393.242 33.432 392.602 34.104ZM402.777 38.016V31.2H404.961V37.416C404.961 38.216 405.225 38.88 405.753 39.408C406.281 39.936 406.937 40.2 407.721 40.2C408.553 40.2 409.241 39.928 409.785 39.384C410.345 38.824 410.625 38.16 410.625 37.392V31.2H412.785V42H410.625V40.44C409.809 41.672 408.633 42.288 407.097 42.288C405.849 42.288 404.817 41.88 404.001 41.064C403.185 40.248 402.777 39.232 402.777 38.016ZM417.521 31.2V32.76C418.337 31.528 419.513 30.912 421.049 30.912C421.225 30.912 421.337 30.92 421.385 30.936V33.36C421.145 33.248 420.825 33.192 420.425 33.192C419.593 33.192 418.897 33.456 418.337 33.984C417.793 34.512 417.521 35.176 417.521 35.976V42H415.361V31.2H417.521ZM431.179 31.2V32.76C431.995 31.528 433.171 30.912 434.707 30.912C434.883 30.912 434.995 30.92 435.043 30.936V33.36C434.803 33.248 434.483 33.192 434.083 33.192C433.251 33.192 432.555 33.456 431.995 33.984C431.451 34.512 431.179 35.176 431.179 35.976V42H429.019V31.2H431.179ZM437.41 40.656C436.338 39.584 435.802 38.232 435.802 36.6C435.802 34.968 436.338 33.616 437.41 32.544C438.498 31.456 439.85 30.912 441.466 30.912C443.082 30.912 444.434 31.456 445.522 32.544C446.61 33.632 447.154 34.984 447.154 36.6C447.154 38.216 446.61 39.568 445.522 40.656C444.434 41.744 443.082 42.288 441.466 42.288C439.85 42.288 438.498 41.744 437.41 40.656ZM439.018 34.104C438.378 34.76 438.058 35.592 438.058 36.6C438.058 37.608 438.378 38.44 439.018 39.096C439.658 39.768 440.474 40.104 441.466 40.104C442.426 40.104 443.234 39.768 443.89 39.096C444.546 38.408 444.874 37.576 444.874 36.6C444.874 35.624 444.546 34.792 443.89 34.104C443.234 33.432 442.426 33.096 441.466 33.096C440.474 33.096 439.658 33.432 439.018 34.104ZM449.193 38.016V31.2H451.377V37.416C451.377 38.216 451.641 38.88 452.169 39.408C452.697 39.936 453.353 40.2 454.137 40.2C454.969 40.2 455.657 39.928 456.201 39.384C456.761 38.824 457.041 38.16 457.041 37.392V31.2H459.201V42H457.041V40.44C456.225 41.672 455.049 42.288 453.513 42.288C452.265 42.288 451.233 41.88 450.417 41.064C449.601 40.248 449.193 39.232 449.193 38.016ZM460.72 33.12V31.2H462.352V29.04H464.536V31.2H467.464V33.12H464.536V38.424C464.536 38.84 464.672 39.192 464.944 39.48C465.216 39.768 465.552 39.912 465.952 39.912H467.464V42H465.808C464.832 42 464.008 41.688 463.336 41.064C462.68 40.408 462.352 39.616 462.352 38.688V33.12H460.72ZM480.001 37.392H471.073C471.249 38.224 471.657 38.912 472.297 39.456C472.953 39.984 473.729 40.248 474.625 40.248C475.825 40.248 476.777 39.8 477.481 38.904L479.593 39.552C479.113 40.384 478.425 41.048 477.529 41.544C476.649 42.04 475.681 42.288 474.625 42.288C472.993 42.288 471.617 41.744 470.497 40.656C469.393 39.568 468.841 38.216 468.841 36.6C468.841 34.968 469.377 33.616 470.449 32.544C471.537 31.456 472.873 30.912 474.457 30.912C476.025 30.912 477.353 31.456 478.441 32.544C479.513 33.616 480.049 34.968 480.049 36.6C480.049 36.904 480.033 37.168 480.001 37.392ZM471.097 35.664H477.817C477.625 34.848 477.217 34.192 476.593 33.696C475.969 33.2 475.241 32.952 474.409 32.952C473.609 32.952 472.897 33.208 472.273 33.72C471.665 34.216 471.273 34.864 471.097 35.664ZM0.288 57.12V55.2H1.92V53.04H4.104V55.2H7.032V57.12H4.104V62.424C4.104 62.84 4.24 63.192 4.512 63.48C4.784 63.768 5.12 63.912 5.52 63.912H7.032V66H5.376C4.4 66 3.576 65.688 2.904 65.064C2.248 64.408 1.92 63.616 1.92 62.688V57.12H0.288ZM10.0161 64.656C8.94406 63.584 8.40806 62.232 8.40806 60.6C8.40806 58.968 8.94406 57.616 10.0161 56.544C11.1041 55.456 12.4561 54.912 14.0721 54.912C15.6881 54.912 17.0401 55.456 18.1281 56.544C19.2161 57.632 19.7601 58.984 19.7601 60.6C19.7601 62.216 19.2161 63.568 18.1281 64.656C17.0401 65.744 15.6881 66.288 14.0721 66.288C12.4561 66.288 11.1041 65.744 10.0161 64.656ZM11.6241 58.104C10.9841 58.76 10.6641 59.592 10.6641 60.6C10.6641 61.608 10.9841 62.44 11.6241 63.096C12.2641 63.768 13.0801 64.104 14.0721 64.104C15.0321 64.104 15.8401 63.768 16.4961 63.096C17.1521 62.408 17.4801 61.576 17.4801 60.6C17.4801 59.624 17.1521 58.792 16.4961 58.104C15.8401 57.432 15.0321 57.096 14.0721 57.096C13.0801 57.096 12.2641 57.432 11.6241 58.104ZM30.0034 66H27.8434V55.2H30.0034V56.568C30.7394 55.464 31.8354 54.912 33.2914 54.912C34.0434 54.912 34.7234 55.088 35.3314 55.44C35.9554 55.776 36.4434 56.24 36.7954 56.832C37.5474 55.552 38.7554 54.912 40.4194 54.912C41.6514 54.912 42.6754 55.296 43.4914 56.064C44.3074 56.832 44.7154 57.792 44.7154 58.944V66H42.5554V59.544C42.5554 58.824 42.3154 58.224 41.8354 57.744C41.3554 57.248 40.7474 57 40.0114 57C39.2594 57 38.6274 57.248 38.1154 57.744C37.6194 58.224 37.3714 58.832 37.3714 59.568V66H35.1874V59.544C35.1874 58.824 34.9474 58.224 34.4674 57.744C33.9874 57.248 33.3874 57 32.6674 57C31.9154 57 31.2834 57.248 30.7714 57.744C30.2594 58.224 30.0034 58.832 30.0034 59.568V66ZM52.0943 54.912C53.4863 54.912 54.6783 55.384 55.6703 56.328V55.2H57.8303V66H55.6703V64.872C54.6783 65.816 53.4863 66.288 52.0943 66.288C50.6063 66.288 49.3423 65.744 48.3023 64.656C47.2943 63.584 46.7903 62.232 46.7903 60.6C46.7903 58.984 47.2943 57.632 48.3023 56.544C49.3423 55.456 50.6063 54.912 52.0943 54.912ZM54.6623 58.104C54.0383 57.432 53.2623 57.096 52.3343 57.096C51.4223 57.096 50.6383 57.432 49.9823 58.104C49.3583 58.776 49.0463 59.608 49.0463 60.6C49.0463 61.592 49.3583 62.424 49.9823 63.096C50.6383 63.768 51.4223 64.104 52.3343 64.104C53.2623 64.104 54.0383 63.768 54.6623 63.096C55.3023 62.44 55.6223 61.608 55.6223 60.6C55.6223 59.592 55.3023 58.76 54.6623 58.104ZM62.5524 55.2V56.76C63.3684 55.528 64.5444 54.912 66.0804 54.912C66.2564 54.912 66.3684 54.92 66.4164 54.936V57.36C66.1764 57.248 65.8564 57.192 65.4564 57.192C64.6244 57.192 63.9284 57.456 63.3684 57.984C62.8244 58.512 62.5524 59.176 62.5524 59.976V66H60.3924V55.2H62.5524ZM68.0302 66V48.6H70.1902V60.192L74.2702 55.2H76.9342L72.6862 60.408L77.3902 66H74.7022L70.1902 60.6V66H68.0302ZM88.9965 61.392H80.0685C80.2445 62.224 80.6525 62.912 81.2925 63.456C81.9485 63.984 82.7245 64.248 83.6205 64.248C84.8205 64.248 85.7725 63.8 86.4765 62.904L88.5885 63.552C88.1085 64.384 87.4205 65.048 86.5245 65.544C85.6445 66.04 84.6765 66.288 83.6205 66.288C81.9885 66.288 80.6125 65.744 79.4925 64.656C78.3885 63.568 77.8365 62.216 77.8365 60.6C77.8365 58.968 78.3725 57.616 79.4445 56.544C80.5325 55.456 81.8685 54.912 83.4525 54.912C85.0205 54.912 86.3485 55.456 87.4365 56.544C88.5085 57.616 89.0445 58.968 89.0445 60.6C89.0445 60.904 89.0285 61.168 88.9965 61.392ZM80.0925 59.664H86.8125C86.6205 58.848 86.2125 58.192 85.5885 57.696C84.9645 57.2 84.2365 56.952 83.4045 56.952C82.6045 56.952 81.8925 57.208 81.2685 57.72C80.6605 58.216 80.2685 58.864 80.0925 59.664ZM89.8671 57.12V55.2H91.4991V53.04H93.6831V55.2H96.6111V57.12H93.6831V62.424C93.6831 62.84 93.8191 63.192 94.0911 63.48C94.3631 63.768 94.6991 63.912 95.0991 63.912H96.6111V66H94.9551C93.9791 66 93.1551 65.688 92.4831 65.064C91.8271 64.408 91.4991 63.616 91.4991 62.688V57.12H89.8671ZM98.466 65.88C98.194 65.592 98.058 65.24 98.058 64.824C98.058 64.408 98.194 64.064 98.466 63.792C98.754 63.504 99.106 63.36 99.522 63.36C99.938 63.36 100.282 63.504 100.554 63.792C100.826 64.064 100.962 64.408 100.962 64.824C100.962 65.24 100.826 65.592 100.554 65.88C100.282 66.152 99.938 66.288 99.522 66.288C99.106 66.288 98.754 66.152 98.466 65.88Z" fill="#1E1E1E"/>
</svg>
