<svg width="158" height="16" viewBox="0 0 158 16" fill="none" xmlns="http://www.w3.org/2000/svg">
<path d="M9.8 8.6L7.98 9.16C7.75333 8.68 7.41333 8.3 6.96 8.02C6.50667 7.72667 6 7.58 5.44 7.58C4.61333 7.58 3.93333 7.86 3.4 8.42C2.86667 8.96667 2.6 9.66 2.6 10.5C2.6 11.34 2.86667 12.0333 3.4 12.58C3.93333 13.14 4.61333 13.42 5.44 13.42C6 13.42 6.50667 13.28 6.96 13C7.41333 12.7067 7.75333 12.32 7.98 11.84L9.8 12.38C9.44 13.26 8.86667 13.96 8.08 14.48C7.30667 14.9867 6.42667 15.24 5.44 15.24C4.09333 15.24 2.96667 14.7867 2.06 13.88C1.16667 12.9867 0.72 11.86 0.72 10.5C0.72 9.14 1.16667 8.01333 2.06 7.12C2.96667 6.21333 4.09333 5.76 5.44 5.76C6.44 5.76 7.32667 6.01333 8.1 6.52C8.87333 7.02667 9.44 7.72 9.8 8.6ZM12.2725 13.88C11.3792 12.9867 10.9325 11.86 10.9325 10.5C10.9325 9.14 11.3792 8.01333 12.2725 7.12C13.1792 6.21333 14.3058 5.76 15.6525 5.76C16.9992 5.76 18.1258 6.21333 19.0325 7.12C19.9392 8.02667 20.3925 9.15333 20.3925 10.5C20.3925 11.8467 19.9392 12.9733 19.0325 13.88C18.1258 14.7867 16.9992 15.24 15.6525 15.24C14.3058 15.24 13.1792 14.7867 12.2725 13.88ZM13.6125 8.42C13.0792 8.96667 12.8125 9.66 12.8125 10.5C12.8125 11.34 13.0792 12.0333 13.6125 12.58C14.1458 13.14 14.8258 13.42 15.6525 13.42C16.4525 13.42 17.1258 13.14 17.6725 12.58C18.2192 12.0067 18.4925 11.3133 18.4925 10.5C18.4925 9.68667 18.2192 8.99333 17.6725 8.42C17.1258 7.86 16.4525 7.58 15.6525 7.58C14.8258 7.58 14.1458 7.86 13.6125 8.42ZM23.9114 15H22.1114V0.5H23.9114V15ZM27.8544 15H26.0544V0.5H27.8544V15ZM34.0173 5.76C35.1773 5.76 36.1707 6.15333 36.9973 6.94V6H38.7973V15H36.9973V14.06C36.1707 14.8467 35.1773 15.24 34.0173 15.24C32.7773 15.24 31.724 14.7867 30.8573 13.88C30.0173 12.9867 29.5973 11.86 29.5973 10.5C29.5973 9.15333 30.0173 8.02667 30.8573 7.12C31.724 6.21333 32.7773 5.76 34.0173 5.76ZM36.1573 8.42C35.6373 7.86 34.9907 7.58 34.2173 7.58C33.4573 7.58 32.804 7.86 32.2573 8.42C31.7373 8.98 31.4773 9.67333 31.4773 10.5C31.4773 11.3267 31.7373 12.02 32.2573 12.58C32.804 13.14 33.4573 13.42 34.2173 13.42C34.9907 13.42 35.6373 13.14 36.1573 12.58C36.6907 12.0333 36.9573 11.34 36.9573 10.5C36.9573 9.66 36.6907 8.96667 36.1573 8.42ZM40.9325 15V0.5H42.7325V6.94C43.5592 6.15333 44.5525 5.76 45.7125 5.76C46.9658 5.76 48.0125 6.21333 48.8525 7.12C49.7058 8.01333 50.1325 9.14 50.1325 10.5C50.1325 11.86 49.7058 12.9867 48.8525 13.88C48.0125 14.7867 46.9658 15.24 45.7125 15.24C44.5525 15.24 43.5592 14.8467 42.7325 14.06V15H40.9325ZM47.4525 8.42C46.9325 7.86 46.2858 7.58 45.5125 7.58C44.7525 7.58 44.0992 7.86 43.5525 8.42C43.0325 8.98 42.7725 9.67333 42.7725 10.5C42.7725 11.3267 43.0325 12.02 43.5525 12.58C44.0992 13.14 44.7525 13.42 45.5125 13.42C46.2858 13.42 46.9325 13.14 47.4525 12.58C47.9858 12.0333 48.2525 11.34 48.2525 10.5C48.2525 9.66 47.9858 8.96667 47.4525 8.42ZM52.8077 13.88C51.9143 12.9867 51.4677 11.86 51.4677 10.5C51.4677 9.14 51.9143 8.01333 52.8077 7.12C53.7143 6.21333 54.841 5.76 56.1877 5.76C57.5343 5.76 58.661 6.21333 59.5677 7.12C60.4743 8.02667 60.9277 9.15333 60.9277 10.5C60.9277 11.8467 60.4743 12.9733 59.5677 13.88C58.661 14.7867 57.5343 15.24 56.1877 15.24C54.841 15.24 53.7143 14.7867 52.8077 13.88ZM54.1477 8.42C53.6143 8.96667 53.3477 9.66 53.3477 10.5C53.3477 11.34 53.6143 12.0333 54.1477 12.58C54.681 13.14 55.361 13.42 56.1877 13.42C56.9877 13.42 57.661 13.14 58.2077 12.58C58.7543 12.0067 59.0277 11.3133 59.0277 10.5C59.0277 9.68667 58.7543 8.99333 58.2077 8.42C57.661 7.86 56.9877 7.58 56.1877 7.58C55.361 7.58 54.681 7.86 54.1477 8.42ZM64.4466 6V7.3C65.1266 6.27333 66.1066 5.76 67.3866 5.76C67.5332 5.76 67.6266 5.76667 67.6666 5.78V7.8C67.4666 7.70667 67.1999 7.66 66.8666 7.66C66.1732 7.66 65.5932 7.88 65.1266 8.32C64.6732 8.76 64.4466 9.31333 64.4466 9.98V15H62.6466V6H64.4466ZM72.7189 5.76C73.8789 5.76 74.8722 6.15333 75.6989 6.94V6H77.4989V15H75.6989V14.06C74.8722 14.8467 73.8789 15.24 72.7189 15.24C71.4789 15.24 70.4256 14.7867 69.5589 13.88C68.7189 12.9867 68.2989 11.86 68.2989 10.5C68.2989 9.15333 68.7189 8.02667 69.5589 7.12C70.4256 6.21333 71.4789 5.76 72.7189 5.76ZM74.8589 8.42C74.3389 7.86 73.6922 7.58 72.9189 7.58C72.1589 7.58 71.5056 7.86 70.9589 8.42C70.4389 8.98 70.1789 9.67333 70.1789 10.5C70.1789 11.3267 70.4389 12.02 70.9589 12.58C71.5056 13.14 72.1589 13.42 72.9189 13.42C73.6922 13.42 74.3389 13.14 74.8589 12.58C75.3922 12.0333 75.6589 11.34 75.6589 10.5C75.6589 9.66 75.3922 8.96667 74.8589 8.42ZM78.7541 7.6V6H80.1141V4.2H81.9341V6H84.3741V7.6H81.9341V12.02C81.9341 12.3667 82.0474 12.66 82.2741 12.9C82.5007 13.14 82.7807 13.26 83.1141 13.26H84.3741V15H82.9941C82.1807 15 81.4941 14.74 80.9341 14.22C80.3874 13.6733 80.1141 13.0133 80.1141 12.24V7.6H78.7541ZM94.8208 11.16H87.3808C87.5274 11.8533 87.8674 12.4267 88.4008 12.88C88.9474 13.32 89.5941 13.54 90.3408 13.54C91.3408 13.54 92.1341 13.1667 92.7208 12.42L94.4808 12.96C94.0808 13.6533 93.5074 14.2067 92.7608 14.62C92.0274 15.0333 91.2208 15.24 90.3408 15.24C88.9808 15.24 87.8341 14.7867 86.9008 13.88C85.9808 12.9733 85.5208 11.8467 85.5208 10.5C85.5208 9.14 85.9674 8.01333 86.8608 7.12C87.7674 6.21333 88.8808 5.76 90.2008 5.76C91.5074 5.76 92.6141 6.21333 93.5208 7.12C94.4141 8.01333 94.8608 9.14 94.8608 10.5C94.8608 10.7533 94.8474 10.9733 94.8208 11.16ZM87.4008 9.72H93.0008C92.8408 9.04 92.5008 8.49333 91.9808 8.08C91.4608 7.66667 90.8541 7.46 90.1608 7.46C89.4941 7.46 88.9008 7.67333 88.3808 8.1C87.8741 8.51333 87.5474 9.05333 87.4008 9.72ZM105.183 15H103.583L100.583 6H102.423L104.383 12.2L106.323 6H107.943L109.903 12.2L111.843 6H113.663L110.683 15H109.063L107.143 9L105.183 15ZM116.698 15H114.898V6H116.698V15ZM115.798 1.92C116.131 1.92 116.411 2.03333 116.638 2.26C116.865 2.48667 116.978 2.76667 116.978 3.1C116.978 3.63333 116.731 4 116.238 4.2C115.745 4.4 115.311 4.32 114.938 3.96C114.578 3.58667 114.498 3.15333 114.698 2.66C114.898 2.16667 115.265 1.92 115.798 1.92ZM117.961 7.6V6H119.321V4.2H121.141V6H123.581V7.6H121.141V12.02C121.141 12.3667 121.254 12.66 121.481 12.9C121.708 13.14 121.988 13.26 122.321 13.26H123.581V15H122.201C121.388 15 120.701 14.74 120.141 14.22C119.594 13.6733 119.321 13.0133 119.321 12.24V7.6H117.961ZM125.167 15V0.5H126.967V7.3C127.647 6.27333 128.647 5.76 129.967 5.76C131.007 5.76 131.88 6.1 132.587 6.78C133.28 7.43333 133.627 8.28 133.627 9.32V15H131.807V9.82C131.807 9.15333 131.58 8.6 131.127 8.16C130.687 7.72 130.127 7.5 129.447 7.5C128.74 7.5 128.147 7.72667 127.667 8.18C127.2 8.62 126.967 9.17333 126.967 9.84V15H125.167ZM140.748 11.68V6H142.568V11.18C142.568 11.8467 142.788 12.4 143.228 12.84C143.668 13.28 144.214 13.5 144.868 13.5C145.561 13.5 146.134 13.2733 146.588 12.82C147.054 12.3533 147.288 11.8 147.288 11.16V6H149.088V15H147.288V13.7C146.608 14.7267 145.628 15.24 144.348 15.24C143.308 15.24 142.448 14.9 141.768 14.22C141.088 13.54 140.748 12.6933 140.748 11.68ZM157.614 8.06L155.934 8.36C155.707 7.69333 155.121 7.36 154.174 7.36C153.734 7.36 153.374 7.45333 153.094 7.64C152.814 7.81333 152.674 8.04 152.674 8.32C152.674 8.69333 152.967 8.99333 153.554 9.22L155.574 9.92C157.041 10.44 157.774 11.3 157.774 12.5C157.774 13.3667 157.454 14.04 156.814 14.52C156.174 15 155.341 15.24 154.314 15.24C153.301 15.24 152.474 15.0133 151.834 14.56C151.194 14.1067 150.814 13.4933 150.694 12.72L152.414 12.46C152.481 12.82 152.687 13.1067 153.034 13.32C153.394 13.5333 153.834 13.64 154.354 13.64C154.847 13.64 155.254 13.54 155.574 13.34C155.894 13.14 156.054 12.88 156.054 12.56C156.054 12.12 155.687 11.7733 154.954 11.52L152.954 10.86C151.607 10.3933 150.934 9.59333 150.934 8.46C150.934 7.59333 151.241 6.92667 151.854 6.46C152.467 5.99333 153.287 5.76 154.314 5.76C155.234 5.76 155.987 5.96667 156.574 6.38C157.161 6.79333 157.507 7.35333 157.614 8.06Z" fill="#1E1E1E"/>
</svg>
