<svg width="84" height="21" viewBox="0 0 84 21" fill="none" xmlns="http://www.w3.org/2000/svg">
<g filter="url(#filter0_d_1093_192)">
<path d="M6.023 12H4.238L9.236 0.525H10.613L15.594 12H13.826L12.772 9.552H7.077L6.023 12ZM12.092 7.988L9.933 2.939L7.757 7.988H12.092ZM19.2074 12H17.8474L15.2974 4.35H16.8614L18.5274 9.62L20.1764 4.35H21.5534L23.2194 9.62L24.8684 4.35H26.4154L23.8824 12H22.5054L20.8734 6.9L19.2074 12ZM34.9703 8.736H28.6463C28.7709 9.32533 29.0599 9.81267 29.5133 10.198C29.9779 10.572 30.5276 10.759 31.1623 10.759C32.0123 10.759 32.6866 10.4417 33.1853 9.807L34.6813 10.266C34.3413 10.8553 33.8539 11.3257 33.2193 11.677C32.5959 12.0283 31.9103 12.204 31.1623 12.204C30.0063 12.204 29.0316 11.8187 28.2383 11.048C27.4563 10.2773 27.0653 9.31967 27.0653 8.175C27.0653 7.019 27.4449 6.06133 28.2043 5.302C28.9749 4.53133 29.9213 4.146 31.0433 4.146C32.1539 4.146 33.0946 4.53133 33.8653 5.302C34.6246 6.06133 35.0043 7.019 35.0043 8.175C35.0043 8.39033 34.9929 8.57733 34.9703 8.736ZM28.6633 7.512H33.4233C33.2873 6.934 32.9983 6.46933 32.5563 6.118C32.1143 5.76667 31.5986 5.591 31.0093 5.591C30.4426 5.591 29.9383 5.77233 29.4963 6.135C29.0656 6.48633 28.7879 6.94533 28.6633 7.512ZM36.7421 8.872V7.461H41.1621V8.872H36.7421ZM51.3238 2.888L49.6408 3.381C49.5388 2.973 49.2724 2.633 48.8418 2.361C48.4224 2.089 47.9294 1.953 47.3628 1.953C46.7508 1.953 46.2294 2.106 45.7988 2.412C45.3794 2.718 45.1698 3.09767 45.1698 3.551C45.1698 4.03833 45.4644 4.435 46.0538 4.741C46.3598 4.88833 46.6714 5.00733 46.9888 5.098L48.2638 5.455C49.0571 5.67033 49.6634 5.88567 50.0828 6.101C50.5928 6.339 50.9781 6.662 51.2388 7.07C51.5108 7.478 51.6694 8.022 51.7148 8.702C51.7148 9.756 51.3238 10.606 50.5418 11.252C49.7484 11.8867 48.7398 12.204 47.5158 12.204C46.4051 12.204 45.4588 11.949 44.6768 11.439C43.8834 10.9063 43.3791 10.2433 43.1638 9.45L44.8468 8.94C44.9488 9.40467 45.2491 9.79567 45.7478 10.113C46.2464 10.419 46.8414 10.572 47.5328 10.572C48.2468 10.572 48.8361 10.4133 49.3008 10.096C49.7768 9.76733 50.0148 9.348 50.0148 8.838C50.0148 8.50933 49.8844 8.21467 49.6238 7.954C49.3971 7.72733 49.1534 7.55733 48.8928 7.444C48.6321 7.33067 48.2581 7.21733 47.7708 7.104C46.3994 6.70733 45.4871 6.38433 45.0338 6.135C44.0024 5.57967 43.4868 4.75233 43.4868 3.653C43.4868 2.667 43.8438 1.868 44.5578 1.256C45.2831 0.632666 46.2068 0.320999 47.3288 0.320999C48.3374 0.320999 49.2044 0.564666 49.9298 1.052C50.6551 1.53933 51.1198 2.15133 51.3238 2.888ZM53.4647 9.178V4.35H55.0117V8.753C55.0117 9.31967 55.1987 9.79 55.5727 10.164C55.9467 10.538 56.4114 10.725 56.9667 10.725C57.556 10.725 58.0434 10.5323 58.4287 10.147C58.8254 9.75033 59.0237 9.28 59.0237 8.736V4.35H60.5537V12H59.0237V10.895C58.4457 11.7677 57.6127 12.204 56.5247 12.204C55.6407 12.204 54.9097 11.915 54.3317 11.337C53.7537 10.759 53.4647 10.0393 53.4647 9.178ZM64.1631 12H62.6331V4.35H64.1631V12ZM63.3981 0.881999C63.6815 0.881999 63.9195 0.978333 64.1121 1.171C64.3048 1.36367 64.4011 1.60167 64.4011 1.885C64.4011 2.33833 64.1915 2.65 63.7721 2.82C63.3528 2.99 62.9845 2.922 62.6671 2.616C62.3611 2.29867 62.2931 1.93033 62.4631 1.511C62.6331 1.09167 62.9448 0.881999 63.3981 0.881999ZM65.4917 5.71V4.35H66.6477V2.82H68.1947V4.35H70.2687V5.71H68.1947V9.467C68.1947 9.76167 68.291 10.011 68.4837 10.215C68.6763 10.419 68.9143 10.521 69.1977 10.521H70.2687V12H69.0957C68.4043 12 67.8207 11.779 67.3447 11.337C66.88 10.8723 66.6477 10.3113 66.6477 9.654V5.71H65.4917ZM79.4034 8.736H73.0794C73.204 9.32533 73.493 9.81267 73.9464 10.198C74.411 10.572 74.9607 10.759 75.5954 10.759C76.4454 10.759 77.1197 10.4417 77.6184 9.807L79.1144 10.266C78.7744 10.8553 78.287 11.3257 77.6524 11.677C77.029 12.0283 76.3434 12.204 75.5954 12.204C74.4394 12.204 73.4647 11.8187 72.6714 11.048C71.8894 10.2773 71.4984 9.31967 71.4984 8.175C71.4984 7.019 71.878 6.06133 72.6374 5.302C73.408 4.53133 74.3544 4.146 75.4764 4.146C76.587 4.146 77.5277 4.53133 78.2984 5.302C79.0577 6.06133 79.4374 7.019 79.4374 8.175C79.4374 8.39033 79.426 8.57733 79.4034 8.736ZM73.0964 7.512H77.8564C77.7204 6.934 77.4314 6.46933 76.9894 6.118C76.5474 5.76667 76.0317 5.591 75.4424 5.591C74.8757 5.591 74.3714 5.77233 73.9294 6.135C73.4987 6.48633 73.221 6.94533 73.0964 7.512Z" fill="#DFDCDC"/>
</g>
<defs>
<filter id="filter0_d_1093_192" x="0.238037" y="0.321045" width="83.1993" height="19.8829" filterUnits="userSpaceOnUse" color-interpolation-filters="sRGB">
<feFlood flood-opacity="0" result="BackgroundImageFix"/>
<feColorMatrix in="SourceAlpha" type="matrix" values="0 0 0 0 0 0 0 0 0 0 0 0 0 0 0 0 0 0 127 0" result="hardAlpha"/>
<feOffset dy="4"/>
<feGaussianBlur stdDeviation="2"/>
<feComposite in2="hardAlpha" operator="out"/>
<feColorMatrix type="matrix" values="0 0 0 0 0 0 0 0 0 0 0 0 0 0 0 0 0 0 0.25 0"/>
<feBlend mode="normal" in2="BackgroundImageFix" result="effect1_dropShadow_1093_192"/>
<feBlend mode="normal" in="SourceGraphic" in2="effect1_dropShadow_1093_192" result="shape"/>
</filter>
</defs>
</svg>
