<svg width="197" height="16" viewBox="0 0 197 16" fill="none" xmlns="http://www.w3.org/2000/svg">
<path d="M2.023 12H0.238L5.236 0.525H6.613L11.594 12H9.826L8.772 9.552H3.077L2.023 12ZM8.092 7.988L5.933 2.939L3.757 7.988H8.092ZM15.2074 12H13.8474L11.2974 4.35H12.8614L14.5274 9.62L16.1764 4.35H17.5534L19.2194 9.62L20.8684 4.35H22.4154L19.8824 12H18.5054L16.8734 6.9L15.2074 12ZM30.9703 8.736H24.6463C24.7709 9.32533 25.0599 9.81267 25.5133 10.198C25.9779 10.572 26.5276 10.759 27.1623 10.759C28.0123 10.759 28.6866 10.4417 29.1853 9.807L30.6813 10.266C30.3413 10.8553 29.8539 11.3257 29.2193 11.677C28.5959 12.0283 27.9103 12.204 27.1623 12.204C26.0063 12.204 25.0316 11.8187 24.2383 11.048C23.4563 10.2773 23.0653 9.31967 23.0653 8.175C23.0653 7.019 23.4449 6.06133 24.2043 5.302C24.9749 4.53133 25.9213 4.146 27.0433 4.146C28.1539 4.146 29.0946 4.53133 29.8653 5.302C30.6246 6.06133 31.0043 7.019 31.0043 8.175C31.0043 8.39033 30.9929 8.57733 30.9703 8.736ZM24.6633 7.512H29.4233C29.2873 6.934 28.9983 6.46933 28.5563 6.118C28.1143 5.76667 27.5986 5.591 27.0093 5.591C26.4426 5.591 25.9383 5.77233 25.4963 6.135C25.0656 6.48633 24.7879 6.94533 24.6633 7.512ZM32.7421 8.872V7.461H37.1621V8.872H32.7421ZM39.3508 12V4.35H40.8808V5.455C41.4588 4.58233 42.2918 4.146 43.3798 4.146C44.2638 4.146 44.9948 4.435 45.5728 5.013C46.1508 5.56833 46.4398 6.28233 46.4398 7.155V12H44.8928V7.597C44.8928 7.03033 44.7058 6.56 44.3318 6.186C43.9578 5.812 43.4931 5.625 42.9378 5.625C42.3598 5.625 41.8724 5.81767 41.4758 6.203C41.0791 6.577 40.8808 7.04733 40.8808 7.614V12H39.3508ZM47.7542 5.71V4.35H48.9102V2.82H50.4572V4.35H52.5312V5.71H50.4572V9.467C50.4572 9.76167 50.5535 10.011 50.7462 10.215C50.9389 10.419 51.1769 10.521 51.4602 10.521H52.5312V12H51.3582C50.6669 12 50.0832 11.779 49.6072 11.337C49.1425 10.8723 48.9102 10.3113 48.9102 9.654V5.71H47.7542ZM55.6641 4.35V5.455C56.2421 4.58233 57.0751 4.146 58.1631 4.146C58.2878 4.146 58.3671 4.15167 58.4011 4.163V5.88C58.2311 5.80067 58.0044 5.761 57.7211 5.761C57.1318 5.761 56.6388 5.948 56.2421 6.322C55.8568 6.696 55.6641 7.16633 55.6641 7.733V12H54.1341V4.35H55.6641ZM67.0986 8.736H60.7746C60.8993 9.32533 61.1883 9.81267 61.6416 10.198C62.1063 10.572 62.6559 10.759 63.2906 10.759C64.1406 10.759 64.8149 10.4417 65.3136 9.807L66.8096 10.266C66.4696 10.8553 65.9823 11.3257 65.3476 11.677C64.7243 12.0283 64.0386 12.204 63.2906 12.204C62.1346 12.204 61.1599 11.8187 60.3666 11.048C59.5846 10.2773 59.1936 9.31967 59.1936 8.175C59.1936 7.019 59.5733 6.06133 60.3326 5.302C61.1033 4.53133 62.0496 4.146 63.1716 4.146C64.2823 4.146 65.2229 4.53133 65.9936 5.302C66.7529 6.06133 67.1326 7.019 67.1326 8.175C67.1326 8.39033 67.1213 8.57733 67.0986 8.736ZM60.7916 7.512H65.5516C65.4156 6.934 65.1266 6.46933 64.6846 6.118C64.2426 5.76667 63.7269 5.591 63.1376 5.591C62.5709 5.591 62.0666 5.77233 61.6246 6.135C61.1939 6.48633 60.9163 6.94533 60.7916 7.512ZM70.2815 15.825H68.7515V4.35H70.2815V5.149C70.9841 4.48033 71.8285 4.146 72.8145 4.146C73.8798 4.146 74.7695 4.53133 75.4835 5.302C76.2088 6.06133 76.5715 7.019 76.5715 8.175C76.5715 9.331 76.2088 10.2887 75.4835 11.048C74.7695 11.8187 73.8798 12.204 72.8145 12.204C71.8285 12.204 70.9841 11.8697 70.2815 11.201V15.825ZM74.2935 6.407C73.8515 5.931 73.3018 5.693 72.6445 5.693C71.9985 5.693 71.4431 5.931 70.9785 6.407C70.5365 6.883 70.3155 7.47233 70.3155 8.175C70.3155 8.87767 70.5365 9.467 70.9785 9.943C71.4431 10.419 71.9985 10.657 72.6445 10.657C73.3018 10.657 73.8515 10.419 74.2935 9.943C74.7468 9.47833 74.9735 8.889 74.9735 8.175C74.9735 7.461 74.7468 6.87167 74.2935 6.407ZM79.8313 4.35V5.455C80.4093 4.58233 81.2423 4.146 82.3303 4.146C82.455 4.146 82.5343 4.15167 82.5683 4.163V5.88C82.3983 5.80067 82.1717 5.761 81.8883 5.761C81.299 5.761 80.806 5.948 80.4093 6.322C80.024 6.696 79.8313 7.16633 79.8313 7.733V12H78.3013V4.35H79.8313ZM91.2658 8.736H84.9418C85.0665 9.32533 85.3555 9.81267 85.8088 10.198C86.2735 10.572 86.8232 10.759 87.4578 10.759C88.3078 10.759 88.9822 10.4417 89.4808 9.807L90.9768 10.266C90.6368 10.8553 90.1495 11.3257 89.5148 11.677C88.8915 12.0283 88.2058 12.204 87.4578 12.204C86.3018 12.204 85.3272 11.8187 84.5338 11.048C83.7518 10.2773 83.3608 9.31967 83.3608 8.175C83.3608 7.019 83.7405 6.06133 84.4998 5.302C85.2705 4.53133 86.2168 4.146 87.3388 4.146C88.4495 4.146 89.3902 4.53133 90.1608 5.302C90.9202 6.06133 91.2998 7.019 91.2998 8.175C91.2998 8.39033 91.2885 8.57733 91.2658 8.736ZM84.9588 7.512H89.7188C89.5828 6.934 89.2938 6.46933 88.8518 6.118C88.4098 5.76667 87.8942 5.591 87.3048 5.591C86.7382 5.591 86.2338 5.77233 85.7918 6.135C85.3612 6.48633 85.0835 6.94533 84.9588 7.512ZM92.9187 12V4.35H94.4487V5.455C95.0267 4.58233 95.8597 4.146 96.9477 4.146C97.8317 4.146 98.5627 4.435 99.1407 5.013C99.7187 5.56833 100.008 6.28233 100.008 7.155V12H98.4607V7.597C98.4607 7.03033 98.2737 6.56 97.8997 6.186C97.5257 5.812 97.061 5.625 96.5057 5.625C95.9277 5.625 95.4403 5.81767 95.0437 6.203C94.647 6.577 94.4487 7.04733 94.4487 7.614V12H92.9187ZM109.635 8.736H103.311C103.436 9.32533 103.725 9.81267 104.178 10.198C104.643 10.572 105.192 10.759 105.827 10.759C106.677 10.759 107.351 10.4417 107.85 9.807L109.346 10.266C109.006 10.8553 108.519 11.3257 107.884 11.677C107.261 12.0283 106.575 12.204 105.827 12.204C104.671 12.204 103.696 11.8187 102.903 11.048C102.121 10.2773 101.73 9.31967 101.73 8.175C101.73 7.019 102.11 6.06133 102.869 5.302C103.64 4.53133 104.586 4.146 105.708 4.146C106.819 4.146 107.759 4.53133 108.53 5.302C109.289 6.06133 109.669 7.019 109.669 8.175C109.669 8.39033 109.658 8.57733 109.635 8.736ZM103.328 7.512H108.088C107.952 6.934 107.663 6.46933 107.221 6.118C106.779 5.76667 106.263 5.591 105.674 5.591C105.107 5.591 104.603 5.77233 104.161 6.135C103.73 6.48633 103.453 6.94533 103.328 7.512ZM111.271 9.178V4.35H112.818V8.753C112.818 9.31967 113.005 9.79 113.379 10.164C113.753 10.538 114.218 10.725 114.773 10.725C115.362 10.725 115.85 10.5323 116.235 10.147C116.632 9.75033 116.83 9.28 116.83 8.736V4.35H118.36V12H116.83V10.895C116.252 11.7677 115.419 12.204 114.331 12.204C113.447 12.204 112.716 11.915 112.138 11.337C111.56 10.759 111.271 10.0393 111.271 9.178ZM121.969 4.35V5.455C122.547 4.58233 123.38 4.146 124.468 4.146C124.593 4.146 124.672 4.15167 124.706 4.163V5.88C124.536 5.80067 124.31 5.761 124.026 5.761C123.437 5.761 122.944 5.948 122.547 6.322C122.162 6.696 121.969 7.16633 121.969 7.733V12H120.439V4.35H121.969ZM132.545 12H130.845V0.525H132.545V12ZM134.862 12V4.35H136.392V5.455C136.97 4.58233 137.803 4.146 138.891 4.146C139.775 4.146 140.506 4.435 141.084 5.013C141.662 5.56833 141.951 6.28233 141.951 7.155V12H140.404V7.597C140.404 7.03033 140.217 6.56 139.843 6.186C139.469 5.812 139.004 5.625 138.449 5.625C137.871 5.625 137.383 5.81767 136.987 6.203C136.59 6.577 136.392 7.04733 136.392 7.614V12H134.862ZM144.132 8.872V7.461H148.552V8.872H144.132ZM152.662 12H150.962V0.525H152.662V5.404H159.105V0.525H160.805V12H159.105V6.985H152.662V12ZM163.912 11.048C163.152 10.2887 162.773 9.331 162.773 8.175C162.773 7.019 163.152 6.06133 163.912 5.302C164.682 4.53133 165.64 4.146 166.785 4.146C167.929 4.146 168.887 4.53133 169.658 5.302C170.428 6.07267 170.814 7.03033 170.814 8.175C170.814 9.31967 170.428 10.2773 169.658 11.048C168.887 11.8187 167.929 12.204 166.785 12.204C165.64 12.204 164.682 11.8187 163.912 11.048ZM165.051 6.407C164.597 6.87167 164.371 7.461 164.371 8.175C164.371 8.889 164.597 9.47833 165.051 9.943C165.504 10.419 166.082 10.657 166.785 10.657C167.465 10.657 168.037 10.419 168.502 9.943C168.966 9.45567 169.199 8.86633 169.199 8.175C169.199 7.48367 168.966 6.89433 168.502 6.407C168.037 5.931 167.465 5.693 166.785 5.693C166.082 5.693 165.504 5.931 165.051 6.407ZM172.513 9.178V4.35H174.06V8.753C174.06 9.31967 174.247 9.79 174.621 10.164C174.995 10.538 175.459 10.725 176.015 10.725C176.604 10.725 177.091 10.5323 177.477 10.147C177.873 9.75033 178.072 9.28 178.072 8.736V4.35H179.602V12H178.072V10.895C177.494 11.7677 176.661 12.204 175.573 12.204C174.689 12.204 173.958 11.915 173.38 11.337C172.802 10.759 172.513 10.0393 172.513 9.178ZM187.104 6.101L185.676 6.356C185.484 5.78933 184.985 5.506 184.18 5.506C183.806 5.506 183.5 5.58533 183.262 5.744C183.024 5.89133 182.905 6.084 182.905 6.322C182.905 6.63933 183.155 6.89433 183.653 7.087L185.37 7.682C186.617 8.124 187.24 8.855 187.24 9.875C187.24 10.6117 186.968 11.184 186.424 11.592C185.88 12 185.172 12.204 184.299 12.204C183.438 12.204 182.735 12.0113 182.191 11.626C181.647 11.2407 181.324 10.7193 181.222 10.062L182.684 9.841C182.741 10.147 182.917 10.3907 183.211 10.572C183.517 10.7533 183.891 10.844 184.333 10.844C184.753 10.844 185.098 10.759 185.37 10.589C185.642 10.419 185.778 10.198 185.778 9.926C185.778 9.552 185.467 9.25733 184.843 9.042L183.143 8.481C181.999 8.08433 181.426 7.40433 181.426 6.441C181.426 5.70433 181.687 5.13767 182.208 4.741C182.73 4.34433 183.427 4.146 184.299 4.146C185.081 4.146 185.722 4.32167 186.22 4.673C186.719 5.02433 187.014 5.50033 187.104 6.101ZM196.472 8.736H190.148C190.273 9.32533 190.562 9.81267 191.015 10.198C191.48 10.572 192.029 10.759 192.664 10.759C193.514 10.759 194.188 10.4417 194.687 9.807L196.183 10.266C195.843 10.8553 195.356 11.3257 194.721 11.677C194.098 12.0283 193.412 12.204 192.664 12.204C191.508 12.204 190.533 11.8187 189.74 11.048C188.958 10.2773 188.567 9.31967 188.567 8.175C188.567 7.019 188.947 6.06133 189.706 5.302C190.477 4.53133 191.423 4.146 192.545 4.146C193.656 4.146 194.596 4.53133 195.367 5.302C196.126 6.06133 196.506 7.019 196.506 8.175C196.506 8.39033 196.495 8.57733 196.472 8.736ZM190.165 7.512H194.925C194.789 6.934 194.5 6.46933 194.058 6.118C193.616 5.76667 193.1 5.591 192.511 5.591C191.944 5.591 191.44 5.77233 190.998 6.135C190.567 6.48633 190.29 6.94533 190.165 7.512Z" fill="#DFDCDC"/>
</svg>
