<svg width="115" height="18" viewBox="0 0 115 18" fill="none" xmlns="http://www.w3.org/2000/svg">
<path d="M5.97 13H0.173V1.525H5.647C6.61033 1.525 7.40933 1.814 8.044 2.392C8.69 2.97 9.013 3.69533 9.013 4.568C9.013 5.54267 8.605 6.336 7.789 6.948C8.333 7.22 8.758 7.60533 9.064 8.104C9.38133 8.60267 9.54 9.15233 9.54 9.753C9.54 10.671 9.2 11.4473 8.52 12.082C7.84 12.694 6.99 13 5.97 13ZM5.97 7.849H1.873V11.419H5.97C6.49133 11.419 6.922 11.249 7.262 10.909C7.61333 10.569 7.789 10.144 7.789 9.634C7.789 9.124 7.61333 8.699 7.262 8.359C6.922 8.019 6.49133 7.849 5.97 7.849ZM5.647 3.106H1.873V6.268H5.647C6.11167 6.268 6.497 6.12067 6.803 5.826C7.109 5.52 7.262 5.14033 7.262 4.687C7.262 4.23367 7.109 3.85967 6.803 3.565C6.497 3.259 6.11167 3.106 5.647 3.106ZM11.2613 10.178V5.35H12.8083V9.753C12.8083 10.3197 12.9953 10.79 13.3693 11.164C13.7433 11.538 14.2079 11.725 14.7633 11.725C15.3526 11.725 15.8399 11.5323 16.2253 11.147C16.6219 10.7503 16.8203 10.28 16.8203 9.736V5.35H18.3503V13H16.8203V11.895C16.2423 12.7677 15.4093 13.204 14.3213 13.204C13.4373 13.204 12.7063 12.915 12.1283 12.337C11.5503 11.759 11.2613 11.0393 11.2613 10.178ZM25.8527 7.101L24.4247 7.356C24.232 6.78933 23.7334 6.506 22.9287 6.506C22.5547 6.506 22.2487 6.58533 22.0107 6.744C21.7727 6.89133 21.6537 7.084 21.6537 7.322C21.6537 7.63933 21.903 7.89433 22.4017 8.087L24.1187 8.682C25.3654 9.124 25.9887 9.855 25.9887 10.875C25.9887 11.6117 25.7167 12.184 25.1727 12.592C24.6287 13 23.9204 13.204 23.0477 13.204C22.1864 13.204 21.4837 13.0113 20.9397 12.626C20.3957 12.2407 20.0727 11.7193 19.9707 11.062L21.4327 10.841C21.4894 11.147 21.665 11.3907 21.9597 11.572C22.2657 11.7533 22.6397 11.844 23.0817 11.844C23.501 11.844 23.8467 11.759 24.1187 11.589C24.3907 11.419 24.5267 11.198 24.5267 10.926C24.5267 10.552 24.215 10.2573 23.5917 10.042L21.8917 9.481C20.747 9.08433 20.1747 8.40433 20.1747 7.441C20.1747 6.70433 20.4354 6.13767 20.9567 5.741C21.478 5.34433 22.175 5.146 23.0477 5.146C23.8297 5.146 24.47 5.32167 24.9687 5.673C25.4674 6.02433 25.762 6.50033 25.8527 7.101ZM29.1854 13H27.6554V5.35H29.1854V13ZM28.4204 1.882C28.7037 1.882 28.9417 1.97833 29.1344 2.171C29.327 2.36367 29.4234 2.60167 29.4234 2.885C29.4234 3.33833 29.2137 3.65 28.7944 3.82C28.375 3.99 28.0067 3.922 27.6894 3.616C27.3834 3.29867 27.3154 2.93033 27.4854 2.511C27.6554 2.09167 27.967 1.882 28.4204 1.882ZM31.2619 13V5.35H32.7919V6.455C33.3699 5.58233 34.2029 5.146 35.2909 5.146C36.1749 5.146 36.9059 5.435 37.4839 6.013C38.0619 6.56833 38.3509 7.28233 38.3509 8.155V13H36.8039V8.597C36.8039 8.03033 36.6169 7.56 36.2429 7.186C35.8689 6.812 35.4042 6.625 34.8489 6.625C34.2709 6.625 33.7835 6.81767 33.3869 7.203C32.9902 7.577 32.7919 8.04733 32.7919 8.614V13H31.2619ZM47.9783 9.736H41.6543C41.779 10.3253 42.068 10.8127 42.5213 11.198C42.986 11.572 43.5357 11.759 44.1703 11.759C45.0203 11.759 45.6947 11.4417 46.1933 10.807L47.6893 11.266C47.3493 11.8553 46.862 12.3257 46.2273 12.677C45.604 13.0283 44.9183 13.204 44.1703 13.204C43.0143 13.204 42.0397 12.8187 41.2463 12.048C40.4643 11.2773 40.0733 10.3197 40.0733 9.175C40.0733 8.019 40.453 7.06133 41.2123 6.302C41.983 5.53133 42.9293 5.146 44.0513 5.146C45.162 5.146 46.1027 5.53133 46.8733 6.302C47.6327 7.06133 48.0123 8.019 48.0123 9.175C48.0123 9.39033 48.001 9.57733 47.9783 9.736ZM41.6713 8.512H46.4313C46.2953 7.934 46.0063 7.46933 45.5643 7.118C45.1223 6.76667 44.6067 6.591 44.0173 6.591C43.4507 6.591 42.9463 6.77233 42.5043 7.135C42.0737 7.48633 41.796 7.94533 41.6713 8.512ZM55.0542 7.101L53.6262 7.356C53.4335 6.78933 52.9348 6.506 52.1302 6.506C51.7562 6.506 51.4502 6.58533 51.2122 6.744C50.9742 6.89133 50.8552 7.084 50.8552 7.322C50.8552 7.63933 51.1045 7.89433 51.6032 8.087L53.3202 8.682C54.5668 9.124 55.1902 9.855 55.1902 10.875C55.1902 11.6117 54.9182 12.184 54.3742 12.592C53.8302 13 53.1218 13.204 52.2492 13.204C51.3878 13.204 50.6852 13.0113 50.1412 12.626C49.5972 12.2407 49.2742 11.7193 49.1722 11.062L50.6342 10.841C50.6908 11.147 50.8665 11.3907 51.1612 11.572C51.4672 11.7533 51.8412 11.844 52.2832 11.844C52.7025 11.844 53.0482 11.759 53.3202 11.589C53.5922 11.419 53.7282 11.198 53.7282 10.926C53.7282 10.552 53.4165 10.2573 52.7932 10.042L51.0932 9.481C49.9485 9.08433 49.3762 8.40433 49.3762 7.441C49.3762 6.70433 49.6368 6.13767 50.1582 5.741C50.6795 5.34433 51.3765 5.146 52.2492 5.146C53.0312 5.146 53.6715 5.32167 54.1702 5.673C54.6688 6.02433 54.9635 6.50033 55.0542 7.101ZM62.2798 7.101L60.8518 7.356C60.6592 6.78933 60.1605 6.506 59.3558 6.506C58.9818 6.506 58.6758 6.58533 58.4378 6.744C58.1998 6.89133 58.0808 7.084 58.0808 7.322C58.0808 7.63933 58.3302 7.89433 58.8288 8.087L60.5458 8.682C61.7925 9.124 62.4158 9.855 62.4158 10.875C62.4158 11.6117 62.1438 12.184 61.5998 12.592C61.0558 13 60.3475 13.204 59.4748 13.204C58.6135 13.204 57.9108 13.0113 57.3668 12.626C56.8228 12.2407 56.4998 11.7193 56.3978 11.062L57.8598 10.841C57.9165 11.147 58.0922 11.3907 58.3868 11.572C58.6928 11.7533 59.0668 11.844 59.5088 11.844C59.9282 11.844 60.2738 11.759 60.5458 11.589C60.8178 11.419 60.9538 11.198 60.9538 10.926C60.9538 10.552 60.6422 10.2573 60.0188 10.042L58.3188 9.481C57.1742 9.08433 56.6018 8.40433 56.6018 7.441C56.6018 6.70433 56.8625 6.13767 57.3838 5.741C57.9052 5.34433 58.6022 5.146 59.4748 5.146C60.2568 5.146 60.8972 5.32167 61.3958 5.673C61.8945 6.02433 62.1892 6.50033 62.2798 7.101ZM72.0191 5.146C73.0051 5.146 73.8494 5.48033 74.5521 6.149V0.675H76.0821V13H74.5521V12.201C73.8494 12.8697 73.0051 13.204 72.0191 13.204C70.9651 13.204 70.0698 12.8187 69.3331 12.048C68.6191 11.2887 68.2621 10.331 68.2621 9.175C68.2621 8.03033 68.6191 7.07267 69.3331 6.302C70.0698 5.53133 70.9651 5.146 72.0191 5.146ZM73.8381 7.407C73.3961 6.931 72.8464 6.693 72.1891 6.693C71.5431 6.693 70.9878 6.931 70.5231 7.407C70.0811 7.883 69.8601 8.47233 69.8601 9.175C69.8601 9.87767 70.0811 10.467 70.5231 10.943C70.9878 11.419 71.5431 11.657 72.1891 11.657C72.8464 11.657 73.3961 11.419 73.8381 10.943C74.2914 10.4783 74.5181 9.889 74.5181 9.175C74.5181 8.461 74.2914 7.87167 73.8381 7.407ZM85.717 9.736H79.393C79.5177 10.3253 79.8067 10.8127 80.26 11.198C80.7247 11.572 81.2743 11.759 81.909 11.759C82.759 11.759 83.4333 11.4417 83.932 10.807L85.428 11.266C85.088 11.8553 84.6007 12.3257 83.966 12.677C83.3427 13.0283 82.657 13.204 81.909 13.204C80.753 13.204 79.7783 12.8187 78.985 12.048C78.203 11.2773 77.812 10.3197 77.812 9.175C77.812 8.019 78.1917 7.06133 78.951 6.302C79.7217 5.53133 80.668 5.146 81.79 5.146C82.9007 5.146 83.8413 5.53133 84.612 6.302C85.3713 7.06133 85.751 8.019 85.751 9.175C85.751 9.39033 85.7397 9.57733 85.717 9.736ZM79.41 8.512H84.17C84.034 7.934 83.745 7.46933 83.303 7.118C82.861 6.76667 82.3453 6.591 81.756 6.591C81.1893 6.591 80.685 6.77233 80.243 7.135C79.8123 7.48633 79.5347 7.94533 79.41 8.512ZM92.7929 7.101L91.3649 7.356C91.1722 6.78933 90.6735 6.506 89.8689 6.506C89.4949 6.506 89.1889 6.58533 88.9509 6.744C88.7129 6.89133 88.5939 7.084 88.5939 7.322C88.5939 7.63933 88.8432 7.89433 89.3419 8.087L91.0589 8.682C92.3055 9.124 92.9289 9.855 92.9289 10.875C92.9289 11.6117 92.6569 12.184 92.1129 12.592C91.5689 13 90.8605 13.204 89.9879 13.204C89.1265 13.204 88.4239 13.0113 87.8799 12.626C87.3359 12.2407 87.0129 11.7193 86.9109 11.062L88.3729 10.841C88.4295 11.147 88.6052 11.3907 88.8999 11.572C89.2059 11.7533 89.5799 11.844 90.0219 11.844C90.4412 11.844 90.7869 11.759 91.0589 11.589C91.3309 11.419 91.4669 11.198 91.4669 10.926C91.4669 10.552 91.1552 10.2573 90.5319 10.042L88.8319 9.481C87.6872 9.08433 87.1149 8.40433 87.1149 7.441C87.1149 6.70433 87.3755 6.13767 87.8969 5.741C88.4182 5.34433 89.1152 5.146 89.9879 5.146C90.7699 5.146 91.4102 5.32167 91.9089 5.673C92.4075 6.02433 92.7022 6.50033 92.7929 7.101ZM96.1255 13H94.5955V5.35H96.1255V13ZM95.3605 1.882C95.6438 1.882 95.8818 1.97833 96.0745 2.171C96.2672 2.36367 96.3635 2.60167 96.3635 2.885C96.3635 3.33833 96.1539 3.65 95.7345 3.82C95.3152 3.99 94.9468 3.922 94.6295 3.616C94.3235 3.29867 94.2555 2.93033 94.4255 2.511C94.5955 2.09167 94.9072 1.882 95.3605 1.882ZM101.619 13.204C100.565 13.204 99.6697 12.8187 98.933 12.048C98.219 11.2887 97.862 10.331 97.862 9.175C97.862 8.03033 98.219 7.07267 98.933 6.302C99.6697 5.53133 100.565 5.146 101.619 5.146C102.605 5.146 103.449 5.48033 104.152 6.149V5.35H105.682V13.187C105.682 14.2863 105.308 15.1987 104.56 15.924C103.823 16.6607 102.905 17.029 101.806 17.029C101.001 17.029 100.259 16.825 99.579 16.417C98.899 16.009 98.423 15.482 98.151 14.836L99.698 14.377C99.8567 14.7057 100.129 14.972 100.514 15.176C100.899 15.3913 101.313 15.499 101.755 15.499C102.424 15.499 102.99 15.278 103.455 14.836C103.92 14.394 104.152 13.8443 104.152 13.187V12.201C103.449 12.8697 102.605 13.204 101.619 13.204ZM101.789 6.693C101.12 6.693 100.559 6.931 100.106 7.407C99.664 7.883 99.443 8.47233 99.443 9.175C99.443 9.87767 99.664 10.467 100.106 10.943C100.559 11.419 101.12 11.657 101.789 11.657C102.446 11.657 102.996 11.419 103.438 10.943C103.891 10.4783 104.118 9.889 104.118 9.175C104.118 8.461 103.891 7.87167 103.438 7.407C102.996 6.931 102.446 6.693 101.789 6.693ZM107.752 13V5.35H109.282V6.455C109.86 5.58233 110.693 5.146 111.781 5.146C112.665 5.146 113.396 5.435 113.974 6.013C114.552 6.56833 114.841 7.28233 114.841 8.155V13H113.294V8.597C113.294 8.03033 113.107 7.56 112.733 7.186C112.359 6.812 111.894 6.625 111.339 6.625C110.761 6.625 110.274 6.81767 109.877 7.203C109.48 7.577 109.282 8.04733 109.282 8.614V13H107.752Z" fill="#DFDCDC"/>
</svg>
