<svg width="112" height="17" viewBox="0 0 112 17" fill="none" xmlns="http://www.w3.org/2000/svg">
<path d="M8.925 3.888L7.242 4.381C7.14 3.973 6.87367 3.633 6.443 3.361C6.02367 3.089 5.53067 2.953 4.964 2.953C4.352 2.953 3.83067 3.106 3.4 3.412C2.98067 3.718 2.771 4.09767 2.771 4.551C2.771 5.03833 3.06567 5.435 3.655 5.741C3.961 5.88833 4.27267 6.00733 4.59 6.098L5.865 6.455C6.65833 6.67033 7.26467 6.88567 7.684 7.101C8.194 7.339 8.57933 7.662 8.84 8.07C9.112 8.478 9.27067 9.022 9.316 9.702C9.316 10.756 8.925 11.606 8.143 12.252C7.34967 12.8867 6.341 13.204 5.117 13.204C4.00633 13.204 3.06 12.949 2.278 12.439C1.48467 11.9063 0.980333 11.2433 0.765 10.45L2.448 9.94C2.55 10.4047 2.85033 10.7957 3.349 11.113C3.84767 11.419 4.44267 11.572 5.134 11.572C5.848 11.572 6.43733 11.4133 6.902 11.096C7.378 10.7673 7.616 10.348 7.616 9.838C7.616 9.50933 7.48567 9.21467 7.225 8.954C6.99833 8.72733 6.75467 8.55733 6.494 8.444C6.23333 8.33067 5.85933 8.21733 5.372 8.104C4.00067 7.70733 3.08833 7.38433 2.635 7.135C1.60367 6.57967 1.088 5.75233 1.088 4.653C1.088 3.667 1.445 2.868 2.159 2.256C2.88433 1.63267 3.808 1.321 4.93 1.321C5.93867 1.321 6.80567 1.56467 7.531 2.052C8.25633 2.53933 8.721 3.15133 8.925 3.888ZM10.3349 6.71V5.35H11.4909V3.82H13.0379V5.35H15.1119V6.71H13.0379V10.467C13.0379 10.7617 13.1343 11.011 13.3269 11.215C13.5196 11.419 13.7576 11.521 14.0409 11.521H15.1119V13H13.9389C13.2476 13 12.6639 12.779 12.1879 12.337C11.7233 11.8723 11.4909 11.3113 11.4909 10.654V6.71H10.3349ZM20.0986 5.146C21.0846 5.146 21.929 5.48033 22.6316 6.149V5.35H24.1616V13H22.6316V12.201C21.929 12.8697 21.0846 13.204 20.0986 13.204C19.0446 13.204 18.1493 12.8187 17.4126 12.048C16.6986 11.2887 16.3416 10.331 16.3416 9.175C16.3416 8.03033 16.6986 7.07267 17.4126 6.302C18.1493 5.53133 19.0446 5.146 20.0986 5.146ZM21.9176 7.407C21.4756 6.931 20.926 6.693 20.2686 6.693C19.6226 6.693 19.0673 6.931 18.6026 7.407C18.1606 7.883 17.9396 8.47233 17.9396 9.175C17.9396 9.87767 18.1606 10.467 18.6026 10.943C19.0673 11.419 19.6226 11.657 20.2686 11.657C20.926 11.657 21.4756 11.419 21.9176 10.943C22.371 10.4783 22.5976 9.889 22.5976 9.175C22.5976 8.461 22.371 7.87167 21.9176 7.407ZM27.7615 5.35V6.455C28.3395 5.58233 29.1725 5.146 30.2605 5.146C30.3852 5.146 30.4645 5.15167 30.4985 5.163V6.88C30.3285 6.80067 30.1019 6.761 29.8185 6.761C29.2292 6.761 28.7362 6.948 28.3395 7.322C27.9542 7.696 27.7615 8.16633 27.7615 8.733V13H26.2315V5.35H27.7615ZM31.1486 6.71V5.35H32.3046V3.82H33.8516V5.35H35.9256V6.71H33.8516V10.467C33.8516 10.7617 33.948 11.011 34.1406 11.215C34.3333 11.419 34.5713 11.521 34.8546 11.521H35.9256V13H34.7526C34.0613 13 33.4776 12.779 33.0016 12.337C32.537 11.8723 32.3046 11.3113 32.3046 10.654V6.71H31.1486ZM37.4784 10.178V5.35H39.0254V9.753C39.0254 10.3197 39.2124 10.79 39.5864 11.164C39.9604 11.538 40.425 11.725 40.9804 11.725C41.5697 11.725 42.057 11.5323 42.4424 11.147C42.839 10.7503 43.0374 10.28 43.0374 9.736V5.35H44.5674V13H43.0374V11.895C42.4594 12.7677 41.6264 13.204 40.5384 13.204C39.6544 13.204 38.9234 12.915 38.3454 12.337C37.7674 11.759 37.4784 11.0393 37.4784 10.178ZM48.1768 16.825H46.6468V5.35H48.1768V6.149C48.8795 5.48033 49.7238 5.146 50.7098 5.146C51.7751 5.146 52.6648 5.53133 53.3788 6.302C54.1041 7.06133 54.4668 8.019 54.4668 9.175C54.4668 10.331 54.1041 11.2887 53.3788 12.048C52.6648 12.8187 51.7751 13.204 50.7098 13.204C49.7238 13.204 48.8795 12.8697 48.1768 12.201V16.825ZM52.1888 7.407C51.7468 6.931 51.1971 6.693 50.5398 6.693C49.8938 6.693 49.3385 6.931 48.8738 7.407C48.4318 7.883 48.2108 8.47233 48.2108 9.175C48.2108 9.87767 48.4318 10.467 48.8738 10.943C49.3385 11.419 49.8938 11.657 50.5398 11.657C51.1971 11.657 51.7468 11.419 52.1888 10.943C52.6421 10.4783 52.8688 9.889 52.8688 9.175C52.8688 8.461 52.6421 7.87167 52.1888 7.407ZM66.7343 13H60.9373V1.525H66.4113C67.3746 1.525 68.1736 1.814 68.8083 2.392C69.4543 2.97 69.7773 3.69533 69.7773 4.568C69.7773 5.54267 69.3693 6.336 68.5533 6.948C69.0973 7.22 69.5223 7.60533 69.8283 8.104C70.1456 8.60267 70.3043 9.15233 70.3043 9.753C70.3043 10.671 69.9643 11.4473 69.2843 12.082C68.6043 12.694 67.7543 13 66.7343 13ZM66.7343 7.849H62.6373V11.419H66.7343C67.2556 11.419 67.6863 11.249 68.0263 10.909C68.3776 10.569 68.5533 10.144 68.5533 9.634C68.5533 9.124 68.3776 8.699 68.0263 8.359C67.6863 8.019 67.2556 7.849 66.7343 7.849ZM66.4113 3.106H62.6373V6.268H66.4113C66.876 6.268 67.2613 6.12067 67.5673 5.826C67.8733 5.52 68.0263 5.14033 68.0263 4.687C68.0263 4.23367 67.8733 3.85967 67.5673 3.565C67.2613 3.259 66.876 3.106 66.4113 3.106ZM72.0255 10.178V5.35H73.5725V9.753C73.5725 10.3197 73.7595 10.79 74.1335 11.164C74.5075 11.538 74.9722 11.725 75.5275 11.725C76.1169 11.725 76.6042 11.5323 76.9895 11.147C77.3862 10.7503 77.5845 10.28 77.5845 9.736V5.35H79.1145V13H77.5845V11.895C77.0065 12.7677 76.1735 13.204 75.0855 13.204C74.2015 13.204 73.4705 12.915 72.8925 12.337C72.3145 11.759 72.0255 11.0393 72.0255 10.178ZM81.194 13V5.35H82.724V6.455C83.302 5.58233 84.135 5.146 85.223 5.146C86.107 5.146 86.838 5.435 87.416 6.013C87.994 6.56833 88.283 7.28233 88.283 8.155V13H86.736V8.597C86.736 8.03033 86.549 7.56 86.175 7.186C85.801 6.812 85.3363 6.625 84.781 6.625C84.203 6.625 83.7157 6.81767 83.319 7.203C82.9223 7.577 82.724 8.04733 82.724 8.614V13H81.194ZM93.7624 5.146C94.7484 5.146 95.5928 5.48033 96.2954 6.149V0.675H97.8254V13H96.2954V12.201C95.5928 12.8697 94.7484 13.204 93.7624 13.204C92.7084 13.204 91.8131 12.8187 91.0764 12.048C90.3624 11.2887 90.0054 10.331 90.0054 9.175C90.0054 8.03033 90.3624 7.07267 91.0764 6.302C91.8131 5.53133 92.7084 5.146 93.7624 5.146ZM95.5814 7.407C95.1394 6.931 94.5898 6.693 93.9324 6.693C93.2864 6.693 92.7311 6.931 92.2664 7.407C91.8244 7.883 91.6034 8.47233 91.6034 9.175C91.6034 9.87767 91.8244 10.467 92.2664 10.943C92.7311 11.419 93.2864 11.657 93.9324 11.657C94.5898 11.657 95.1394 11.419 95.5814 10.943C96.0348 10.4783 96.2614 9.889 96.2614 9.175C96.2614 8.461 96.0348 7.87167 95.5814 7.407ZM101.425 13H99.8953V0.675H101.425V13ZM111.067 9.736H104.743C104.868 10.3253 105.157 10.8127 105.61 11.198C106.075 11.572 106.624 11.759 107.259 11.759C108.109 11.759 108.783 11.4417 109.282 10.807L110.778 11.266C110.438 11.8553 109.951 12.3257 109.316 12.677C108.693 13.0283 108.007 13.204 107.259 13.204C106.103 13.204 105.128 12.8187 104.335 12.048C103.553 11.2773 103.162 10.3197 103.162 9.175C103.162 8.019 103.542 7.06133 104.301 6.302C105.072 5.53133 106.018 5.146 107.14 5.146C108.251 5.146 109.191 5.53133 109.962 6.302C110.721 7.06133 111.101 8.019 111.101 9.175C111.101 9.39033 111.09 9.57733 111.067 9.736ZM104.76 8.512H109.52C109.384 7.934 109.095 7.46933 108.653 7.118C108.211 6.76667 107.695 6.591 107.106 6.591C106.539 6.591 106.035 6.77233 105.593 7.135C105.162 7.48633 104.885 7.94533 104.76 8.512Z" fill="#DFDCDC"/>
</svg>
