<svg width="378" height="106" viewBox="0 0 378 106" fill="none" xmlns="http://www.w3.org/2000/svg">
<path d="M1.538 3.85H30.19V10.23H8.44V19.974H27.174V26.354H8.44V43H1.538V3.85ZM30.6037 29.95C30.6037 26.0447 31.8217 22.7773 34.2577 20.148C36.6937 17.48 39.729 16.146 43.3637 16.146C46.3797 16.146 49.009 17.0933 51.2517 18.988V16.9H57.4577V43H51.2517V40.912C49.009 42.8067 46.3797 43.754 43.3637 43.754C39.729 43.754 36.6937 42.4393 34.2577 39.81C31.8217 37.1807 30.6037 33.894 30.6037 29.95ZM51.1357 29.95C51.1357 27.862 50.459 26.0833 49.1057 24.614C47.7524 23.1447 46.0897 22.41 44.1177 22.41C42.1457 22.41 40.483 23.1447 39.1297 24.614C37.7764 26.0833 37.0997 27.862 37.0997 29.95C37.0997 32.0767 37.7764 33.8747 39.1297 35.344C40.4444 36.7747 42.107 37.49 44.1177 37.49C46.1284 37.49 47.791 36.7747 49.1057 35.344C50.459 33.8747 51.1357 32.0767 51.1357 29.95ZM62.7919 33.604V16.9H69.0559V31.806C69.0559 33.5073 69.6166 34.938 70.7379 36.098C71.8979 37.2193 73.3092 37.78 74.9719 37.78C76.6732 37.78 78.0846 37.2193 79.2059 36.098C80.3659 34.938 80.9459 33.5073 80.9459 31.806V16.9H87.2099V43H80.9459V39.81C79.0126 42.4393 76.4026 43.754 73.1159 43.754C70.2159 43.754 67.7606 42.7873 65.7499 40.854C63.7779 38.882 62.7919 36.4653 62.7919 33.604ZM118.217 24.73L111.895 26.644C111.353 25.368 110.483 24.3433 109.285 23.57C108.125 22.7967 106.791 22.41 105.283 22.41C103.272 22.41 101.532 23.1447 100.063 24.614C98.6708 26.0447 97.9748 27.8233 97.9748 29.95C97.9748 32.0767 98.6708 33.8747 100.063 35.344C101.493 36.7747 103.233 37.49 105.283 37.49C106.791 37.49 108.125 37.1033 109.285 36.33C110.483 35.5567 111.353 34.532 111.895 33.256L118.217 35.112C117.173 37.78 115.491 39.8873 113.171 41.434C110.889 42.9807 108.26 43.754 105.283 43.754C101.339 43.754 98.0521 42.4393 95.4228 39.81C92.7934 37.1807 91.4788 33.894 91.4788 29.95C91.4788 26.006 92.7934 22.7193 95.4228 20.09C98.0521 17.4607 101.339 16.146 105.283 16.146C108.221 16.146 110.851 16.9193 113.171 18.466C115.491 20.0127 117.173 22.1007 118.217 24.73ZM128.175 43H121.911V16.9H128.175V43ZM121.099 8.606C121.099 7.446 121.466 6.49867 122.201 5.764C122.974 4.99066 123.922 4.604 125.043 4.604C126.164 4.604 127.112 4.99066 127.885 5.764C128.658 6.49867 129.045 7.446 129.045 8.606C129.045 9.72733 128.658 10.6747 127.885 11.448C127.112 12.1827 126.164 12.55 125.043 12.55C123.922 12.55 122.974 12.1827 122.201 11.448C121.466 10.6747 121.099 9.72733 121.099 8.606ZM133.459 43V0.949999H139.723V18.988C141.966 17.0933 144.595 16.146 147.611 16.146C151.246 16.146 154.262 17.48 156.659 20.148C159.095 22.7773 160.313 26.0447 160.313 29.95C160.313 33.894 159.095 37.1807 156.659 39.81C154.262 42.4393 151.246 43.754 147.611 43.754C144.595 43.754 141.966 42.8067 139.723 40.912V43H133.459ZM146.799 22.41C144.866 22.41 143.222 23.1447 141.869 24.614C140.516 26.0833 139.839 27.862 139.839 29.95C139.839 32.0767 140.516 33.8747 141.869 35.344C143.184 36.7747 144.827 37.49 146.799 37.49C148.81 37.49 150.472 36.7747 151.787 35.344C153.14 33.8747 153.817 32.0767 153.817 29.95C153.817 27.862 153.14 26.0833 151.787 24.614C150.434 23.1447 148.771 22.41 146.799 22.41ZM164.605 33.604V16.9H170.869V31.806C170.869 33.5073 171.429 34.938 172.551 36.098C173.711 37.2193 175.122 37.78 176.785 37.78C178.486 37.78 179.897 37.2193 181.019 36.098C182.179 34.938 182.759 33.5073 182.759 31.806V16.9H189.023V43H182.759V39.81C180.825 42.4393 178.215 43.754 174.929 43.754C172.029 43.754 169.573 42.7873 167.563 40.854C165.591 38.882 164.605 36.4653 164.605 33.604ZM213.649 23.164L207.791 24.15C207.327 22.41 205.8 21.54 203.209 21.54C202.127 21.54 201.237 21.7527 200.541 22.178C199.884 22.5647 199.555 23.106 199.555 23.802C199.555 24.73 200.329 25.4453 201.875 25.948L207.211 27.746C209.609 28.5967 211.349 29.6407 212.431 30.878C213.514 32.1153 214.055 33.6813 214.055 35.576C214.055 38.1667 213.108 40.1773 211.213 41.608C209.319 43.0387 206.825 43.754 203.731 43.754C200.638 43.754 198.144 43.0773 196.249 41.724C194.355 40.3707 193.233 38.4953 192.885 36.098L198.743 35.228C199.285 37.2773 201.005 38.302 203.905 38.302C205.143 38.302 206.148 38.0893 206.921 37.664C207.695 37.2 208.081 36.5813 208.081 35.808C208.081 34.764 207.115 33.9133 205.181 33.256L199.845 31.574C197.641 30.8393 196.037 29.9113 195.031 28.79C194.065 27.63 193.581 26.122 193.581 24.266C193.581 21.6367 194.49 19.626 196.307 18.234C198.125 16.842 200.58 16.146 203.673 16.146C206.457 16.146 208.739 16.784 210.517 18.06C212.296 19.2973 213.34 20.9987 213.649 23.164ZM0.784 105V62.95H7.048V80.988C9.29067 79.0933 11.92 78.146 14.936 78.146C18.5707 78.146 21.5867 79.48 23.984 82.148C26.42 84.7773 27.638 88.0447 27.638 91.95C27.638 95.894 26.42 99.1807 23.984 101.81C21.5867 104.439 18.5707 105.754 14.936 105.754C11.92 105.754 9.29067 104.807 7.048 102.912V105H0.784ZM14.124 84.41C12.1907 84.41 10.5473 85.1447 9.194 86.614C7.84067 88.0833 7.164 89.862 7.164 91.95C7.164 94.0767 7.84067 95.8747 9.194 97.344C10.5087 98.7747 12.152 99.49 14.124 99.49C16.1347 99.49 17.7973 98.7747 19.112 97.344C20.4653 95.8747 21.142 94.0767 21.142 91.95C21.142 89.862 20.4653 88.0833 19.112 86.614C17.7587 85.1447 16.096 84.41 14.124 84.41ZM38.1935 105H31.9295V78.9H38.1935V105ZM31.1175 70.606C31.1175 69.446 31.4849 68.4987 32.2195 67.764C32.9929 66.9907 33.9402 66.604 35.0615 66.604C36.1829 66.604 37.1302 66.9907 37.9035 67.764C38.6769 68.4987 39.0635 69.446 39.0635 70.606C39.0635 71.7273 38.6769 72.6747 37.9035 73.448C37.1302 74.1827 36.1829 74.55 35.0615 74.55C33.9402 74.55 32.9929 74.1827 32.2195 73.448C31.4849 72.6747 31.1175 71.7273 31.1175 70.606ZM43.4774 105V62.95H49.7414V80.988C51.9841 79.0933 54.6134 78.146 57.6294 78.146C61.2641 78.146 64.2801 79.48 66.6774 82.148C69.1134 84.7773 70.3314 88.0447 70.3314 91.95C70.3314 95.894 69.1134 99.1807 66.6774 101.81C64.2801 104.439 61.2641 105.754 57.6294 105.754C54.6134 105.754 51.9841 104.807 49.7414 102.912V105H43.4774ZM56.8174 84.41C54.8841 84.41 53.2408 85.1447 51.8874 86.614C50.5341 88.0833 49.8574 89.862 49.8574 91.95C49.8574 94.0767 50.5341 95.8747 51.8874 97.344C53.2021 98.7747 54.8454 99.49 56.8174 99.49C58.8281 99.49 60.4908 98.7747 61.8054 97.344C63.1588 95.8747 63.8354 94.0767 63.8354 91.95C63.8354 89.862 63.1588 88.0833 61.8054 86.614C60.4521 85.1447 58.7894 84.41 56.8174 84.41ZM100.839 94.27H80.133C80.597 95.9713 81.525 97.3633 82.917 98.446C84.309 99.49 85.933 100.012 87.789 100.012C90.3023 100.012 92.3323 99.084 93.879 97.228L99.969 99.026C98.7703 101.114 97.0883 102.757 94.923 103.956C92.7963 105.155 90.4183 105.754 87.789 105.754C83.8063 105.754 80.4423 104.439 77.697 101.81C74.9903 99.2193 73.637 95.9327 73.637 91.95C73.637 88.0447 74.9516 84.7773 77.581 82.148C80.1716 79.48 83.439 78.146 87.383 78.146C91.2496 78.146 94.4783 79.48 97.069 82.148C99.6983 84.7773 101.013 88.0447 101.013 91.95C101.013 92.762 100.955 93.5353 100.839 94.27ZM80.191 89.398H94.575C94.0723 87.774 93.1636 86.4593 91.849 85.454C90.5343 84.41 89.007 83.888 87.267 83.888C85.6043 83.888 84.1156 84.41 82.801 85.454C81.525 86.4593 80.655 87.774 80.191 89.398ZM104.919 105V78.9H111.183V82.09C113.116 79.4607 115.726 78.146 119.013 78.146C121.99 78.146 124.446 79.1127 126.379 81.046C128.351 82.9407 129.337 85.3573 129.337 88.296V105H123.073V90.094C123.073 88.3927 122.512 86.9813 121.391 85.86C120.27 84.7 118.858 84.12 117.157 84.12C115.494 84.12 114.083 84.7 112.923 85.86C111.763 87.02 111.183 88.4313 111.183 90.094V105H104.919ZM133.606 91.95C133.606 88.0447 134.824 84.7773 137.26 82.148C139.696 79.48 142.731 78.146 146.366 78.146C149.382 78.146 152.011 79.0933 154.254 80.988V62.95H160.46V105H154.254V102.912C152.011 104.807 149.382 105.754 146.366 105.754C142.731 105.754 139.696 104.439 137.26 101.81C134.824 99.1807 133.606 95.894 133.606 91.95ZM154.138 91.95C154.138 89.862 153.461 88.0833 152.108 86.614C150.754 85.1447 149.092 84.41 147.12 84.41C145.148 84.41 143.485 85.1447 142.132 86.614C140.778 88.0833 140.102 89.862 140.102 91.95C140.102 94.0767 140.778 95.8747 142.132 97.344C143.446 98.7747 145.109 99.49 147.12 99.49C149.13 99.49 150.793 98.7747 152.108 97.344C153.461 95.8747 154.138 94.0767 154.138 91.95ZM165.737 95.604V78.9H172.001V93.806C172.001 95.5073 172.562 96.938 173.683 98.098C174.843 99.2193 176.255 99.78 177.917 99.78C179.619 99.78 181.03 99.2193 182.151 98.098C183.311 96.938 183.891 95.5073 183.891 93.806V78.9H190.155V105H183.891V101.81C181.958 104.439 179.348 105.754 176.061 105.754C173.161 105.754 170.706 104.787 168.695 102.854C166.723 100.882 165.737 98.4653 165.737 95.604ZM201.674 105H195.41V78.9H201.674V81.684C203.414 79.3253 205.87 78.146 209.04 78.146C212.598 78.146 215.343 79.5767 217.276 82.438C219.094 79.5767 221.858 78.146 225.57 78.146C228.548 78.146 231.022 79.074 232.994 80.93C234.966 82.786 235.952 85.0867 235.952 87.832V105H229.746V89.63C229.746 88.0447 229.224 86.73 228.18 85.686C227.136 84.642 225.841 84.12 224.294 84.12C222.748 84.12 221.452 84.6613 220.408 85.744C219.364 86.788 218.842 88.0833 218.842 89.63V105H212.578V89.63C212.578 88.0447 212.056 86.73 211.012 85.686C209.968 84.642 208.673 84.12 207.126 84.12C205.58 84.12 204.284 84.6613 203.24 85.744C202.196 86.788 201.674 88.0833 201.674 89.63V105ZM254.336 91.95C254.336 88.0447 255.554 84.7773 257.99 82.148C260.426 79.48 263.462 78.146 267.096 78.146C270.112 78.146 272.742 79.0933 274.984 80.988V78.9H281.19V105H274.984V102.912C272.742 104.807 270.112 105.754 267.096 105.754C263.462 105.754 260.426 104.439 257.99 101.81C255.554 99.1807 254.336 95.894 254.336 91.95ZM274.868 91.95C274.868 89.862 274.192 88.0833 272.838 86.614C271.485 85.1447 269.822 84.41 267.85 84.41C265.878 84.41 264.216 85.1447 262.862 86.614C261.509 88.0833 260.832 89.862 260.832 91.95C260.832 94.0767 261.509 95.8747 262.862 97.344C264.177 98.7747 265.84 99.49 267.85 99.49C269.861 99.49 271.524 98.7747 272.838 97.344C274.192 95.8747 274.868 94.0767 274.868 91.95ZM292.789 105H286.525V78.9H292.789V81.684C294.529 79.3253 296.984 78.146 300.155 78.146C303.712 78.146 306.457 79.5767 308.391 82.438C310.208 79.5767 312.973 78.146 316.685 78.146C319.662 78.146 322.137 79.074 324.109 80.93C326.081 82.786 327.067 85.0867 327.067 87.832V105H320.861V89.63C320.861 88.0447 320.339 86.73 319.295 85.686C318.251 84.642 316.955 84.12 315.409 84.12C313.862 84.12 312.567 84.6613 311.523 85.744C310.479 86.788 309.957 88.0833 309.957 89.63V105H303.693V89.63C303.693 88.0447 303.171 86.73 302.127 85.686C301.083 84.642 299.787 84.12 298.241 84.12C296.694 84.12 295.399 84.6613 294.355 85.744C293.311 86.788 292.789 88.0833 292.789 89.63V105ZM358.556 94.27H337.85C338.314 95.9713 339.242 97.3633 340.634 98.446C342.026 99.49 343.65 100.012 345.506 100.012C348.019 100.012 350.049 99.084 351.596 97.228L357.686 99.026C356.487 101.114 354.805 102.757 352.64 103.956C350.513 105.155 348.135 105.754 345.506 105.754C341.523 105.754 338.159 104.439 335.414 101.81C332.707 99.2193 331.354 95.9327 331.354 91.95C331.354 88.0447 332.669 84.7773 335.298 82.148C337.889 79.48 341.156 78.146 345.1 78.146C348.967 78.146 352.195 79.48 354.786 82.148C357.415 84.7773 358.73 88.0447 358.73 91.95C358.73 92.762 358.672 93.5353 358.556 94.27ZM337.908 89.398H352.292C351.789 87.774 350.881 86.4593 349.566 85.454C348.251 84.41 346.724 83.888 344.984 83.888C343.321 83.888 341.833 84.41 340.518 85.454C339.242 86.4593 338.372 87.774 337.908 89.398ZM360.432 84.352V78.9H364.144V73.796H370.408V78.9H377.136V84.352H370.408V95.836C370.408 96.764 370.717 97.5373 371.336 98.156C371.955 98.736 372.709 99.026 373.598 99.026H377.136V105H373.076C370.601 105 368.475 104.207 366.696 102.622C364.995 101.037 364.144 99.084 364.144 96.764V84.352H360.432Z" fill="white"/>
</svg>
