<svg width="276" height="41" viewBox="0 0 276 41" fill="none" xmlns="http://www.w3.org/2000/svg">
<path d="M6.12 34.954C2.25333 31.0873 0.32 26.254 0.32 20.454C0.32 14.654 2.25333 9.82067 6.12 5.954C10.0253 2.04867 14.8973 0.0959986 20.736 0.0959986C24.68 0.0959986 28.2567 1.082 31.466 3.054C34.714 4.98733 37.1693 7.59733 38.832 10.884L32.162 13.378C31.002 11.29 29.4167 9.666 27.406 8.506C25.3953 7.346 23.172 6.766 20.736 6.766C16.9467 6.766 13.7953 8.08067 11.282 10.71C8.76867 13.3393 7.512 16.568 7.512 20.396C7.512 24.3013 8.76867 27.5687 11.282 30.198C13.7567 32.7887 16.908 34.084 20.736 34.084C23.172 34.084 25.3953 33.504 27.406 32.344C29.4167 31.184 31.002 29.56 32.162 27.472L38.832 29.966C37.1693 33.2527 34.714 35.882 31.466 37.854C28.2567 39.7873 24.68 40.754 20.736 40.754C14.8587 40.754 9.98667 38.8207 6.12 34.954ZM55.7372 13.146C59.6812 13.146 62.9679 14.4607 65.5972 17.09C68.2265 19.7193 69.5412 23.006 69.5412 26.95C69.5412 30.894 68.2265 34.1807 65.5972 36.81C62.9679 39.4393 59.6812 40.754 55.7372 40.754C51.7545 40.754 48.4485 39.4393 45.8192 36.81C43.1899 34.1807 41.8752 30.894 41.8752 26.95C41.8752 23.006 43.1899 19.7193 45.8192 17.09C48.4485 14.4607 51.7545 13.146 55.7372 13.146ZM55.7372 34.49C57.7865 34.49 59.5072 33.7747 60.8992 32.344C62.2912 30.8747 62.9872 29.0767 62.9872 26.95C62.9872 24.8233 62.2912 23.0447 60.8992 21.614C59.5072 20.1447 57.7865 19.41 55.7372 19.41C53.6879 19.41 51.9285 20.1447 50.4592 21.614C49.0672 23.0447 48.3712 24.8233 48.3712 26.95C48.3712 29.0767 49.0672 30.8747 50.4592 32.344C51.8899 33.7747 53.6492 34.49 55.7372 34.49ZM73.8368 40V13.9H80.1008V17.09C82.0341 14.4607 84.6441 13.146 87.9308 13.146C90.9081 13.146 93.3635 14.1127 95.2968 16.046C97.2688 17.9407 98.2548 20.3573 98.2548 23.296V40H91.9908V25.094C91.9908 23.3927 91.4301 21.9813 90.3088 20.86C89.1875 19.7 87.7761 19.12 86.0748 19.12C84.4121 19.12 83.0008 19.7 81.8408 20.86C80.6808 22.02 80.1008 23.4313 80.1008 25.094V40H73.8368ZM101.306 19.352V13.9H105.018V8.796H111.282V13.9H118.01V19.352H111.282V30.836C111.282 31.764 111.591 32.5373 112.21 33.156C112.828 33.736 113.582 34.026 114.472 34.026H118.01V40H113.95C111.475 40 109.348 39.2073 107.57 37.622C105.868 36.0367 105.018 34.084 105.018 31.764V19.352H101.306ZM120.925 26.95C120.925 23.0447 122.143 19.7773 124.579 17.148C127.015 14.48 130.05 13.146 133.685 13.146C136.701 13.146 139.33 14.0933 141.573 15.988V13.9H147.779V40H141.573V37.912C139.33 39.8067 136.701 40.754 133.685 40.754C130.05 40.754 127.015 39.4393 124.579 36.81C122.143 34.1807 120.925 30.894 120.925 26.95ZM141.457 26.95C141.457 24.862 140.78 23.0833 139.427 21.614C138.074 20.1447 136.411 19.41 134.439 19.41C132.467 19.41 130.804 20.1447 129.451 21.614C128.098 23.0833 127.421 24.862 127.421 26.95C127.421 29.0767 128.098 30.8747 129.451 32.344C130.766 33.7747 132.428 34.49 134.439 34.49C136.45 34.49 138.112 33.7747 139.427 32.344C140.78 30.8747 141.457 29.0767 141.457 26.95ZM178.865 21.73L172.543 23.644C172.002 22.368 171.132 21.3433 169.933 20.57C168.773 19.7967 167.439 19.41 165.931 19.41C163.921 19.41 162.181 20.1447 160.711 21.614C159.319 23.0447 158.623 24.8233 158.623 26.95C158.623 29.0767 159.319 30.8747 160.711 32.344C162.142 33.7747 163.882 34.49 165.931 34.49C167.439 34.49 168.773 34.1033 169.933 33.33C171.132 32.5567 172.002 31.532 172.543 30.256L178.865 32.112C177.821 34.78 176.139 36.8873 173.819 38.434C171.538 39.9807 168.909 40.754 165.931 40.754C161.987 40.754 158.701 39.4393 156.071 36.81C153.442 34.1807 152.127 30.894 152.127 26.95C152.127 23.006 153.442 19.7193 156.071 17.09C158.701 14.4607 161.987 13.146 165.931 13.146C168.87 13.146 171.499 13.9193 173.819 15.466C176.139 17.0127 177.821 19.1007 178.865 21.73ZM180.356 19.352V13.9H184.068V8.796H190.332V13.9H197.06V19.352H190.332V30.836C190.332 31.764 190.641 32.5373 191.26 33.156C191.878 33.736 192.632 34.026 193.522 34.026H197.06V40H193C190.525 40 188.398 39.2073 186.62 37.622C184.918 36.0367 184.068 34.084 184.068 31.764V19.352H180.356ZM215.058 30.604V13.9H221.322V28.806C221.322 30.5073 221.882 31.938 223.004 33.098C224.164 34.2193 225.575 34.78 227.238 34.78C228.939 34.78 230.35 34.2193 231.472 33.098C232.632 31.938 233.212 30.5073 233.212 28.806V13.9H239.476V40H233.212V36.81C231.278 39.4393 228.668 40.754 225.382 40.754C222.482 40.754 220.026 39.7873 218.016 37.854C216.044 35.882 215.058 33.4653 215.058 30.604ZM264.103 20.164L258.245 21.15C257.781 19.41 256.253 18.54 253.663 18.54C252.58 18.54 251.691 18.7527 250.995 19.178C250.337 19.5647 250.009 20.106 250.009 20.802C250.009 21.73 250.782 22.4453 252.329 22.948L257.665 24.746C260.062 25.5967 261.802 26.6407 262.885 27.878C263.967 29.1153 264.509 30.6813 264.509 32.576C264.509 35.1667 263.561 37.1773 261.667 38.608C259.772 40.0387 257.278 40.754 254.185 40.754C251.091 40.754 248.597 40.0773 246.703 38.724C244.808 37.3707 243.687 35.4953 243.339 33.098L249.197 32.228C249.738 34.2773 251.459 35.302 254.359 35.302C255.596 35.302 256.601 35.0893 257.375 34.664C258.148 34.2 258.535 33.5813 258.535 32.808C258.535 31.764 257.568 30.9133 255.635 30.256L250.299 28.574C248.095 27.8393 246.49 26.9113 245.485 25.79C244.518 24.63 244.035 23.122 244.035 21.266C244.035 18.6367 244.943 16.626 246.761 15.234C248.578 13.842 251.033 13.146 254.127 13.146C256.911 13.146 259.192 13.784 260.971 15.06C262.749 16.2973 263.793 17.9987 264.103 20.164ZM269.151 39.652C268.416 38.8787 268.049 37.9313 268.049 36.81C268.049 35.6887 268.416 34.7607 269.151 34.026C269.924 33.2527 270.872 32.866 271.993 32.866C273.114 32.866 274.042 33.2527 274.777 34.026C275.55 34.7607 275.937 35.6887 275.937 36.81C275.937 37.9313 275.55 38.8787 274.777 39.652C274.042 40.3867 273.114 40.754 271.993 40.754C270.872 40.754 269.924 40.3867 269.151 39.652ZM274.835 27.762H269.209L268.455 0.849999H275.647L274.835 27.762Z" fill="white"/>
</svg>
