<svg width="80" height="45" viewBox="0 0 80 45" fill="none" xmlns="http://www.w3.org/2000/svg">
<rect width="80" height="45" rx="22.5" fill="#CDDDFF"/>
<path d="M23.098 16.85H31.99V18.83H25.24V21.854H31.054V23.834H25.24V29H23.098V16.85ZM33.3425 29H31.0925L36.3125 16.85H38.0585L43.2965 29H41.0465L40.0385 26.606H34.3505L33.3425 29ZM39.2105 24.644L37.1945 19.892L35.1785 24.644H39.2105ZM50.1322 29.234C48.3082 29.234 46.7962 28.634 45.5962 27.434C44.3962 26.234 43.7962 24.734 43.7962 22.934C43.7962 21.134 44.3962 19.634 45.5962 18.434C46.8082 17.222 48.3202 16.616 50.1322 16.616C51.9202 16.616 53.4202 17.222 54.6322 18.434C55.8442 19.646 56.4502 21.146 56.4502 22.934C56.4502 24.482 55.9882 25.826 55.0642 26.966L56.5222 28.424L55.0822 29.864L53.5162 28.298C52.5202 28.922 51.3922 29.234 50.1322 29.234ZM46.0282 22.916C46.0282 24.128 46.4182 25.142 47.1982 25.958C47.9662 26.762 48.9442 27.164 50.1322 27.164C50.7682 27.164 51.3802 27.026 51.9682 26.75L50.0602 24.842L51.5182 23.402L53.4982 25.382C53.9782 24.65 54.2182 23.828 54.2182 22.916C54.2182 21.728 53.8282 20.726 53.0482 19.91C52.2682 19.094 51.2962 18.686 50.1322 18.686C48.9562 18.686 47.9782 19.094 47.1982 19.91C46.4182 20.726 46.0282 21.728 46.0282 22.916Z" fill="#1E1E1E"/>
</svg>
