<svg width="30" height="30" viewBox="0 0 30 30" fill="none" xmlns="http://www.w3.org/2000/svg">
<path d="M15 0C23.2842 0 30 6.71578 30 15C30 23.2847 23.2842 30 15 30C6.71531 30 0 23.2847 0 15C0 6.71578 6.71531 0 15 0ZM15 28.1545C22.237 28.1545 28.125 22.237 28.125 14.9999C28.125 7.76291 22.237 1.87494 15 1.87494C7.76297 1.87494 1.875 7.76294 1.875 14.9999C1.875 22.2369 7.76297 28.1545 15 28.1545ZM8.4375 14.0625H14.0625V8.4375C14.0625 7.92 14.4825 7.5 15 7.5C15.5175 7.5 15.9375 7.92 15.9375 8.4375V14.0625H21.5625C22.08 14.0625 22.5 14.4825 22.5 15C22.5 15.5175 22.08 15.9375 21.5625 15.9375H15.9375V21.5625C15.9375 22.08 15.5175 22.5 15 22.5C14.4825 22.5 14.0625 22.08 14.0625 21.5625V15.9375H8.4375C7.92 15.9375 7.5 15.5175 7.5 15C7.5 14.4825 7.92 14.0625 8.4375 14.0625Z" fill="white"/>
</svg>
