<svg width="1297" height="106" viewBox="0 0 1297 106" fill="none" xmlns="http://www.w3.org/2000/svg">
<path d="M14.908 79H0.286676L34.2081 0.0448564H45.5543L79.5927 79H64.9714L58.4211 63.4429H21.4584L14.908 79ZM53.0404 50.6931L39.9397 19.8129L26.839 50.6931H53.0404ZM103.171 79H91.8253L74.6306 26.3632H87.3804L97.4399 59.4659L107.382 26.3632H118.845L128.905 59.4659L138.847 26.3632H151.597L134.52 79H123.056L113.231 47.301L103.171 79ZM208.012 57.3604H166.253C167.189 60.7916 169.061 63.5989 171.868 65.7823C174.675 67.8878 177.95 68.9405 181.693 68.9405C186.762 68.9405 190.856 67.069 193.975 63.3259L206.257 66.952C203.84 71.163 200.448 74.4771 196.081 76.8945C191.792 79.3119 186.996 80.5206 181.693 80.5206C173.661 80.5206 166.877 77.8693 161.341 72.5666C155.882 67.3419 153.153 60.7136 153.153 52.6816C153.153 44.8056 155.804 38.2163 161.107 32.9136C166.331 27.5329 172.921 24.8426 180.875 24.8426C188.673 24.8426 195.184 27.5329 200.409 32.9136C205.711 38.2163 208.363 44.8056 208.363 52.6816C208.363 54.3192 208.246 55.8788 208.012 57.3604ZM166.37 47.5349H195.379C194.365 44.2597 192.533 41.6084 189.881 39.5809C187.23 37.4754 184.15 36.4227 180.641 36.4227C177.288 36.4227 174.285 37.4754 171.634 39.5809C169.061 41.6084 167.306 44.2597 166.37 47.5349ZM217.527 58.4132V46.9501H248.758V58.4132H217.527ZM260.661 79V26.3632H273.294V32.7966C277.193 27.494 282.457 24.8426 289.085 24.8426C295.09 24.8426 300.041 26.7921 303.94 30.6911C307.917 34.5122 309.906 39.386 309.906 45.3125V79H297.273V48.9386C297.273 45.5074 296.142 42.6611 293.881 40.3997C291.62 38.0603 288.773 36.8906 285.342 36.8906C281.989 36.8906 279.143 38.0603 276.803 40.3997C274.464 42.7391 273.294 45.5854 273.294 48.9386V79H260.661ZM316.059 37.3585V26.3632H323.545V16.0698H336.178V26.3632H349.746V37.3585H336.178V60.5186C336.178 62.3902 336.802 63.9498 338.049 65.1975C339.297 66.3672 340.818 66.952 342.611 66.952H349.746V79H341.558C336.568 79 332.279 77.4014 328.692 74.2042C325.26 71.007 323.545 67.069 323.545 62.3902V37.3585H316.059ZM370.247 26.3632V32.7966C374.146 27.494 379.41 24.8426 386.038 24.8426C386.896 24.8426 387.442 24.8816 387.676 24.9596V38.8791C385.882 38.1773 384.128 37.8264 382.412 37.8264C378.981 37.8264 376.096 38.9961 373.756 41.3355C371.417 43.6749 370.247 46.5602 370.247 49.9913V79H357.614V26.3632H370.247ZM445.654 57.3604H403.895C404.831 60.7916 406.703 63.5989 409.51 65.7823C412.317 67.8878 415.593 68.9405 419.336 68.9405C424.404 68.9405 428.498 67.069 431.618 63.3259L443.899 66.952C441.482 71.163 438.09 74.4771 433.723 76.8945C429.434 79.3119 424.638 80.5206 419.336 80.5206C411.304 80.5206 404.519 77.8693 398.983 72.5666C393.524 67.3419 390.795 60.7136 390.795 52.6816C390.795 44.8056 393.446 38.2163 398.749 32.9136C403.973 27.5329 410.563 24.8426 418.517 24.8426C426.315 24.8426 432.826 27.5329 438.051 32.9136C443.354 38.2163 446.005 44.8056 446.005 52.6816C446.005 54.3192 445.888 55.8788 445.654 57.3604ZM404.012 47.5349H433.021C432.007 44.2597 430.175 41.6084 427.524 39.5809C424.872 37.4754 421.792 36.4227 418.283 36.4227C414.93 36.4227 411.927 37.4754 409.276 39.5809C406.703 41.6084 404.948 44.2597 404.012 47.5349ZM466.515 105.318H453.882V26.3632H466.515V30.5742C471.038 26.7531 476.34 24.8426 482.423 24.8426C489.753 24.8426 495.836 27.494 500.67 32.7966C505.583 38.0213 508.04 44.6496 508.04 52.6816C508.04 60.5576 505.583 67.186 500.67 72.5666C495.836 77.8693 489.753 80.5206 482.423 80.5206C476.34 80.5206 471.038 78.6101 466.515 74.7891V105.318ZM480.785 37.4754C476.886 37.4754 473.572 38.9571 470.843 41.9203C468.114 44.8836 466.749 48.4707 466.749 52.6816C466.749 56.9705 468.114 60.5966 470.843 63.5599C473.494 66.4452 476.808 67.8878 480.785 67.8878C484.84 67.8878 488.194 66.4452 490.845 63.5599C493.574 60.5966 494.939 56.9705 494.939 52.6816C494.939 48.4707 493.574 44.8836 490.845 41.9203C488.116 38.9571 484.762 37.4754 480.785 37.4754ZM529.327 26.3632V32.7966C533.226 27.494 538.49 24.8426 545.118 24.8426C545.976 24.8426 546.522 24.8816 546.756 24.9596V38.8791C544.962 38.1773 543.208 37.8264 541.492 37.8264C538.061 37.8264 535.176 38.9961 532.836 41.3355C530.497 43.6749 529.327 46.5602 529.327 49.9913V79H516.694V26.3632H529.327ZM604.734 57.3604H562.976C563.911 60.7916 565.783 63.5989 568.59 65.7823C571.397 67.8878 574.673 68.9405 578.416 68.9405C583.484 68.9405 587.578 67.069 590.698 63.3259L602.979 66.952C600.562 71.163 597.17 74.4771 592.803 76.8945C588.514 79.3119 583.718 80.5206 578.416 80.5206C570.384 80.5206 563.599 77.8693 558.063 72.5666C552.604 67.3419 549.875 60.7136 549.875 52.6816C549.875 44.8056 552.526 38.2163 557.829 32.9136C563.053 27.5329 569.643 24.8426 577.597 24.8426C585.395 24.8426 591.906 27.5329 597.131 32.9136C602.434 38.2163 605.085 44.8056 605.085 52.6816C605.085 54.3192 604.968 55.8788 604.734 57.3604ZM563.092 47.5349H592.101C591.087 44.2597 589.255 41.6084 586.604 39.5809C583.952 37.4754 580.872 36.4227 577.363 36.4227C574.01 36.4227 571.007 37.4754 568.356 39.5809C565.783 41.6084 564.028 44.2597 563.092 47.5349ZM612.962 79V26.3632H625.595V32.7966C629.494 27.494 634.758 24.8426 641.386 24.8426C647.39 24.8426 652.342 26.7921 656.241 30.6911C660.218 34.5122 662.207 39.386 662.207 45.3125V79H649.574V48.9386C649.574 45.5074 648.443 42.6611 646.182 40.3997C643.92 38.0603 641.074 36.8906 637.643 36.8906C634.29 36.8906 631.443 38.0603 629.104 40.3997C626.765 42.7391 625.595 45.5854 625.595 48.9386V79H612.962ZM725.675 57.3604H683.917C684.852 60.7916 686.724 63.5989 689.531 65.7823C692.339 67.8878 695.614 68.9405 699.357 68.9405C704.426 68.9405 708.519 67.069 711.639 63.3259L723.921 66.952C721.503 71.163 718.111 74.4771 713.744 76.8945C709.455 79.3119 704.659 80.5206 699.357 80.5206C691.325 80.5206 684.541 77.8693 679.004 72.5666C673.545 67.3419 670.816 60.7136 670.816 52.6816C670.816 44.8056 673.467 38.2163 678.77 32.9136C683.995 27.5329 690.584 24.8426 698.538 24.8426C706.336 24.8426 712.847 27.5329 718.072 32.9136C723.375 38.2163 726.026 44.8056 726.026 52.6816C726.026 54.3192 725.909 55.8788 725.675 57.3604ZM684.034 47.5349H713.042C712.029 44.2597 710.196 41.6084 707.545 39.5809C704.893 37.4754 701.813 36.4227 698.304 36.4227C694.951 36.4227 691.949 37.4754 689.297 39.5809C686.724 41.6084 684.969 44.2597 684.034 47.5349ZM733.903 60.0508V26.3632H746.536V56.4247C746.536 59.8558 747.667 62.7411 749.928 65.0805C752.268 67.3419 755.114 68.4726 758.467 68.4726C761.898 68.4726 764.745 67.3419 767.006 65.0805C769.345 62.7411 770.515 59.8558 770.515 56.4247V26.3632H783.148V79H770.515V72.5666C766.616 77.8693 761.352 80.5206 754.724 80.5206C748.876 80.5206 743.924 78.5711 739.869 74.6721C735.892 70.6951 733.903 65.8213 733.903 60.0508ZM806.378 26.3632V32.7966C810.277 27.494 815.541 24.8426 822.169 24.8426C823.027 24.8426 823.573 24.8816 823.807 24.9596V38.8791C822.014 38.1773 820.259 37.8264 818.543 37.8264C815.112 37.8264 812.227 38.9961 809.888 41.3355C807.548 43.6749 806.378 46.5602 806.378 49.9913V79H793.746V26.3632H806.378ZM874.383 79H860.464V0.0448564H874.383V79ZM886.459 79V26.3632H899.091V32.7966C902.99 27.494 908.254 24.8426 914.882 24.8426C920.887 24.8426 925.839 26.7921 929.738 30.6911C933.715 34.5122 935.703 39.386 935.703 45.3125V79H923.07V48.9386C923.07 45.5074 921.94 42.6611 919.678 40.3997C917.417 38.0603 914.57 36.8906 911.139 36.8906C907.786 36.8906 904.94 38.0603 902.6 40.3997C900.261 42.7391 899.091 45.5854 899.091 48.9386V79H886.459ZM947.588 58.4132V46.9501H978.819V58.4132H947.588ZM1006.16 79H992.243V0.0448564H1006.16V32.6796H1046.75V0.0448564H1060.67V79H1046.75V45.5464H1006.16V79ZM1098.81 24.8426C1106.76 24.8426 1113.39 27.494 1118.69 32.7966C1123.99 38.0993 1126.65 44.7276 1126.65 52.6816C1126.65 60.6356 1123.99 67.264 1118.69 72.5666C1113.39 77.8693 1106.76 80.5206 1098.81 80.5206C1090.77 80.5206 1084.11 77.8693 1078.8 72.5666C1073.5 67.264 1070.85 60.6356 1070.85 52.6816C1070.85 44.7276 1073.5 38.0993 1078.8 32.7966C1084.11 27.494 1090.77 24.8426 1098.81 24.8426ZM1098.81 67.8878C1102.94 67.8878 1106.41 66.4452 1109.22 63.5599C1112.02 60.5966 1113.43 56.9705 1113.43 52.6816C1113.43 48.3927 1112.02 44.8056 1109.22 41.9203C1106.41 38.9571 1102.94 37.4754 1098.81 37.4754C1094.67 37.4754 1091.13 38.9571 1088.16 41.9203C1085.36 44.8056 1083.95 48.3927 1083.95 52.6816C1083.95 56.9705 1085.36 60.5966 1088.16 63.5599C1091.05 66.4452 1094.6 67.8878 1098.81 67.8878ZM1135.31 60.0508V26.3632H1147.94V56.4247C1147.94 59.8558 1149.07 62.7411 1151.33 65.0805C1153.67 67.3419 1156.52 68.4726 1159.87 68.4726C1163.3 68.4726 1166.15 67.3419 1168.41 65.0805C1170.75 62.7411 1171.92 59.8558 1171.92 56.4247V26.3632H1184.55V79H1171.92V72.5666C1168.02 77.8693 1162.76 80.5206 1156.13 80.5206C1150.28 80.5206 1145.33 78.5711 1141.27 74.6721C1137.3 70.6951 1135.31 65.8213 1135.31 60.0508ZM1234.22 38.9961L1222.41 40.9846C1221.47 37.4754 1218.39 35.7209 1213.16 35.7209C1210.98 35.7209 1209.19 36.1498 1207.78 37.0076C1206.46 37.7874 1205.8 38.8791 1205.8 40.2827C1205.8 42.1543 1207.36 43.5969 1210.47 44.6106L1221.24 48.2367C1226.07 49.9523 1229.58 52.0578 1231.76 54.5531C1233.95 57.0485 1235.04 60.2067 1235.04 64.0278C1235.04 69.2525 1233.13 73.3074 1229.31 76.1927C1225.49 79.078 1220.46 80.5206 1214.22 80.5206C1207.98 80.5206 1202.95 79.156 1199.13 76.4266C1195.31 73.6973 1193.05 69.9153 1192.34 65.0805L1204.16 63.3259C1205.25 67.4589 1208.72 69.5254 1214.57 69.5254C1217.06 69.5254 1219.09 69.0965 1220.65 68.2387C1222.21 67.3029 1222.99 66.0553 1222.99 64.4956C1222.99 62.3902 1221.04 60.6746 1217.14 59.3489L1206.38 55.9568C1201.94 54.4752 1198.7 52.6036 1196.67 50.3422C1194.72 48.0028 1193.75 44.9616 1193.75 41.2185C1193.75 35.9158 1195.58 31.8609 1199.25 29.0536C1202.91 26.2463 1207.86 24.8426 1214.1 24.8426C1219.72 24.8426 1224.32 26.1293 1227.9 28.7026C1231.49 31.198 1233.6 34.6292 1234.22 38.9961ZM1295.98 57.3604H1254.23C1255.16 60.7916 1257.03 63.5989 1259.84 65.7823C1262.65 67.8878 1265.92 68.9405 1269.67 68.9405C1274.73 68.9405 1278.83 67.069 1281.95 63.3259L1294.23 66.952C1291.81 71.163 1288.42 74.4771 1284.05 76.8945C1279.76 79.3119 1274.97 80.5206 1269.67 80.5206C1261.63 80.5206 1254.85 77.8693 1249.31 72.5666C1243.85 67.3419 1241.13 60.7136 1241.13 52.6816C1241.13 44.8056 1243.78 38.2163 1249.08 32.9136C1254.3 27.5329 1260.89 24.8426 1268.85 24.8426C1276.65 24.8426 1283.16 27.5329 1288.38 32.9136C1293.68 38.2163 1296.34 44.8056 1296.34 52.6816C1296.34 54.3192 1296.22 55.8788 1295.98 57.3604ZM1254.34 47.5349H1283.35C1282.34 44.2597 1280.51 41.6084 1277.85 39.5809C1275.2 37.4754 1272.12 36.4227 1268.61 36.4227C1265.26 36.4227 1262.26 37.4754 1259.61 39.5809C1257.03 41.6084 1255.28 44.2597 1254.34 47.5349Z" fill="#1E1E1E"/>
</svg>
