<svg width="254" height="245" viewBox="0 0 254 245" fill="none" xmlns="http://www.w3.org/2000/svg">
<path d="M8.432 45H0.682L18.662 3.15H24.676L42.718 45H34.968L31.496 36.754H11.904L8.432 45ZM28.644 29.996L21.7 13.628L14.756 29.996H28.644ZM69.2705 45H61.8925V3.15H69.2705V20.448H90.7845V3.15H98.1625V45H90.7845V27.268H69.2705V45ZM111.866 47.232L112.982 44.38L102.194 17.1H109.138L116.268 35.948L123.584 17.1H130.466L117.508 49.464C116.227 52.7293 114.574 55.1267 112.548 56.656C110.523 58.1853 107.981 58.95 104.922 58.95H103.992V52.564H104.922C108.105 52.564 110.42 50.7867 111.866 47.232ZM133.668 45V0.0499985H140.364V19.332C142.761 17.3067 145.572 16.294 148.796 16.294C152.681 16.294 155.905 17.72 158.468 20.572C161.072 23.3827 162.374 26.8753 162.374 31.05C162.374 35.266 161.072 38.7793 158.468 41.59C155.905 44.4007 152.681 45.806 148.796 45.806C145.572 45.806 142.761 44.7933 140.364 42.768V45H133.668ZM147.928 22.99C145.861 22.99 144.104 23.7753 142.658 25.346C141.211 26.9167 140.488 28.818 140.488 31.05C140.488 33.3233 141.211 35.2453 142.658 36.816C144.063 38.3453 145.82 39.11 147.928 39.11C150.077 39.11 151.854 38.3453 153.26 36.816C154.706 35.2453 155.43 33.3233 155.43 31.05C155.43 28.818 154.706 26.9167 153.26 25.346C151.813 23.7753 150.036 22.99 147.928 22.99ZM173.657 17.1V20.51C175.724 17.6993 178.514 16.294 182.027 16.294C182.482 16.294 182.771 16.3147 182.895 16.356V23.734C181.944 23.362 181.014 23.176 180.105 23.176C178.286 23.176 176.757 23.796 175.517 25.036C174.277 26.276 173.657 27.8053 173.657 29.624V45H166.961V17.1H173.657ZM193.146 45H186.45V17.1H193.146V45ZM185.582 8.234C185.582 6.994 185.975 5.98133 186.76 5.196C187.587 4.36933 188.599 3.956 189.798 3.956C190.997 3.956 192.009 4.36933 192.836 5.196C193.663 5.98133 194.076 6.994 194.076 8.234C194.076 9.43267 193.663 10.4453 192.836 11.272C192.009 12.0573 190.997 12.45 189.798 12.45C188.599 12.45 187.587 12.0573 186.76 11.272C185.975 10.4453 185.582 9.43267 185.582 8.234ZM197.74 31.05C197.74 26.8753 199.042 23.3827 201.646 20.572C204.25 17.72 207.495 16.294 211.38 16.294C214.604 16.294 217.415 17.3067 219.812 19.332V0.0499985H226.446V45H219.812V42.768C217.415 44.7933 214.604 45.806 211.38 45.806C207.495 45.806 204.25 44.4007 201.646 41.59C199.042 38.7793 197.74 35.266 197.74 31.05ZM219.688 31.05C219.688 28.818 218.965 26.9167 217.518 25.346C216.072 23.7753 214.294 22.99 212.186 22.99C210.078 22.99 208.301 23.7753 206.854 25.346C205.408 26.9167 204.684 28.818 204.684 31.05C204.684 33.3233 205.408 35.2453 206.854 36.816C208.26 38.3453 210.037 39.11 212.186 39.11C214.336 39.11 216.113 38.3453 217.518 36.816C218.965 35.2453 219.688 33.3233 219.688 31.05ZM8.68 101.606C4.54667 97.4727 2.48 92.306 2.48 86.106C2.48 79.906 4.588 74.7187 8.804 70.544C12.9787 66.4107 18.2487 64.344 24.614 64.344C28.954 64.344 32.86 65.3773 36.332 67.444C39.8453 69.5107 42.4907 72.3213 44.268 75.876L37.076 78.542C35.836 76.31 34.1207 74.574 31.93 73.334C29.7393 72.094 27.3007 71.474 24.614 71.474C20.5633 71.474 17.1327 72.8793 14.322 75.69C11.5527 78.4593 10.168 81.9107 10.168 86.044C10.168 90.26 11.4907 93.7527 14.136 96.522C16.7813 99.2913 20.0673 100.676 23.994 100.676C27.0527 100.676 29.8427 99.7667 32.364 97.948C34.8027 96.1707 36.4353 93.8147 37.262 90.88H23.25V84.122H45.632C45.7147 85.1967 45.756 85.8787 45.756 86.168C45.6733 92.368 43.586 97.514 39.494 101.606C35.402 105.739 30.2973 107.806 24.18 107.806C17.98 107.806 12.8133 105.739 8.68 101.606ZM57.6179 79.1V82.51C59.6845 79.6993 62.4745 78.294 65.9879 78.294C66.4425 78.294 66.7319 78.3147 66.8559 78.356V85.734C65.9052 85.362 64.9752 85.176 64.0659 85.176C62.2472 85.176 60.7179 85.796 59.4779 87.036C58.2379 88.276 57.6179 89.8053 57.6179 91.624V107H50.9219V79.1H57.6179ZM83.327 78.294C87.543 78.294 91.0564 79.6993 93.867 82.51C96.6777 85.3207 98.083 88.834 98.083 93.05C98.083 97.266 96.6777 100.779 93.867 103.59C91.0564 106.401 87.543 107.806 83.327 107.806C79.0697 107.806 75.5357 106.401 72.725 103.59C69.9144 100.779 68.509 97.266 68.509 93.05C68.509 88.834 69.9144 85.3207 72.725 82.51C75.5357 79.6993 79.0697 78.294 83.327 78.294ZM83.327 101.11C85.5177 101.11 87.357 100.345 88.845 98.816C90.333 97.2453 91.077 95.3233 91.077 93.05C91.077 90.7767 90.333 88.8753 88.845 87.346C87.357 85.7753 85.5177 84.99 83.327 84.99C81.1364 84.99 79.2557 85.7753 77.685 87.346C76.197 88.8753 75.453 90.7767 75.453 93.05C75.453 95.3233 76.197 97.2453 77.685 98.816C79.2144 100.345 81.095 101.11 83.327 101.11ZM114.053 107H108.039L98.9249 79.1H105.683L111.015 96.646L116.285 79.1H122.361L127.693 96.646L132.963 79.1H139.721L130.669 107H124.593L119.385 90.198L114.053 107ZM140.575 84.928V79.1H144.543V73.644H151.239V79.1H158.431V84.928H151.239V97.204C151.239 98.196 151.57 99.0227 152.231 99.684C152.893 100.304 153.699 100.614 154.649 100.614H158.431V107H154.091C151.446 107 149.173 106.153 147.271 104.458C145.453 102.763 144.543 100.676 144.543 98.196V84.928H140.575ZM162.602 107V62.05H169.298V82.51C171.406 79.6993 174.278 78.294 177.916 78.294C181.14 78.294 183.826 79.3273 185.976 81.394C188.125 83.4193 189.2 86.0233 189.2 89.206V107H182.504V91.066C182.504 89.2473 181.884 87.7387 180.644 86.54C179.404 85.3 177.833 84.68 175.932 84.68C174.03 84.68 172.439 85.3 171.158 86.54C169.918 87.7387 169.298 89.2473 169.298 91.066V107H162.602ZM3.782 127.15H34.41V133.97H11.16V144.448H31.186V151.268H11.16V162.18H34.72V169H3.782V127.15ZM39.4785 169V141.1H46.1745V144.51C48.2412 141.699 51.0312 140.294 54.5445 140.294C57.7272 140.294 60.3518 141.327 62.4185 143.394C64.5265 145.419 65.5805 148.003 65.5805 151.144V169H58.8845V153.066C58.8845 151.247 58.2852 149.739 57.0865 148.54C55.8878 147.3 54.3792 146.68 52.5605 146.68C50.7832 146.68 49.2745 147.3 48.0345 148.54C46.7945 149.78 46.1745 151.289 46.1745 153.066V169H39.4785ZM70.1438 155.05C70.1438 150.875 71.4458 147.383 74.0498 144.572C76.6538 141.72 79.8985 140.294 83.7838 140.294C87.0078 140.294 89.8185 141.307 92.2158 143.332V141.1H98.8498V169H92.2158V166.768C89.8185 168.793 87.0078 169.806 83.7838 169.806C79.8985 169.806 76.6538 168.401 74.0498 165.59C71.4458 162.779 70.1438 159.266 70.1438 155.05ZM92.0918 155.05C92.0918 152.818 91.3685 150.917 89.9218 149.346C88.4751 147.775 86.6978 146.99 84.5898 146.99C82.4818 146.99 80.7045 147.775 79.2578 149.346C77.8111 150.917 77.0878 152.818 77.0878 155.05C77.0878 157.323 77.8111 159.245 79.2578 160.816C80.6631 162.345 82.4405 163.11 84.5898 163.11C86.7391 163.11 88.5165 162.345 89.9218 160.816C91.3685 159.245 92.0918 157.323 92.0918 155.05ZM104.552 169V124.05H111.248V143.332C113.645 141.307 116.456 140.294 119.68 140.294C123.565 140.294 126.789 141.72 129.352 144.572C131.956 147.383 133.258 150.875 133.258 155.05C133.258 159.266 131.956 162.779 129.352 165.59C126.789 168.401 123.565 169.806 119.68 169.806C116.456 169.806 113.645 168.793 111.248 166.768V169H104.552ZM118.812 146.99C116.745 146.99 114.989 147.775 113.542 149.346C112.095 150.917 111.372 152.818 111.372 155.05C111.372 157.323 112.095 159.245 113.542 160.816C114.947 162.345 116.704 163.11 118.812 163.11C120.961 163.11 122.739 162.345 124.144 160.816C125.591 159.245 126.314 157.323 126.314 155.05C126.314 152.818 125.591 150.917 124.144 149.346C122.697 147.775 120.92 146.99 118.812 146.99ZM144.541 169H137.845V124.05H144.541V169ZM156.886 169H150.19V141.1H156.886V169ZM149.322 132.234C149.322 130.994 149.714 129.981 150.5 129.196C151.326 128.369 152.339 127.956 153.538 127.956C154.736 127.956 155.749 128.369 156.576 129.196C157.402 129.981 157.816 130.994 157.816 132.234C157.816 133.433 157.402 134.445 156.576 135.272C155.749 136.057 154.736 136.45 153.538 136.45C152.339 136.45 151.326 136.057 150.5 135.272C149.714 134.445 149.322 133.433 149.322 132.234ZM162.534 169V141.1H169.23V144.51C171.297 141.699 174.087 140.294 177.6 140.294C180.783 140.294 183.407 141.327 185.474 143.394C187.582 145.419 188.636 148.003 188.636 151.144V169H181.94V153.066C181.94 151.247 181.341 149.739 180.142 148.54C178.943 147.3 177.435 146.68 175.616 146.68C173.839 146.68 172.33 147.3 171.09 148.54C169.85 149.78 169.23 151.289 169.23 153.066V169H162.534ZM193.199 155.05C193.199 150.875 194.501 147.383 197.105 144.572C199.709 141.72 202.954 140.294 206.839 140.294C210.063 140.294 212.874 141.307 215.271 143.332V141.1H221.905V169.806C221.905 173.733 220.562 177.039 217.875 179.726C215.189 182.413 211.861 183.756 207.893 183.756C204.835 183.756 202.003 182.95 199.399 181.338C196.795 179.685 195.039 177.639 194.129 175.2L200.887 173.34C201.342 174.415 202.21 175.303 203.491 176.006C204.773 176.75 206.157 177.122 207.645 177.122C209.836 177.122 211.634 176.419 213.039 175.014C214.527 173.65 215.271 171.935 215.271 169.868V166.768C212.874 168.793 210.063 169.806 206.839 169.806C202.954 169.806 199.709 168.401 197.105 165.59C194.501 162.779 193.199 159.266 193.199 155.05ZM215.147 155.05C215.147 152.818 214.424 150.917 212.977 149.346C211.531 147.775 209.753 146.99 207.645 146.99C205.537 146.99 203.76 147.775 202.313 149.346C200.867 150.917 200.143 152.818 200.143 155.05C200.143 157.323 200.867 159.245 202.313 160.816C203.719 162.345 205.496 163.11 207.645 163.11C209.795 163.11 211.572 162.345 212.977 160.816C214.424 159.245 215.147 157.323 215.147 155.05ZM8.68 225.606C4.54667 221.473 2.48 216.306 2.48 210.106C2.48 203.906 4.54667 198.739 8.68 194.606C12.8547 190.431 18.0627 188.344 24.304 188.344C28.52 188.344 32.3433 189.398 35.774 191.506C39.246 193.573 41.8707 196.363 43.648 199.876L36.518 202.542C35.278 200.31 33.5833 198.574 31.434 197.334C29.2847 196.094 26.908 195.474 24.304 195.474C20.2533 195.474 16.8847 196.879 14.198 199.69C11.5113 202.501 10.168 205.952 10.168 210.044C10.168 214.219 11.5113 217.711 14.198 220.522C16.8433 223.291 20.212 224.676 24.304 224.676C26.908 224.676 29.2847 224.056 31.434 222.816C33.5833 221.576 35.278 219.84 36.518 217.608L43.648 220.274C41.8707 223.787 39.246 226.598 35.774 228.706C32.3433 230.773 28.52 231.806 24.304 231.806C18.0213 231.806 12.8133 229.739 8.68 225.606ZM61.7191 202.294C65.9351 202.294 69.4484 203.699 72.2591 206.51C75.0697 209.321 76.4751 212.834 76.4751 217.05C76.4751 221.266 75.0697 224.779 72.2591 227.59C69.4484 230.401 65.9351 231.806 61.7191 231.806C57.4617 231.806 53.9277 230.401 51.1171 227.59C48.3064 224.779 46.9011 221.266 46.9011 217.05C46.9011 212.834 48.3064 209.321 51.1171 206.51C53.9277 203.699 57.4617 202.294 61.7191 202.294ZM61.7191 225.11C63.9097 225.11 65.7491 224.345 67.2371 222.816C68.7251 221.245 69.4691 219.323 69.4691 217.05C69.4691 214.777 68.7251 212.875 67.2371 211.346C65.7491 209.775 63.9097 208.99 61.7191 208.99C59.5284 208.99 57.6477 209.775 56.0771 211.346C54.5891 212.875 53.8451 214.777 53.8451 217.05C53.8451 219.323 54.5891 221.245 56.0771 222.816C57.6064 224.345 59.4871 225.11 61.7191 225.11ZM87.7629 231H81.0669V203.1H87.7629V206.076C89.6229 203.555 92.2476 202.294 95.6369 202.294C99.4396 202.294 102.374 203.823 104.441 206.882C106.384 203.823 109.339 202.294 113.307 202.294C116.49 202.294 119.135 203.286 121.243 205.27C123.351 207.254 124.405 209.713 124.405 212.648V231H117.771V214.57C117.771 212.875 117.213 211.47 116.097 210.354C114.981 209.238 113.596 208.68 111.943 208.68C110.29 208.68 108.905 209.259 107.789 210.416C106.673 211.532 106.115 212.917 106.115 214.57V231H99.4189V214.57C99.4189 212.875 98.8609 211.47 97.7449 210.354C96.6289 209.238 95.2443 208.68 93.5909 208.68C91.9376 208.68 90.5529 209.259 89.4369 210.416C88.3209 211.532 87.7629 212.917 87.7629 214.57V231ZM136.738 244.95H130.042V203.1H136.738V205.332C139.135 203.307 141.946 202.294 145.17 202.294C149.055 202.294 152.279 203.699 154.842 206.51C157.446 209.279 158.748 212.793 158.748 217.05C158.748 221.225 157.446 224.738 154.842 227.59C152.279 230.401 149.055 231.806 145.17 231.806C141.946 231.806 139.135 230.793 136.738 228.768V244.95ZM144.302 208.99C142.235 208.99 140.479 209.775 139.032 211.346C137.585 212.917 136.862 214.818 136.862 217.05C136.862 219.323 137.585 221.245 139.032 222.816C140.437 224.345 142.194 225.11 144.302 225.11C146.451 225.11 148.229 224.345 149.634 222.816C151.081 221.245 151.804 219.323 151.804 217.05C151.804 214.818 151.081 212.917 149.634 211.346C148.187 209.775 146.41 208.99 144.302 208.99ZM162.282 217.05C162.282 212.875 163.584 209.383 166.188 206.572C168.792 203.72 172.036 202.294 175.922 202.294C179.146 202.294 181.956 203.307 184.354 205.332V203.1H190.988V231H184.354V228.768C181.956 230.793 179.146 231.806 175.922 231.806C172.036 231.806 168.792 230.401 166.188 227.59C163.584 224.779 162.282 221.266 162.282 217.05ZM184.23 217.05C184.23 214.818 183.506 212.917 182.06 211.346C180.613 209.775 178.836 208.99 176.728 208.99C174.62 208.99 172.842 209.775 171.396 211.346C169.949 212.917 169.226 214.818 169.226 217.05C169.226 219.323 169.949 221.245 171.396 222.816C172.801 224.345 174.578 225.11 176.728 225.11C178.877 225.11 180.654 224.345 182.06 222.816C183.506 221.245 184.23 219.323 184.23 217.05ZM196.69 231V203.1H203.386V206.51C205.452 203.699 208.242 202.294 211.756 202.294C214.938 202.294 217.563 203.327 219.63 205.394C221.738 207.419 222.792 210.003 222.792 213.144V231H216.096V215.066C216.096 213.247 215.496 211.739 214.298 210.54C213.099 209.3 211.59 208.68 209.772 208.68C207.994 208.68 206.486 209.3 205.246 210.54C204.006 211.78 203.386 213.289 203.386 215.066V231H196.69ZM234.452 233.232L235.568 230.38L224.78 203.1H231.724L238.854 221.948L246.17 203.1H253.052L240.094 235.464C238.813 238.729 237.159 241.127 235.134 242.656C233.109 244.185 230.567 244.95 227.508 244.95H226.578V238.564H227.508C230.691 238.564 233.005 236.787 234.452 233.232Z" fill="#1E1E1E"/>
</svg>
