<svg width="108" height="22" viewBox="0 0 108 22" fill="none" xmlns="http://www.w3.org/2000/svg">
<path d="M107.768 7.05807L102.404 14.5637H107.999V16.912H99.0195V15.2544L104.407 7.74877H99.2498V5.40039H107.768V7.05807Z" fill="white"/>
<path d="M92.6277 13.7579L95.5747 5.40039H98.2224L93.8019 17.2804C92.6968 20.2581 90.8242 21.6702 88.1842 21.5167V19.1914C88.9516 19.2374 89.5733 19.0762 90.0491 18.7079C90.5249 18.3395 90.924 17.7486 91.2463 16.9351L91.3614 16.7048L86.4805 5.40039H89.1972L92.6277 13.7579Z" fill="white"/>
<path d="M81.0551 5.10156C82.3905 5.10156 83.4572 5.53133 84.2554 6.39087C85.0689 7.23506 85.4756 8.38622 85.4756 9.84436V16.9125H82.9891V10.0976C82.9891 9.23808 82.7589 8.57808 82.2984 8.11762C81.8379 7.65715 81.2086 7.42692 80.4105 7.42692C79.5049 7.42692 78.7912 7.71087 78.2693 8.27878C77.7474 8.83134 77.4865 9.6525 77.4865 10.7423V16.9125H75V5.40087H77.4865V6.87436C78.254 5.69249 79.4435 5.10156 81.0551 5.10156Z" fill="white"/>
<path d="M69.7306 7.03552V5.40087H72.2171V16.9125H69.7306V15.2548C68.7944 16.5595 67.4513 17.2118 65.7016 17.2118C64.1206 17.2118 62.7699 16.6286 61.6495 15.4621C60.529 14.2955 59.9688 12.8604 59.9688 11.1567C59.9688 9.45297 60.529 8.01785 61.6495 6.85133C62.7699 5.68482 64.1206 5.10156 65.7016 5.10156C67.4513 5.10156 68.7944 5.74622 69.7306 7.03552ZM63.4913 13.8044C64.182 14.4951 65.0492 14.8404 66.0929 14.8404C67.1367 14.8404 68.0039 14.4951 68.6946 13.8044C69.3853 13.0983 69.7306 12.2158 69.7306 11.1567C69.7306 10.0976 69.3853 9.22273 68.6946 8.53203C68.0039 7.82599 67.1367 7.47296 66.0929 7.47296C65.0492 7.47296 64.182 7.82599 63.4913 8.53203C62.8006 9.22273 62.4553 10.0976 62.4553 11.1567C62.4553 12.2004 62.8006 13.083 63.4913 13.8044Z" fill="white"/>
<path d="M55.39 7.10459V5.40087H57.8304V16.383C57.8304 18.1328 57.2548 19.4758 56.1037 20.4121C54.9679 21.3483 53.5711 21.8165 51.9134 21.8165C49.2581 21.8165 47.4392 20.8879 46.4569 19.0307L48.5981 17.7874C49.1967 18.9693 50.3172 19.5602 51.9595 19.5602C53.0339 19.5602 53.8704 19.2762 54.469 18.7083C55.083 18.1558 55.39 17.3807 55.39 16.383V14.9786C54.4537 16.3139 53.1183 16.9816 51.3839 16.9816C49.7723 16.9816 48.3985 16.406 47.2627 15.2548C46.1423 14.0883 45.582 12.6839 45.582 11.0416C45.582 9.3839 46.1423 7.98715 47.2627 6.85133C48.3832 5.68482 49.7569 5.10156 51.3839 5.10156C53.1183 5.10156 54.4537 5.76924 55.39 7.10459ZM49.1046 13.6202C49.8106 14.3109 50.6855 14.6562 51.7293 14.6562C52.773 14.6562 53.6402 14.3109 54.3309 13.6202C55.0369 12.9295 55.39 12.0699 55.39 11.0416C55.39 10.0132 55.0369 9.15366 54.3309 8.46297C53.6402 7.77227 52.773 7.42692 51.7293 7.42692C50.6855 7.42692 49.8106 7.77227 49.1046 8.46297C48.4139 9.15366 48.0685 10.0132 48.0685 11.0416C48.0685 12.0699 48.4139 12.9295 49.1046 13.6202Z" fill="white"/>
<path d="M44.1282 12.2158H34.9649C35.1491 13.0753 35.5635 13.743 36.2082 14.2188C36.8682 14.6946 37.6817 14.9325 38.6486 14.9325C39.9533 14.9325 40.9433 14.4567 41.6187 13.5051L43.6677 14.7023C42.5473 16.3753 40.8666 17.2118 38.6256 17.2118C36.7684 17.2118 35.2565 16.6439 34.09 15.5081C32.9389 14.3569 32.3633 12.9065 32.3633 11.1567C32.3633 9.45297 32.9312 8.01785 34.067 6.85133C35.1875 5.68482 36.6456 5.10156 38.4414 5.10156C40.1145 5.10156 41.4959 5.69249 42.5856 6.87436C43.6754 8.05622 44.2203 9.49134 44.2203 11.1797C44.2203 11.4867 44.1896 11.832 44.1282 12.2158ZM34.9419 10.1897H41.7107C41.5419 9.28413 41.1582 8.58576 40.5596 8.09459C39.9763 7.60343 39.2626 7.35785 38.4184 7.35785C37.4975 7.35785 36.73 7.6111 36.1161 8.11762C35.5021 8.62413 35.1107 9.31483 34.9419 10.1897Z" fill="white"/>
<path d="M26.8615 13.3434L29.1178 5.40039H31.7424L28.1278 16.912H25.6873L23.2929 9.15319L20.8754 16.912H18.435L14.8203 5.40039H17.445L19.6782 13.3434L22.0957 5.40039H24.4671L26.8615 13.3434Z" fill="white"/>
<path d="M14.85 16.9122H11.9951L10.867 13.6659H4.00606L2.87791 16.9122H0L5.84792 0.795898H9.02514L14.85 16.9122ZM7.43653 3.90405L4.88094 11.1794H9.99212L7.43653 3.90405Z" fill="white"/>
</svg>
