<svg width="108" height="22" viewBox="0 0 108 22" fill="none" xmlns="http://www.w3.org/2000/svg">
<path d="M107.768 7.05795L102.404 14.5635H107.999V16.9119H99.0195V15.2542L104.407 7.74865H99.2498V5.40027H107.768V7.05795Z" fill="#1E1E1E"/>
<path d="M92.6277 13.7577L95.5747 5.40027H98.2224L93.8019 17.2803C92.6968 20.258 90.8242 21.6701 88.1842 21.5166V19.1912C88.9516 19.2373 89.5733 19.0761 90.0491 18.7077C90.5249 18.3394 90.924 17.7484 91.2463 16.9349L91.3614 16.7047L86.4805 5.40027H89.1972L92.6277 13.7577Z" fill="#1E1E1E"/>
<path d="M81.0551 5.10144C82.3905 5.10144 83.4572 5.53121 84.2554 6.39075C85.0689 7.23493 85.4756 8.3861 85.4756 9.84424V16.9124H82.9891V10.0975C82.9891 9.23796 82.7589 8.57796 82.2984 8.11749C81.8379 7.65703 81.2086 7.42679 80.4105 7.42679C79.5049 7.42679 78.7912 7.71075 78.2693 8.27866C77.7474 8.83122 77.4865 9.65238 77.4865 10.7421V16.9124H75V5.40074H77.4865V6.87423C78.254 5.69237 79.4435 5.10144 81.0551 5.10144Z" fill="#1E1E1E"/>
<path d="M69.7306 7.0354V5.40074H72.2171V16.9124H69.7306V15.2547C68.7944 16.5594 67.4513 17.2117 65.7016 17.2117C64.1206 17.2117 62.7699 16.6284 61.6495 15.4619C60.529 14.2954 59.9688 12.8603 59.9688 11.1566C59.9688 9.45285 60.529 8.01773 61.6495 6.85121C62.7699 5.6847 64.1206 5.10144 65.7016 5.10144C67.4513 5.10144 68.7944 5.74609 69.7306 7.0354ZM63.4913 13.8043C64.182 14.495 65.0492 14.8403 66.0929 14.8403C67.1367 14.8403 68.0039 14.495 68.6946 13.8043C69.3853 13.0982 69.7306 12.2156 69.7306 11.1566C69.7306 10.0975 69.3853 9.22261 68.6946 8.53191C68.0039 7.82586 67.1367 7.47284 66.0929 7.47284C65.0492 7.47284 64.182 7.82586 63.4913 8.53191C62.8006 9.22261 62.4553 10.0975 62.4553 11.1566C62.4553 12.2003 62.8006 13.0829 63.4913 13.8043Z" fill="#1E1E1E"/>
<path d="M55.39 7.10447V5.40074H57.8304V16.3829C57.8304 18.1326 57.2548 19.4757 56.1037 20.4119C54.9679 21.3482 53.5711 21.8164 51.9134 21.8164C49.2581 21.8164 47.4392 20.8878 46.4569 19.0305L48.5981 17.7873C49.1967 18.9691 50.3172 19.5601 51.9595 19.5601C53.0339 19.5601 53.8704 19.2761 54.469 18.7082C55.083 18.1557 55.39 17.3805 55.39 16.3829V14.9784C54.4537 16.3138 53.1183 16.9815 51.3839 16.9815C49.7723 16.9815 48.3985 16.4059 47.2627 15.2547C46.1423 14.0882 45.582 12.6838 45.582 11.0415C45.582 9.38378 46.1423 7.98703 47.2627 6.85121C48.3832 5.6847 49.7569 5.10144 51.3839 5.10144C53.1183 5.10144 54.4537 5.76912 55.39 7.10447ZM49.1046 13.6201C49.8106 14.3108 50.6855 14.6561 51.7293 14.6561C52.773 14.6561 53.6402 14.3108 54.3309 13.6201C55.0369 12.9294 55.39 12.0698 55.39 11.0415C55.39 10.0131 55.0369 9.15354 54.3309 8.46284C53.6402 7.77214 52.773 7.42679 51.7293 7.42679C50.6855 7.42679 49.8106 7.77214 49.1046 8.46284C48.4139 9.15354 48.0685 10.0131 48.0685 11.0415C48.0685 12.0698 48.4139 12.9294 49.1046 13.6201Z" fill="#1E1E1E"/>
<path d="M44.1282 12.2156H34.9649C35.1491 13.0752 35.5635 13.7429 36.2082 14.2187C36.8682 14.6945 37.6817 14.9324 38.6486 14.9324C39.9533 14.9324 40.9433 14.4566 41.6187 13.5049L43.6677 14.7022C42.5473 16.3752 40.8666 17.2117 38.6256 17.2117C36.7684 17.2117 35.2565 16.6438 34.09 15.508C32.9389 14.3568 32.3633 12.9063 32.3633 11.1566C32.3633 9.45285 32.9312 8.01773 34.067 6.85121C35.1875 5.6847 36.6456 5.10144 38.4414 5.10144C40.1145 5.10144 41.4959 5.69237 42.5856 6.87424C43.6754 8.0561 44.2203 9.49122 44.2203 11.1796C44.2203 11.4866 44.1896 11.8319 44.1282 12.2156ZM34.9419 10.1896H41.7107C41.5419 9.28401 41.1582 8.58563 40.5596 8.09447C39.9763 7.60331 39.2626 7.35772 38.4184 7.35772C37.4975 7.35772 36.73 7.61098 36.1161 8.11749C35.5021 8.62401 35.1107 9.31471 34.9419 10.1896Z" fill="#1E1E1E"/>
<path d="M26.8615 13.3433L29.1178 5.40027H31.7424L28.1278 16.9119H25.6873L23.2929 9.15307L20.8754 16.9119H18.435L14.8203 5.40027H17.445L19.6782 13.3433L22.0957 5.40027H24.4671L26.8615 13.3433Z" fill="#1E1E1E"/>
<path d="M14.85 16.9121H11.9951L10.867 13.6658H4.00606L2.87791 16.9121H0L5.84792 0.795776H9.02514L14.85 16.9121ZM7.43653 3.90392L4.88094 11.1793H9.99212L7.43653 3.90392Z" fill="#1E1E1E"/>
</svg>
