<svg width="132" height="46" viewBox="0 0 132 46" fill="none" xmlns="http://www.w3.org/2000/svg">
<rect y="0.656494" width="132" height="45.3435" rx="22.6718" fill="#CDDDFF"/>
<path d="M41.876 23.6722L40.058 23.9782C39.914 23.4382 39.44 23.1682 38.636 23.1682C38.3 23.1682 38.024 23.2342 37.808 23.3662C37.604 23.4862 37.502 23.6542 37.502 23.8702C37.502 24.1582 37.742 24.3802 38.222 24.5362L39.878 25.0942C40.622 25.3582 41.162 25.6822 41.498 26.0662C41.834 26.4502 42.002 26.9362 42.002 27.5242C42.002 28.3282 41.708 28.9522 41.12 29.3962C40.532 29.8402 39.758 30.0622 38.798 30.0622C37.838 30.0622 37.064 29.8522 36.476 29.4322C35.888 29.0122 35.54 28.4302 35.432 27.6862L37.25 27.4162C37.418 28.0522 37.952 28.3702 38.852 28.3702C39.236 28.3702 39.548 28.3042 39.788 28.1722C40.028 28.0282 40.148 27.8362 40.148 27.5962C40.148 27.2722 39.848 27.0082 39.248 26.8042L37.592 26.2822C36.908 26.0542 36.41 25.7662 36.098 25.4182C35.798 25.0582 35.648 24.5902 35.648 24.0142C35.648 23.1982 35.93 22.5742 36.494 22.1422C37.058 21.7102 37.82 21.4942 38.78 21.4942C39.644 21.4942 40.352 21.6922 40.904 22.0882C41.456 22.4722 41.78 23.0002 41.876 23.6722ZM51.4707 26.4982H45.0447C45.1887 27.0262 45.4767 27.4582 45.9087 27.7942C46.3407 28.1182 46.8447 28.2802 47.4207 28.2802C48.2007 28.2802 48.8307 27.9922 49.3107 27.4162L51.2007 27.9742C50.8287 28.6222 50.3067 29.1322 49.6347 29.5042C48.9747 29.8762 48.2367 30.0622 47.4207 30.0622C46.1847 30.0622 45.1407 29.6542 44.2887 28.8382C43.4487 28.0342 43.0287 27.0142 43.0287 25.7782C43.0287 24.5662 43.4367 23.5522 44.2527 22.7362C45.0567 21.9082 46.0707 21.4942 47.2947 21.4942C48.4947 21.4942 49.4967 21.9082 50.3007 22.7362C51.1167 23.5522 51.5247 24.5662 51.5247 25.7782C51.5247 26.0302 51.5067 26.2702 51.4707 26.4982ZM45.0627 24.9862H49.5267C49.3707 24.4822 49.0887 24.0742 48.6807 23.7622C48.2727 23.4382 47.7987 23.2762 47.2587 23.2762C46.7427 23.2762 46.2807 23.4382 45.8727 23.7622C45.4767 24.0742 45.2067 24.4822 45.0627 24.9862ZM54.7709 21.7282V22.7182C55.3709 21.9022 56.1809 21.4942 57.2009 21.4942C57.3329 21.4942 57.4169 21.5002 57.4529 21.5122V23.6542C57.1769 23.5462 56.9069 23.4922 56.6429 23.4922C56.1149 23.4922 55.6709 23.6722 55.3109 24.0322C54.9509 24.3922 54.7709 24.8362 54.7709 25.3642V29.8282H52.8269V21.7282H54.7709ZM61.2209 29.8282L57.8729 21.7282H59.8889L62.1389 27.3622L64.3889 21.7282H66.3869L63.0569 29.8282H61.2209ZM69.3783 29.8282H67.4343V21.7282H69.3783V29.8282ZM67.1823 19.1542C67.1823 18.7942 67.2963 18.5002 67.5243 18.2722C67.7643 18.0322 68.0583 17.9122 68.4063 17.9122C68.7543 17.9122 69.0483 18.0322 69.2883 18.2722C69.5283 18.5002 69.6483 18.7942 69.6483 19.1542C69.6483 19.5022 69.5283 19.7962 69.2883 20.0362C69.0483 20.2642 68.7543 20.3782 68.4063 20.3782C68.0583 20.3782 67.7643 20.2642 67.5243 20.0362C67.2963 19.7962 67.1823 19.5022 67.1823 19.1542ZM79.1001 24.1582L77.1381 24.7522C76.9701 24.3562 76.7001 24.0382 76.3281 23.7982C75.9681 23.5582 75.5541 23.4382 75.0861 23.4382C74.4621 23.4382 73.9221 23.6662 73.4661 24.1222C73.0341 24.5662 72.8181 25.1182 72.8181 25.7782C72.8181 26.4382 73.0341 26.9962 73.4661 27.4522C73.9101 27.8962 74.4501 28.1182 75.0861 28.1182C75.5541 28.1182 75.9681 27.9982 76.3281 27.7582C76.7001 27.5182 76.9701 27.2002 77.1381 26.8042L79.1001 27.3802C78.7761 28.2082 78.2541 28.8622 77.5341 29.3422C76.8261 29.8222 76.0101 30.0622 75.0861 30.0622C73.8621 30.0622 72.8421 29.6542 72.0261 28.8382C71.2101 28.0222 70.8021 27.0022 70.8021 25.7782C70.8021 24.5542 71.2101 23.5342 72.0261 22.7182C72.8421 21.9022 73.8621 21.4942 75.0861 21.4942C75.9981 21.4942 76.8141 21.7342 77.5341 22.2142C78.2541 22.6942 78.7761 23.3422 79.1001 24.1582ZM88.4727 26.4982H82.0467C82.1907 27.0262 82.4787 27.4582 82.9107 27.7942C83.3427 28.1182 83.8467 28.2802 84.4227 28.2802C85.2027 28.2802 85.8327 27.9922 86.3127 27.4162L88.2027 27.9742C87.8307 28.6222 87.3087 29.1322 86.6367 29.5042C85.9767 29.8762 85.2387 30.0622 84.4227 30.0622C83.1867 30.0622 82.1427 29.6542 81.2907 28.8382C80.4507 28.0342 80.0307 27.0142 80.0307 25.7782C80.0307 24.5662 80.4387 23.5522 81.2547 22.7362C82.0587 21.9082 83.0727 21.4942 84.2967 21.4942C85.4967 21.4942 86.4987 21.9082 87.3027 22.7362C88.1187 23.5522 88.5267 24.5662 88.5267 25.7782C88.5267 26.0302 88.5087 26.2702 88.4727 26.4982ZM82.0647 24.9862H86.5287C86.3727 24.4822 86.0907 24.0742 85.6827 23.7622C85.2747 23.4382 84.8007 23.2762 84.2607 23.2762C83.7447 23.2762 83.2827 23.4382 82.8747 23.7622C82.4787 24.0742 82.2087 24.4822 82.0647 24.9862ZM95.8408 23.6722L94.0228 23.9782C93.8788 23.4382 93.4048 23.1682 92.6008 23.1682C92.2648 23.1682 91.9888 23.2342 91.7728 23.3662C91.5688 23.4862 91.4668 23.6542 91.4668 23.8702C91.4668 24.1582 91.7068 24.3802 92.1868 24.5362L93.8428 25.0942C94.5868 25.3582 95.1268 25.6822 95.4628 26.0662C95.7988 26.4502 95.9668 26.9362 95.9668 27.5242C95.9668 28.3282 95.6728 28.9522 95.0848 29.3962C94.4968 29.8402 93.7228 30.0622 92.7628 30.0622C91.8028 30.0622 91.0288 29.8522 90.4408 29.4322C89.8528 29.0122 89.5048 28.4302 89.3968 27.6862L91.2148 27.4162C91.3828 28.0522 91.9168 28.3702 92.8168 28.3702C93.2008 28.3702 93.5128 28.3042 93.7528 28.1722C93.9928 28.0282 94.1128 27.8362 94.1128 27.5962C94.1128 27.2722 93.8128 27.0082 93.2128 26.8042L91.5568 26.2822C90.8728 26.0542 90.3748 25.7662 90.0628 25.4182C89.7628 25.0582 89.6128 24.5902 89.6128 24.0142C89.6128 23.1982 89.8948 22.5742 90.4588 22.1422C91.0228 21.7102 91.7848 21.4942 92.7448 21.4942C93.6088 21.4942 94.3168 21.6922 94.8688 22.0882C95.4208 22.4722 95.7448 23.0002 95.8408 23.6722Z" fill="#1E1E1E"/>
</svg>
