<svg width="1410" height="876" viewBox="0 0 1410 876" fill="none" xmlns="http://www.w3.org/2000/svg">
<path fill-rule="evenodd" clip-rule="evenodd" d="M228 0H12C5.37258 0 0 5.37258 0 12V88C0 88.8219 0.0619656 89.6292 0.18148 90.4177C0.697086 93.8195 1.0581 97.3543 0.459183 100.742C0.157415 102.449 0 104.206 0 106V846C0 862.569 13.4315 876 30 876H1380C1396.57 876 1410 862.569 1410 846V106C1410 89.4315 1396.57 76 1380 76H256C249.373 76 244 70.6274 244 64V16C244 7.16344 236.837 0 228 0Z" fill="#F5F5F5"/>
</svg>
