<svg width="35" height="20" viewBox="0 0 35 20" fill="none" xmlns="http://www.w3.org/2000/svg">
<path opacity="0.4" d="M0.92 11.44V7.06C0.92 5.68667 1.41333 4.54 2.4 3.62C3.38667 2.7 4.62 2.24 6.1 2.24C7.58 2.24 8.81333 2.7 9.8 3.62C10.7867 4.54 11.28 5.68667 11.28 7.06V11.44C11.28 12.8133 10.7867 13.96 9.8 14.88C8.81333 15.8 7.58 16.26 6.1 16.26C4.62 16.26 3.38667 15.8 2.4 14.88C1.41333 13.96 0.92 12.8133 0.92 11.44ZM3.22 7.02V11.46C3.22 12.1933 3.49333 12.8133 4.04 13.32C4.58667 13.8133 5.27333 14.06 6.1 14.06C6.92667 14.06 7.60667 13.8133 8.14 13.32C8.7 12.8133 8.98 12.1933 8.98 11.46V7.02C8.98 6.28667 8.7 5.67333 8.14 5.18C7.60667 4.68667 6.92667 4.44 6.1 4.44C5.27333 4.44 4.58667 4.68667 4.04 5.18C3.49333 5.68667 3.22 6.3 3.22 7.02ZM19.987 6.22C19.987 5.71333 19.7537 5.29333 19.287 4.96C18.8204 4.61333 18.227 4.44 17.507 4.44C16.9204 4.44 16.4004 4.56 15.947 4.8C15.507 5.02667 15.1937 5.34 15.007 5.74L12.927 4.74C13.327 3.96667 13.9337 3.36 14.747 2.92C15.5737 2.46667 16.5004 2.24 17.527 2.24C18.9004 2.24 20.0537 2.61333 20.987 3.36C21.907 4.10667 22.367 5.04 22.367 6.16C22.367 7.33333 21.847 8.28 20.807 9C22.0737 9.78667 22.707 10.8467 22.707 12.18C22.707 13.3533 22.2204 14.3267 21.247 15.1C20.3004 15.8733 19.1004 16.26 17.647 16.26C16.487 16.26 15.4604 15.9933 14.567 15.46C13.687 14.9133 13.087 14.2 12.767 13.32L14.967 12.54C15.1137 12.9933 15.427 13.36 15.907 13.64C16.4004 13.92 16.9804 14.06 17.647 14.06C18.407 14.06 19.0404 13.8733 19.547 13.5C20.067 13.1267 20.327 12.6533 20.327 12.08C20.327 11.5333 20.0737 11.0733 19.567 10.7C19.0737 10.3267 18.4537 10.14 17.707 10.14H16.687V8.06H17.387C18.1204 8.06 18.7337 7.88667 19.227 7.54C19.7337 7.19333 19.987 6.75333 19.987 6.22ZM25.5552 19.5H23.5352L32.3752 0.499999H34.3952L25.5552 19.5Z" fill="#F5F5F5"/>
</svg>
