<svg width="43" height="28" viewBox="0 0 43 28" fill="none" xmlns="http://www.w3.org/2000/svg">
<g opacity="0.4" filter="url(#filter0_d_1093_933)">
<path d="M4.92 11.44V7.06C4.92 5.68667 5.41333 4.54 6.4 3.62C7.38667 2.7 8.62 2.24 10.1 2.24C11.58 2.24 12.8133 2.7 13.8 3.62C14.7867 4.54 15.28 5.68667 15.28 7.06V11.44C15.28 12.8133 14.7867 13.96 13.8 14.88C12.8133 15.8 11.58 16.26 10.1 16.26C8.62 16.26 7.38667 15.8 6.4 14.88C5.41333 13.96 4.92 12.8133 4.92 11.44ZM7.22 7.02V11.46C7.22 12.1933 7.49333 12.8133 8.04 13.32C8.58667 13.8133 9.27333 14.06 10.1 14.06C10.9267 14.06 11.6067 13.8133 12.14 13.32C12.7 12.8133 12.98 12.1933 12.98 11.46V7.02C12.98 6.28667 12.7 5.67333 12.14 5.18C11.6067 4.68667 10.9267 4.44 10.1 4.44C9.27333 4.44 8.58667 4.68667 8.04 5.18C7.49333 5.68667 7.22 6.3 7.22 7.02ZM23.987 6.42C23.987 5.86 23.7604 5.39333 23.307 5.02C22.8404 4.63333 22.2937 4.44 21.667 4.44C21.067 4.44 20.527 4.62 20.047 4.98C19.567 5.34 19.2004 5.84 18.947 6.48L16.827 5.46C17.267 4.46 17.9137 3.67333 18.767 3.1C19.6337 2.52667 20.6004 2.24 21.667 2.24C23.0004 2.24 24.1137 2.64667 25.007 3.46C25.927 4.26 26.387 5.22667 26.387 6.36C26.387 7.05333 26.1604 7.76667 25.707 8.5C25.2537 9.23333 24.5204 10.0867 23.507 11.06L20.627 13.8H26.507V16H17.067V14.28L22.067 9.52C23.347 8.26667 23.987 7.23333 23.987 6.42ZM29.3989 19.5H27.3789L36.2189 0.499999H38.2389L29.3989 19.5Z" fill="white"/>
</g>
<defs>
<filter id="filter0_d_1093_933" x="0.919922" y="0.5" width="41.3193" height="27" filterUnits="userSpaceOnUse" color-interpolation-filters="sRGB">
<feFlood flood-opacity="0" result="BackgroundImageFix"/>
<feColorMatrix in="SourceAlpha" type="matrix" values="0 0 0 0 0 0 0 0 0 0 0 0 0 0 0 0 0 0 127 0" result="hardAlpha"/>
<feOffset dy="4"/>
<feGaussianBlur stdDeviation="2"/>
<feComposite in2="hardAlpha" operator="out"/>
<feColorMatrix type="matrix" values="0 0 0 0 0 0 0 0 0 0 0 0 0 0 0 0 0 0 0.25 0"/>
<feBlend mode="normal" in2="BackgroundImageFix" result="effect1_dropShadow_1093_933"/>
<feBlend mode="normal" in="SourceGraphic" in2="effect1_dropShadow_1093_933" result="shape"/>
</filter>
</defs>
</svg>
