<svg width="132" height="46" viewBox="0 0 132 46" fill="none" xmlns="http://www.w3.org/2000/svg">
<rect y="0.656494" width="132" height="45.3435" rx="22.6718" fill="#CDDDFF"/>
<path d="M27.054 29.8282H25.308L22.662 21.7282H24.624L26.172 26.8222L27.702 21.7282H29.466L31.014 26.8222L32.544 21.7282H34.506L31.878 29.8282H30.114L28.602 24.9502L27.054 29.8282ZM35.5281 29.8282V16.7782H37.4721V22.7182C38.0841 21.9022 38.9181 21.4942 39.9741 21.4942C40.9101 21.4942 41.6901 21.7942 42.3141 22.3942C42.9381 22.9822 43.2501 23.7382 43.2501 24.6622V29.8282H41.3061V25.2022C41.3061 24.6742 41.1261 24.2362 40.7661 23.8882C40.4061 23.5282 39.9501 23.3482 39.3981 23.3482C38.8461 23.3482 38.3841 23.5282 38.0121 23.8882C37.6521 24.2362 37.4721 24.6742 37.4721 25.2022V29.8282H35.5281ZM44.6791 25.7782C44.6791 24.5662 45.0571 23.5522 45.8131 22.7362C46.5691 21.9082 47.5111 21.4942 48.6391 21.4942C49.5751 21.4942 50.3911 21.7882 51.0871 22.3762V21.7282H53.0131V29.8282H51.0871V29.1802C50.3911 29.7682 49.5751 30.0622 48.6391 30.0622C47.5111 30.0622 46.5691 29.6542 45.8131 28.8382C45.0571 28.0222 44.6791 27.0022 44.6791 25.7782ZM51.0511 25.7782C51.0511 25.1302 50.8411 24.5782 50.4211 24.1222C50.0011 23.6662 49.4851 23.4382 48.8731 23.4382C48.2611 23.4382 47.7451 23.6662 47.3251 24.1222C46.9051 24.5782 46.6951 25.1302 46.6951 25.7782C46.6951 26.4382 46.9051 26.9962 47.3251 27.4522C47.7331 27.8962 48.2491 28.1182 48.8731 28.1182C49.4971 28.1182 50.0131 27.8962 50.4211 27.4522C50.8411 26.9962 51.0511 26.4382 51.0511 25.7782ZM54.0745 23.4202V21.7282H55.2265V20.1442H57.1705V21.7282H59.2585V23.4202H57.1705V26.9842C57.1705 27.2722 57.2665 27.5122 57.4585 27.7042C57.6505 27.8842 57.8845 27.9742 58.1605 27.9742H59.2585V29.8282H57.9985C57.2305 29.8282 56.5705 29.5822 56.0185 29.0902C55.4905 28.5982 55.2265 27.9922 55.2265 27.2722V23.4202H54.0745ZM68.7142 29.8282H66.9682L64.3222 21.7282H66.2842L67.8322 26.8222L69.3622 21.7282H71.1262L72.6742 26.8222L74.2042 21.7282H76.1662L73.5382 29.8282H71.7742L70.2622 24.9502L68.7142 29.8282ZM84.9375 26.4982H78.5115C78.6555 27.0262 78.9435 27.4582 79.3755 27.7942C79.8075 28.1182 80.3115 28.2802 80.8875 28.2802C81.6675 28.2802 82.2975 27.9922 82.7775 27.4162L84.6675 27.9742C84.2955 28.6222 83.7735 29.1322 83.1015 29.5042C82.4415 29.8762 81.7035 30.0622 80.8875 30.0622C79.6515 30.0622 78.6075 29.6542 77.7555 28.8382C76.9155 28.0342 76.4955 27.0142 76.4955 25.7782C76.4955 24.5662 76.9035 23.5522 77.7195 22.7362C78.5235 21.9082 79.5375 21.4942 80.7615 21.4942C81.9615 21.4942 82.9635 21.9082 83.7675 22.7362C84.5835 23.5522 84.9915 24.5662 84.9915 25.7782C84.9915 26.0302 84.9735 26.2702 84.9375 26.4982ZM78.5295 24.9862H82.9935C82.8375 24.4822 82.5555 24.0742 82.1475 23.7622C81.7395 23.4382 81.2655 23.2762 80.7255 23.2762C80.2095 23.2762 79.7475 23.4382 79.3395 23.7622C78.9435 24.0742 78.6735 24.4822 78.5295 24.9862ZM90.4525 25.7782C90.4525 24.5662 90.8305 23.5522 91.5865 22.7362C92.3425 21.9082 93.2845 21.4942 94.4125 21.4942C95.3485 21.4942 96.1645 21.7882 96.8605 22.3762V16.7782H98.7865V29.8282H96.8605V29.1802C96.1645 29.7682 95.3485 30.0622 94.4125 30.0622C93.2845 30.0622 92.3425 29.6542 91.5865 28.8382C90.8305 28.0222 90.4525 27.0022 90.4525 25.7782ZM96.8245 25.7782C96.8245 25.1302 96.6145 24.5782 96.1945 24.1222C95.7745 23.6662 95.2585 23.4382 94.6465 23.4382C94.0345 23.4382 93.5185 23.6662 93.0985 24.1222C92.6785 24.5782 92.4685 25.1302 92.4685 25.7782C92.4685 26.4382 92.6785 26.9962 93.0985 27.4522C93.5065 27.8962 94.0225 28.1182 94.6465 28.1182C95.2705 28.1182 95.7865 27.8962 96.1945 27.4522C96.6145 26.9962 96.8245 26.4382 96.8245 25.7782ZM104.51 21.4942C105.734 21.4942 106.754 21.9022 107.57 22.7182C108.386 23.5342 108.794 24.5542 108.794 25.7782C108.794 27.0022 108.386 28.0222 107.57 28.8382C106.754 29.6542 105.734 30.0622 104.51 30.0622C103.274 30.0622 102.248 29.6542 101.432 28.8382C100.616 28.0222 100.208 27.0022 100.208 25.7782C100.208 24.5542 100.616 23.5342 101.432 22.7182C102.248 21.9022 103.274 21.4942 104.51 21.4942ZM104.51 28.1182C105.146 28.1182 105.68 27.8962 106.112 27.4522C106.544 26.9962 106.76 26.4382 106.76 25.7782C106.76 25.1182 106.544 24.5662 106.112 24.1222C105.68 23.6662 105.146 23.4382 104.51 23.4382C103.874 23.4382 103.328 23.6662 102.872 24.1222C102.44 24.5662 102.224 25.1182 102.224 25.7782C102.224 26.4382 102.44 26.9962 102.872 27.4522C103.316 27.8962 103.862 28.1182 104.51 28.1182Z" fill="#1E1E1E"/>
</svg>
