<svg width="127" height="45" viewBox="0 0 127 45" fill="none" xmlns="http://www.w3.org/2000/svg">
<rect width="127" height="45" rx="22.5" fill="#CDDDFF"/>
<path d="M26.554 29H24.808L22.162 20.9H24.124L25.672 25.994L27.202 20.9H28.966L30.514 25.994L32.044 20.9H34.006L31.378 29H29.614L28.102 24.122L26.554 29ZM35.0281 29V15.95H36.9721V21.89C37.5841 21.074 38.4181 20.666 39.4741 20.666C40.4101 20.666 41.1901 20.966 41.8141 21.566C42.4381 22.154 42.7501 22.91 42.7501 23.834V29H40.8061V24.374C40.8061 23.846 40.6261 23.408 40.2661 23.06C39.9061 22.7 39.4501 22.52 38.8981 22.52C38.3461 22.52 37.8841 22.7 37.5121 23.06C37.1521 23.408 36.9721 23.846 36.9721 24.374V29H35.0281ZM48.4811 20.666C49.7051 20.666 50.7251 21.074 51.5411 21.89C52.3571 22.706 52.7651 23.726 52.7651 24.95C52.7651 26.174 52.3571 27.194 51.5411 28.01C50.7251 28.826 49.7051 29.234 48.4811 29.234C47.2451 29.234 46.2191 28.826 45.4031 28.01C44.5871 27.194 44.1791 26.174 44.1791 24.95C44.1791 23.726 44.5871 22.706 45.4031 21.89C46.2191 21.074 47.2451 20.666 48.4811 20.666ZM48.4811 27.29C49.1171 27.29 49.6511 27.068 50.0831 26.624C50.5151 26.168 50.7311 25.61 50.7311 24.95C50.7311 24.29 50.5151 23.738 50.0831 23.294C49.6511 22.838 49.1171 22.61 48.4811 22.61C47.8451 22.61 47.2991 22.838 46.8431 23.294C46.4111 23.738 46.1951 24.29 46.1951 24.95C46.1951 25.61 46.4111 26.168 46.8431 26.624C47.2871 27.068 47.8331 27.29 48.4811 27.29ZM62.3431 29H60.5971L57.9511 20.9H59.9131L61.4611 25.994L62.9911 20.9H64.7551L66.3031 25.994L67.8331 20.9H69.7951L67.1671 29H65.4031L63.8911 24.122L62.3431 29ZM78.5664 25.67H72.1404C72.2844 26.198 72.5724 26.63 73.0044 26.966C73.4364 27.29 73.9404 27.452 74.5164 27.452C75.2964 27.452 75.9264 27.164 76.4064 26.588L78.2964 27.146C77.9244 27.794 77.4024 28.304 76.7304 28.676C76.0704 29.048 75.3324 29.234 74.5164 29.234C73.2804 29.234 72.2364 28.826 71.3844 28.01C70.5444 27.206 70.1244 26.186 70.1244 24.95C70.1244 23.738 70.5324 22.724 71.3484 21.908C72.1524 21.08 73.1664 20.666 74.3904 20.666C75.5904 20.666 76.5924 21.08 77.3964 21.908C78.2124 22.724 78.6204 23.738 78.6204 24.95C78.6204 25.202 78.6024 25.442 78.5664 25.67ZM72.1584 24.158H76.6224C76.4664 23.654 76.1844 23.246 75.7764 22.934C75.3684 22.61 74.8944 22.448 74.3544 22.448C73.8384 22.448 73.3764 22.61 72.9684 22.934C72.5724 23.246 72.3024 23.654 72.1584 24.158ZM86.8714 18.794V20.9H88.8154V22.592H86.8714V29H84.9454V22.592H83.7034V20.9H84.9454V18.524C84.9454 17.792 85.2094 17.18 85.7374 16.688C86.2654 16.196 86.9254 15.95 87.7174 15.95H88.8154V17.822H87.8794C87.5914 17.822 87.3514 17.918 87.1594 18.11C86.9674 18.29 86.8714 18.518 86.8714 18.794ZM93.692 20.666C94.916 20.666 95.936 21.074 96.752 21.89C97.568 22.706 97.976 23.726 97.976 24.95C97.976 26.174 97.568 27.194 96.752 28.01C95.936 28.826 94.916 29.234 93.692 29.234C92.456 29.234 91.43 28.826 90.614 28.01C89.798 27.194 89.39 26.174 89.39 24.95C89.39 23.726 89.798 22.706 90.614 21.89C91.43 21.074 92.456 20.666 93.692 20.666ZM93.692 27.29C94.328 27.29 94.862 27.068 95.294 26.624C95.726 26.168 95.942 25.61 95.942 24.95C95.942 24.29 95.726 23.738 95.294 23.294C94.862 22.838 94.328 22.61 93.692 22.61C93.056 22.61 92.51 22.838 92.054 23.294C91.622 23.738 91.406 24.29 91.406 24.95C91.406 25.61 91.622 26.168 92.054 26.624C92.498 27.068 93.044 27.29 93.692 27.29ZM101.343 20.9V21.89C101.943 21.074 102.753 20.666 103.773 20.666C103.905 20.666 103.989 20.672 104.025 20.684V22.826C103.749 22.718 103.479 22.664 103.215 22.664C102.687 22.664 102.243 22.844 101.883 23.204C101.523 23.564 101.343 24.008 101.343 24.536V29H99.3992V20.9H101.343Z" fill="#1E1E1E"/>
</svg>
